<svg xmlns="http://www.w3.org/2000/svg" viewBox="0 0 337.22 217.13"><defs><style>.cls-1{isolation:isolate;}.cls-2{fill:#f9ac00;}.cls-3,.cls-39,.cls-53{fill:#371a45;}.cls-3{opacity:0.24;}.cls-4,.cls-58,.cls-6{fill:#fff;}.cls-5{fill:#46225b;}.cls-6{opacity:0.36;}.cls-38,.cls-40,.cls-7,.cls-8{fill:#675e77;}.cls-12,.cls-16,.cls-17,.cls-31,.cls-38,.cls-40,.cls-54,.cls-55,.cls-57,.cls-8{mix-blend-mode:multiply;}.cls-9{fill:#d1c7e0;}.cls-10{fill:#4a435b;}.cls-11{fill:#5d5772;}.cls-12,.cls-42,.cls-55{fill:#8a8196;}.cls-12{opacity:0.9;}.cls-13{fill:#faf3ff;}.cls-14{fill:#d5b4ef;}.cls-14,.cls-58{opacity:0.22;}.cls-15{fill:#ffcd97;opacity:0.12;mix-blend-mode:luminosity;}.cls-16,.cls-17{fill:#9e96aa;}.cls-16{opacity:0.17;}.cls-17{opacity:0.29;}.cls-18{fill:#e59007;}.cls-19{fill:#f7a328;}.cls-20{fill:#ffccc0;opacity:0.65;}.cls-21{fill:#ffdcd7;opacity:0.78;}.cls-22{fill:#ef9506;}.cls-23{fill:#b76800;}.cls-23,.cls-41{opacity:0.43;}.cls-24{fill:#ffba5f;opacity:0.11;}.cls-25{fill:#fffefd;}.cls-26{fill:#e58905;}.cls-27{fill:#bf6902;}.cls-28{fill:#f2f6f9;}.cls-29{fill:#ffa836;}.cls-30{fill:#ffae43;}.cls-31{fill:#fce5e4;}.cls-32{fill:#47270b;}.cls-33{fill:#381807;}.cls-34{fill:#3d271c;}.cls-35{fill:#ff6669;}.cls-36{fill:#ffa27d;}.cls-37{fill:#ffac3e;}.cls-38{opacity:0.32;}.cls-40{opacity:0.54;}.cls-43{opacity:0.69;}.cls-44{fill:#8c9695;}.cls-45{opacity:0.7;}.cls-46{opacity:0.53;}.cls-47{fill:#2b1135;}.cls-48{opacity:0.23;}.cls-49{opacity:0.18;}.cls-50{fill:#9aef37;}.cls-51{opacity:0.35;}.cls-52{fill:#ffd524;}.cls-53{opacity:0.63;}.cls-54{opacity:0.47;}.cls-55,.cls-57{opacity:0.56;}.cls-56{fill:#b27ddb;}.cls-57{fill:#453d51;}</style></defs><title>Asset 1ldpi</title><g class="cls-1"><g id="Layer_2" data-name="Layer 2"><g id="Layer_1-2" data-name="Layer 1"><path class="cls-2" d="M0,78.22s0,1.43,0,4.1S.09,88.93.37,94A179.15,179.15,0,0,0,2.17,112,112.58,112.58,0,0,0,8,135.14a70.87,70.87,0,0,0,14.9,24.43,51.21,51.21,0,0,0,5.76,5.32c1,.83,2.08,1.66,3.14,2.49s2.26,1.44,3.41,2.17,2.25,1.48,3.55,2.1l4,1.8,4.36,1.13c1.48.27,3,.32,4.53.47a33.24,33.24,0,0,0,17.43-4.7A41.59,41.59,0,0,0,82.4,158a34.84,34.84,0,0,0,4.32-8.39,24.14,24.14,0,0,0,1.47-10,16.59,16.59,0,0,0-4.32-10.14,15.59,15.59,0,0,0-10.24-4.94,16,16,0,0,0-10.93,3.3,26.66,26.66,0,0,0-2.12,2c-.59.75-1.18,1.52-1.69,2.28a34.23,34.23,0,0,0-2.25,4.39,27.75,27.75,0,0,0-2.19,9.76,28.35,28.35,0,0,0,1.48,9.81,37.35,37.35,0,0,0,10.41,15.51,51.86,51.86,0,0,0,15,9.47,55.11,55.11,0,0,0,32.93,3,47.76,47.76,0,0,0,7.52-2.28l3.55-1.33c1.17-.47,2.27-1.1,3.39-1.64s2.24-1.1,3.31-1.69l3.09-2a46.32,46.32,0,0,0,5.7-4.35,56.83,56.83,0,0,0,14.7-20.52,108.55,108.55,0,0,0,5.81-17.87L164,121.21l1-3.69-10.74-3.12-1.06,4.18c-.57,2.6-1.4,6.42-2.46,11.27A98.56,98.56,0,0,1,145.78,146,46.6,46.6,0,0,1,134,163.17c-5.55,5.11-13.38,9.14-21.92,11.42a45.47,45.47,0,0,1-27.31-2.05A42.47,42.47,0,0,1,72.31,165a28.7,28.7,0,0,1-8.24-11.7,18.65,18.65,0,0,1,.23-13.65,25.54,25.54,0,0,1,1.59-3.24l.85-1.21c.36-.31.66-.69,1-1a8,8,0,0,1,5.3-1.71,8.1,8.1,0,0,1,7.47,7.81c.42,4.37-1.51,9.34-4.25,13.51-5.56,8.43-15.09,14.54-24.49,14.43-1.16-.12-2.33-.12-3.48-.3l-3.37-.81-3.2-1.36c-1.07-.48-2.1-1.22-3.14-1.81s-2.11-1.22-3.11-1.88l-2.84-2.18a45.18,45.18,0,0,1-5.25-4.68,64.94,64.94,0,0,1-14-22.16,107.24,107.24,0,0,1-5.89-21.88,173.21,173.21,0,0,1-2-17.54c-.37-4.89-.47-8.76-.54-11.4s-.1-4-.1-4Z"/><path class="cls-2" d="M.05,83.7,5,84.54c-.06-.85-.09-1.61-.09-2.31-.06-2.62-.1-4-.1-4L0,78.22s0,1.43,0,4.09C0,82.75,0,83.19.05,83.7Z"/><path class="cls-3" d="M65.89,136.4l.85-1.21c.36-.31.66-.69,1-1a8,8,0,0,1,5.3-1.71,8.1,8.1,0,0,1,7.47,7.81,15.06,15.06,0,0,1,0,2.42,16.27,16.27,0,0,0,.67-5.92A8.1,8.1,0,0,0,73.72,129a7.91,7.91,0,0,0-5.3,1.71c-.36.3-.67.68-1,1l-.85,1.21A23.24,23.24,0,0,0,65,136.15a18.23,18.23,0,0,0-1.26,5.45,20.06,20.06,0,0,1,.6-2A25.54,25.54,0,0,1,65.89,136.4Z"/><path class="cls-3" d="M164.69,117.44c0,.1,0,.17-.07.28L162,128.88a108,108,0,0,1-5.82,17.86,56.7,56.7,0,0,1-14.69,20.53,45.58,45.58,0,0,1-5.7,4.35l-3.09,2c-1.08.59-2.2,1.13-3.31,1.69s-2.23,1.16-3.39,1.64l-3.55,1.33a48.29,48.29,0,0,1-7.51,2.28,55.06,55.06,0,0,1-32.94-3,51.66,51.66,0,0,1-14.85-9.35h0a39,39,0,0,1-5-5.44h0a33.9,33.9,0,0,1-5.52-10.17,28.35,28.35,0,0,1-1.48-9.81c0-.73.09-1.45.18-2.16a26.86,26.86,0,0,0-.84,5.66,28.35,28.35,0,0,0,1.48,9.81,33.26,33.26,0,0,0,3.7,7.6h0a42.9,42.9,0,0,0,4.49,5.8,31,31,0,0,1-11.81,2.1c-1.51-.14-3-.2-4.53-.46l-4.35-1.15-4-1.79c-1.29-.62-2.36-1.41-3.54-2.1s-2.31-1.41-3.41-2.17l-3.15-2.49a52,52,0,0,1-5.75-5.32,70.68,70.68,0,0,1-14.9-24.43,113.24,113.24,0,0,1-5.8-23.1A175.94,175.94,0,0,1,1,90.45c-.29-5-.32-9-.36-11.63v-.61H0s0,1.43,0,4.1S.09,88.93.37,94A179.15,179.15,0,0,0,2.17,112,112.58,112.58,0,0,0,8,135.14a70.87,70.87,0,0,0,14.9,24.43,51.21,51.21,0,0,0,5.76,5.32c1,.83,2.08,1.66,3.14,2.49s2.26,1.44,3.41,2.17,2.25,1.48,3.55,2.1l4,1.8,4.36,1.13c1.48.27,3,.32,4.53.47a32.44,32.44,0,0,0,14.8-3.38A52,52,0,0,0,81.31,181a55.11,55.11,0,0,0,32.93,3,47.76,47.76,0,0,0,7.52-2.28l3.55-1.33c1.17-.47,2.27-1.1,3.39-1.64s2.24-1.1,3.31-1.69l3.09-2a45.58,45.58,0,0,0,5.7-4.35,56.83,56.83,0,0,0,14.7-20.52,108.55,108.55,0,0,0,5.81-17.87L164,121.21l1-3.69Z"/><path class="cls-3" d="M87.38,146.08a34.75,34.75,0,0,1-4.33,8.4,42.36,42.36,0,0,1-8,8.64c-1.62,1.42-1.93,1.56-2.52,2,.75.63,1.27,1.08,1.89,1.54.61-.52,1.49-1.27,2.47-2.24A43,43,0,0,0,82.4,158a34.84,34.84,0,0,0,4.32-8.39A22.81,22.81,0,0,0,88,144C87.84,144.73,87.64,145.42,87.38,146.08Z"/><path class="cls-3" d="M62.21,173.43a29.66,29.66,0,0,0,4.28-1.72c-.86-.81-1.65-1.59-2.37-2.35a34.64,34.64,0,0,1-2.66-3.09.46.46,0,0,1-.2,0,16.88,16.88,0,0,1-2.16.78A21.78,21.78,0,0,0,62.21,173.43Z"/><path class="cls-4" d="M249.91,99c-.12-.23-.24-.45-.35-.69a10.66,10.66,0,0,1-.81-2.34c-.08-.4-.13-.8-.17-1.18a8.43,8.43,0,0,1,0-1.41,11.62,11.62,0,0,1,.46-2.58,13,13,0,0,1,1-2.29,18.16,18.16,0,0,1,1.23-2,19.79,19.79,0,0,1,5.06-5,11.08,11.08,0,0,1,2.22-1.13,20.38,20.38,0,0,1,2.46-.7,20.62,20.62,0,0,1,5-.51,24.9,24.9,0,0,1,4.76.5,38.07,38.07,0,0,1,4.17,1.2c1.18.4,2.33.78,3.52,1.1s2.31.57,3.46.79c1.39.25,2.88.47,4.56.66,1.38.15,2.86.24,4.52.27,1,0,2.06,0,3.21-.09,1.41-.1,2.86-.25,4.31-.45a40.2,40.2,0,0,0,4.58-.94c.88-.24,1.69-.48,2.46-.73a30.86,30.86,0,0,0,6.79-3.34A22.69,22.69,0,0,0,315,75.87c.74-.71,1.47-1.5,2.4-2.57l1-1.23c.36-.44.72-.88,1.1-1.32a1.46,1.46,0,0,1,.16-.19l.24-.27a6.72,6.72,0,0,1,1-1,5.42,5.42,0,0,1,1.08-.67,4.49,4.49,0,0,1,.7-.24,3.68,3.68,0,0,1,.56-.06,2.22,2.22,0,0,1,.45.06h.08a1.53,1.53,0,0,1,.84.53,2.29,2.29,0,0,1,.15.24,2,2,0,0,1,.19.48,2.32,2.32,0,0,1,.06.45v0a8.58,8.58,0,0,1-.12,2,19.55,19.55,0,0,1-.71,2.76,27.93,27.93,0,0,1-.9,3.46c-.26.79-.57,1.55-.84,2.19s-.69,1.55-1.17,2.5a35.16,35.16,0,0,1-2.4,4.11c-.66,1-1.36,1.88-2.07,2.72l0,0c-.68.8-1.29,1.48-1.86,2.11s-1.08,1.17-1.69,1.76a45,45,0,0,1-3.63,3.19,48.4,48.4,0,0,1-4.26,3c-1.32.81-2.73,1.6-4.32,2.41-1.3.66-2.81,1.42-4.33,2s-3.19,1.25-4.73,1.74c-1.8.58-3.29,1-4.69,1.36-1.6.41-3.2.75-4.76,1-.82.13-1.65.21-2.43.28s-1.77.14-2.63.16-1.53,0-2.39,0-1.66-.06-2.44-.1c-1.47-.09-3-.26-4.79-.51-1.6-.23-3.31-.48-5-.84a22.46,22.46,0,0,1-2.26-.58c-.35-.11-.69-.22-1-.35s-.87-.35-1.19-.5l.06,0-.07,0-.06,0-.12,0,.08,0a10.15,10.15,0,0,1-1.1-.56c-.34-.2-.67-.41-1-.61-.61-.4-1.21-.82-1.79-1.24s-1.11-.82-1.71-1.34l-.06,0,0,0a1.31,1.31,0,0,1-.31-.27l0,0-.11-.1-.11-.1c-.15-.13-.28-.27-.41-.4s-.45-.48-.72-.81A10.82,10.82,0,0,1,249.91,99Z"/><path class="cls-4" d="M322.52,61.36a8.62,8.62,0,0,1,1.39,2.33,1.51,1.51,0,0,1,.28-.15c.85-1.31,2.51-3.31,3.08-4.16.94-1.4,2.14-1.69,3.07-.75s-.34,3.24-.91,4.24c-.26.46-.49,1-.73,1.43l.11.09a14.6,14.6,0,0,1,2.92-2.6c1-.67,2.46-1.3,3.16,0,.45.85-1.35,3.1-2.19,3.89-.51.48-1,1-1.49,1.5a2.72,2.72,0,0,1,.11.25c.94-.64,1.93-1,3-1.64,1.33-.77,2.64-.36,2.88.92.29,1.46-2,2.91-3,3.44-.78.41-1.54.55-2.35.9-.21.09-.44.15-.66.23-.9,1.45-3,3.28-4.9,3a2.14,2.14,0,0,1-.06.35s0,0,0,0a1.25,1.25,0,0,1-1.24,1.1,4.08,4.08,0,0,1-3-.86c-1.24-1-3.05-3-2.76-4.8a2,2,0,0,1,1.4-1.44,5.41,5.41,0,0,1-.33-1.27c-.2-1.34.69-2.83.14-4.12-.28-.64-1.1-1.82-.65-2.55C320.5,59.56,322,60.76,322.52,61.36Z"/><ellipse class="cls-4" cx="323.57" cy="75.27" rx="1.48" ry="3.76" transform="translate(243.79 397.76) rotate(-89.2)"/><ellipse class="cls-4" cx="322.34" cy="73.65" rx="3.64" ry="1.53" transform="translate(-8.25 67.65) rotate(-11.83)"/><ellipse class="cls-4" cx="320.9" cy="72.74" rx="3.49" ry="1.6" transform="translate(65.3 279.95) rotate(-51.8)"/><ellipse class="cls-4" cx="319.39" cy="71.88" rx="3.6" ry="1.55" transform="translate(181.17 368.65) rotate(-77.71)"/><path class="cls-5" d="M322.41,80.7c-3.09.44-7.34-3.17-6.62-5.58-1.75.84-1.63,1.83-1.54,2.53.19,1.52,4.17,4.61,6,4.81C321.65,82.61,322.21,82.33,322.41,80.7Z"/><path class="cls-5" d="M318.71,88.17c-4.66-.35-10.2-5.55-9.09-8.6-1,.48-1.76.79-2,1.71-1.41,4.88,6.06,9.06,8.3,8.91A2.79,2.79,0,0,0,318.71,88.17Z"/><path class="cls-6" d="M317.44,74.64c-10.3,20.09-37.32,9.74-37.32,9.74S310.51,88.33,317.44,74.64Z"/><path class="cls-7" d="M201.7,83.36c.11-.23.21-.47.31-.7a10.81,10.81,0,0,0,.66-2.39,8.31,8.31,0,0,0,.1-1.19,8.05,8.05,0,0,0-.05-1.41,11.64,11.64,0,0,0-.62-2.55A12.78,12.78,0,0,0,201,72.9,15.55,15.55,0,0,0,199.65,71a22.35,22.35,0,0,0-1.8-2,19.87,19.87,0,0,0-3.56-2.7,10.31,10.31,0,0,0-2.27-1,21.23,21.23,0,0,0-7.49-.77,25.66,25.66,0,0,0-4.73.79,37.23,37.23,0,0,0-4.09,1.45c-1.15.47-2.27.92-3.45,1.31s-2.26.71-3.4,1c-1.37.34-2.85.64-4.51.93-1.37.24-2.84.42-4.5.55-1,.08-2.06.11-3.2.11-1.42,0-2.88-.09-4.33-.2a37.46,37.46,0,0,1-4.64-.66c-.89-.18-1.71-.37-2.49-.58a30,30,0,0,1-7-2.93,21.9,21.9,0,0,1-2.92-2.13c-.77-.66-1.56-1.41-2.55-2.42l-1.08-1.16-1.18-1.26a1.37,1.37,0,0,0-.17-.17l-.26-.27A7,7,0,0,0,129,58a5.68,5.68,0,0,0-1.12-.6,3.28,3.28,0,0,0-.72-.2,2.63,2.63,0,0,0-.56,0,1.7,1.7,0,0,0-.44.08l-.08,0a1.44,1.44,0,0,0-.8.58,1.62,1.62,0,0,0-.14.24,2,2,0,0,0-.17.5,2.22,2.22,0,0,0,0,.45v0a8.35,8.35,0,0,0,.23,2,21.49,21.49,0,0,0,.87,2.71,29.33,29.33,0,0,0,1.11,3.4c.31.77.66,1.51,1,2.13s.79,1.51,1.32,2.43a36.28,36.28,0,0,0,2.65,4,33.64,33.64,0,0,0,2.23,2.58l0,0c.73.76,1.38,1.41,2,2s1.14,1.1,1.79,1.65a44.72,44.72,0,0,0,3.81,3,48.76,48.76,0,0,0,4.44,2.73c1.36.73,2.82,1.44,4.46,2.15,1.33.58,2.88,1.24,4.44,1.78s3.26,1,4.83,1.45c1.83.46,3.34.8,4.76,1.07,1.62.31,3.24.55,4.81.71.83.09,1.66.12,2.44.14s1.78,0,2.64,0,1.53-.06,2.39-.12,1.65-.15,2.43-.24c1.46-.18,3-.44,4.75-.8,1.58-.33,3.27-.68,4.94-1.14a23.22,23.22,0,0,0,2.22-.72l1-.4c.44-.19.85-.41,1.16-.58l-.06,0,.07,0,.06,0,.12-.06-.08,0c.42-.22.75-.43,1.06-.63s.65-.45.95-.67c.58-.43,1.16-.89,1.71-1.35s1-.88,1.62-1.43l.06-.05,0,0a1.58,1.58,0,0,0,.3-.28.08.08,0,0,1,0,0l.1-.11.11-.11c.13-.13.26-.28.38-.42s.42-.51.67-.85A11.45,11.45,0,0,0,201.7,83.36Z"/><path class="cls-7" d="M126.71,50.54A8.32,8.32,0,0,0,125.5,53l-.3-.13c-.94-1.24-2.73-3.12-3.36-3.93-1-1.33-2.26-1.54-3.12-.53s.57,3.21,1.21,4.16c.29.45.55.92.83,1.38a.52.52,0,0,1-.11.1,14.36,14.36,0,0,0-3.09-2.39c-1.06-.6-2.54-1.12-3.15.25-.39.88,1.56,3,2.45,3.72.55.44,1,.95,1.6,1.39l-.1.25c-1-.56-2-.87-3.1-1.41-1.37-.68-2.65-.18-2.8,1.11-.18,1.48,2.22,2.76,3.27,3.22.8.35,1.57.44,2.4.73.22.08.45.12.68.18,1,1.38,3.23,3.06,5.1,2.65a2.09,2.09,0,0,0,.08.34s0,0,0,0a1.26,1.26,0,0,0,1.32,1,4,4,0,0,0,2.9-1.08c1.16-1.1,2.83-3.2,2.42-5a2,2,0,0,0-1.5-1.35,5.34,5.34,0,0,0,.24-1.28c.1-1.35-.89-2.78-.43-4.1.22-.66,1-1.9.46-2.59C128.6,48.6,127.17,49.91,126.71,50.54Z"/><ellipse class="cls-7" cx="126.65" cy="64.49" rx="3.76" ry="1.48" transform="translate(-5.01 10.96) rotate(-4.86)"/><ellipse class="cls-7" cx="127.76" cy="62.79" rx="1.53" ry="3.64" transform="translate(48.28 180.89) rotate(-82.23)"/><ellipse class="cls-7" cx="129.14" cy="61.77" rx="1.6" ry="3.49" transform="translate(-7.98 102.9) rotate(-42.26)"/><ellipse class="cls-7" cx="130.58" cy="60.81" rx="1.55" ry="3.6" transform="translate(-11.84 39.22) rotate(-16.35)"/><path class="cls-5" d="M129.51,72c-.3-3.21,4.18-8,6.63-7.08A3.38,3.38,0,0,0,133,63.36c-2.16.43-5.09,4.68-5.31,6.14A2.64,2.64,0,0,0,129.51,72Z"/><path class="cls-5" d="M134.23,78.81c0-4.26,6-11.11,8.9-10.23a3.34,3.34,0,0,0-3.71-1.74c-2.68.82-6.75,6.84-7.18,8.82A2.85,2.85,0,0,0,134.23,78.81Z"/><path class="cls-8" d="M190.66,62c6.33.62,12.79,27.67-3.19,33.57C137.4,99.62,127.11,67.86,126.53,66,131.63,75.18,172.41,89.27,190.66,62Z"/><path class="cls-9" d="M171.27,169.65c-5.59-3.9-15-.14-20.92,8.41s-6.28,18.63-.7,22.53,11.69-5.32,20.92-8.4C180.45,188.89,176.85,173.56,171.27,169.65Z"/><path class="cls-10" d="M174.69,171.33c-5.58-3.9-12.74-5.72-21.35,3.11-10.23,10.49-9.27,22.25-3.69,26.15s11.69-5.32,20.92-8.4C180.45,188.89,180.28,175.23,174.69,171.33Z"/><path class="cls-11" d="M172.21,179.58c-5.58-3.91-4.31-8.27-12.92.56-10.23,10.49-15.22,16.55-9.64,20.45s11.69-5.32,20.92-8.4C180.45,188.89,177.79,183.48,172.21,179.58Z"/><path class="cls-4" d="M207.18,180.42c-6.57,1.78-9.69,11.38-7,21.44s10.27,16.77,16.84,15,3.41-12.38,7-21.44C227.83,185.7,213.76,178.63,207.18,180.42Z"/><path class="cls-12" d="M207.18,180.42c-6.57,1.78-9.69,11.38-7,21.44s10.27,16.77,16.84,15-17.2-3.21-8.41-22.23C213,185.15,213.76,178.63,207.18,180.42Z"/><path class="cls-13" d="M268.5,95.63c1.13-43.38-46.39-67.43-81.58-35.45C93.23,161.27,174,183.85,179.28,185.6c2.82.94,30.39,12.1,50.34,5.27C249.73,184,267.68,160.23,268.5,95.63Z"/><path class="cls-14" d="M265.58,76.54C250.77,38.79,210.26,39,186.92,60.18,93.23,161.27,174,183.85,179.28,185.6c1.1.37,20.72,9.23,36.23,7.47,6.06.1,10.57-.62,14.45-2.78C195.79,173.15,239.7,94.69,265.58,76.54Z"/><path class="cls-15" d="M186.92,60.18c-93.69,101.09-7.64,125.42-7.64,125.42S114.43,163.14,186.92,60.18Z"/><path class="cls-12" d="M176.81,71.44c-45.7,53.9-37.56,81.4-27,95.19a55.83,55.83,0,0,0,6.4,6.6c4.15,3.93,13.31,9,16.35,10,10.76,3.78,36,14.64,59.29,6.9-29.83-2.83-96.37-36.75-23.71-112.45,7.48-7.8-19.38-7.09-11.56-18.91-4.4,2.59-10.23,3.61-15.59,7.94A40.56,40.56,0,0,0,176.81,71.44Z"/><path class="cls-12" d="M180.53,66.74c-48.75,55.06-41.28,86.1-30.72,99.89a55.83,55.83,0,0,0,6.4,6.6c4.15,3.93,13.31,9,16.35,10,10.76,3.78,36,14.64,59.29,6.9-145.94-9-43.72-119.18-35.9-131C190.47,62.38,186.56,59.93,180.53,66.74Z"/><ellipse class="cls-16" cx="231.17" cy="87.41" rx="26.58" ry="35.26" transform="translate(92.67 292.1) rotate(-76.63)"/><ellipse class="cls-17" cx="231.46" cy="83.79" rx="24.71" ry="32.85" transform="translate(86.79 282.95) rotate(-73.91)"/><path class="cls-18" d="M265.27,31.7c-.14-1.55,7.3-6.14,10.34-.22,2.1,4.1,10.68,12.81,3.62,18a7.47,7.47,0,0,1-8.72.29S267.86,34.12,265.27,31.7Z"/><path class="cls-19" d="M275.61,31.48c2.1,4.1,10.68,12.81,3.62,18a7.47,7.47,0,0,1-8.72.29S289.13,52.24,275.61,31.48Z"/><path class="cls-20" d="M266.14,33c-.1-1.24,5.64-4.69,8.05,0,1.68,3.26,8.51,10.21,2.89,14.33a6,6,0,0,1-6.94.23S268,36.24,266.14,33Z"/><path class="cls-21" d="M274.19,33.05c1.68,3.26,8.51,10.21,2.89,14.33a6,6,0,0,1-6.94.23S280.41,46.2,274.19,33.05Z"/><path class="cls-22" d="M262.17,88.06s2.27,5.28-.15,8.6c5.81-1.4,11.26-15.7,11.26-15.7s.41,8.4.6,6.45a27.61,27.61,0,0,0,2-17A7.33,7.33,0,0,1,279.51,72c1.87-4.08-3.85-13.33-3.85-13.33s1.06,1.87,5.18,3.41c-12.11-13.53.15-36.63-41.15-42.17-39-6.54-36.07,20-52.72,26.49l7.9-1.72S186.94,48.64,184.61,56l3.78.11s-4.8,4.76-4.35,17.51c1.55-2.37,5.3-7,5.3-7s-1.36,12.28,4.45,18c.68,1,3.73-7.55,3.73-7.55,2.26,7,5.3,12,29.88,16.14C258.57,98.42,262.17,88.06,262.17,88.06Z"/><path class="cls-23" d="M262.17,88.06s2.27,5.28-.15,8.6c5.81-1.4,11.26-15.7,11.26-15.7s.37,8,.55,6.08a26.69,26.69,0,0,0,2.06-16.63A7.33,7.33,0,0,1,279.51,72c1.87-4.08-3.85-13.33-3.85-13.33s1.06,1.87,5.18,3.41c-12.11-13.53.15-36.63-41.15-42.17,47.23,22.71,15.36,71.61-12.29,73.25C258.57,98.42,262.17,88.06,262.17,88.06Z"/><path class="cls-24" d="M239.69,19.94c-39-6.54-36.07,20-52.72,26.49l7.9-1.72S186.94,48.64,184.61,56l3.78.11s-4.77,5.8-4.32,18.55l5.27-8.07s-1.36,12.28,4.45,18c.68,1,3.73-7.55,3.73-7.55,2.26,7,5.3,12,29.88,16.14C221.06,88.68,161.3,49.21,239.69,19.94Z"/><path class="cls-25" d="M253,22.5c-15.82,36.13,25.32,41.32-.2,72.06-6.93,4.42-33.58-1.59-39-4.36-20.26-36.41,30.36-40.13,19.32-71.08A75.07,75.07,0,0,1,253,22.5Z"/><path class="cls-26" d="M261.41,44.29c2.77-3.83-.22-6-3.43-5.19-10.54,4.13-1.8,16.33-1.8,16.33S256,51.72,261.41,44.29Z"/><path class="cls-26" d="M218.93,37.16c-1.37-4.52,2.17-5.63,4.93-3.78,8.62,7.34-3.63,16-3.63,16S221.6,45.94,218.93,37.16Z"/><path class="cls-27" d="M209.56,37.22a.73.73,0,0,0,.35-.3,7.65,7.65,0,0,1,2.92-2.54,6.13,6.13,0,0,1,4-.56.7.7,0,0,0,.86-.49.69.69,0,0,0-.49-.85,7.46,7.46,0,0,0-5,.66,8.69,8.69,0,0,0-3.48,3.07.69.69,0,0,0,.24.95A.71.71,0,0,0,209.56,37.22Z"/><path class="cls-27" d="M270.45,48.71a.69.69,0,0,0,.55.21.7.7,0,0,0,.65-.75,9,9,0,0,0-1.78-4.29,7.48,7.48,0,0,0-4.17-2.78.7.7,0,0,0-.26,1.37,6.1,6.1,0,0,1,3.32,2.25,7.44,7.44,0,0,1,1.5,3.56A.68.68,0,0,0,270.45,48.71Z"/><path class="cls-28" d="M264.47,62.8a0,0,0,0,0,0,0,.08.08,0,0,0,.05-.11c0-.07-.92-1.79-8.73-7a74,74,0,0,0-9.35-5.16.07.07,0,0,0-.11,0,.08.08,0,0,0,0,.11,76.12,76.12,0,0,1,9.32,5.15c7.74,5.21,8.66,7,8.67,7A.07.07,0,0,0,264.47,62.8Z"/><path class="cls-28" d="M260.68,67.3h0a.09.09,0,0,0,.07-.11c0-.07-.46-2-6.8-8.91A77.22,77.22,0,0,0,246.14,51a.08.08,0,0,0-.12,0,.08.08,0,0,0,0,.12,76.85,76.85,0,0,1,7.83,7.22c6.27,6.9,6.75,8.82,6.75,8.84A.12.12,0,0,0,260.68,67.3Z"/><path class="cls-18" d="M214.28,23.74c.63-1.42-4.9-8.19-9.7-3.58-3.32,3.18-14.27,8.62-9.29,15.82a7.45,7.45,0,0,0,8.14,3.11S211.05,25.18,214.28,23.74Z"/><path class="cls-29" d="M204.58,20.16c-3.32,3.18-14.27,8.62-9.29,15.82,3.21,4.65,6.86,3.27,8.14,3.11C186.83,34.66,198.72,25.38,204.58,20.16Z"/><path class="cls-20" d="M213,24.69c.5-1.13-3.8-6.26-7.62-2.59C202.74,24.64,194,29,198,34.7a6,6,0,0,0,6.53,2.49S210.34,27.13,213,24.69Z"/><path class="cls-21" d="M205.39,22.1C202.74,24.64,194,29,198,34.7a6,6,0,0,0,6.53,2.49S193.26,33.34,205.39,22.1Z"/><path class="cls-28" d="M212.39,54.07a.11.11,0,0,0,.08,0s1.45-1.37,10.47-3.76a77.22,77.22,0,0,1,10.49-1.83.07.07,0,0,0,.07-.09.08.08,0,0,0-.09-.08,76.06,76.06,0,0,0-10.52,1.83c-9.1,2.42-10.49,3.76-10.54,3.81a.07.07,0,0,0,0,.12S212.38,54.06,212.39,54.07Z"/><path class="cls-28" d="M214.51,59.55a.08.08,0,0,0,.09,0s1.09-1.67,9.27-6.15a75.1,75.1,0,0,1,9.75-4.27.1.1,0,0,0,.06-.11.09.09,0,0,0-.12,0,75.09,75.09,0,0,0-9.78,4.28c-8.26,4.52-9.29,6.15-9.33,6.21a.09.09,0,0,0,0,.12Z"/><path class="cls-30" d="M197.11,38.17c3.17,5-10.14,8.26-10.14,8.26S191.74,45.39,197.11,38.17Z"/><path class="cls-30" d="M195,44.83A20.51,20.51,0,0,0,184.61,56s3.83.25,4.95.15C187.24,55.13,191.18,47.55,195,44.83Z"/><path class="cls-30" d="M189,54.67c-5.72,5.93-4.39,17.81-4.39,17.81s.73-12.67,8.83-18.3C192.78,54.11,189.18,54.87,189,54.67Z"/><path class="cls-30" d="M195.14,58.37c-.63.48-5.78,6-6.64,7-2.52,15.26,2.4,18.43,2.4,18.43S187.75,70.22,195.14,58.37Z"/><path class="cls-30" d="M198.81,68.34c-.41.94-2.88,6.28-3.71,7.93-1,9.39,11.28,16,11.28,16S194.31,80.78,198.81,68.34Z"/><path class="cls-31" d="M277.67,61.72c-.42,3.07-4.66,5-9.46,4.37s-8.37-3.67-7.95-6.74,4.65-5,9.46-4.37S278.08,58.66,277.67,61.72Z"/><path class="cls-31" d="M218.1,53.22c-.42,3.07-5,5-10.32,4.25s-9.23-3.78-8.81-6.85,5-5,10.32-4.26S218.52,50.16,218.1,53.22Z"/><path class="cls-32" d="M265,49a4.25,4.25,0,0,1-3.22,5,4.17,4.17,0,0,1-4.54-3.77,4.24,4.24,0,0,1,3.22-5A4.15,4.15,0,0,1,265,49Z"/><path class="cls-33" d="M263.57,49.66a2.58,2.58,0,0,1-2,3,2.53,2.53,0,0,1-2.77-2.29,2.59,2.59,0,0,1,2-3A2.54,2.54,0,0,1,263.57,49.66Z"/><path class="cls-4" d="M261.16,48.06A1.55,1.55,0,0,1,260,49.94a1.58,1.58,0,0,1-1.89-1.14,1.53,1.53,0,0,1,1.11-1.88A1.59,1.59,0,0,1,261.16,48.06Z"/><path class="cls-4" d="M263.58,49.75a1,1,0,0,1-.75,1.25,1.05,1.05,0,0,1-1.26-.76,1,1,0,0,1,.74-1.25A1.07,1.07,0,0,1,263.58,49.75Z"/><path class="cls-32" d="M215.79,42.16a4.24,4.24,0,0,0,1.51,5.75,4.16,4.16,0,0,0,5.48-2.16,4.24,4.24,0,0,0-1.5-5.75A4.16,4.16,0,0,0,215.79,42.16Z"/><path class="cls-33" d="M217,43.2a2.58,2.58,0,0,0,.92,3.5,2.53,2.53,0,0,0,3.35-1.31,2.59,2.59,0,0,0-.92-3.51A2.53,2.53,0,0,0,217,43.2Z"/><path class="cls-4" d="M219.78,42.44a1.53,1.53,0,0,0,.47,2.12,1.57,1.57,0,0,0,2.16-.49,1.52,1.52,0,0,0-.47-2.12A1.57,1.57,0,0,0,219.78,42.44Z"/><path class="cls-4" d="M217,43.28a1,1,0,0,0,.32,1.42,1,1,0,0,0,1.43-.32,1,1,0,0,0-.31-1.42A1.06,1.06,0,0,0,217,43.28Z"/><path class="cls-34" d="M230.12,64c-.29,4.56,2.85,7.09,6.26,7.65s7.16-.5,7.87-4.85c.56-3.4,1.59-5.1,1.19-11.77-3.73,4.45-6.32-.17-6.63-.29-.5-.19-3.42,4-6.25-1.46C232.08,56.25,230.43,59.05,230.12,64Z"/><path class="cls-35" d="M230.13,65.35c4.26-1.39,12.32.68,14,2.14-.29,1.81-1.87,5.37-8.05,4.3C231.3,71,230.42,68.15,230.13,65.35Z"/><path class="cls-4" d="M240,56.4c0,.16-.1.88-.13,1.1s-.06.18-.1.18l-2.53-.29c-.05,0-.08-.1-.06-.2s.1-.95.12-1.12l1.42-1.33Z"/><path class="cls-32" d="M241.72,57.41a3.6,3.6,0,0,0,4.12-3,.32.32,0,0,0-.64-.1,2.95,2.95,0,0,1-5.82-.94l.64-4a.32.32,0,0,0-.27-.37.32.32,0,0,0-.37.27l-.64,4A3.59,3.59,0,0,0,241.72,57.41Z"/><path class="cls-32" d="M235.27,56.38a3.59,3.59,0,0,0,4.11-3l.64-4a.32.32,0,0,0-.27-.37.32.32,0,0,0-.37.27l-.64,4a2.95,2.95,0,0,1-5.82-.93.32.32,0,0,0-.26-.37.31.31,0,0,0-.37.26A3.59,3.59,0,0,0,235.27,56.38Z"/><path class="cls-36" d="M239.29,52c.51.08,4.52-.59,4.81-2.37.34-2.12-2.58-2.59-4-2.81s-4.33-.7-4.67,1.42C235.17,50,238.57,51.84,239.29,52Z"/><path class="cls-36" d="M240.06,47.12c2.2.35,3.94.91,3.69,2.41s-4,2.15-4.41,2.08c-.67-.1-3.78-1.85-3.54-3.35s2.06-1.49,4.26-1.14m.11-.69c-1.4-.22-4.66-.74-5.06,1.72-.33,2,3.22,4,4.12,4.15.43.07,4.87-.51,5.21-2.66.4-2.46-2.87-3-4.27-3.21Z"/><path class="cls-22" d="M269.44,35.71s2.39-.66,3-1.47a8.77,8.77,0,0,1-1.94,4.3s2.9-.52,3.71-1.88c0,1.73-2,4.36-2,4.36a2,2,0,0,0,1.65-.52c-.09,3.76-1.76,4.62-1.76,4.62l-2.62-5.37Z"/><path class="cls-23" d="M269.44,35.71s2.39-.66,3-1.47a8.77,8.77,0,0,1-1.94,4.3s2.9-.52,3.71-1.88c0,1.73-2,4.36-2,4.36a2,2,0,0,0,1.65-.52c-.09,3.76-1.76,4.62-1.76,4.62l-2.62-5.37Z"/><path class="cls-22" d="M211.61,27.26s-2-1.45-2.26-2.4a8.72,8.72,0,0,0,.33,4.7s-2.54-1.5-2.83-3c-.56,1.64.39,4.8.39,4.8a2,2,0,0,1-1.37-1.07c-1.21,3.56,0,4.95,0,4.95l4.32-4.13Z"/><path class="cls-24" d="M211.61,27.26s-2-1.45-2.26-2.4a8.72,8.72,0,0,0,.33,4.7s-2.54-1.5-2.83-3c-.56,1.64.39,4.8.39,4.8a2,2,0,0,1-1.37-1.07c-1.21,3.56,0,4.95,0,4.95l4.32-4.13Z"/><path class="cls-37" d="M231.27,19.43c.51,1.32.22.36,1,2.5-5.14-1.93-18.92,1.64-18.92,1.64S218.61,19.31,231.27,19.43Z"/><path class="cls-38" d="M261.85,151.41l.16-.08.25-.13.13-.07a2.14,2.14,0,0,0,.3-.17l.06,0,.34-.21.1-.07.21-.15.12-.08.18-.14.11-.09.16-.13.1-.09.17-.15a.6.6,0,0,1,.08-.08l.19-.19,0,0,.21-.24,0,0,.16-.2L265,149l.12-.17.05-.07a1.74,1.74,0,0,0,.11-.18l0-.06.11-.2,0,0c1.67-3.21-.91-6.57-.91-6.57a84.2,84.2,0,0,1-16.39.28c.37-2.77.55-5,.62-6.52l-.09,0c0-.32,0-.62.06-.89-1.84-.94-1.66-1.81-4.15-2.17-9.7-1.38-21.74-4.16-21.74-4.16s-12-3.16-21.18-6.47c-2.36-.84-2.88.72-5.92.59l-.31.71,0,0,0,.08c-.11.25-.22.52-.33.8-.68,1.75-1.44,4.06-2.23,6.86C180.28,127,161,120.2,149.57,111.58c0,0-3.89,1.66-4,5.28v.34c0,.07,0,.14,0,.21v.08c0,.07,0,.15,0,.22a.17.17,0,0,1,0,.07c0,.09,0,.17,0,.26v0c0,.1,0,.21.07.31v0c0,.09,0,.17.07.26l0,.1a1.87,1.87,0,0,0,.07.22l0,.12a1.67,1.67,0,0,0,.08.2s0,.09.05.13l.09.21.06.13a2.4,2.4,0,0,1,.11.23l.06.11.19.35,0,.06.18.29.08.13.15.24.1.14.16.23.11.15.18.24.12.15.21.26.1.12c.11.14.23.27.34.4a64,64,0,0,0,10.24,5.72c1,.46,2,1,3.17,1.46l1.76.77q2.28,1,5,2,2.16.85,4.57,1.75c1.6.59,3.3,1.2,5.08,1.82l1.39.47,1.4.47q4.41,1.49,9.55,3-.61,2.92-1.19,6.12a4.69,4.69,0,0,0,2.94,5.11,146.51,146.51,0,0,0,17.62,5.59q2.39.63,5.11,1.31l.31.08-.07,0,.14,0h0c12.63,3.12,19.83,4.22,23.69,4.59a4.69,4.69,0,0,0,5-3.15c.91-2.84,1.65-5.57,2.25-8.14,1.87.16,3.54.26,5,.33l.68,0,1.27,0a56.31,56.31,0,0,0,6.17-.13l.3,0,.31,0,.49-.17.15-.06.32-.13.17-.07.27-.12.17-.08Z"/><path class="cls-39" d="M197.46,91.24a51.8,51.8,0,0,1-16.11-36.51h0a52.13,52.13,0,1,1,53.32,50.93H233A51.79,51.79,0,0,1,197.46,91.24ZM232.28,1.86a51.69,51.69,0,0,0-34.51,89.06,51.69,51.69,0,1,0,71.4-74.77,51.28,51.28,0,0,0-35.23-14.3C233.39,1.84,232.84,1.84,232.28,1.86Z"/><path class="cls-7" d="M182.48,67.4h0a1.07,1.07,0,0,0,1.1-1L182.21,50.6,185,36a1.06,1.06,0,0,0-1-1.11h0A11.11,11.11,0,0,0,172.42,45.4l-.5,10.38A11.11,11.11,0,0,0,182.48,67.4Z"/><path class="cls-40" d="M182.48,67.4h0a1.07,1.07,0,0,0,1.1-1s-11.24-5.54-11.16-21l-.5,10.38A11.11,11.11,0,0,0,182.48,67.4Z"/><path class="cls-4" d="M284.48,39.68h0a1.06,1.06,0,0,0-1.11,1s4.13,15.89-1.46,30.43c-.33.62.42,1.08,1,1.11h0a11.09,11.09,0,0,0,11.61-10.55l.5-10.38A11.09,11.09,0,0,0,284.48,39.68Z"/><g class="cls-41"><path class="cls-42" d="M282.31,62.67l-.4,8.44a1.06,1.06,0,0,0,1,1.11,11.1,11.1,0,0,0,11.61-10.55l.21-4.37a11.09,11.09,0,0,1-10.41,6l-1.11,0A1.08,1.08,0,0,1,282.31,62.67Z"/></g><g class="cls-43"><path class="cls-44" d="M181.9,47.53a51.92,51.92,0,1,0,103.47,4.81c0-.82-.05-1.65-.11-2.46A51.92,51.92,0,0,1,181.9,47.53Z"/></g><path class="cls-4" d="M196.76,92A53.15,53.15,0,0,1,232.25.4a53.16,53.16,0,0,1,54.36,51.91,53.14,53.14,0,0,1-51.92,54.36c-.57,0-1.13,0-1.7,0A52.83,52.83,0,0,1,196.76,92ZM232.3,2.87A50.68,50.68,0,0,0,182.81,54.7h0A50.67,50.67,0,1,0,233.93,2.86Z"/><path class="cls-4" d="M189.92,84.12a47.82,47.82,0,0,1-9.39-28.05c-.11-13.15,5.09-23.33,15.43-30.25,9-6.05,21.85-9.31,37.09-9.44s28.1,2.94,37.23,8.85c10.45,6.76,15.8,16.86,15.91,30a47.77,47.77,0,0,1-8.95,28.19c-4.38,6.17-22.54,17.16-43.12,17.14h-.52C211.15,100.37,194.1,89.79,189.92,84.12Zm43.15-65.26c-15.14.12-50.33,4-50.06,37.19h0a45.22,45.22,0,0,0,8.91,26.6c3.79,5.16,20.39,15.25,41.71,15.43h.49c19.46,0,37.1-10.46,41.1-16.09a45.34,45.34,0,0,0,8.49-26.74c-.1-12.26-5.07-21.66-14.78-27.94-8.37-5.42-20.15-8.33-34.14-8.45Z"/><g class="cls-45"><ellipse class="cls-4" cx="198.51" cy="52.27" rx="6.66" ry="9.19" transform="translate(-6.26 37.85) rotate(-10.72)"/></g><g class="cls-45"><ellipse class="cls-4" cx="212.06" cy="62.01" rx="3.62" ry="4.22" transform="matrix(0.95, -0.32, 0.32, 0.95, -8.69, 71.13)"/></g><g class="cls-46"><path class="cls-47" d="M191.6,30.9c-6.26,6.07-9.92,14.36-9.83,25.16a46.56,46.56,0,0,0,9.15,27.32c4.28,5.82,21.74,15.92,43.2,15.94a64,64,0,0,0,21.26-3.8c-26.38-.59-47.66-13-53-20.2a59.14,59.14,0,0,1-11.61-34.68A53.16,53.16,0,0,1,191.6,30.9Z"/></g><path class="cls-4" d="M185.08,33.25a1.23,1.23,0,0,1-.05-1.54c9.13-13,26.72-20.56,48.26-20.73s39.38,7.35,48.58,20.62a1.25,1.25,0,0,1-.17,1.68,1.24,1.24,0,0,1-1.75-.11l0,0a.27.27,0,0,1-.07-.08c-8.51-12.32-24.9-19.42-45.1-19.59h-1.44c-20.74.16-37.61,7.34-46.27,19.7a1.29,1.29,0,0,1-.23.24,1.22,1.22,0,0,1-1.73-.15Zm95.8-.9.06-.05Z"/><g class="cls-45"><path class="cls-4" d="M273.49,71.33s8.11-26.59-6.26-37S232.29,24,232.78,25.35c0,0,22.81,5.33,31.86,23.26C271.62,62.43,273.49,71.33,273.49,71.33Z"/></g><path class="cls-4" d="M197.22,19.51c17-24.23,52.17-19.41,67.92-8.33a49.54,49.54,0,0,1,16.44,20.45S248.12-.86,197.22,19.51Z"/><path class="cls-42" d="M183.67,34.88c6-15.07,14.83-22.58,22.53-27.15,23.16-13.75,45.16-6.38,55.67.85-10.39-3.75-30.53-1.87-34.63,5.08C211.66,15.82,198,15.49,183.67,34.88Z"/><path class="cls-2" d="M203.27,141.85c40.89,10.72,57.47,8.36,57.47,8.36,9.91-3.43,4.51-10.47,4.51-10.47-22.4,3-59.47-7.45-59.47-7.45s-37.44-9.07-55.49-22.67c0,0-8.17,3.49-1.21,11.34C149.08,121,162.37,131.14,203.27,141.85Z"/><g class="cls-48"><path class="cls-39" d="M262,145.37s-16.58,2.36-57.47-8.35-54.19-20.9-54.19-20.9a10.8,10.8,0,0,1-2.65-4.59c-1.6,1.79-2.66,4.87,1.38,9.43,0,0,13.29,10.18,54.19,20.89s57.47,8.36,57.47,8.36c5.76-2,6.35-5.2,5.83-7.54A10.86,10.86,0,0,1,262,145.37Z"/></g><path class="cls-4" d="M215.68,157.54c13.32,3.29,20.9,4.44,25,4.82a5,5,0,0,0,5.24-3.37,111.78,111.78,0,0,0,5-26.74c-1.93-1-1.73-1.9-4.35-2.28-10.18-1.45-22.82-4.37-22.82-4.37s-12.54-3.31-22.22-6.78c-2.49-.89-3,.75-6.22.61-1.84,4-4.57,13.18-6.75,25.35a5,5,0,0,0,3.06,5.43c3.76,1.56,11,4.08,24.33,7.38"/><g class="cls-49"><path class="cls-39" d="M250.91,133.21c-.68-.16-3.15-2.27-3.17-1.69-.19,3.92,0,12.16-3.4,22.7a4.5,4.5,0,0,1-4.75,3c-3.67-.36-10.54-1.41-22.58-4.39l.1,0-.2-.05.1,0c-12-3-18.61-5.26-22-6.66a4.47,4.47,0,0,1-2.8-4.87c1.94-10.89,4.31-17.39,6-20.94.25-.53-.24-.6-2.91-.94-1.83,3.92-4.64,13.42-6.77,25.43a4.93,4.93,0,0,0,3.08,5.37c3.76,1.55,11,4.06,24.27,7.35s20.84,4.44,24.88,4.82a4.92,4.92,0,0,0,5.24-3.31A106.79,106.79,0,0,0,250.91,133.21Z"/></g><circle class="cls-50" cx="233.28" cy="147.86" r="4.3"/><g class="cls-51"><path class="cls-39" d="M233.05,148.76a4.31,4.31,0,0,1-3.21-3.49,4.3,4.3,0,1,0,7.68,1.9A4.28,4.28,0,0,1,233.05,148.76Z"/></g><circle class="cls-52" cx="220.59" cy="144.64" r="4.3"/><g class="cls-51"><path class="cls-39" d="M220.43,145.55a4.28,4.28,0,0,1-3.42-3.28,4.19,4.19,0,0,0-.65,1.6,4.3,4.3,0,1,0,8.43-.18A4.31,4.31,0,0,1,220.43,145.55Z"/></g><polygon class="cls-5" points="246.35 126.96 203.4 116.31 195.26 119.43 250.91 133.21 246.35 126.96"/><polygon class="cls-53" points="212.27 123.64 209 122.83 202.54 148.9 205.79 149.84 212.27 123.64"/><g class="cls-54"><path class="cls-42" d="M215.68,157.54c13.32,3.29,20.9,4.44,25,4.82a5,5,0,0,0,5.24-3.37c-18.3-.12-43.58-14.34-39.26-36.75l-11.36-2.81c-1.84,4-4.57,13.18-6.75,25.35a5,5,0,0,0,3.06,5.43c3.76,1.56,11,4.08,24.33,7.38"/></g><polygon class="cls-55" points="203.4 116.31 195.26 119.43 246.45 132.11 226.89 122.14 203.4 116.31"/><path class="cls-40" d="M185,31.71c2.09-2.38,11.53-15,30.22-17.29C219.56-3.13,238.32,1.72,251,3.34c-22.49-8.26-42.68,1.25-52.09,9.54A56.51,56.51,0,0,0,185,31.71Z"/><polygon class="cls-56" points="235.85 125.44 245.61 127.96 249.31 131.94 244.9 128.79 235.85 125.44"/><polygon class="cls-57" points="202.21 117.51 198.09 119.1 213.33 123.15 201.08 118.67 202.21 117.51"/><path class="cls-58" d="M229,127.78l21.95,5.43-2.21,15S250.39,133.08,229,127.78Z"/><path class="cls-14" d="M268.4,101.12l-.23,5.57s35.38,4.84,52.73-27.89C299.62,105.23,268.4,101.12,268.4,101.12Z"/></g></g></g></svg>