<svg xmlns="http://www.w3.org/2000/svg" viewBox="0 0 394.2 288.53"><defs><style>.cls-1{isolation:isolate;}.cls-2{fill:#f9ac00;}.cls-3,.cls-39,.cls-53{fill:#371a45;}.cls-3{opacity:0.24;}.cls-4{fill:#e1d6ea;}.cls-38,.cls-47,.cls-5,.cls-59{fill:#675e77;}.cls-6{fill:#46225b;}.cls-62,.cls-63,.cls-7{fill:#faf3ff;}.cls-8{fill:#d1c7e0;}.cls-9{fill:#20102b;}.cls-10{fill:#4a435b;}.cls-11{fill:#5d5772;}.cls-12,.cls-58{fill:#fff;}.cls-13,.cls-41,.cls-55,.cls-60{fill:#8a8196;}.cls-13{opacity:0.9;}.cls-13,.cls-16,.cls-17,.cls-31,.cls-34,.cls-38,.cls-47,.cls-54,.cls-55,.cls-57,.cls-59{mix-blend-mode:multiply;}.cls-14{fill:#d5b4ef;}.cls-14,.cls-58{opacity:0.22;}.cls-15{fill:#ffcd97;opacity:0.12;mix-blend-mode:luminosity;}.cls-16,.cls-17{fill:#9e96aa;}.cls-16{opacity:0.17;}.cls-17{opacity:0.29;}.cls-18{fill:#e59007;}.cls-19{fill:#f7a328;}.cls-20{fill:#ffccc0;opacity:0.65;}.cls-21{fill:#ffdcd7;opacity:0.78;}.cls-22{fill:#ef9506;}.cls-23{fill:#b76800;opacity:0.43;}.cls-24{fill:#ffba5f;opacity:0.11;}.cls-25{fill:#fffefd;}.cls-26{fill:#e58905;}.cls-27{fill:#bf6902;}.cls-28{fill:#f2f6f9;}.cls-29{fill:#ffa836;}.cls-30{fill:#ffae43;}.cls-31{fill:#fce5e4;}.cls-32{fill:#47270b;}.cls-33{fill:#381807;}.cls-34{fill:#3d271c;}.cls-35{fill:#ffa27d;}.cls-36{fill:#ff6669;}.cls-37{fill:#ffac3e;}.cls-38{opacity:0.54;}.cls-40,.cls-60{opacity:0.81;}.cls-42{opacity:0.69;}.cls-43{fill:#8c9695;}.cls-44{opacity:0.7;}.cls-45{opacity:0.53;}.cls-46{fill:#2b1135;}.cls-47{opacity:0.32;}.cls-48{opacity:0.23;}.cls-49{opacity:0.18;}.cls-50{fill:#9aef37;}.cls-51{opacity:0.35;}.cls-52{fill:#ffd524;}.cls-53{opacity:0.63;}.cls-54{opacity:0.47;}.cls-55,.cls-57{opacity:0.56;}.cls-56{fill:#b27ddb;}.cls-57{fill:#453d51;}.cls-59{opacity:0.36;}.cls-61{fill:#28123a;}.cls-62{opacity:0.45;}.cls-63{opacity:0.46;}</style></defs><title>Asset 1ldpi</title><g class="cls-1"><g id="Layer_2" data-name="Layer 2"><g id="Layer_1-2" data-name="Layer 1"><path class="cls-2" d="M4.66,21.7s-.32,2-.91,5.86S2.33,37,1.59,44.24A254.15,254.15,0,0,0,0,70.46a162.72,162.72,0,0,0,3,34.3c2.49,12.45,7.15,26,15.67,38.28a71.92,71.92,0,0,0,7,8.91c1.29,1.42,2.59,2.85,3.91,4.27s2.9,2.58,4.37,3.89,2.86,2.62,4.58,3.81l5.35,3.48,6,2.63c2,.72,4.22,1.14,6.35,1.7a48,48,0,0,0,26-2.72A60.14,60.14,0,0,0,104,154.4a50.14,50.14,0,0,0,8.09-11,35,35,0,0,0,4.39-13.92A24.08,24.08,0,0,0,112.63,114a22.48,22.48,0,0,0-13.5-9.39,23.12,23.12,0,0,0-16.35,2.2c-1.23.69-2.33,1.55-3.48,2.35s-2,1.91-2.94,2.87a50.29,50.29,0,0,0-4.22,5.75,40.4,40.4,0,0,0-5.35,13.42,41,41,0,0,0-.13,14.35C68.17,155,72.57,163.21,78,170.12a75.32,75.32,0,0,0,19.21,16.93,79.52,79.52,0,0,0,46.31,11.87,68.4,68.4,0,0,0,11.25-1.53l5.37-1.08c1.77-.41,3.49-1.05,5.21-1.57s3.44-1.06,5.12-1.65l4.86-2.15a65.35,65.35,0,0,0,9.13-4.9c11.65-7.16,19.9-16.95,25.68-25.93a159.17,159.17,0,0,0,12.4-24.17l6.32-15.34,2.28-5-14.61-6.91L214,114.38l-6.09,15.52a143.63,143.63,0,0,1-10.74,22c-4.84,7.82-11.4,15.83-20.7,21.77-9.1,6-21.2,10-33.91,11.28a65.94,65.94,0,0,1-38.51-9.18A61.72,61.72,0,0,1,88,162.09c-4.45-5.48-7.91-11.86-9.08-18.58a27,27,0,0,1,3.46-19.42,36.13,36.13,0,0,1,3-4.26l1.49-1.53c.58-.37,1.1-.84,1.69-1.18a11.4,11.4,0,0,1,8-1.23c5.57,1.21,9.42,6.49,8.88,12.86s-4.3,13-9.17,18.31C86.35,157.82,71.35,164.35,58,162c-1.62-.44-3.3-.7-4.89-1.22l-4.63-1.94-4.25-2.67c-1.42-.92-2.72-2.22-4.08-3.3s-2.73-2.22-4-3.4-2.38-2.51-3.55-3.76a65.42,65.42,0,0,1-6.42-7.88C18.27,127,13.74,114.68,11.2,103A154.58,154.58,0,0,1,7.79,70.46,248.67,248.67,0,0,1,8.89,45c.59-7.07,1.34-12.62,1.84-16.4s.78-5.8.78-5.8Z"/><path class="cls-2" d="M3.47,29.53l6.86,2.34c.1-1.23.25-2.33.4-3.32.51-3.76.78-5.79.78-5.79L4.68,21.7s-.32,2.05-.92,5.84C3.67,28.17,3.57,28.8,3.47,29.53Z"/><path class="cls-3" d="M85.37,119.83l1.49-1.53c.58-.37,1.1-.84,1.69-1.18a11.4,11.4,0,0,1,8-1.23c5.57,1.21,9.42,6.49,8.88,12.86a21,21,0,0,1-.58,3.44,23.39,23.39,0,0,0,2.32-8.29c.54-6.37-3.3-11.64-8.88-12.85a11.4,11.4,0,0,0-7.95,1.22c-.59.35-1.11.82-1.69,1.18L87.11,115a34.24,34.24,0,0,0-3,4.26,26.78,26.78,0,0,0-3,7.5,27.31,27.31,0,0,1,1.31-2.66A36.13,36.13,0,0,1,85.37,119.83Z"/><path class="cls-3" d="M230.72,115.4c-.06.13-.1.22-.16.37-1.46,3.53-3.61,8.72-6.33,15.33a157.92,157.92,0,0,1-12.41,24.16c-5.76,9-14,18.77-25.67,25.93A66.47,66.47,0,0,1,177,186.1l-4.87,2.15c-1.67.59-3.39,1.1-5.1,1.65s-3.45,1.14-5.22,1.57l-5.37,1.07a68.42,68.42,0,0,1-11.24,1.54A79.57,79.57,0,0,1,98.91,182.2a74.49,74.49,0,0,1-19-16.75h0a55.64,55.64,0,0,1-5.91-8.92h0a48.93,48.93,0,0,1-5.53-15.79,40.9,40.9,0,0,1,.12-14.34c.2-1,.47-2,.75-3a39.45,39.45,0,0,0-2.49,7.88,41,41,0,0,0-.13,14.35,47.53,47.53,0,0,0,3.54,11.7h0a63.26,63.26,0,0,0,5.07,9.3,44.92,44.92,0,0,1-17.33.29c-2.12-.55-4.3-1-6.35-1.7l-6-2.62-5.36-3.48c-1.71-1.2-3.05-2.56-4.57-3.82s-3-2.54-4.38-3.88-2.61-2.86-3.92-4.27a75.7,75.7,0,0,1-7-8.92C11.89,125.88,7.24,112.38,4.74,99.92a163.44,163.44,0,0,1-3-34.3A254.24,254.24,0,0,1,3.34,39.39c.73-7.23,1.59-12.84,2.15-16.68,0-.32.09-.56.14-.86l-1-.15s-.32,2-.91,5.86S2.33,37,1.59,44.24A254.15,254.15,0,0,0,0,70.46a162.72,162.72,0,0,0,3,34.3c2.49,12.45,7.15,26,15.67,38.28a71.92,71.92,0,0,0,7,8.91c1.29,1.42,2.59,2.85,3.91,4.27s2.9,2.58,4.37,3.89,2.86,2.62,4.58,3.81l5.35,3.48,6,2.63c2,.72,4.22,1.14,6.35,1.7a46.73,46.73,0,0,0,21.91-1.44,75.06,75.06,0,0,0,19,16.76,79.52,79.52,0,0,0,46.31,11.87,68.4,68.4,0,0,0,11.25-1.53l5.37-1.08c1.77-.41,3.49-1.05,5.21-1.57s3.44-1.06,5.12-1.65l4.86-2.15a65.35,65.35,0,0,0,9.13-4.9c11.65-7.16,19.9-16.95,25.68-25.93a159.17,159.17,0,0,0,12.4-24.17l6.32-15.34,2.28-5Z"/><path class="cls-3" d="M113.82,138.57a49.92,49.92,0,0,1-8.1,11,61.24,61.24,0,0,1-13.45,10.5,41.51,41.51,0,0,1-4.07,2.3c.93,1.08,1.58,1.84,2.34,2.64,1-.6,2.43-1.47,4-2.63a61.86,61.86,0,0,0,9.41-8,50.14,50.14,0,0,0,8.09-11,33.38,33.38,0,0,0,3.16-7.63C114.8,136.74,114.34,137.68,113.82,138.57Z"/><path class="cls-3" d="M71.63,171.84a46,46,0,0,0,6.51-1.48c-1-1.35-2-2.64-2.85-3.89a52.9,52.9,0,0,1-3.08-5,.61.61,0,0,1-.3,0,23.25,23.25,0,0,1-3.25.62A30.9,30.9,0,0,0,71.63,171.84Z"/><path class="cls-4" d="M276.81,130.65c0-.31-.05-.62-.07-.93a12.55,12.55,0,0,1,.25-3c.11-.48.26-1,.4-1.37a9.5,9.5,0,0,1,.68-1.57,14.15,14.15,0,0,1,1.85-2.61,16.69,16.69,0,0,1,2.3-2,21.12,21.12,0,0,1,2.45-1.57,25.25,25.25,0,0,1,3-1.45,26.35,26.35,0,0,1,5.44-1.53,14.31,14.31,0,0,1,3.16-.15,30.54,30.54,0,0,1,3.24.44,29,29,0,0,1,6.06,1.89,33.56,33.56,0,0,1,5.32,2.91,45.19,45.19,0,0,1,4.26,3.38c1.17,1,2.32,2,3.55,2.94s2.41,1.76,3.65,2.58c1.49,1,3.12,1.94,5,3,1.54.85,3.22,1.68,5.14,2.53,1.18.52,2.42,1,3.79,1.49,1.71.58,3.48,1.13,5.27,1.63a53.18,53.18,0,0,0,5.84,1.23c1.15.17,2.21.31,3.24.4a40.58,40.58,0,0,0,9.64-.31,30.2,30.2,0,0,0,4.43-1.16c1.21-.42,2.48-.92,4.1-1.64l1.81-.85,1.95-.91a1.69,1.69,0,0,1,.28-.12l.43-.19a9.76,9.76,0,0,1,1.67-.55,8,8,0,0,1,1.61-.2,5.08,5.08,0,0,1,.94.09,3.59,3.59,0,0,1,.68.21,2.22,2.22,0,0,1,.5.28l.09.06a1.77,1.77,0,0,1,.7,1,2.73,2.73,0,0,1,.06.34,1.89,1.89,0,0,1,0,.62,2,2,0,0,1-.16.53l0,.08,0-.14a9.68,9.68,0,0,1-1.15,2.12,24.69,24.69,0,0,1-2.22,2.68,34.47,34.47,0,0,1-2.82,3.35c-.7.74-1.45,1.42-2.09,2s-1.6,1.37-2.64,2.17a43.47,43.47,0,0,1-4.9,3.33c-1.26.73-2.54,1.39-3.8,2l-.07,0c-1.2.54-2.26,1-3.25,1.4s-1.85.75-2.87,1.1a57.48,57.48,0,0,1-5.86,1.71,65.85,65.85,0,0,1-6.51,1.19c-1.95.24-4,.41-6.27.51-1.85.09-4,.18-6.09.11s-4.37-.2-6.42-.43c-2.4-.26-4.36-.52-6.17-.82-2.07-.34-4.12-.76-6.07-1.24-1-.26-2-.58-3-.89s-2.14-.73-3.15-1.12-1.81-.73-2.81-1.16-1.91-.87-2.8-1.31c-1.67-.82-3.42-1.78-5.34-2.92a43,43,0,0,1-5.42-3.39c-8.47-6.91-9.29-10.92-9.29-10.92a1.59,1.59,0,0,1-.23-.45l0-.05-.08-.17-.08-.17c-.1-.21-.19-.42-.27-.64s-.28-.75-.43-1.24A12.46,12.46,0,0,1,276.81,130.65Z"/><ellipse class="cls-4" cx="375.54" cy="140.55" rx="1.79" ry="4.76" transform="matrix(0.19, -0.98, 0.98, 0.19, 166.28, 482.6)"/><ellipse class="cls-4" cx="374.43" cy="138.35" rx="4.64" ry="1.84" transform="translate(-2.01 5.56) rotate(-0.85)"/><ellipse class="cls-4" cx="372.87" cy="136.94" rx="4.37" ry="1.95" transform="translate(-5.21 258.76) rotate(-38.03)"/><ellipse class="cls-4" cx="371.22" cy="135.58" rx="4.4" ry="1.94" transform="translate(86.73 409.9) rotate(-64.02)"/><path class="cls-4" d="M388.21,137.52c2.46-2.89,1.17-6.65-1.31-9.26.88-1.75-1-3.06-2.43-3.78-.74-.37-1.54-.78-2.24-1.22A7.21,7.21,0,0,0,380.3,122c-1.27-.34-2.6.9-3.44,1.71a8.83,8.83,0,0,0-3,7,2.4,2.4,0,0,0-.2.39,2.48,2.48,0,0,0-.61,0s0,0,0,0a1.87,1.87,0,0,0-2,1.5,6.09,6.09,0,0,0,.42,4.61c1.13,2.1,3.51,5.33,6.23,5.43a3,3,0,0,0,2.5-1.58,6.67,6.67,0,0,0,1.16.05A8.77,8.77,0,0,0,388.21,137.52Z"/><path class="cls-4" d="M386.7,127.74c.89-1,1.79-1.76,2.63-2.84a50.53,50.53,0,0,0,4.3-5.49c.79-1.39.76-4-1.13-4-2.51.08-4.63,2.75-6.2,4.26-2.11,2-4.09,4.24-6.1,6.35l4.53,3.92C385.09,130,386.3,128.2,386.7,127.74Z"/><path class="cls-4" d="M391.55,130.49c2.8-2.14.37-6-2.43-5.35l-1.88-.62c-1.34-.75-4.11,3.48-4.73,4.42-2,3-.95,6.35,1.6,8.81,1.86,1.8,3.78.79,6,.14C394,136.73,395.46,131.23,391.55,130.49Z"/><path class="cls-5" d="M381.81,131.3a4.23,4.23,0,0,0,.17-1.09,5.9,5.9,0,0,0-.14-1.39c0-.06-.16-.65-.17-.68s-.34-.8-.32-.77l.61.61a7.1,7.1,0,0,0,1.25.93,3.94,3.94,0,0,0,1.47.5,3,3,0,0,0,1.26-.1,2.37,2.37,0,0,0,.79-.43,2,2,0,0,0,.59-1.74,2.05,2.05,0,0,0-.6-1.31,3.87,3.87,0,0,0-.74-.61c-.27-.17-2.13-1.16-2.38-1.33-.41-.3-.81-.66-1.23-1l-.65-.44a3.85,3.85,0,0,0-2.31-.66,3.76,3.76,0,0,0-2,.91,9.75,9.75,0,0,0-1.69,1.7,10.39,10.39,0,0,0-1.46,2.37,7,7,0,0,0-.42,1.22,6.11,6.11,0,0,0,.1,3.39,8.61,8.61,0,0,0,.72,1.66,6.43,6.43,0,0,0,.79,1.1c.79.75.85.71.86.68s-.07-.08-.17-.17a6.19,6.19,0,0,1-.56-.54,5.89,5.89,0,0,1-.79-1.12,8.15,8.15,0,0,1-.66-1.62,6.91,6.91,0,0,1-.21-1,5.16,5.16,0,0,1,.53-3.29,7.35,7.35,0,0,1,.58-1.11,10.88,10.88,0,0,1,.74-1.08,12.25,12.25,0,0,1,.9-1c1.45-1.4,2-1.51,2.24-1.58a2.35,2.35,0,0,1,1.34,0,8.21,8.21,0,0,1,2.5,1.5,20.08,20.08,0,0,0,3.21,2,1.67,1.67,0,0,1,.95,1.37,1.82,1.82,0,0,1-.52,1.44,2.63,2.63,0,0,1-2.93.11,4.7,4.7,0,0,1-1.19-.79c-.05,0-.55-.46-.68-.58l-.73-.68s.08.25.13.37.61,1.78.62,1.84a5.32,5.32,0,0,1,.16,1.36,3.52,3.52,0,0,1,0,.58,3.69,3.69,0,0,1-.1.5,7.61,7.61,0,0,1-.66,1.43A4.45,4.45,0,0,0,381.81,131.3Z"/><path class="cls-5" d="M389.28,125.17a1.81,1.81,0,0,1,1.45.23,3.66,3.66,0,0,1,1.21,1.21,3.72,3.72,0,0,1,.31.67,3.18,3.18,0,0,1-.22,2.18,8.54,8.54,0,0,1-.54.84,5.8,5.8,0,0,1-1.78,1.53,6.43,6.43,0,0,1-.77.42,7.91,7.91,0,0,1-.79.35,8.36,8.36,0,0,1-.81.25,3.85,3.85,0,0,1-2.34.07,3.18,3.18,0,0,1-1.23-.7,2.71,2.71,0,0,1-.71-1,1.76,1.76,0,0,1-.12-.53,1.57,1.57,0,0,1,0-.49,2.2,2.2,0,0,1,.12-.41,3,3,0,0,1,.18-.32,3.76,3.76,0,0,1,.28-.39.63.63,0,0,0,.1-.15s-.05,0-.13.07a2.22,2.22,0,0,0-.33.37,2.14,2.14,0,0,0-.35.79,1.74,1.74,0,0,0-.05.52,1.33,1.33,0,0,0,0,.28,1.53,1.53,0,0,0,.07.29,3.24,3.24,0,0,0,1.88,1.92,3.1,3.1,0,0,0,1.58.24,6.1,6.1,0,0,0,.83-.11,8.34,8.34,0,0,0,.83-.2,6.91,6.91,0,0,0,.83-.3,8.34,8.34,0,0,0,.8-.38,8.1,8.1,0,0,0,1.5-1,6,6,0,0,0,.61-.62,5.88,5.88,0,0,0,.51-.72,4.32,4.32,0,0,0,.5-1.22,3.11,3.11,0,0,0-.34-2.1A4.05,4.05,0,0,0,392,126a3.5,3.5,0,0,0-1.44-1.07,2.08,2.08,0,0,0-1.74.23l-.48.27-1.56.85h0s.07,0,.1,0S389.1,125.23,389.28,125.17Z"/><path class="cls-5" d="M386.29,138.46a3.59,3.59,0,0,0,3.46-.14,9.62,9.62,0,0,0,1.59-.91c.47-.32,1.55-1.28,1.65-1.38a5.4,5.4,0,0,0,1-1.45,3.29,3.29,0,0,0,.19-1.68,4.28,4.28,0,0,0-.41-1.13c-.13-.22-.92-1.55-2-1.13,0,0-.28.3-.1.27a1,1,0,0,1,.9,0,2.15,2.15,0,0,1,.85.82,3.31,3.31,0,0,1,.45,1.31,3.88,3.88,0,0,1-1.16,2.7,11.85,11.85,0,0,1-1.26,1.07,10.24,10.24,0,0,1-1.5.95,6,6,0,0,1-1.63.58,2.63,2.63,0,0,1-3.11-1.69,2.68,2.68,0,0,1,0-1.92,5.09,5.09,0,0,1,.56-.88,2,2,0,0,1,1.09-.64.48.48,0,0,0,.17-.07s-.05,0-.16,0a1.71,1.71,0,0,0-.47.14,2.6,2.6,0,0,0-.72.47,2.85,2.85,0,0,0-.63.9,3.37,3.37,0,0,0-.25,1.26"/><path class="cls-6" d="M368.2,148.64c1.76-3.48-1.53-10.72-4.84-10.79a4.45,4.45,0,0,1,4.48-.41c2.4,1.4,4.06,7.43,3.67,9.17C371.29,147.65,369.94,148.61,368.2,148.64Z"/><path class="cls-6" d="M359.58,154.3c1.87-4.8-2.33-15.08-6.19-15.32a4.44,4.44,0,0,1,5.2-.38c2.86,2.07,5.1,10.58,4.75,13A3.57,3.57,0,0,1,359.58,154.3Z"/><path class="cls-7" d="M287.19,131.25c20,25,63.93,23.33,63.93,23.33s-34,11.33-72.12-18.85C280.33,133.12,283.12,132,287.19,131.25Z"/><path class="cls-8" d="M179,232.33c-7.16-6.2-20.65-2.34-30.13,8.63S137.54,265.83,144.7,272s16.93-5.68,30.14-8.63C189,260.24,186.19,238.52,179,232.33Z"/><path class="cls-9" d="M179.87,234c-7.17-6.2-15.59-6.74-26.33,2.36-15.54,13.16-16,29.44-8.84,35.63s16.93-5.68,30.14-8.63C189,260.24,187,240.23,179.87,234Z"/><path class="cls-10" d="M178.91,246.19c-7.17-6.2-12.13-15.95-25.31-5-15.64,13.05-16.06,24.61-8.9,30.8s16.93-5.68,30.14-8.63C189,260.24,186.08,252.38,178.91,246.19Z"/><path class="cls-11" d="M154.29,272.63S146.49,252,160,240.81c-3.49,21.65,19.68,21.05,19.68,21.05l-8.16,2.47Z"/><path class="cls-12" d="M229.67,243.22c-8-5.12-20.78.61-28.62,12.8s-7.73,26.22.24,31.34,16-8,28.62-12.79C243.47,269.45,237.64,248.34,229.67,243.22Z"/><path class="cls-13" d="M229.67,243.22c-8-5.12-20.78.61-28.62,12.8s-7.73,26.22.24,31.34-12.72-20.74,15.1-29.4C230.23,253.66,237.64,248.34,229.67,243.22Z"/><path class="cls-7" d="M307.75,129.51c-2.64-60.29-70.88-89-116.59-41.27C71,237.55,185.22,261,192.73,263c4,1,43.32,13.83,70.34,2.42C290.29,253.89,312.88,219.19,307.75,129.51Z"/><path class="cls-14" d="M301.86,103.31c-24.2-50.93-80.39-46.75-110.7-15.07C71,237.55,185.22,261,192.73,263c1.56.4,29.63,10.79,51,6.84,8.42-.45,14.6-1.88,19.77-5.26C214.42,244.08,267.72,131,301.86,103.31Z"/><path class="cls-15" d="M191.16,88.24C71,237.55,192.73,263,192.73,263S100.6,238.09,191.16,88.24Z"/><path class="cls-13" d="M178.23,104.84C120.07,184,134,221.4,150,239.5a75.71,75.71,0,0,0,9.51,8.53c6.14,5.06,19.33,11.15,23.65,12.33,15.29,4.2,52.77,17.48,82.9,3.82-41.65-1-137.23-41.62-43.79-153.68,9.63-11.54-27.56-8-17.86-25.11C197.14,90.4,185.72,94.64,178.23,104.84Z"/><path class="cls-13" d="M178.23,104.84C120.07,184,134,221.4,150,239.5a75.71,75.71,0,0,0,9.51,8.53c6.14,5.06,19.33,11.15,23.65,12.33,12,3.3,38,12.07,63.29,9.25a67.55,67.55,0,0,0,19.61-5.43c-203.3,1.61-71.35-161.63-61.65-178.79C197.14,90.4,185.72,94.64,178.23,104.84Z"/><ellipse class="cls-16" cx="255.18" cy="121.73" rx="36.96" ry="49.03" transform="translate(93.53 353.68) rotate(-80.63)"/><ellipse class="cls-17" cx="255.23" cy="116.67" rx="34.36" ry="45.68" transform="translate(87.67 341.79) rotate(-77.9)"/><path class="cls-18" d="M297.07,41.15c-.33-2.14,9.54-9.23,14.33-1.32,3.31,5.48,16.05,16.74,6.77,24.61a10.4,10.4,0,0,1-12.07,1.24S300.9,44.24,297.07,41.15Z"/><path class="cls-19" d="M311.4,39.83c3.31,5.48,16.05,16.74,6.77,24.61a10.4,10.4,0,0,1-12.07,1.24S332.17,67.32,311.4,39.83Z"/><path class="cls-20" d="M298.41,42.88c-.26-1.7,7.37-7,11.18-.73,2.63,4.36,12.79,13.33,5.39,19.6a8.28,8.28,0,0,1-9.61,1S301.26,47.18,298.41,42.88Z"/><path class="cls-21" d="M309.59,42.15c2.63,4.36,12.79,13.33,5.39,19.6a8.28,8.28,0,0,1-9.61,1S319.48,59.79,309.59,42.15Z"/><path class="cls-22" d="M298.24,119.62s3.66,7.11.63,11.94c7.93-2.5,14.09-22.87,14.09-22.87s2,13.17,2,10.45c4.87-12.34.59-25.34.59-25.34a10.24,10.24,0,0,1,5.17,1.9c2.2-5.84-6.64-18.11-6.64-18.11s1.66,2.49,7.52,4.22c-18.1-17.59-3.34-50.83-61.17-54.5C205.7,22,212.36,58.52,189.9,69.16L200.69,66s-10.62,6.23-13.13,16.68l5.25-.2s-6.06,8.5-4.19,26.15l6.52-11.72s-.69,17.18,7.92,24.53c1,1.27,4.44-10.84,4.44-10.84,3.81,9.46,8.52,16.17,43,19.5C294.26,134.34,298.24,119.62,298.24,119.62Z"/><path class="cls-23" d="M298.24,119.62s3.66,7.11.63,11.94c7.93-2.5,14.09-22.87,14.09-22.87s2,13.17,2,10.45c4.87-12.34.59-25.34.59-25.34a10.24,10.24,0,0,1,5.17,1.9c2.2-5.84-6.64-18.11-6.64-18.11s1.66,2.49,7.52,4.22c-18.1-17.59-3.34-50.83-61.17-54.5,67.72,26.92,28.26,97.84-9.94,102.8C294.26,134.34,298.24,119.62,298.24,119.62Z"/><path class="cls-24" d="M260.45,27.31C205.7,22,212.36,58.52,189.9,69.16L200.69,66s-10.62,6.23-13.13,16.68l5.25-.2s-6.06,8.5-4.19,26.15l6.52-11.72s-.69,17.18,7.92,24.53c1,1.27,4.44-10.84,4.44-10.84,3.81,9.46,8.52,16.17,43,19.5C241.29,124.47,154.55,75.51,260.45,27.31Z"/><path class="cls-25" d="M279.2,29.58c-18.45,51.64,39.13,54.84,6.71,100-9.19,6.8-46.74,1.05-54.53-2.27-31.63-48.53,38.23-58.61,19.91-100.46A103.85,103.85,0,0,1,279.2,29.58Z"/><path class="cls-26" d="M292.94,59c3.48-5.58-.88-8.35-5.25-6.86-14.23,6.75-.91,22.83-.91,22.83S286.19,69.81,292.94,59Z"/><path class="cls-26" d="M233.33,53.21c-2.35-6.14,2.47-8,6.47-5.72,12.67,9.35-3.48,22.58-3.48,22.58S237.89,65.14,233.33,53.21Z"/><path class="cls-27" d="M226.23,54.12a.93.93,0,0,0,.57-.31,10.75,10.75,0,0,1,4.69-2.63,8.52,8.52,0,0,1,5.57.37,1,1,0,0,0,1.3-.42,1,1,0,0,0-.42-1.3,10.48,10.48,0,0,0-6.95-.51,12.25,12.25,0,0,0-5.61,3.19,1,1,0,0,0,.85,1.61Z"/><path class="cls-27" d="M300.34,58.16a1,1,0,0,0,.82-.12,1,1,0,0,0,.25-1.35,12.35,12.35,0,0,0-5.12-3.95,10.43,10.43,0,0,0-6.94-.46,1,1,0,1,0,.63,1.83,8.58,8.58,0,0,1,5.56.41,10.34,10.34,0,0,1,4.27,3.26A1,1,0,0,0,300.34,58.16Z"/><path class="cls-28" d="M299,84.36h.07a.13.13,0,0,0,.05-.17c-.06-.09-1.44-2.39-12.79-8.92A103.62,103.62,0,0,0,272.86,69a.11.11,0,0,0-.16.07.12.12,0,0,0,.07.15,105.14,105.14,0,0,1,13.43,6.24c11.24,6.47,12.68,8.81,12.7,8.83A.1.1,0,0,0,299,84.36Z"/><path class="cls-28" d="M294.16,91h0a.12.12,0,0,0,.08-.15c0-.1-.82-2.66-10.29-11.71a103.58,103.58,0,0,0-11.59-9.28.11.11,0,0,0-.16,0,.12.12,0,0,0,0,.17,104.56,104.56,0,0,1,11.55,9.25c9.38,9,10.22,11.58,10.23,11.61A.11.11,0,0,0,294.16,91Z"/><path class="cls-18" d="M225.58,35.05c.74-2-7.59-10.89-13.8-4-4.3,4.74-19,13.35-11.36,22.85A10.39,10.39,0,0,0,212,57.4S221.23,37.35,225.58,35.05Z"/><path class="cls-29" d="M211.78,31c-4.3,4.74-19,13.35-11.36,22.85,4.91,6.13,9.84,3.86,11.6,3.53C188.56,52.86,204.16,38.84,211.78,31Z"/><path class="cls-20" d="M223.91,36.49c.59-1.62-5.88-8.32-10.82-2.86C209.66,37.41,198,44.27,204,51.84a8.34,8.34,0,0,0,9.29,2.8S220.44,40.13,223.91,36.49Z"/><path class="cls-21" d="M213.09,33.63C209.66,37.41,198,44.27,204,51.84a8.34,8.34,0,0,0,9.29,2.8S197.35,50.4,213.09,33.63Z"/><path class="cls-28" d="M225.9,77.3a.13.13,0,0,0,.11,0s1.88-2,14.15-6.23a104.48,104.48,0,0,1,14.37-3.55.12.12,0,0,0,.1-.14.12.12,0,0,0-.14-.1,106.27,106.27,0,0,0-14.41,3.56C227.69,75,225.89,77,225.82,77.1a.12.12,0,0,0,0,.17Z"/><path class="cls-28" d="M229.37,84.7a.12.12,0,0,0,.12-.07s1.35-2.42,12.26-9.42a103.37,103.37,0,0,1,13.12-6.88.11.11,0,0,0,.06-.16.12.12,0,0,0-.16-.06A105.71,105.71,0,0,0,241.62,75c-11,7.07-12.3,9.43-12.34,9.53a.12.12,0,0,0,.05.16Z"/><path class="cls-30" d="M203.16,56.73C208,63.31,189.9,69.16,189.9,69.16S196.41,67.26,203.16,56.73Z"/><path class="cls-30" d="M200.93,66.16a28.48,28.48,0,0,0-13.37,16.53s5.33,0,6.88-.26C191.12,81.2,195.85,70.31,200.93,66.16Z"/><path class="cls-30" d="M193.51,80.4c-7.36,8.79-7.64,25.36-7.64,25.36s3.06-17.87,13.75-26.47C198.7,79.26,193.79,80.66,193.51,80.4Z"/><path class="cls-30" d="M202.39,84.94c-.83.72-7.43,8.92-8.54,10.37-2,21.41,5.12,25.33,5.12,25.33S193.29,102.1,202.39,84.94Z"/><path class="cls-30" d="M208.44,98.41c-.47,1.34-3.37,9-4.37,11.36-.45,13.12,17.2,21.13,17.2,21.13S203.41,116.1,208.44,98.41Z"/><path class="cls-31" d="M317.18,81.58c-.28,4.3-6,7.42-12.69,7s-12-4.28-11.68-8.58,6-7.42,12.7-7S317.47,77.29,317.18,81.58Z"/><path class="cls-31" d="M233.73,75.57c-.28,4.3-6.5,7.38-13.9,6.9S206.66,78.11,207,73.81s6.5-7.38,13.9-6.9S234,71.28,233.73,75.57Z"/><path class="cls-32" d="M298.43,65.22c.73,3.32-1.05,6.56-4,7.24s-5.92-1.46-6.66-4.78,1.05-6.56,4-7.24S297.69,61.9,298.43,65.22Z"/><path class="cls-33" d="M296.47,66.22A3.59,3.59,0,0,1,294,70.63,3.52,3.52,0,0,1,290,67.71a3.59,3.59,0,0,1,2.43-4.41A3.54,3.54,0,0,1,296.47,66.22Z"/><path class="cls-12" d="M293,64.24A2.13,2.13,0,0,1,291.6,67a2.2,2.2,0,0,1-2.74-1.4,2.12,2.12,0,0,1,1.36-2.71A2.2,2.2,0,0,1,293,64.24Z"/><path class="cls-12" d="M296.48,66.34a1.42,1.42,0,0,1-.91,1.81,1.46,1.46,0,0,1-1.82-.93,1.4,1.4,0,0,1,.9-1.8A1.46,1.46,0,0,1,296.48,66.34Z"/><path class="cls-32" d="M229.47,60.44c-1.32,3.14-.14,6.65,2.63,7.84s6.09-.39,7.4-3.53.14-6.64-2.64-7.83S230.78,57.31,229.47,60.44Z"/><path class="cls-33" d="M231.22,61.77a3.6,3.6,0,0,0,1.61,4.78,3.53,3.53,0,0,0,4.51-2.15,3.6,3.6,0,0,0-1.61-4.78A3.53,3.53,0,0,0,231.22,61.77Z"/><path class="cls-12" d="M235,60.45a2.12,2.12,0,0,0,.86,2.9,2.2,2.2,0,0,0,3-.89,2.13,2.13,0,0,0-.86-2.9A2.2,2.2,0,0,0,235,60.45Z"/><path class="cls-12" d="M231.18,61.9a1.4,1.4,0,0,0,.58,1.93,1.46,1.46,0,0,0,2-.59,1.42,1.42,0,0,0-.58-1.94A1.47,1.47,0,0,0,231.18,61.9Z"/><path class="cls-34" d="M261.6,87.93h0c-6.77-1.1-6-8.49-5.79-10.92,0,0,4.71,3,6.7-2,1.46.23-.64-.13.81,0,1.59,6.49,6.16,3.37,6.16,3.37-.64,6.43-3.42,9.83-7.83,9.56Z"/><path class="cls-12" d="M264.63,78.06c0,.24-.13,1.27-.17,1.6,0,.15-.08.26-.14.26l-3.66-.37c-.06,0-.1-.13-.09-.28,0-.33.13-1.38.16-1.61l2-2Z"/><path class="cls-32" d="M257.85,78.56a5.18,5.18,0,0,1-4.64-5.67.47.47,0,0,1,.93.1,4.25,4.25,0,0,0,8.45.84l.58-5.79a.46.46,0,1,1,.92.09l-.57,5.79A5.18,5.18,0,0,1,257.85,78.56Z"/><path class="cls-32" d="M267.23,79.49a5.18,5.18,0,0,1-4.64-5.66l.58-5.79a.46.46,0,1,1,.92.09l-.57,5.79a4.25,4.25,0,1,0,8.46.84.46.46,0,0,1,.5-.42.47.47,0,0,1,.42.51A5.18,5.18,0,0,1,267.23,79.49Z"/><path class="cls-35" d="M263.26,71.85c-.76-.08-6.1-2.49-5.84-5.08.31-3.07,4.55-2.65,6.59-2.45s6.28.63,6,3.7C269.72,70.63,264.3,72,263.26,71.85Z"/><path class="cls-35" d="M264,64.82c3.19.32,5.74,1,5.52,3.15s-5.2,3.48-6.17,3.38c-.58-.06-5.61-2.34-5.39-4.53s2.84-2.32,6-2m.1-1c-2-.2-6.78-.67-7.14,2.9-.31,3.12,5.67,5.57,6.29,5.63,1.31.13,7-1.3,7.27-4.28.35-3.57-4.4-4-6.42-4.25Z"/><path class="cls-36" d="M268.19,83.61a13.48,13.48,0,0,0-12,0,6.25,6.25,0,0,0,5.87,4.52C264.62,88.14,266.9,86.69,268.19,83.61Z"/><path class="cls-22" d="M303.25,46.3s3.25-1.15,4-2.32a12.18,12.18,0,0,1-2.28,6.14s4-1,5-3c.11,2.41-2.4,6.25-2.4,6.25a2.8,2.8,0,0,0,2.25-.89c.22,5.22-2,6.58-2,6.58l-4.16-7.19Z"/><path class="cls-23" d="M303.25,46.3s3.25-1.15,4-2.32a12.18,12.18,0,0,1-2.28,6.14s4-1,5-3c.11,2.41-2.4,6.25-2.4,6.25a2.8,2.8,0,0,0,2.25-.89c.22,5.22-2,6.58-2,6.58l-4.16-7.19Z"/><path class="cls-22" d="M222.22,40.19s-2.92-1.82-3.37-3.12a12.16,12.16,0,0,0,.91,6.49s-3.66-1.83-4.22-4c-.62,2.33,1,6.61,1,6.61a2.78,2.78,0,0,1-2-1.35c-1.33,5.06.55,6.87.55,6.87l5.6-6.15Z"/><path class="cls-24" d="M222.22,40.19s-2.92-1.82-3.37-3.12a12.16,12.16,0,0,0,.91,6.49s-3.66-1.83-4.22-4c-.62,2.33,1,6.61,1,6.61a2.78,2.78,0,0,1-2-1.35c-1.33,5.06.55,6.87.55,6.87l5.6-6.15Z"/><path class="cls-37" d="M248.73,27.43c.83,1.77.34.47,1.57,3.36-7.32-2.17-26.08,4.12-26.08,4.12S231.15,28.49,248.73,27.43Z"/><path class="cls-38" d="M146.64,157.66s18.37-18,27.22-17.46c12.74.79,25.83-15.62,25.81-26.06,0-17.78-39.68,15.13-39.68,15.13Z"/><path class="cls-39" d="M204.19,125a72,72,0,0,1-20.54-51.55h0a72.5,72.5,0,1,1,71.5,73.48c-.78,0-1.55,0-2.33-.07A72,72,0,0,1,204.19,125ZM257.12,2.57a71.88,71.88,0,0,0-52.49,122,71.88,71.88,0,0,0,103-100.26A71.37,71.37,0,0,0,259.43,2.64C258.66,2.6,257.89,2.58,257.12,2.57Z"/><path class="cls-5" d="M184.57,91.1h0a1.46,1.46,0,0,0,1.59-1.34l-1.1-22,4.69-20.2A1.48,1.48,0,0,0,188.4,46h0A15.42,15.42,0,0,0,171.73,60l-1.22,14.39A15.42,15.42,0,0,0,184.57,91.1Z"/><path class="cls-38" d="M184.57,91.1h0a1.46,1.46,0,0,0,1.59-1.34S170.83,81.5,171.73,60l-1.22,14.39A15.42,15.42,0,0,0,184.57,91.1Z"/><path class="cls-12" d="M327.73,57.78h0a1.46,1.46,0,0,0-1.59,1.34s4.93,22.3-3.59,42.21c-.49.85.54,1.52,1.35,1.59h0a15.42,15.42,0,0,0,16.67-14.07l1.22-14.39A15.42,15.42,0,0,0,327.73,57.78Z"/><g class="cls-40"><path class="cls-41" d="M323.54,89.62l-1,11.71a1.48,1.48,0,0,0,1.35,1.59,15.41,15.41,0,0,0,16.67-14.07l.52-6.06a15.43,15.43,0,0,1-14.77,7.84l-1.54-.13A1.5,1.5,0,0,1,323.54,89.62Z"/></g><g class="cls-42"><path class="cls-43" d="M184.79,63.47a72.19,72.19,0,1,0,143.53,12c0-1.15,0-2.3,0-3.43a72.19,72.19,0,0,1-143.5-8.53Z"/></g><path class="cls-12" d="M203.17,126a73.91,73.91,0,1,1,52,22.36c-.79,0-1.58,0-2.37-.07A73.42,73.42,0,0,1,203.17,126ZM257.1,4a70.44,70.44,0,0,0-71.41,69.49h0A70.46,70.46,0,1,0,259.36,4.05C258.61,4,257.86,4,257.1,4Z"/><path class="cls-12" d="M194.07,114.71a66.34,66.34,0,0,1-11.62-39.45C183,57,190.7,43.11,205.43,34c12.86-7.94,30.84-11.82,52-11.21S296.35,28.31,308.73,37c14.18,9.93,21.1,24.23,20.57,42.51a66.37,66.37,0,0,1-13.87,38.71c-6.4,8.34-32.18,22.7-60.78,21.62l-.73,0C222.73,138.39,199.58,122.82,194.07,114.71Zm63.28-88.47c-21.05-.6-70.13,3-71.46,49.12h0a63,63,0,0,0,11,37.42c5,7.36,27.55,22.23,57.17,23.57l.69,0c27,1,52.07-12.65,57.92-20.27a62.92,62.92,0,0,0,13.16-36.71c.49-17-5.94-30.36-19.11-39.58-11.36-8-27.58-12.6-47-13.48C259,26.29,258.15,26.27,257.35,26.24Z"/><g class="cls-44"><ellipse class="cls-12" cx="207.62" cy="70.91" rx="9.26" ry="12.77" transform="translate(-8.28 31.93) rotate(-8.62)"/></g><g class="cls-44"><ellipse class="cls-12" cx="225.95" cy="85.13" rx="5.03" ry="5.86" transform="translate(-14.89 67.95) rotate(-16.57)"/></g><g class="cls-45"><path class="cls-46" d="M199.12,40.86c-9,8.11-14.52,19.44-15,34.45a64.75,64.75,0,0,0,11.32,38.43c5.65,8.3,29.4,23.23,59.22,24.36a89,89,0,0,0,29.73-4.2c-36.63-2.17-65.55-20.48-72.55-30.78a82.21,82.21,0,0,1-14.38-48.77A73.07,73.07,0,0,1,199.12,40.86Z"/></g><path class="cls-12" d="M189.93,43.79a1.73,1.73,0,0,1,0-2.15c13.35-17.6,38.18-27.2,68.12-26.34,30.13.87,54.35,12.21,66.45,31.13a1.73,1.73,0,0,1-2.75,2.08l0,0-.08-.12C310.43,30.78,288,20.08,260,18.82l-2-.08c-28.83-.82-52.63,8.29-65.3,25a2.06,2.06,0,0,1-.33.33,1.73,1.73,0,0,1-2.4-.3ZM323.1,47.42l.08-.07Z"/><g class="cls-44"><path class="cls-12" d="M310.84,101.2S323.47,64.67,304,49.41s-48-16-47.41-14.17c0,0,31.42,8.57,43.08,33.94C308.69,88.75,310.84,101.2,310.84,101.2Z"/></g><path class="cls-12" d="M201.5,30.83c21.21-35.25,70.49-32,93.41-18.14a68.82,68.82,0,0,1,24.78,26.77S270.13-2.36,201.5,30.83Z"/><path class="cls-41" d="M187.89,46C197,25.34,209.66,15.36,220.58,9.4c32.88-17.93,63.08-6.57,77.31,4-14.24-5.75-42.33-4.16-48.37,5.28C227.75,20.93,208.73,19.77,187.89,46Z"/><path class="cls-47" d="M140,174.24c-.35-5,2.63-10.28,2.63-10.28,17.06,10.31,48.47,19.91,66.37,23.42.69-4,1.41-7.29,2.11-9.8.11-.41.22-.8.33-1.16l0-.11,0-.08c.11-.36.22-.71.33-1,4.22-.25,4.71-2.49,8.11-1.65,13.23,3.26,30.21,5.95,30.21,5.95s17,2.14,30.66,2.68c3.5.14,3.37,1.37,6,2.41,0,.38,0,.79,0,1.24l.12,0c.12,2.1.19,5.22.06,9.11,8.1-.29,14.75-.83,21.48-2.44,0,0,1.63,3-.29,7.19-.82,1.79-2.28,2.53-4,3.59l-1,4.6c-1.28.25-3.17.36-7.65.71l-1.76.13-.94.05q-3.06.19-7,.27c-.47,3.63-1.11,7.51-2,11.56a6.53,6.53,0,0,1-6.45,5.07c-5.38,0-15.5-.47-33.41-3h0l-.21,0,.11,0-.45-.07q-3.87-.56-7.25-1.09c-13.09-2.08-20.81-3.94-25.17-5.23a6.56,6.56,0,0,1-4.79-6.67c.23-3,.49-5.88.79-8.62q-7.34-1.39-13.64-2.81l-2-.46-2-.46q-3.84-.9-7.29-1.8c-2.32-.59-4.5-1.19-6.56-1.77-2.58-.73-5-1.44-7.16-2.14-.88-.27-1.73-.55-2.55-.82-1.64-.53-3.17-1.06-4.58-1.56-10.61-3.78-13.37-5.61-15-6.46C138.89,177.92,140,174.24,140,174.24Z"/><path class="cls-2" d="M222,200c58,9.62,80.65,4.25,80.65,4.25,13.29-6,4.9-15.08,4.9-15.08-30.62,7-83.29-2.74-83.29-2.74s-53-7.79-79.72-24.31c0,0-10.86,5.87-.23,15.85C144.35,178,164.06,190.37,222,200Z"/><g class="cls-48"><path class="cls-39" d="M300.54,197c-15.54,4-19.37,5.78-77.36-3.84s-63.61-13.4-77.69-22a10.1,10.1,0,0,1-4.25-6c-2,2.68-3.06,7.09,3.11,12.88,0,0,19.71,12.4,77.69,22s80.65,4.25,80.65,4.25c7.71-3.49,8.12-8,7.11-11.18C308.65,194.57,306.16,195.54,300.54,197Z"/></g><path class="cls-12" d="M245.56,221.5c18.92,2.44,29.59,2.81,35.25,2.69a6.9,6.9,0,0,0,6.7-5.49A155.26,155.26,0,0,0,290.15,181c-2.82-1.05-2.7-2.35-6.37-2.44-14.29-.39-32.22-2.41-32.22-2.41s-17.86-2.58-31.78-5.83c-3.58-.83-4.07,1.53-8.49,1.84-1.92,5.78-4.22,18.93-5.29,36.09a6.91,6.91,0,0,0,5.09,7c5.45,1.55,15.86,3.88,34.78,6.31"/><g class="cls-49"><path class="cls-39" d="M290.35,182.29c-1-.11-4.7-2.64-4.65-1.83.37,5.44,1.89,16.8-1.08,31.9a6.21,6.21,0,0,1-6.08,4.9c-5.13.1-14.78-.26-31.89-2.45l.14,0-.28,0,.14,0c-17.1-2.21-26.53-4.3-31.47-5.69a6.23,6.23,0,0,1-4.64-6.29c.94-15.36,3.18-24.71,4.91-29.88.26-.77-.43-.79-4.16-.83-1.91,5.7-4.27,19.28-5.31,36.21a6.87,6.87,0,0,0,5.12,6.93c5.44,1.53,15.83,3.84,34.69,6.27s29.49,2.81,35.14,2.71a6.88,6.88,0,0,0,6.71-5.41A148.63,148.63,0,0,0,290.35,182.29Z"/></g><circle class="cls-50" cx="268.33" cy="205.33" r="5.98"/><g class="cls-51"><path class="cls-39" d="M268.17,206.61a6,6,0,0,1-5-4.31,6,6,0,1,0,11.08,3.79,5.74,5.74,0,0,0-.18-2.38A6,6,0,0,1,268.17,206.61Z"/></g><circle class="cls-52" cx="250.3" cy="202.9" r="5.98"/><g class="cls-51"><path class="cls-39" d="M250.21,204.19a6,6,0,0,1-5.25-4,6.14,6.14,0,0,0-.63,2.31,6,6,0,1,0,11.93.78,5.85,5.85,0,0,0-.32-2.37A6,6,0,0,1,250.21,204.19Z"/></g><polygon class="cls-6" points="283.06 174.38 222.03 166.52 211.29 172.12 290.35 182.29 283.06 174.38"/><polygon class="cls-53" points="235.46 175.23 230.81 174.63 226.04 211.66 230.68 212.44 235.46 175.23"/><g class="cls-54"><path class="cls-41" d="M245.56,221.5c18.92,2.44,29.59,2.81,35.25,2.69a6.9,6.9,0,0,0,6.7-5.49c-25.3,2.75-62.47-12.86-60.08-44.5l-16.14-2.08c-1.92,5.78-4.22,18.93-5.29,36.09a6.91,6.91,0,0,0,5.09,7c5.45,1.55,15.86,3.88,34.78,6.31"/></g><polygon class="cls-55" points="222.03 166.52 211.29 172.12 284.02 181.48 255.41 170.82 222.03 166.52"/><path class="cls-38" d="M189.94,41.64c3-3.19,16.78-20.24,42.88-22.48C239.7-5,265.52,2.69,283.11,5.59,252.27-7,223.72,5.15,210.23,16.19A78.77,78.77,0,0,0,189.94,41.64Z"/><polygon class="cls-56" points="268.32 173.96 282.2 175.88 287.94 180.78 281.35 177.14 268.32 173.96"/><polygon class="cls-57" points="220.59 168.36 215.15 171.21 236.85 174.38 219.21 170.14 220.59 168.36"/><path class="cls-58" d="M259.16,178.28l31.19,4-.66,21.09S289.61,182.19,259.16,178.28Z"/><path class="cls-47" d="M145.21,180.18c0,.06.1.13.16.19"/><path class="cls-59" d="M212.53,204.07c-.9-.79-3-3-4.38-4.2a2.55,2.55,0,0,0-.14-.35,9,9,0,0,0,2.78-1.18c.73-.46,2.25-2,1-3-.78-.63-2.19.1-2.94.3-1.52.41-3.12-.85-4.65-.85a5.63,5.63,0,0,0-1.46.16.11.11,0,0,1,0-.05.92.92,0,0,0,.33-.35c.43-.87-1-2.27-3.09-3.14a9.31,9.31,0,0,0-1.83-.53l-.33-.36c-.74-.81-1.35-1.52-1.89-2.18a3.08,3.08,0,0,0-1.49-2,30.14,30.14,0,0,1-1.6-2.58c-.55-1.07-1-2.18-1.49-3.32a1.11,1.11,0,0,1,.19.09,8,8,0,0,0-.83-1.85c-.35-1.05-.68-2.11-.94-3.21-.21-.91-.4-1.87-.58-2.91a44.47,44.47,0,0,1-.58-5.37c-.08-1.68-.1-3.35-.07-5,0-1.31.11-2.51.24-3.66.2-1.88.45-3.54.77-5.09.39-1.87.78-3.53,1.22-5.06.37-1.28.79-2.56,1.25-3.8s1-2.55,1.6-3.81a39,39,0,0,0,1.8-4.54,28.47,28.47,0,0,0,1.06-5.32,24.4,24.4,0,0,0-.07-5.73,23,23,0,0,0-.54-2.92,12.72,12.72,0,0,0-1-2.71,24.7,24.7,0,0,0-3-4.33,24.31,24.31,0,0,0-2.16-2.26,21.69,21.69,0,0,0-2.12-1.74,16.39,16.39,0,0,0-2.49-1.49,14.29,14.29,0,0,0-2.87-1,10.92,10.92,0,0,0-1.6-.2,12.15,12.15,0,0,0-1.35,0,11.72,11.72,0,0,0-2.73.52c-.27.08-.54.18-.81.28a11.25,11.25,0,0,0-1.73.88,11.08,11.08,0,0,0-1,.68,6,6,0,0,0-.49.39l-.13.11-.13.11a.08.08,0,0,1,0,0,1.4,1.4,0,0,0-.33.31l0,0-.07.06c-.64.6-1.23,1.23-1.68,1.71s-1.08,1.2-1.59,1.83c-.26.31-.53.65-.8,1s-.47.7-.74,1.15l0-.09-.08.13,0,.07,0,.07,0-.07a13,13,0,0,0-.7,1.28c-.18.36-.34.73-.5,1.1a25,25,0,0,0-.89,2.47c-.58,1.86-1,3.76-1.47,5.54-.46,1.95-.81,3.7-1.07,5.36-.13.87-.27,1.81-.36,2.75s-.17,1.86-.22,2.72-.09,2-.09,3,0,1.84.07,2.81c.13,1.81.34,3.69.64,5.57.26,1.65.59,3.41,1.05,5.56.4,1.83.89,3.74,1.47,5.67s1.25,3.68,1.87,5.26c.75,1.95,1.49,3.68,2.28,5.32a59,59,0,0,0,2.94,5.35,55.39,55.39,0,0,0,3.23,4.66c.61.8,1.26,1.57,1.81,2.22s1.22,1.4,1.94,2.19a3.35,3.35,0,0,0,2,2.72c0-.19.08-.38.12-.58.35.34.71.68,1.08,1a42.94,42.94,0,0,0,4.4,3.43l.71.48c.22.51.75.85,1.76,1.13h0l.24.15c.69.42,1.52.9,2.39,1.33.55.28,1.12.54,1.69.78v0c-.19,2.36.43,4.26,1.37,4.24.4,0,.79-.36,1.13-.94-.43,2.08,1.38,4.71,2.9,5.95.06.27.11.55.19.8.31,1,.39,1.87.77,2.81.5,1.25,1.89,4.12,3.58,4,1.47-.06,2.06-1.48,1.33-3.12-.59-1.31-.91-2.5-1.54-3.67l.29-.09c.49.67,1.06,1.29,1.55,1.95.8,1.09,3.15,3.52,4.16,3.15,1.57-.58,1-2.32.35-3.59a17.58,17.58,0,0,0-2.63-3.75l.11-.12c.52.36,1.05.7,1.55,1.08,1.07.81,3.38,2.78,4.7,1.75C214.22,206.79,214,205.38,212.53,204.07Z"/><path class="cls-5" d="M177.69,101.82a8.45,8.45,0,0,1,.85-.28,12.46,12.46,0,0,1,2.9-.48,13.17,13.17,0,0,1,1.42,0,11.66,11.66,0,0,1,1.68.25,15.55,15.55,0,0,1,3,1.09,17.77,17.77,0,0,1,2.58,1.64,22.63,22.63,0,0,1,2.19,1.89,25.81,25.81,0,0,1,2.23,2.44,26.12,26.12,0,0,1,3,4.65,13.35,13.35,0,0,1,1,2.88,26.48,26.48,0,0,1,.42,9.14,29.51,29.51,0,0,1-1.26,5.59,41.12,41.12,0,0,1-2,4.74c-.63,1.31-1.24,2.61-1.78,4s-1,2.64-1.43,4c-.49,1.6-1,3.34-1.41,5.31-.38,1.62-.69,3.37-.95,5.34-.16,1.21-.27,2.47-.34,3.86-.08,1.71-.1,3.47-.06,5.25a46.29,46.29,0,0,0,.48,5.67c.16,1.11.33,2.12.53,3.09a39.23,39.23,0,0,0,3,8.82,28.21,28.21,0,0,0,2.35,3.81c.74,1,1.58,2.07,2.73,3.4.43.49.87,1,1.31,1.46s.95,1,1.41,1.59a1.51,1.51,0,0,1,.21.23c.09.12.19.23.29.35a8.73,8.73,0,0,1,1,1.41,7.12,7.12,0,0,1,.64,1.44,4.93,4.93,0,0,1,.19.89,3.08,3.08,0,0,1,0,.68,2.33,2.33,0,0,1-.13.52l0,.1a1.62,1.62,0,0,1-.74.88l-.3.14a2.33,2.33,0,0,1-.6.13,2.54,2.54,0,0,1-.55,0h.06a11,11,0,0,1-2.35-.56,24,24,0,0,1-3.17-1.42,36.34,36.34,0,0,1-4-1.79c-.9-.48-1.76-1-2.48-1.47s-1.75-1.15-2.81-1.92a44.14,44.14,0,0,1-4.55-3.73c-1.05-1-2-2-2.94-3l-.05-.05c-.85-1-1.58-1.85-2.25-2.67s-1.24-1.53-1.85-2.39a59.28,59.28,0,0,1-3.29-5,63.51,63.51,0,0,1-3-5.73c-.78-1.74-1.52-3.6-2.27-5.67-.6-1.68-1.29-3.64-1.82-5.59s-1-4.08-1.41-6c-.43-2.27-.74-4.14-1-5.88-.26-2-.44-4-.53-5.9,0-1,0-2,0-3s.09-2.15.17-3.17.18-1.85.31-2.87.29-2,.45-2.9c.31-1.73.73-3.57,1.27-5.62.49-1.86,1-3.85,1.69-5.8a27,27,0,0,1,1-2.59c.17-.38.35-.77.55-1.15a13.3,13.3,0,0,1,.77-1.32l0,.07,0-.07,0-.08.09-.13,0,.09a14.24,14.24,0,0,1,.81-1.19c.29-.37.59-.72.87-1,.55-.65,1.14-1.28,1.72-1.88s1.13-1.15,1.82-1.77l.07-.06,0,0a1.32,1.32,0,0,1,.35-.31l.05,0,.13-.12.14-.11.53-.41c.3-.21.64-.43,1.06-.68A11.7,11.7,0,0,1,177.69,101.82Z"/><path class="cls-38" d="M184.36,188.53c-10.69-32.68-17.19-69.07-.44-81.27,6.77-4.93,1.63-5.82.62-5.91-3.1-.29-4.79-.37-6.85.47-3.85,1.56-8.12,5.59-10.87,11.13C158,130.78,158.25,164.94,184.36,188.53Z"/><path class="cls-5" d="M212.34,196.47a9.25,9.25,0,0,1-3,1.17,3.44,3.44,0,0,1,.14.37c1.44,1.29,3.58,3.69,4.51,4.55,1.54,1.42,1.72,2.91.47,3.83-1.42,1.05-3.8-1.08-4.91-2-.51-.41-1.07-.78-1.61-1.18l-.12.12a18.72,18.72,0,0,1,2.69,4c.66,1.36,1.2,3.21-.46,3.77-1.08.37-3.5-2.25-4.32-3.42-.49-.71-1.08-1.38-1.58-2.1l-.3.09c.62,1.24.94,2.51,1.52,3.91.73,1.75.08,3.23-1.49,3.26-1.77,0-3.17-3-3.66-4.35-.38-1-.44-2-.74-3-.08-.26-.12-.55-.18-.84-1.6-1.37-3.49-4.27-2.89-6.48a1.9,1.9,0,0,1-.4-.14s0,0,0,0a1.62,1.62,0,0,1-1.14-1.71,4.73,4.73,0,0,1,1.44-3.38c1.38-1.26,4-3,6.08-2.29a2.58,2.58,0,0,1,1.53,2,6.21,6.21,0,0,1,1.54-.13c1.62,0,3.27,1.42,4.88,1,.8-.19,2.31-.92,3.12-.24C214.76,194.43,213.12,196,212.34,196.47Z"/><ellipse class="cls-5" cx="195.67" cy="194.83" rx="4.52" ry="1.78" transform="translate(-20.96 366.05) rotate(-83.2)"/><ellipse class="cls-5" cx="197.76" cy="193.69" rx="1.82" ry="4.43" transform="translate(-18.29 20.64) rotate(-5.71)"/><ellipse class="cls-5" cx="199.05" cy="192.16" rx="1.87" ry="4.32" transform="translate(-77.58 187.56) rotate(-43.04)"/><ellipse class="cls-5" cx="200.27" cy="190.54" rx="1.84" ry="4.39" transform="translate(-30.69 342.43) rotate(-76.9)"/><path class="cls-60" d="M197.27,187.63c-22.44-16.5-6.4-46.65-6.4-46.65S182,176.5,197.27,187.63Z"/><path class="cls-6" d="M181,186.32c1-5.49,8-11,11.48-9.06-.45-1.27-.7-2.28-1.75-2.79-5.61-2.7-11.61,5.35-11.74,8.06A3.6,3.6,0,0,0,181,186.32Z"/><path class="cls-6" d="M189.38,192.3c-.09-3.78,4.79-8.11,7.55-6.74-.76-2.27-2-2.33-2.79-2.37-1.83-.09-6,4-6.55,6.19C187.22,191,187.48,191.73,189.38,192.3Z"/><path class="cls-61" d="M189.38,192.3a1.89,1.89,0,0,1-1.82-1.23c-1.15-2.7,3-5.87,3.91-6.59-.32,1.12-.09,2,1.44,1.87C189,190.12,189.38,192.3,189.38,192.3Z"/><path class="cls-61" d="M186.34,178.63c-2.67-1.64-1.76-3.49-.56-4.13-1,.54-6.3,2.88-6.78,8.3a4.49,4.49,0,0,0,.3,2.09c.65,1.8,1.72,1.43,1.72,1.43S181.41,182.4,186.34,178.63Z"/><path class="cls-62" d="M312,126.51c18.71,39.07,58.83,13.23,58.83,13.23S336.88,147.1,312,126.51Z"/><ellipse class="cls-62" cx="376.88" cy="126.63" rx="2.71" ry="0.99" transform="translate(54.25 358.97) rotate(-54.33)"/><ellipse class="cls-63" cx="390.01" cy="118.86" rx="2.71" ry="0.99" transform="translate(23.1 296.66) rotate(-42.8)"/><ellipse class="cls-63" cx="389.51" cy="129.88" rx="2.71" ry="0.99" transform="translate(15.48 299.25) rotate(-42.8)"/><ellipse class="cls-63" cx="391.15" cy="135.26" rx="2.71" ry="0.99" transform="translate(12.26 301.8) rotate(-42.8)"/></g></g></g></svg>