<svg xmlns="http://www.w3.org/2000/svg" viewBox="0 0 266.46 353.04"><defs><style>.cls-1{isolation:isolate;}.cls-2{fill:#e1d6ea;}.cls-3,.cls-34,.cls-36{fill:#675e77;}.cls-4{fill:#46225b;}.cls-5{fill:#d1c7e0;}.cls-35,.cls-39,.cls-53,.cls-6,.cls-7{fill:#8a8196;}.cls-6{opacity:0.9;}.cls-12,.cls-13,.cls-27,.cls-30,.cls-34,.cls-36,.cls-52,.cls-53,.cls-56,.cls-6,.cls-7{mix-blend-mode:multiply;}.cls-7{opacity:0.39;}.cls-57,.cls-8{fill:#fff;}.cls-9{fill:#faf3ff;}.cls-10{fill:#d5b4ef;}.cls-10,.cls-57{opacity:0.22;}.cls-11{fill:#ffcd97;opacity:0.12;mix-blend-mode:luminosity;}.cls-12,.cls-13{fill:#9e96aa;}.cls-12{opacity:0.17;}.cls-13{opacity:0.29;}.cls-14{fill:#e59007;}.cls-15{fill:#f7a328;}.cls-16{fill:#ffccc0;opacity:0.65;}.cls-17{fill:#ffdcd7;opacity:0.78;}.cls-18{fill:#ef9506;}.cls-19{fill:#b76800;opacity:0.43;}.cls-20{fill:#ffba5f;opacity:0.11;}.cls-21{fill:#fffefd;}.cls-22{fill:#e58905;}.cls-23{fill:#bf6902;}.cls-24{fill:#f2f6f9;}.cls-25{fill:#ffa836;}.cls-26{fill:#ffae43;}.cls-27{fill:#fce5e4;}.cls-28{fill:#47270b;}.cls-29{fill:#381807;}.cls-30{fill:#3d271c;}.cls-31{fill:#ffa27d;}.cls-32{fill:#ff6669;}.cls-33{fill:#ffac3e;}.cls-34{opacity:0.54;}.cls-35,.cls-38{opacity:0.81;}.cls-36{opacity:0.32;}.cls-37,.cls-51{fill:#371a45;}.cls-40{opacity:0.69;}.cls-41{fill:#8c9695;}.cls-42{opacity:0.7;}.cls-43{opacity:0.53;}.cls-44{fill:#2b1135;}.cls-45{fill:#f9ac00;}.cls-46{opacity:0.23;}.cls-47{opacity:0.18;}.cls-48{fill:#9aef37;}.cls-49{opacity:0.35;}.cls-50{fill:#ffd524;}.cls-51{opacity:0.63;}.cls-52{opacity:0.47;}.cls-53,.cls-56{opacity:0.56;}.cls-54{fill:#28123a;}.cls-55{fill:#b27ddb;}.cls-56{fill:#453d51;}.cls-58{fill:#905fb2;}</style></defs><title>Asset 2ldpi</title><g class="cls-1"><g id="Layer_2" data-name="Layer 2"><g id="Layer_1-2" data-name="Layer 1"><path class="cls-2" d="M217.78,160c-.37,0-.74-.07-1.11-.13a15.3,15.3,0,0,1-3.47-1,13.86,13.86,0,0,1-1.54-.79,12.14,12.14,0,0,1-1.71-1.16,17.19,17.19,0,0,1-2.66-2.81,18.05,18.05,0,0,1-1.88-3.2,23.78,23.78,0,0,1-1.31-3.27,31.44,31.44,0,0,1-1.58-10.71,17,17,0,0,1,.55-3.79,35.16,35.16,0,0,1,1.27-3.74,34.53,34.53,0,0,1,3.65-6.76,39.56,39.56,0,0,1,4.67-5.64,56.43,56.43,0,0,1,5-4.28c1.47-1.16,2.9-2.3,4.3-3.54s2.65-2.45,3.91-3.73c1.49-1.55,3-3.27,4.68-5.24,1.37-1.63,2.74-3.44,4.19-5.53.88-1.27,1.75-2.63,2.64-4.15,1.09-1.89,2.15-3.87,3.15-5.88A64.34,64.34,0,0,0,243.34,78c.47-1.32.87-2.55,1.23-3.75a49.29,49.29,0,0,0,1.85-11.51,35.08,35.08,0,0,0-.36-5.53c-.21-1.54-.52-3.16-1-5.25-.18-.79-.38-1.56-.58-2.34s-.44-1.68-.63-2.53a1.19,1.19,0,0,1-.09-.36l-.12-.55a10.67,10.67,0,0,1-.27-2.12,9.43,9.43,0,0,1,.14-2,5.78,5.78,0,0,1,.31-1.1,4.32,4.32,0,0,1,.42-.76,2.75,2.75,0,0,1,.44-.52l.09-.09a2.15,2.15,0,0,1,1.34-.61h.42a2.91,2.91,0,0,1,.73.17,3.37,3.37,0,0,1,.59.32l.08,0-.15-.07A12.26,12.26,0,0,1,250,41.32a28.55,28.55,0,0,1,2.66,3.26A39.05,39.05,0,0,1,256,48.69c.72,1,1.35,2.05,1.88,3,.63,1.06,1.25,2.21,2,3.63a53.19,53.19,0,0,1,2.82,6.59c.57,1.66,1.06,3.33,1.45,5l0,.08c.36,1.55.66,2.91.91,4.19.22,1.08.46,2.37.64,3.66a73.61,73.61,0,0,1,.69,7.34,77.38,77.38,0,0,1-.1,8c-.16,2.38-.44,4.85-.83,7.57-.33,2.22-.72,4.79-1.28,7.26s-1.26,5.14-2,7.52c-.86,2.78-1.62,5-2.4,7.13-.88,2.39-1.85,4.71-2.88,6.92-.55,1.17-1.16,2.29-1.74,3.34s-1.36,2.38-2.06,3.49-1.28,2-2,3.07-1.48,2.07-2.2,3c-1.37,1.79-2.9,3.64-4.7,5.66a50.7,50.7,0,0,1-5.28,5.65c-10.16,8.46-15.11,8.51-15.11,8.51a1.62,1.62,0,0,1-.58.17l-.07,0-.22.06-.21.06c-.28.07-.55.12-.83.17a15.63,15.63,0,0,1-1.57.22A14.6,14.6,0,0,1,217.78,160Z"/><ellipse class="cls-2" cx="253.18" cy="45.97" rx="5.76" ry="2.17" transform="translate(70.66 227.36) rotate(-55.12)"/><ellipse class="cls-2" cx="250.2" cy="46.13" rx="5.61" ry="2.23" transform="translate(109.62 258.18) rotate(-66.9)"/><ellipse class="cls-2" cx="247.87" cy="47.16" rx="2.36" ry="5.29" transform="translate(-4.03 61.72) rotate(-14.08)"/><ellipse class="cls-2" cx="245.56" cy="48.32" rx="2.35" ry="5.32" transform="translate(26.55 169.44) rotate(-40.08)"/><path class="cls-2" d="M252.66,46.16s6-1.16,3.72-8.29l-.84-6.38-14,.5s-3.62,5.57-2.81,9.27,4.72,6.36,6.85,7.24S252.3,48,252.66,46.16Z"/><path class="cls-2" d="M251.88,37.39s4.36,2.31,5.8.15,2.91-6.05.64-9.59-4.95.82-4.95.82S251.33,35.51,251.88,37.39Z"/><path class="cls-2" d="M248.62,25.91c.18-.13,2.2-2.08,3.82-1.78s4.81,3.09,3.91,6.37-2.51,8.11-5.24,6.16S248.62,25.91,248.62,25.91Z"/><path class="cls-2" d="M240.32,44.55s-3.58-4.11-4.13-8.63,7.13-10.55,9.92-11.25,4.08,2.6,4.7,5.95,0,5.3-1.92,6.69-5.72-3.67-5.45-5l-1.51,6.41Z"/><path class="cls-3" d="M252.82,46.33c3.1-.77,5.06-3.57,3.94-7.85a2.11,2.11,0,0,0,1.07-.83c3.82-5.73.82-12-2.06-11.2a6,6,0,0,0-3.29-2.52c-.94-.17-2.16.33-3.53,1.45a2.75,2.75,0,0,0-2.88-.9c-3,.75-10.61,6.91-10.06,11.48s4.44,10.66,9.46,12.72C247.55,49.54,252.23,48.33,252.82,46.33Zm-7.2,2a13.7,13.7,0,0,1-5.17-3.92c-.37-.43-3.56-4.27-4.07-8.5s6.92-10.31,9.77-11a2.75,2.75,0,0,1,2.84,1c.21,0,3.41-4,6.54.93l.08.13c.09,0,1.33-.77,2.56,1.15,2.54,4,.15,8.17-.65,9.36a1.86,1.86,0,0,1-1.23.78c.06.47,1.07,3.13-.27,5.37A5.45,5.45,0,0,1,252.51,46l0,.14C252.15,47.81,247.7,49.17,245.62,48.31Z"/><path class="cls-3" d="M252.48,23.93c-1.5-.27-2.75.9-3.66,1.56-.18.13,0,.43.33.22,1.34-1,2.35-1.55,3.25-1.39,1.58.29,4.63,3,3.77,6.13s-2.41,7.86-5,6a2.79,2.79,0,0,1-.74-.81c-.14-.21-.46,0-.32.23a3.1,3.1,0,0,0,.84.91c2.86,2,4.55-2.68,5.53-6.27C257.43,27.3,254.39,24.28,252.48,23.93Z"/><path class="cls-3" d="M251,30.58c-1.32-7.12-4.45-8.53-11.23-1.86-1.55,1.53-4.09,4.49-3.76,7.24.48,4,4.16,8.93,4.44,8.73S237,41,236.38,35.89c-.31-2.56,2.15-5.41,3.65-6.88,6.64-6.53,9.34-5.12,10.6,1.66.59,3.18,0,5.12-1.85,6.48-1.71,1.23-5.4-3.57-5.15-4.82a.19.19,0,1,0-.38-.07C243,33.73,246.89,39,249,37.47,251.3,35.8,251.53,33.44,251,30.58Z"/><path class="cls-3" d="M258.48,27.84c-1.22-1.92-2.9-1.61-2.81-1.16s1.17-.69,2.5,1.39c2.54,4,.15,8.17-.65,9.36s-3.56,1.38-4-.72c0-.26-.42-.16-.37.09.49,2.45,3.7,2.29,4.66.85C259.82,34.67,260.46,30.93,258.48,27.84Z"/><path class="cls-2" d="M241,37.55s4.69-5.71,6.59-6.28,7.46,2.06,7.66,3.88S255,39.59,252,40.3s-4.76-2.57-4.76-2.57l-.55,6.16S239.46,43.15,241,37.55Z"/><path class="cls-3" d="M246.7,43.89c.14-2.24.27-4.49.4-6.77.06.05,2.67,5.07,6.43,2.29A4.46,4.46,0,0,0,255,35.18c-.2-1.39-3.42-3-5.11-3.49-2.3-.69-3-.8-8.81,6h0a.19.19,0,1,1-.28-.25,57,57,0,0,1,4-4.36c2.07-2,2.59-1.93,2.68-2,2-.59,6.86,1.82,7.73,3.51l.06.12c.37.88.49,5-3.38,5.81-2.3.47-3.91-1.36-4.54-2.24l-.66,5.61h0Z"/><path class="cls-3" d="M252.36,46.45c-.08.81,1.53.25-.91-4.27,0,0-.11,0-.09,0C251.74,43.06,252.81,45.63,252.36,46.45Z"/><path class="cls-4" d="M260.23,55.62c-3.73-2.89-13.09-.66-13.93,3.26a5.43,5.43,0,0,1,.54-5.42c2.22-2.52,9.76-3.1,11.74-2.25C259.77,51.73,260.59,53.55,260.23,55.62Z"/><path class="cls-4" d="M265,67.15c-5.25-3.32-18.43-.71-19.6,3.81a5.36,5.36,0,0,1,.74-6.25c3.11-2.91,13.74-3.61,16.52-2.64A4.29,4.29,0,0,1,265,67.15Z"/><path class="cls-5" d="M106.39,327.57C105.74,339,91,347.48,73.54,346.49S42.38,335.43,43,324s19.18-9.92,32.85-18.92C90.51,295.44,107,316.14,106.39,327.57Z"/><path class="cls-6" d="M107.73,321.3c-.65,11.44-5.68,22.79-26.31,25C56.93,348.91,42.38,335.43,43,324s19.18-9.92,32.85-18.92C90.51,295.44,108.37,309.86,107.73,321.3Z"/><path class="cls-7" d="M94.25,316c-.65,11.44,3.65,23.95-17,26.16C52.78,344.79,42.38,335.43,43,324s19.18-9.92,32.85-18.92C90.51,295.44,94.9,304.57,94.25,316Z"/><path class="cls-8" d="M157.48,330.46C156.84,341.9,170.5,352,188,353s32.21-7.48,32.85-18.92-17.94-12-30.51-22.5C176.88,300.32,158.13,319,157.48,330.46Z"/><path class="cls-6" d="M157.48,330.46C156.84,341.9,170.5,352,188,353s32.21-7.48,32.85-18.92-14.26,25.74-39.93,1.62C168.14,323.66,158.13,319,157.48,330.46Z"/><path class="cls-9" d="M217,136.32C193.47,67.23,104.5,57,67.63,127.92c-88.9,214.05,51.65,202.62,61,202.3,5-.17,55,1.38,82.48-21C238.83,286.63,253.3,238.7,217,136.32Z"/><path class="cls-10" d="M201.25,107.91c-45.36-50.93-109.17-27-133.62,20-88.9,214.05,51.65,202.62,61,202.3,1.95-.07,38.06,2.49,61.49-9.33,9.63-3.38,16.31-7.13,21.17-12.81C147.43,301,171,151.62,201.25,107.91Z"/><path class="cls-11" d="M67.63,127.92c-88.9,214.05,61,202.3,61,202.3S13.27,332.56,67.63,127.92Z"/><path class="cls-6" d="M58.24,151.57C17.56,263.22,46.42,301.87,71.11,317.45c4.9,3.1,10,5,13.94,6.69,8.84,3.79,26.21,6.39,31.64,6.3,19.16-.31,65.35,2.1,97.53-23.66C165.52,319.7,40.81,305,111.31,143.21c7.26-16.66-34.69.11-29.25-23.09C75.3,128.4,63.48,137.19,58.24,151.57Z"/><path class="cls-6" d="M58.24,151.57C17.56,263.22,46.42,301.87,71.11,317.45c4.9,3.1,10,5,13.94,6.69,8.84,3.79,26.21,6.39,31.64,6.3,19.16-.31,65.35,2.1,97.53-23.66C-21.26,377.54,76.62,143.32,82.06,120.12,75.3,128.4,63.48,137.19,58.24,151.57Z"/><ellipse class="cls-12" cx="153.29" cy="145.1" rx="59.29" ry="44.69" transform="translate(-16.33 19.47) rotate(-6.9)"/><ellipse class="cls-13" cx="151.64" cy="139.21" rx="55.24" ry="41.55" transform="translate(-9.74 11.41) rotate(-4.18)"/><path class="cls-14" d="M174.62,37.36C173.51,35,182.57,23.42,190.8,31c5.7,5.24,24.31,14,16.2,26.28a12.57,12.57,0,0,1-13.59,5.52S180.11,39.66,174.62,37.36Z"/><path class="cls-15" d="M190.8,31c5.7,5.24,24.31,14,16.2,26.28a12.57,12.57,0,0,1-13.59,5.52S224.24,55.85,190.8,31Z"/><path class="cls-16" d="M176.76,38.92c-.88-1.89,6.17-10.67,12.72-4.64,4.55,4.17,19.37,11.15,12.91,20.93a10,10,0,0,1-10.82,4.4S181.52,42.94,176.76,38.92Z"/><path class="cls-17" d="M189.48,34.28c4.55,4.17,19.37,11.15,12.91,20.93a10,10,0,0,1-10.82,4.4S207,51.41,189.48,34.28Z"/><path class="cls-18" d="M202.57,128.06s6.65,7,4.77,13.65c8.36-5.58,8.61-31.32,8.61-31.32s6.73,14.63,5.89,11.44c1.46-16-7.91-29.61-7.91-29.61a12.4,12.4,0,0,1,6.65.45c.57-7.53-13.84-18.78-13.84-18.78s2.76,2.34,10.15,2.36c-27-14.29-21.09-57.87-89.48-42.54C62.06,46.12,82.17,86.23,59.7,106.2l11.45-7.31s-10.21,10.82-9.59,23.81l6-2s-4.15,11.92,4,31.78l3.6-15.81s5,20.17,17.5,25.79c1.64,1.12,1.48-14.08,1.48-14.08,7.63,9.68,15.37,15.87,56.55,8C202.93,146.5,202.57,128.06,202.57,128.06Z"/><path class="cls-19" d="M202.57,128.06s6.65,7,4.77,13.65c8.36-5.58,8.61-31.32,8.61-31.32s6.73,14.63,5.89,11.44c1.46-16-7.91-29.61-7.91-29.61a12.4,12.4,0,0,1,6.65.45c.57-7.53-13.84-18.78-13.84-18.78s2.76,2.34,10.15,2.36c-27-14.29-21.09-57.87-89.48-42.54,87.74,8.3,66,104,23.31,122.7C202.93,146.5,202.57,128.06,202.57,128.06Z"/><path class="cls-20" d="M127.41,33.71C62.06,46.12,82.17,86.23,59.7,106.2l11.45-7.31s-10.21,10.82-9.59,23.81l6-2s-4.15,11.92,4,31.78l3.6-15.81s5,20.17,17.5,25.79c1.64,1.12,1.48-14.08,1.48-14.08,7.63,9.68,15.37,15.87,56.55,8C138.09,153,20.82,125.55,127.41,33.71Z"/><path class="cls-21" d="M150,30C146,96.19,214,80.4,191.61,143.76c-8.36,11-53.9,17.06-64.07,15.84-53.16-45.61,24.52-81-10.92-123.36C127.41,32.42,139.35,30.64,150,30Z"/><path class="cls-22" d="M175.87,59.46c2.14-7.65-3.86-9.39-8.43-6.18-14.23,12.65,6.68,26.81,6.68,26.81S171.69,74.32,175.87,59.46Z"/><path class="cls-22" d="M104.71,73c-4.8-6.33.15-10.15,5.57-8.84,17.88,6.56,3.62,27.39,3.62,27.39S114,85.27,104.71,73Z"/><path class="cls-23" d="M90,78.51a1.16,1.16,0,0,0,.38-.67,12.91,12.91,0,0,1,3.12-5.7,10.26,10.26,0,0,1,6-3.2,1.17,1.17,0,1,0-.21-2.33,12.61,12.61,0,0,0-7.45,3.93,14.74,14.74,0,0,0-3.7,6.88A1.17,1.17,0,0,0,89,78.78,1.19,1.19,0,0,0,90,78.51Z"/><path class="cls-23" d="M192.7,61.16a1.17,1.17,0,0,0,1.58-1.53A14.87,14.87,0,0,0,189,53.89a12.61,12.61,0,0,0-8.19-2,1.17,1.17,0,0,0,.38,2.31,10.43,10.43,0,0,1,6.56,1.62,12.5,12.5,0,0,1,4.43,4.74A1.15,1.15,0,0,0,192.7,61.16Z"/><path class="cls-24" d="M191.49,86.88l.07,0a.14.14,0,0,0,0-.21c-.09-.09-2.48-2.28-17.86-6A128.23,128.23,0,0,0,156,77.91a.14.14,0,0,0-.16.13.14.14,0,0,0,.13.16,128.1,128.1,0,0,1,17.71,2.69c15.23,3.7,17.71,5.93,17.73,6A.12.12,0,0,0,191.49,86.88Z"/><path class="cls-24" d="M188.12,96.18l0,0a.15.15,0,0,0,.05-.2c-.07-.11-1.86-2.81-15.92-10.11A128.14,128.14,0,0,0,155.71,79a.15.15,0,0,0-.19.09.16.16,0,0,0,.1.19,127.53,127.53,0,0,1,16.55,6.83c13.92,7.23,15.79,10,15.8,10A.17.17,0,0,0,188.12,96.18Z"/><path class="cls-14" d="M89.56,54.51c.17-2.62-12.5-10.07-17.39,0-3.39,7-17.49,21.93-5.44,30.38a12.56,12.56,0,0,0,14.66.17S85.29,58.66,89.56,54.51Z"/><path class="cls-25" d="M72.17,54.5c-3.39,7-17.49,21.93-5.44,30.38,7.77,5.46,12.72,1.15,14.66.17C52.62,87.73,66,66.16,72.17,54.5Z"/><path class="cls-16" d="M88.11,56.75c.13-2.08-9.64-7.67-13.54.34-2.69,5.55-13.93,17.47-4.33,24.21A10.09,10.09,0,0,0,82,81.41S85.32,62.14,88.11,56.75Z"/><path class="cls-17" d="M74.57,57.09c-2.69,5.55-13.93,17.47-4.33,24.21A10.09,10.09,0,0,0,82,81.41S62,81.9,74.57,57.09Z"/><path class="cls-24" d="M104.25,103.44a.11.11,0,0,0,.1-.08s1.5-3,14.32-12a129.3,129.3,0,0,1,15.48-9,.13.13,0,0,0,.07-.19.15.15,0,0,0-.19-.07,125.85,125.85,0,0,0-15.53,9c-12.94,9.12-14.36,12-14.41,12.15a.14.14,0,0,0,.07.19A.1.1,0,0,0,104.25,103.44Z"/><path class="cls-24" d="M110.78,110.86a.14.14,0,0,0,.12-.11s.74-3.28,11-15.1a127.67,127.67,0,0,1,12.89-12.43.13.13,0,0,0,0-.2.14.14,0,0,0-.2,0,125.49,125.49,0,0,0-12.93,12.46c-10.4,11.94-11.08,15.1-11.11,15.23a.15.15,0,0,0,.12.17A0,0,0,0,0,110.78,110.86Z"/><path class="cls-26" d="M70.88,87.27c7.89,6-11.18,18.93-11.18,18.93S66.61,101.78,70.88,87.27Z"/><path class="cls-26" d="M71.48,99a34.49,34.49,0,0,0-9.92,23.72s6.18-1.83,7.9-2.63C65.19,119.77,67,105.52,71.48,99Z"/><path class="cls-26" d="M67.7,118c-5.57,12.7-.28,32-.28,32s-2.5-21.78,7-35.39C73.34,114.94,68.11,118.23,67.7,118Z"/><path class="cls-26" d="M79.54,120.29c-.72,1.12-5.61,12.87-6.4,14.92,4.93,25.54,14.53,27.67,14.53,27.67S74.79,143.28,79.54,120.29Z"/><path class="cls-26" d="M91.13,133.87c-.09,1.71-.87,11.59-1.23,14.67,3.94,15.39,27.13,18.7,27.13,18.7S91.28,156.11,91.13,133.87Z"/><path class="cls-27" d="M211.67,77.49c1.13,5.09-4.42,10.63-12.38,12.4s-15.33-.91-16.46-6,4.41-10.64,12.38-12.4S210.54,72.41,211.67,77.49Z"/><path class="cls-27" d="M112.75,98.79c1.13,5.08-5,10.77-13.8,12.72s-16.76-.6-17.89-5.69S86.11,95,94.87,93.1,111.63,93.71,112.75,98.79Z"/><path class="cls-28" d="M184.35,64.85c2,3.6,1,8-2.18,9.75s-7.36.31-9.34-3.29-1-8,2.17-9.75S182.37,61.25,184.35,64.85Z"/><path class="cls-29" d="M182.41,66.67a4.34,4.34,0,0,1-1.33,6,4.26,4.26,0,0,1-5.7-2,4.35,4.35,0,0,1,1.33-6A4.26,4.26,0,0,1,182.41,66.67Z"/><path class="cls-8" d="M177.67,65.56a2.58,2.58,0,0,1-.67,3.61,2.65,2.65,0,0,1-3.65-.7,2.56,2.56,0,0,1,.66-3.6A2.67,2.67,0,0,1,177.67,65.56Z"/><path class="cls-8" d="M182.47,66.81a1.7,1.7,0,0,1-.45,2.4,1.76,1.76,0,0,1-2.43-.45,1.72,1.72,0,0,1,.44-2.41A1.79,1.79,0,0,1,182.47,66.81Z"/><path class="cls-28" d="M102.67,82.67c-.46,4.09,2.1,7.76,5.72,8.2s6.93-2.52,7.4-6.6-2.1-7.76-5.72-8.2S103.13,78.59,102.67,82.67Z"/><path class="cls-29" d="M105.16,83.62a4.36,4.36,0,0,0,3.49,5,4.27,4.27,0,0,0,4.51-4,4.36,4.36,0,0,0-3.49-5A4.27,4.27,0,0,0,105.16,83.62Z"/><path class="cls-8" d="M109.12,80.79a2.58,2.58,0,0,0,2,3.09,2.66,2.66,0,0,0,3.11-2,2.56,2.56,0,0,0-2-3.08A2.66,2.66,0,0,0,109.12,80.79Z"/><path class="cls-8" d="M105.16,83.78a1.71,1.71,0,0,0,1.32,2,1.78,1.78,0,0,0,2.08-1.35,1.72,1.72,0,0,0-1.32-2A1.77,1.77,0,0,0,105.16,83.78Z"/><path class="cls-30" d="M149.29,103.69h0c-8.23,1-9.88-7.81-10.42-10.71,0,0,6.5,1.93,7.1-4.63,1.77-.22-.8.07.95-.26,4,7,8.29,1.83,8.29,1.83,1.44,7.69-.64,12.57-5.86,13.76Z"/><path class="cls-8" d="M149.47,91.21c.05.28.28,1.52.34,1.91,0,.18,0,.33-.08.35l-4.37.81c-.07,0-.16-.11-.2-.3-.08-.38-.31-1.64-.36-1.92l1.68-3Z"/><path class="cls-28" d="M141.77,94.08a6.26,6.26,0,0,1-7.31-5,.56.56,0,1,1,1.1-.21A5.14,5.14,0,1,0,145.67,87l-1.3-6.91a.56.56,0,0,1,1.11-.21l1.29,6.92A6.26,6.26,0,0,1,141.77,94.08Z"/><path class="cls-28" d="M153,92a6.27,6.27,0,0,1-7.3-5l-1.3-6.91a.56.56,0,0,1,1.11-.21l1.29,6.92a5.14,5.14,0,0,0,10.11-1.89.56.56,0,0,1,.44-.66.57.57,0,0,1,.66.45A6.28,6.28,0,0,1,153,92Z"/><path class="cls-31" d="M145.77,84.46c-.9.17-7.92-.82-8.5-3.91-.69-3.68,4.38-4.62,6.82-5.08s7.5-1.4,8.18,2.27C152.86,80.86,147,84.23,145.77,84.46Z"/><path class="cls-31" d="M144.2,76.07c3.81-.72,7-.82,7.48,1.78s-4.87,5.8-6,6c-.7.13-7.3-.83-7.79-3.44s2.51-3.65,6.33-4.36M144,74.88c-2.42.45-8.09,1.51-7.29,5.78.69,3.72,8.46,4.54,9.2,4.4,1.57-.3,7.65-3.88,7-7.43-.8-4.27-6.47-3.21-8.9-2.75Z"/><path class="cls-32" d="M155.48,96.45a16.28,16.28,0,0,0-13.9,4,7.58,7.58,0,0,0,8.35,3.26C152.87,102.92,155,100.45,155.48,96.45Z"/><path class="cls-18" d="M183.54,41.25s3.38-2.44,3.82-4c1,3.62-.57,7.9-.57,7.9s4.27-2.51,4.77-5.12c.94,2.76-.67,8.07-.67,8.07a3.39,3.39,0,0,0,2.31-1.8c2,6-.09,8.33-.09,8.33l-7.27-7Z"/><path class="cls-19" d="M183.54,41.25s3.38-2.44,3.82-4c1,3.62-.57,7.9-.57,7.9s4.27-2.51,4.77-5.12c.94,2.76-.67,8.07-.67,8.07a3.39,3.39,0,0,0,2.31-1.8c2,6-.09,8.33-.09,8.33l-7.27-7Z"/><path class="cls-18" d="M87.4,61.61s-4-1.12-5-2.47c.28,3.76,3.26,7.22,3.26,7.22s-4.88-.88-6.25-3.16c.08,2.92,3.42,7.34,3.42,7.34a3.35,3.35,0,0,1-2.78-.89c.16,6.33,3,7.78,3,7.78l4.41-9Z"/><path class="cls-20" d="M87.4,61.61s-4-1.12-5-2.47c.28,3.76,3.26,7.22,3.26,7.22s-4.88-.88-6.25-3.16c.08,2.92,3.42,7.34,3.42,7.34a3.35,3.35,0,0,1-2.78-.89c.16,6.33,3,7.78,3,7.78l4.41-9Z"/><path class="cls-33" d="M113.85,37.81c1.56,1.78.56.44,3,3.37-9.23,0-28.88,13.62-28.88,13.62S93.8,45,113.85,37.81Z"/><path class="cls-34" d="M39.46,223.59s15.23-27.13,25.69-29.49c15-3.4,24.69-26.88,21.13-39-6.06-20.62-40.93,31-40.93,31Z"/><path class="cls-3" d="M76.58,139.1c.33.16.65.33,1,.52a14.92,14.92,0,0,1,2.82,2.16,14.76,14.76,0,0,1,1.14,1.28,12.35,12.35,0,0,1,1.18,1.69,18.12,18.12,0,0,1,1.52,3.54,18.76,18.76,0,0,1,.7,3.64,24.13,24.13,0,0,1,.16,3.49,31.34,31.34,0,0,1-.29,4,31.93,31.93,0,0,1-1.61,6.49,15.92,15.92,0,0,1-1.68,3.3,30.47,30.47,0,0,1-2.3,3,32,32,0,0,1-5.39,4.94,35.4,35.4,0,0,1-6,3.53A49.34,49.34,0,0,1,62,182.84c-1.68.54-3.33,1.08-5,1.73s-3.15,1.31-4.67,2c-1.83.9-3.74,1.93-5.85,3.16-1.74,1-3.54,2.2-5.49,3.61-1.2.86-2.4,1.8-3.68,2.89-1.56,1.36-3.13,2.8-4.66,4.31a57.33,57.33,0,0,0-4.6,5.13c-.84,1-1.58,2-2.27,3a46.81,46.81,0,0,0-5.25,10,35.38,35.38,0,0,0-1.4,5.23c-.28,1.5-.51,3.11-.73,5.22-.08.79-.14,1.58-.2,2.37s-.13,1.71-.22,2.56a1.5,1.5,0,0,1,0,.37l-.06.55a11.2,11.2,0,0,1-.41,2,9.08,9.08,0,0,1-.73,1.76,5.22,5.22,0,0,1-.63.9,4.6,4.6,0,0,1-.61.56,2.39,2.39,0,0,1-.56.32l-.11,0a2,2,0,0,1-1.39.09l-.38-.16a3,3,0,0,1-.61-.42,3.43,3.43,0,0,1-.43-.5l-.06-.09.11.13a13,13,0,0,1-1.45-2.52,30.29,30.29,0,0,1-1.39-4,42.09,42.09,0,0,1-1.72-5c-.34-1.18-.58-2.38-.78-3.4-.23-1.2-.44-2.49-.64-4.06a53.77,53.77,0,0,1-.5-7.1c0-1.75.08-3.47.24-5.11v-.08c.16-1.56.31-2.93.48-4.2.14-1.08.32-2.36.56-3.61a69.21,69.21,0,0,1,1.67-7,75.32,75.32,0,0,1,2.57-7.36c.89-2.14,1.9-4.33,3.11-6.7,1-1.93,2.13-4.16,3.4-6.25s2.73-4.3,4.13-6.24c1.64-2.26,3-4.08,4.38-5.73,1.54-1.89,3.13-3.69,4.75-5.36.85-.89,1.75-1.71,2.6-2.47s2-1.7,2.94-2.48,1.77-1.37,2.78-2.11,2-1.38,2.92-2c1.79-1.17,3.75-2.33,6-3.55,2.05-1.12,4.25-2.29,6.51-3.33a32.26,32.26,0,0,1,3.11-1.26c.48-.17,1-.33,1.47-.47a17.92,17.92,0,0,1,1.8-.42h-.1l.1,0,.11,0,.18,0-.11,0a17.28,17.28,0,0,1,1.72-.26c.57-.06,1.12-.09,1.64-.11,1-.05,2.08-.06,3.09-.05.84,0,2,0,3.07.14h.18a1.6,1.6,0,0,1,.57.05h.08l.21,0,.21,0c.27,0,.54.08.8.13.44.08.91.2,1.48.36A14,14,0,0,1,76.58,139.1Z"/><path class="cls-3" d="M22.07,248.13a11.43,11.43,0,0,1-3.48-1.63c-.07.15-.14.29-.22.43.06,2.33-.27,6.21-.25,7.73,0,2.54-1.14,3.93-3,3.6-2.09-.38-2.2-4.24-2.34-6-.06-.79-.19-1.59-.29-2.39h-.21a22.12,22.12,0,0,1-1.31,5.7c-.65,1.71-1.83,3.73-3.71,2.73-1.21-.65-.91-4.95-.56-6.64.21-1,.31-2.09.53-3.13l-.33-.2C6.33,250,5.48,251.29,4.73,253,3.8,255.06,2,255.7.64,254.35c-1.51-1.53,0-5.3.78-6.83.58-1.17,1.36-2,2-3.14.17-.28.39-.56.59-.85-.11-2.55.87-6.61,3.31-7.92a2,2,0,0,1-.21-.47s0,0,0,0a2,2,0,0,1,.56-2.43,5.64,5.64,0,0,1,4.17-1.52c2.25.16,6,1,7.06,3.44a3.13,3.13,0,0,1-.47,3,7.31,7.31,0,0,1,1.4,1.25c1.3,1.45,1.46,4,3.15,5.14.83.54,2.73,1.27,2.8,2.54C25.88,248.57,23.13,248.42,22.07,248.13Z"/><ellipse class="cls-3" cx="9.68" cy="232.1" rx="5.46" ry="2.16" transform="translate(-136.24 51.35) rotate(-36.53)"/><ellipse class="cls-3" cx="12.42" cy="233" rx="5.36" ry="2.2" transform="translate(-171.67 89.63) rotate(-49.04)"/><ellipse class="cls-3" cx="14.84" cy="232.86" rx="5.22" ry="2.26" transform="translate(-218.49 232.9) rotate(-86.36)"/><ellipse class="cls-3" cx="17.28" cy="232.86" rx="2.22" ry="5.31" transform="translate(-114.11 39.83) rotate(-30)"/><path class="cls-35" d="M17.34,227.54c-4.1-33.43,35.73-44.34,35.73-44.34S14.44,204.84,17.34,227.54Z"/><path class="cls-4" d="M6.69,224.47c3.24-3.22,11.1-2.52,12.19,1.05,1.36-2.56.43-3.65-.23-4.42-1.44-1.69-8.56-2-10.88-.63C6,221.49,5.61,222.32,6.69,224.47Z"/><path class="cls-4" d="M5,212.15c5.72-3.63,16.36-2.1,17.51,2.58.74-1.44,1.42-2.51,1-3.85-2.28-7.18-14.34-5.77-16.84-3.64A4.38,4.38,0,0,0,5,212.15Z"/><path class="cls-36" d="M239,228.18l.2-.21.32-.36.17-.19c.13-.14.25-.29.37-.44l.08-.09.4-.53.12-.16.25-.36a1.37,1.37,0,0,0,.13-.2l.21-.32.12-.2.18-.32.11-.19c.06-.11.12-.22.17-.33a1.3,1.3,0,0,0,.08-.17c.07-.14.13-.27.19-.41l0-.08c.07-.16.14-.33.2-.49s0,0,0-.07.1-.28.14-.41a.65.65,0,0,1,0-.13l.09-.35,0-.13c0-.12.06-.24.08-.35s0-.08,0-.12l.06-.38s0,0,0-.07c.77-6-5.26-9.83-5.26-9.83a142.21,142.21,0,0,1-25.7,10c-1-4.59-2.05-8.23-2.82-10.65h-.15c-.15-.52-.3-1-.44-1.44-3.44-.41-3.66-1.89-7.79-1-16.11,3.47-36.73,6.1-36.73,6.1s-20.69,2-37.16,2.14c-4.23,0-4.14,2.82-9,4.37,0,.41-.06.84-.08,1.3a.41.41,0,0,0,0,.11.57.57,0,0,1,0,.13c0,.46,0,.95,0,1.46-.06,3.15.09,7.25.49,12.12-22,1.28-56.35,1.77-79.44-5.16,0,0-5.18,4.89-3.25,10.67,0,0,0,0,0,.06s.09.24.14.37a.42.42,0,0,0,0,.1c0,.11.09.22.14.33l.06.12c0,.11.1.22.16.33l.06.12.21.37,0,.07c.09.15.19.3.29.45l0,.07.26.36.11.15.24.29a1.15,1.15,0,0,0,.14.17l.24.28.16.17.26.28.17.16c.1.11.21.21.32.31l.14.14.5.43.09.08.45.36.21.15.38.29.24.17.39.27.26.17.42.27.26.17.49.28.24.15.77.42s5.91,1.83,19.48,3.06c1.81.16,3.75.31,5.84.45l3.23.19q4.17.22,9,.35,3.87.09,8.21.1c2.88,0,5.9,0,9.09-.1l2.46-.06,2.48-.07Q111,253,120,252.44c.48,3.31,1,6.77,1.68,10.34a7.91,7.91,0,0,0,7.62,6.36c5.49.2,15.09.05,31-1.45q4.13-.39,8.82-.91l.55-.06-.14,0,.26,0h0c21.73-2.43,33.74-4.89,40-6.55a7.91,7.91,0,0,0,6-7.88c-.22-5-.65-9.74-1.2-14.14,3.05-.84,5.74-1.65,8.1-2.41l1.08-.35,2-.68a92.65,92.65,0,0,0,9.67-3.81l.46-.21.46-.24.67-.57.21-.18.42-.38.23-.22.36-.34.22-.22Z"/><path class="cls-37" d="M95.2,166.18A87.11,87.11,0,0,1,53.9,113.3h0a87.67,87.67,0,1,1,107.9,61.07c-.91.25-1.82.48-2.73.71A87.09,87.09,0,0,1,95.2,166.18Zm20-160.06a86.92,86.92,0,0,0-19.6,159.41A86.92,86.92,0,0,0,222.15,66.67,86.94,86.94,0,0,0,117.87,5.41C117,5.63,116.07,5.87,115.17,6.12Z"/><path class="cls-3" d="M61,133.47h0a1.78,1.78,0,0,0,1.39-2.09L53.6,106.2l-1.41-25a1.78,1.78,0,0,0-2.09-1.39h0a18.66,18.66,0,0,0-14.59,22L39,118.88A18.65,18.65,0,0,0,61,133.47Z"/><path class="cls-34" d="M61,133.47h0a1.78,1.78,0,0,0,1.39-2.09s-20.6-4.4-26.83-29.62L39,118.88A18.65,18.65,0,0,0,61,133.47Z"/><path class="cls-8" d="M215.84,46.29h0a1.77,1.77,0,0,0-1.39,2.09s13.28,24.21,10.14,50.21c-.28,1.16,1.14,1.59,2.1,1.4h0a18.67,18.67,0,0,0,14.59-22l-3.46-17.12A18.65,18.65,0,0,0,215.84,46.29Z"/><g class="cls-38"><path class="cls-39" d="M221.78,84.66l2.81,13.93a1.79,1.79,0,0,0,2.1,1.4,18.65,18.65,0,0,0,14.59-22l-1.46-7.22A18.65,18.65,0,0,1,225.33,84.9l-1.83.37A1.78,1.78,0,0,1,221.78,84.66Z"/></g><g class="cls-40"><path class="cls-41" d="M51.84,101.33A87.3,87.3,0,1,0,222.51,66.57c-.37-1.34-.77-2.67-1.2-4A87.3,87.3,0,0,1,51.84,101.33Z"/></g><path class="cls-8" d="M94.36,167.67A89.38,89.38,0,0,1,114.51,3.75,89.38,89.38,0,0,1,216.17,133.91,88.81,88.81,0,0,1,162.25,176c-.92.25-1.85.49-2.77.72A88.79,88.79,0,0,1,94.36,167.67ZM115.63,7.76A85.22,85.22,0,0,0,56.27,112.64h0A85.21,85.21,0,1,0,180.36,15.72a84.63,84.63,0,0,0-62.09-8.64C117.39,7.29,116.51,7.52,115.63,7.76Z"/><path class="cls-8" d="M80,157.67a80.27,80.27,0,0,1-26.86-41.86c-5.58-21.4-1.31-40.13,12.7-55.68C78.05,46.55,97.61,36,122.4,29.49s47-6.79,64.34-.91C206.57,35.3,219.45,49.55,225,71a80.34,80.34,0,0,1-3,49.65c-4.6,11.84-29.67,37.25-63.24,45.68l-.85.22C121.27,175.44,89.11,165.21,80,157.67ZM123.45,33.52C98.82,40,43.05,60.73,57.14,114.76h0a76.23,76.23,0,0,0,25.49,39.69c8.31,6.86,39.51,16.48,74.35,8l.8-.2c31.73-8,56.17-32.33,60.38-43.15A76.19,76.19,0,0,0,221,72c-5.21-20-17.19-33.23-35.6-39.48-15.89-5.39-36.28-5.28-59.14.29Z"/><g class="cls-42"><ellipse class="cls-8" cx="80.86" cy="102.22" rx="11.19" ry="15.45" transform="translate(-35.52 43.54) rotate(-24.9)"/></g><g class="cls-42"><ellipse class="cls-8" cx="106.96" cy="112.52" rx="6.09" ry="7.09" transform="translate(-43.92 75.98) rotate(-32.84)"/></g><g class="cls-43"><path class="cls-44" d="M60.8,70.22c-7.7,12.47-10.26,27.49-5.67,45.06A78.27,78.27,0,0,0,81.3,156.06c9.36,7.72,42,17,77,8.21a108,108,0,0,0,33.09-15c-43.26,9.89-83-1.56-94.66-11.14A99.38,99.38,0,0,1,63.52,86.42,88.58,88.58,0,0,1,60.8,70.22Z"/></g><path class="cls-8" d="M51.14,76.74a2.08,2.08,0,0,1-.72-2.5c9.53-25,35.1-44.52,70.16-53.67,35.26-9.2,67.22-4.23,87.68,13.63a2.09,2.09,0,0,1-2.48,3.35l-.07,0-.14-.11C186.61,20.8,157,16,124,24c-.78.19-1.56.38-2.34.59-33.75,8.81-58.3,27.45-67.34,51.16a1.8,1.8,0,0,1-.27.49,2,2,0,0,1-1.18.8A2.08,2.08,0,0,1,51.14,76.74ZM207,35.83l.07-.11Z"/><g class="cls-42"><path class="cls-8" d="M211,102.41s2.29-46.68-25.45-57.81-61.19-2.33-59.84-.38c0,0,39.38-.7,61.51,24.8C204.24,88.68,211,102.41,211,102.41Z"/></g><path class="cls-8" d="M60.18,57.77c12.68-48.11,71-61,102.29-52.71,23.38,6.19,37.84,22.68,37.84,22.68S128.6-4,60.18,57.77Z"/><path class="cls-39" d="M49.51,80C53.13,52.91,64.4,37.05,75.06,26.43c32.1-32,71-29,91.12-21.53-18.48-1.84-50.55,9.52-54.37,22.53C87.29,37.38,64.82,42.48,49.51,80Z"/><path class="cls-45" d="M141,247.23c70.75-6.92,95.53-20.3,95.53-20.3,13.63-11.18,1-19.14,1-19.14-33.58,17.78-98.15,22.89-98.15,22.89S75,238.19,38.65,227.26c0,0-10.85,10.26,4.7,18.59C43.35,245.85,70.25,254.16,141,247.23Z"/><g class="cls-46"><path class="cls-37" d="M235.71,218.56s-24.78,13.38-95.53,20.3-97.65-1.39-97.65-1.39a18.14,18.14,0,0,1-6.85-5.69c-1.48,3.75-1.36,9.23,7.67,14.07,0,0,26.9,8.31,97.65,1.38s95.53-20.3,95.53-20.3c7.91-6.49,7-11.89,4.8-15.28A18.26,18.26,0,0,1,235.71,218.56Z"/></g><path class="cls-8" d="M169.71,264.74c22.93-2.56,35.57-5.16,42.18-6.93a8.35,8.35,0,0,0,6.31-8.37,188,188,0,0,0-7.71-45.1c-3.61-.42-3.84-2-8.18-1.05-16.9,3.64-38.55,6.41-38.55,6.41s-21.72,2.07-39,2.24c-4.44.05-4.34,3-9.44,4.59-.6,7.34.46,23.45,4.11,43.92a8.35,8.35,0,0,0,8,6.79c6.84.26,19.75,0,42.68-2.54"/><g class="cls-47"><path class="cls-37" d="M211.11,205.85c-1.16.14-6.28-1.76-6-.82,2,6.29,7,19.2,7.87,37.79a7.52,7.52,0,0,1-5.74,7.5c-6,1.58-17.45,3.93-38.18,6.25l.17,0-.34,0h.17c-20.72,2.3-32.4,2.54-38.6,2.31a7.53,7.53,0,0,1-7.26-6c-3.28-18.32-3.33-29.94-2.77-36.51.08-1-.74-.81-5.13.21-.61,7.24.5,23.88,4.13,44.06a8.3,8.3,0,0,0,8,6.68c6.83.24,19.71,0,42.55-2.56s35.46-5.14,42.07-6.88a8.3,8.3,0,0,0,6.33-8.27A179.07,179.07,0,0,0,211.11,205.85Z"/></g><circle class="cls-48" cx="191.83" cy="239.22" r="7.23"/><g class="cls-49"><path class="cls-37" d="M192,240.77a7.22,7.22,0,0,1-7.1-3.63,7.23,7.23,0,1,0,13.22-1.47A7.23,7.23,0,0,1,192,240.77Z"/></g><circle class="cls-50" cx="169.95" cy="241.53" r="7.23"/><g class="cls-49"><path class="cls-37" d="M170.22,243.07a7.25,7.25,0,0,1-7.31-3.18,7.23,7.23,0,1,0,13.1-2.3A7.23,7.23,0,0,1,170.22,243.07Z"/></g><polygon class="cls-4" points="200.27 198.63 126.33 206.87 115.31 216.53 211.11 205.85 200.27 198.63"/><polygon class="cls-51" points="144.59 213.26 138.95 213.89 143.96 258.77 149.62 258.36 144.59 213.26"/><g class="cls-52"><path class="cls-39" d="M169.71,264.74c22.93-2.56,35.57-5.16,42.18-6.93a8.35,8.35,0,0,0,6.31-8.37c-28.94,10.48-77.09,2.77-83.34-35.09l-19.55,2.18c-.6,7.34.46,23.45,4.11,43.92a8.35,8.35,0,0,0,8,6.79c6.84.26,19.75,0,42.68-2.54"/></g><polygon class="cls-53" points="126.33 206.87 115.31 216.53 203.44 206.7 166.78 202.37 126.33 206.87"/><path class="cls-34" d="M50.42,74.24C52.85,69.5,63,45.06,92.58,33.61,92.38,3.22,125,3.42,146.36.82c-40.08-4.21-69.09,19.61-81,37A95.1,95.1,0,0,0,50.42,74.24Z"/><path class="cls-34" d="M8.57,193.62C25.05,166.45,53.78,145.1,72.84,147c-5.79-6.73-5.23-6.83-6.82-9.52C63.94,136.2,26.27,143,8.57,193.62Z"/><path class="cls-9" d="M220.89,147.78c34.3-17.95,42.45-70.52,42.45-70.52s5.59,43-39,81.28C221.53,156.34,220.89,152.79,220.89,147.78Z"/><path class="cls-54" d="M16.19,210.45c-.77-3.71,1.61-4.44,3.16-3.92-1.29-.42-7.75-3.14-12.91.92a5.35,5.35,0,0,0-1.59,2c-1,2.07.15,2.7.15,2.7S8.79,209.24,16.19,210.45Z"/><path class="cls-54" d="M6.69,224.47a2.27,2.27,0,0,1-.43-2.62c1.42-3.26,7.64-2.26,9-2-1.25.65-1.85,1.6-.44,2.82C8.32,222.35,6.69,224.47,6.69,224.47Z"/><polygon class="cls-55" points="182.84 202.37 199.69 200.65 207.84 204.77 199.06 202.37 182.84 202.37"/><polygon class="cls-56" points="125.15 209.45 119.58 214.35 145.98 211.86 124.04 211.94 125.15 209.45"/><path class="cls-57" d="M173.32,210.06l37.79-4.21,5.27,25S210.21,206,173.32,210.06Z"/><path class="cls-58" d="M256.9,51.33a6.76,6.76,0,0,1,1.37.23c1.18.8,1.65,3.3,1.65,3.3A7.08,7.08,0,0,0,256.9,51.33Z"/><path class="cls-58" d="M261.59,62.78A6.76,6.76,0,0,1,263,63c1.18.8,1.65,3.3,1.65,3.3A7.08,7.08,0,0,0,261.59,62.78Z"/></g></g></g></svg>