<svg xmlns="http://www.w3.org/2000/svg" viewBox="0 0 220.31 269.62"><defs><style>.cls-1{isolation:isolate;}.cls-2{fill:#c47002;}.cls-3,.cls-41{fill:#fca342;}.cls-3{opacity:0.67;}.cls-3,.cls-41,.cls-8{mix-blend-mode:luminosity;}.cls-4{fill:#ffc89f;}.cls-5{fill:#edb188;opacity:0.25;}.cls-14,.cls-22,.cls-36,.cls-37,.cls-5,.cls-9{mix-blend-mode:multiply;}.cls-6{fill:#ffd5b8;}.cls-7{fill:#d68005;}.cls-8{fill:#ffcd97;opacity:0.12;}.cls-9{fill:#aa5d00;opacity:0.21;}.cls-10{fill:#fff;}.cls-11{fill:#b2ccc9;opacity:0.38;}.cls-12,.cls-34{fill:#f2f6f9;}.cls-12{opacity:0.63;}.cls-13,.cls-14{fill:#bfdfdc;}.cls-13{opacity:0.19;}.cls-14,.cls-16{opacity:0.37;}.cls-15{fill:#844415;}.cls-16{fill:#ce7438;mix-blend-mode:color-burn;}.cls-17{fill:#3f2513;}.cls-18{fill:#fff0e1;}.cls-19{fill:#4f341f;}.cls-20{fill:#3d2718;}.cls-21{fill:#593821;}.cls-22{fill:#533928;opacity:0.33;}.cls-23{fill:#937e6d;opacity:0.27;}.cls-24{fill:#e59007;}.cls-25{fill:#f7a328;}.cls-26{fill:#ffccc0;opacity:0.65;}.cls-27{fill:#ffdcd7;opacity:0.78;}.cls-28{fill:#ef9506;}.cls-29{fill:#b76800;opacity:0.43;}.cls-30{fill:#ffba5f;opacity:0.11;}.cls-31{fill:#fffefd;}.cls-32{fill:#e58905;}.cls-33{fill:#bf6902;}.cls-35{fill:#ffa836;}.cls-36{fill:#3d271c;}.cls-37{fill:#fce5e4;}.cls-38{fill:#47270b;}.cls-39{fill:#381807;}.cls-40{fill:#ffa27d;}.cls-42{fill:#ffae43;}.cls-43{fill:#ffac3e;}.cls-44{fill:#ff6669;}</style></defs><title>Asset 1ldpi</title><g class="cls-1"><g id="Layer_2" data-name="Layer 2"><g id="Layer_1-2" data-name="Layer 1"><path class="cls-2" d="M58.39,131c.37-.06.74-.13,1.1-.21a15.54,15.54,0,0,0,3.42-1.2,15.79,15.79,0,0,0,3.15-2.09,18.1,18.1,0,0,0,2.53-2.87,18.39,18.39,0,0,0,1.74-3.18,23.76,23.76,0,0,0,1.17-3.2,30.29,30.29,0,0,0,.85-3.8,28.89,28.89,0,0,0,.29-6.5,15.61,15.61,0,0,0-.71-3.55,29.75,29.75,0,0,0-1.42-3.46,30.55,30.55,0,0,0-3.9-6.15,36.9,36.9,0,0,0-4.88-5A54.75,54.75,0,0,0,56.59,86c-1.51-1-3-2-4.43-3s-2.74-2.12-4-3.24c-1.55-1.36-3.14-2.87-4.87-4.62-1.43-1.45-2.86-3.07-4.39-4.94-.94-1.14-1.85-2.37-2.8-3.75-1.16-1.71-2.29-3.51-3.37-5.34A56.74,56.74,0,0,1,29.62,55c-.53-1.23-1-2.36-1.38-3.48a44.52,44.52,0,0,1-2.31-10.79,32.32,32.32,0,0,1,.13-5.27c.15-1.48.39-3,.78-5.07.15-.76.32-1.51.49-2.26s.36-1.63.52-2.45a1.53,1.53,0,0,0,.07-.36c0-.17.07-.35.1-.53a9.85,9.85,0,0,0,.18-2A7.36,7.36,0,0,0,28,20.93a5.26,5.26,0,0,0-.35-1,4.05,4.05,0,0,0-.44-.69,3.48,3.48,0,0,0-.47-.47l-.09-.08a2.12,2.12,0,0,0-1.36-.47,2.54,2.54,0,0,0-.41,0,3.26,3.26,0,0,0-.73.22,4.08,4.08,0,0,0-.57.34l-.08.06.15-.08a12.24,12.24,0,0,0-2.17,1.93A29.07,29.07,0,0,0,18.94,24a41.29,41.29,0,0,0-3.15,4.16c-.67,1-1.25,2.05-1.74,2.94-.58,1.05-1.16,2.2-1.81,3.6A51.5,51.5,0,0,0,9.7,41.16C9.2,42.78,8.78,44.4,8.46,46l0,.08c-.29,1.5-.53,2.82-.73,4-.17,1-.37,2.28-.49,3.52a67.56,67.56,0,0,0-.38,7,73.06,73.06,0,0,0,.42,7.59c.26,2.24.63,4.57,1.14,7.13.41,2.07.91,4.49,1.57,6.79s1.45,4.79,2.28,7c1,2.57,1.82,4.67,2.68,6.59,1,2.2,2,4.34,3.15,6.36.59,1.07,1.24,2.08,1.87,3s1.44,2.15,2.19,3.15,1.35,1.79,2.13,2.77,1.56,1.85,2.32,2.7c1.43,1.6,3,3.24,4.9,5,1.71,1.62,3.54,3.35,5.48,5a33.88,33.88,0,0,0,2.72,2.07c.43.3.87.59,1.31.86.59.37,1.2.68,1.66.91l-.09,0,.1.05.09,0,.18.09-.1-.07c.61.31,1.13.55,1.62.75s1.09.4,1.6.57c1,.34,2,.65,3,.93.83.23,1.93.52,3.07.75l.1,0,.08,0a1.88,1.88,0,0,0,.59.12H53l.22,0,.22,0,.82.1c.46.05,1,.08,1.57.09A16.55,16.55,0,0,0,58.39,131Z"/><path class="cls-3" d="M95.61,128.77a13.22,13.22,0,0,1-1.08,1.78,14.46,14.46,0,0,1-3.84,3.72c-.31.2-.63.4-1,.58a14.75,14.75,0,0,1-2.32,1.06c-.58.2-1.06.34-1.51.46-.27.06-.54.13-.82.18l-.22,0-.21,0h-.08a2.06,2.06,0,0,1-.59.09H83.9l-.11,0c-1.15.17-2.29.26-3.16.33-1.06.08-2.14.14-3.21.16-.54,0-1.12,0-1.71,0s-1.12-.07-1.81-.16l.13,0-.2,0h-.12c-.52-.07-1.2-.16-1.9-.31-.52-.11-1-.24-1.56-.38a33.43,33.43,0,0,1-3.32-1.08c-2.43-.9-4.8-1.94-7-2.93-2.43-1.09-4.55-2.13-6.5-3.2-1-.56-2.12-1.17-3.18-1.82s-2.11-1.33-3.05-2-2.17-1.5-3.25-2.31-1.93-1.48-2.89-2.32c-1.81-1.58-3.61-3.3-5.35-5.1-1.52-1.57-3.11-3.32-5-5.5-1.61-1.86-3.22-3.89-4.78-6s-2.85-4.2-4-6.08c-1.44-2.31-2.66-4.46-3.75-6.55a77.38,77.38,0,0,1-3.25-7.26,70,70,0,0,1-2.29-7c-.35-1.25-.63-2.53-.86-3.61-.28-1.27-.55-2.64-.84-4.2v-.08c-.29-1.65-.51-3.37-.65-5.13a53.39,53.39,0,0,1,0-7.19c.09-1.6.2-2.91.35-4.14.12-1,.28-2.26.53-3.48a44.76,44.76,0,0,1,1.39-5.14,30.42,30.42,0,0,1,1.12-4.09,12.41,12.41,0,0,1,1.32-2.63l-.11.13,0-.09a3.56,3.56,0,0,1,.41-.53C13.85,94,59.22,139.16,83.9,85.17,91,69.63,95.61,128.77,95.61,128.77Z"/><ellipse class="cls-4" cx="73.63" cy="259.47" rx="7.44" ry="3.22" transform="translate(-192.71 216.96) rotate(-65.09)"/><ellipse class="cls-4" cx="60.53" cy="258.32" rx="10.7" ry="4.63" transform="translate(-199.25 204.41) rotate(-65.09)"/><ellipse class="cls-4" cx="49.64" cy="252.52" rx="10.7" ry="4.63" transform="translate(-153.35 94.33) rotate(-40.95)"/><ellipse class="cls-4" cx="65.72" cy="249.58" rx="6.79" ry="14.35" transform="translate(-184.66 312.2) rotate(-89.29)"/><path class="cls-5" d="M48.5,248.66c2.79-2.59,5.84-4.11,7.93-4.14a21.45,21.45,0,0,1,9.16-2c7.12-.09,10.93,7.35,11,10.77,0,1.29-.12,7.27-4.21,10,.68,1.31,1.23-7.54-.32-9.26S61.21,256.82,48.5,248.66Z"/><path class="cls-6" d="M48.5,249.84c-7.85,6.71-.86,8.21-.86,8.21S44.93,254.31,48.5,249.84Z"/><path class="cls-6" d="M57.38,256.55c-2.88,15.12,6.13,3.9,6.13,3.9S57.43,264.43,57.38,256.55Z"/><ellipse class="cls-4" cx="153.54" cy="260.46" rx="3.22" ry="7.44" transform="translate(-91.09 82.79) rotate(-23.49)"/><ellipse class="cls-4" cx="166.67" cy="259.64" rx="4.63" ry="10.7" transform="translate(-89.68 87.95) rotate(-23.49)"/><ellipse class="cls-4" cx="177.69" cy="254.11" rx="4.63" ry="10.7" transform="translate(-129.79 214.14) rotate(-47.63)"/><ellipse class="cls-4" cx="161.7" cy="250.77" rx="6.79" ry="14.35" transform="translate(-91.06 409.35) rotate(-89.29)"/><path class="cls-5" d="M180.82,250.68c-3.12-2.84-6.51-4.51-8.83-4.55A24.38,24.38,0,0,0,161.78,244c-7.93-.1-12.17,8.06-12.21,11.81,0,1.41.13,8,4.69,11-.76,1.42-1.37-8.28.36-10.17S166.67,259.64,180.82,250.68Z"/><path class="cls-7" d="M50.76,81c24.38-60.3,104.08-64.95,133.32,0,68.34,195-64.48,177-64.48,177S-29.22,271.46,50.76,81Z"/><path class="cls-8" d="M184.08,81c68.34,195-64.48,177-64.48,177S222.16,265.89,184.08,81Z"/><path class="cls-9" d="M120.42,258.36S-8.36,271,38.06,115.32c3.85-12.91,8.71-24.5,13.94-37.85,7.29,8.91,9.33,2.27,7,10C7.57,261.25,120.42,258.36,120.42,258.36Z"/><path class="cls-10" d="M55.09,114.23C20.32,244.31,75,254.47,94.5,257.42c4.41.67,21.56,1.37,26.4,1.19,31.31-1.17,84.6-20.5,40.66-149.79C157.22,70.39,79,24.82,55.09,114.23Z"/><path class="cls-11" d="M55.09,114.23C20.32,244.31,75,254.47,94.5,257.42c4.41.67,21.56,1.37,26.4,1.19,14.42-.54,33.51-4.93,45.61-22.16C119.05,253.93,45.9,256.73,68.14,84,62.94,91.62,58.47,101.58,55.09,114.23Z"/><ellipse class="cls-12" cx="114" cy="92" rx="39.77" ry="48.64" transform="translate(13.31 198.41) rotate(-85.48)"/><ellipse class="cls-13" cx="114.39" cy="87.12" rx="37.01" ry="45.27" transform="translate(18.53 194.3) rotate(-85.48)"/><path class="cls-4" d="M35.92,13.8a12.55,12.55,0,0,0-3.91.51,3.73,3.73,0,0,0-.09-.46c.73-2.15,1.52-5.86,2-7.27.75-2.35,0-4-1.91-4.21-2.19-.25-3.41,3.32-4,4.88-.29.72-.65,1.42-1,2.14l-.21-.06a20.53,20.53,0,0,0,.35-5.68C27,1.87,26.38-.34,24.23,0c-1.38.26-2.33,4.35-2.47,6-.09,1-.29,2-.38,3.07L21,9.21c-.11-1.64-.58-3.12-.83-4.89-.32-2.22-2-3.35-3.65-2.47-1.93,1-1.5,4.94-1.2,6.58.24,1.25.76,2.26,1.09,3.5.09.32.22.64.34,1-.85,2.34-1.05,6.41,1,8.33a2.55,2.55,0,0,0-.35.38s0,0,0,0A1.81,1.81,0,0,0,17.23,24a6,6,0,0,0,3.68,2.62c2.27.49,6.18.78,8-1.17a2.9,2.9,0,0,0,.39-2.91A8.06,8.06,0,0,0,31,21.77c1.72-1,2.62-3.35,4.6-3.88,1-.26,3.07-.39,3.51-1.56C39.82,14.48,37.06,13.83,35.92,13.8Z"/><ellipse class="cls-2" cx="19.04" cy="25.16" rx="2.16" ry="5.48" transform="translate(-11.6 17.63) rotate(-39.06)"/><ellipse class="cls-2" cx="22.01" cy="25.11" rx="2.23" ry="5.31" transform="translate(-8.88 12.42) rotate(-26.43)"/><ellipse class="cls-2" cx="24.36" cy="25.94" rx="5.08" ry="2.33" transform="translate(-6.56 43.55) rotate(-76.46)"/><ellipse class="cls-2" cx="26.7" cy="26.89" rx="5.25" ry="2.26" transform="translate(-11.03 30.42) rotate(-50.55)"/><path class="cls-2" d="M19.79,20.3c-.55.17-.84.8-.87,1.68-1.28-1.05-2.51-1.54-3.2-1.16-1.06.58-.47,3,1.41,5.4a10.38,10.38,0,0,0,3.19,2.92C18.82,25.58,19.2,23.85,19.79,20.3Z"/><path class="cls-7" d="M175,171.5c1.2.17,2.46.29,3.75.38a52.08,52.08,0,0,0,5.85.11c.92,0,1.86-.13,2.67-.22,1-.1,1.87-.22,2.7-.36a46.57,46.57,0,0,0,5.61-1.3,50.46,50.46,0,0,0,5-1.79c.87-.36,1.72-.76,2.44-1.1.91-.43,1.79-.9,2.61-1.39a39.17,39.17,0,0,0,4.42-3.09,29.15,29.15,0,0,0,2.29-2,24.73,24.73,0,0,0,1.77-2,25.93,25.93,0,0,0,2.88-4.36,28.45,28.45,0,0,0,1.93-4.71c.09-.28.17-.56.25-.85v-.08l0-.08,0-.16,0-.08,0-.07,0,.09,0,.08a26.37,26.37,0,0,0,1-5.43c.06-.88.08-1.82.05-2.94s-.08-1.83-.16-2.6A36.53,36.53,0,0,0,217.21,127a66,66,0,0,0-5.14-9.52,81.58,81.58,0,0,0-6.43-8.81c-1.37-1.64-2.54-2.93-3.69-4.07-.64-.64-1.3-1.25-2-1.8-.32-.27-.66-.52-1-.76-.15-.11-.31-.21-.47-.31l-.08,0a2.71,2.71,0,0,0-.37-.21c-.52-.36-1.07-.73-1.66-1.07a16.57,16.57,0,0,0-2-1,19.15,19.15,0,0,0-2.46-.77c-.37-.09-.74-.18-1.12-.25a20.36,20.36,0,0,0-2.62-.54c-.59-.08-1.18-.14-1.76-.16a20.71,20.71,0,0,0-5.57.54,26.17,26.17,0,0,0-5.53,2,18.46,18.46,0,0,0-2.55,1.51c-.41.29-.74.53-1,.77a15.72,15.72,0,0,0-1.16,1.12,14.87,14.87,0,0,0-1.68,2.1,15.09,15.09,0,0,0-1.33,2.39,19.81,19.81,0,0,0-.93,2.79,17.47,17.47,0,0,0-.16,7.92,20.6,20.6,0,0,0,2,5.36,46.23,46.23,0,0,0,2.54,4.11l.32.49c.3.44.68,1,1,1.64a14.71,14.71,0,0,1,1.39,3.2,16.71,16.71,0,0,1,.56,3.79,10.48,10.48,0,0,1-.12,1.5c-.08.54-.16,1-.27,1.46a8.66,8.66,0,0,1-.35,1,7.92,7.92,0,0,1-1.85,2.68,13.09,13.09,0,0,1-1.23,1c-.41.29-.84.56-1.22.78a12.8,12.8,0,0,1-1.28.62,14.37,14.37,0,0,1-1.48.52,13.13,13.13,0,0,1-1.93.34c-.73.07-1.47.09-2.15.1a15.56,15.56,0,0,1-1.64-.14l-.43-.06c-.63-.11-1.3-.25-2-.45a42.67,42.67,0,0,1-4.88-1.8c-1.73-.74-3.41-1.53-5-2.35-.84-.43-1.64-.87-2.39-1.3a41,41,0,0,1-4.45-3.11l-1.12-.93a33.8,33.8,0,0,0-3.12-2.43,11.1,11.1,0,0,0-2.64-1.4,6.9,6.9,0,0,0-1.19-.31l-.3,0a6.81,6.81,0,0,0-.93,0,3.56,3.56,0,0,0-.85.23,3.85,3.85,0,0,0-.72.39,1.92,1.92,0,0,0-.34.26,2.89,2.89,0,0,0-.38.42c-.1.15-.18.3-.26.45a3.58,3.58,0,0,0-.38,1.55,6.4,6.4,0,0,0,.14,1.49c.11.53.26,1,.39,1.53a18.31,18.31,0,0,0,.89,2.49,24.79,24.79,0,0,0,1.37,2.57,34.57,34.57,0,0,0,3.23,4.41,53.91,53.91,0,0,0,8.07,7.7c1.4,1.09,2.9,2.19,4.46,3.26,1.75,1.21,3.24,2.18,4.67,3.06s3.27,2,5.1,2.9c1.49.75,3.1,1.48,5.05,2.29,1.39.57,3.22,1.31,5.1,1.88a46.61,46.61,0,0,0,5.54,1.31C174,171.36,174.51,171.43,175,171.5Z"/><path class="cls-6" d="M180.82,252c8.73,7.37,1,9,1,9S184.79,256.87,180.82,252Z"/><path class="cls-6" d="M170.92,259.34c3.21,16.58-6.82,4.28-6.82,4.28S170.87,268,170.92,259.34Z"/><path class="cls-14" d="M86.78,180.07l.1-.58q3.06-.31,6.23-.75c-.06.29-.11.58-.16.86Q89.82,179.89,86.78,180.07Zm22.56-2.86.23-1.46c2.56-.58,5.14-1.23,7.72-1.95,0,.54,0,1.06,0,1.57Q113.29,176.42,109.34,177.21Zm19-5.34.08-1.62c2.16-.79,4.32-1.64,6.46-2.54,0,.51,0,1,0,1.48Q131.61,170.65,128.3,171.87Zm22.84-32c0,.13.06.31.11.51s.05.18.07.27c-.91.56-1.84,1.1-2.77,1.63l-.09-1a43.06,43.06,0,0,1-5.72,3c0-.11.09-.22.14-.34a32.82,32.82,0,0,1-5.19,2.32c-.77.26-1.57.51-2.39.75a11.15,11.15,0,0,0-.12,1.34q-2.93,1.09-5.9,2l.07-1.52a37.39,37.39,0,0,1-9.92,2.65l-.38,0-.86.07c0,.36-.1.94-.15,1.7-1.73.37-3.47.7-5.19,1l.23-1.49a76.77,76.77,0,0,1-10.64,1.57l-4.59.15c-.1.32-.25.92-.43,1.73q-3.42.27-6.72.42l.12-.69s-2.94-.29-6.85-.87h0l-.3,0-.41-.06c-1.6-.25-3.86-.65-3.86-.65-.11.45-.28,1.34-.51,2.52-2.82,0-5.49-.11-8-.23l.38-2.07s-5.77-1-12.85-2.46h0l-.1,0c-1.19-.25-2.41-.52-3.65-.8-.17.5-.5,1.9-.93,3.86-2.14-.29-3.33-.49-3.33-.49l-10.11,9.53-5-1.27c.3-1.58.29-2.74-.16-3.29a7.47,7.47,0,0,0-1.39-1.25l-5.42,21.55s1.39-.78,5.23-11.21l4.79,1.52,7,9.54s1.12.25,3.15.61c-.41,2.12-.65,3.45-.68,3.55a59,59,0,0,0,8.88,1.84,39.37,39.37,0,0,0,8.75.42l.68-3.67c2.47.18,5.11.32,7.88.39l-.68,3.63a26.32,26.32,0,0,0,6.18.95h0l.59,0c1,0,1.93,0,2.69,0h.07a15.94,15.94,0,0,0,2.69-.39l.71-4.24q3-.12,6.1-.36c-.3,1.63-.48,2.63-.48,2.63l.49.11a22.2,22.2,0,0,0,4.52.55,20.82,20.82,0,0,0,11.48-2.58l.45-2.91c2.76-.53,5.54-1.15,8.32-1.88,0,1.73-.08,2.89-.09,3.12a14.71,14.71,0,0,0,5,.05c4.27-.69,5.93-3.18,5.93-3.18l.16-3.44c2.23-.83,4.46-1.74,6.66-2.73v1.46c9.2.81,15.92-7.24,15.92-7.24l-.28-3.07.86-22.83-1.13,19.79-.05-.54"/><path class="cls-15" d="M41.39,162.47l10.11-9.53s92.07,15.88,124.27-37.24c6.13-10.12,10.82-25.62,11.56-25.1,3.16,2.22,7.23,7.82,7.11,8.81-23.2,93.09-148,78.65-148,78.65l-7-9.54-6-1.9,1.86-5.68Z"/><path class="cls-16" d="M34.87,164.8l7,2.23,5.71,9.23s122.8,7.81,144.73-80.56c1.71,2.34,2.08,3.12,2.15,3.71-24.08,94.51-148,78.65-148,78.65l-7-9.54-5.22-1.66Z"/><ellipse class="cls-17" cx="45.47" cy="165.39" rx="1.88" ry="1.91" transform="translate(-121.75 203.61) rotate(-87.5)"/><path class="cls-18" d="M72.36,152.85s-7.93-1.32-16.61-3.28c-.88,2.69-6.62,31.51-6.85,32.65,11.08,3,17.62,2.25,17.62,2.25Z"/><path class="cls-15" d="M70.25,164.27a73.13,73.13,0,0,1-17.2-2.51c-.3.93-1.87,8.75-1.88,9.17,11,3.32,17.4,2.43,17.4,2.43Z"/><path class="cls-18" d="M114.15,151.07a72.19,72.19,0,0,1-15.22,1.72c-1,3-5.65,29.35-6,30.61a24.56,24.56,0,0,0,16.49-1.92Z"/><path class="cls-15" d="M112.37,162.65s-8.66,1.94-15.53,0c-.83,4.45-1.15,6.12-1.59,8.47a24,24,0,0,0,15.93-.77Z"/><path class="cls-18" d="M149.54,139.5a51.24,51.24,0,0,1-13.17,5.76c-.48,3.1-.39,25.42-.48,26.71,9.21.81,15.92-7.25,15.92-7.25Z"/><path class="cls-15" d="M150.43,149.43s-7.16,5.95-14.4,6.28c-.2,4.46-.05,5.37-.06,6.29,9.15,1.18,15.08-5.7,15.08-5.7Z"/><path class="cls-18" d="M160,131.79a66.84,66.84,0,0,1-7.74,6.26c.44,2.41,6,18.24,6.19,19,6.33-6,8.3-9,8.3-9Z"/><path class="cls-15" d="M162.34,137.57s-1.61,3.58-8.5,6c.86,2.49,1.78,5.45,1.72,5.19,5.32-1.33,8.86-6.25,8.86-6.25Z"/><path class="cls-18" d="M91.89,154.25s-5.47-.53-11.42-1.62c-.77,3.43-5.79,31.07-6.06,32.2,7.54,1.87,12.24.53,12.24.53Z"/><path class="cls-15" d="M90.21,164.26a34.87,34.87,0,0,1-11.82-.82c-.45,2.63-1.67,8.85-1.71,9.26,7.44,2.18,12,.72,12,.72Z"/><path class="cls-18" d="M130.42,147.1a36.36,36.36,0,0,1-11.15,2.75c-.51,3.47-1,27.64-1.12,30,7.67,1.29,10.92-3.14,10.92-3.14Z"/><path class="cls-15" d="M129.93,158a19.18,19.18,0,0,1-11.18,1.62c-.14,3.57-.36,7.43-.25,7.88,4.71,1.9,11.16-1.71,11.16-1.71Z"/><path class="cls-18" d="M161.32,127.64l13,12.63,8.28-17.71A64.12,64.12,0,0,1,166,115.7,48.59,48.59,0,0,0,161.32,127.64Z"/><path class="cls-15" d="M174.77,120a55.62,55.62,0,0,1-5.2-2.32c-.77,2.82-6.71,11.44-6.71,11.44l4,3.91S172.6,130.09,174.77,120Z"/><path class="cls-19" d="M21.69,151.51s11.47,2.74,14.5,6.4-13.61,34.88-13.61,34.88S-16.79,200,8.44,166.44A42.36,42.36,0,0,1,21.69,151.51Z"/><path class="cls-20" d="M32.82,155.46a8.46,8.46,0,0,1,3.37,2.45c3.29,3.44-13.61,34.88-13.61,34.88S9.75,193.91,6,186.63C25.94,200.39,32.82,155.46,32.82,155.46Z"/><path class="cls-21" d="M36.19,157.91s-9.61,9-17,11c-2.53.65-18.56-1.17-9.71-10.9,2.83-3.1,5.77-6.71,9.88-7.25C27.89,149.58,36.19,157.91,36.19,157.91Z"/><path class="cls-22" d="M59.5,150.39c-11.9,33.92,7,34.08,7,34.08a55.77,55.77,0,0,1-17.62-2.25c.05-.26,1.42-7.69,3.17-16,1.65-7.85,3.68-16.63,3.68-16.63S56.16,149.7,59.5,150.39Z"/><path class="cls-22" d="M80.47,152.63s3,.53,4.57.75c-12.33,27.41-1.89,32.21-1.07,32.38a28.73,28.73,0,0,1-9.56-.93Z"/><path class="cls-22" d="M98.93,152.79l4.6-.15s-9.72,29,5.94,28.84C102.23,185.85,93,183.4,93,183.4S97.71,157.43,98.93,152.79Z"/><path class="cls-22" d="M119.27,149.85a28.54,28.54,0,0,0,4.75-.7c-7.31,33.3,5,27.52,5,27.52s-2.91,4.37-10.92,3.14c0-.83.32-12.73.63-21.28C119,153.61,119.27,149.85,119.27,149.85Z"/><path class="cls-22" d="M136.37,145.26A33.9,33.9,0,0,0,144,142.2c-8.53,19.63,4.83,24.41,7.85,22.52A21.92,21.92,0,0,1,135.89,172S135.92,148,136.37,145.26Z"/><path class="cls-22" d="M157,134.39c-2.17,19.11,8.65,15.05,8.65,15.05a99.37,99.37,0,0,1-7.28,7.65c-.22-.69-1.42-4.26-2.65-7.91-.55-1.63-1.06-3-1.6-4.67-1-2.89-1.66-5.09-1.94-6.46C152.54,137.82,155,136.11,157,134.39Z"/><path class="cls-22" d="M162.81,122.65a49.36,49.36,0,0,0-1.49,5l13,12.63,5.1-10.9S172.33,139.74,162.81,122.65Z"/><path class="cls-23" d="M8.48,166.36a6.27,6.27,0,0,0,2.25,1.25C-6.53,193.43,20.85,193,20.85,193s-13.73,2.49-19.38-3.85C-3.41,182.48,5.16,171.12,8.48,166.36Z"/><path class="cls-23" d="M20.15,150.68c-20.58,17.63-1.56,18.26-1.56,18.26a17.58,17.58,0,0,1-9.35-2.06,4.3,4.3,0,0,1-1.95-5.75C7.94,159.92,14.64,150.2,20.15,150.68Z"/><path class="cls-24" d="M80.05,11.41c.76-2.21-8.39-11.59-15-4.09-4.55,5.19-20.19,14.75-11.81,24.85a11.21,11.21,0,0,0,12.57,3.58S75.41,14,80.05,11.41Z"/><path class="cls-25" d="M65.1,7.32c-4.55,5.19-20.19,14.75-11.81,24.85a11.21,11.21,0,0,0,12.57,3.58S37.88,32.59,65.1,7.32Z"/><path class="cls-26" d="M78.31,13c.6-1.76-6.5-8.86-11.73-2.88C63,14.25,50.5,21.87,57.18,29.91a8.91,8.91,0,0,0,10,2.85S74.48,17,78.31,13Z"/><path class="cls-27" d="M66.58,10.12C63,14.25,50.5,21.87,57.18,29.91a8.91,8.91,0,0,0,10,2.85S52.77,27,66.58,10.12Z"/><path class="cls-28" d="M71.72,17.07s-3.35-1.61-4-2.94C67.39,17.47,69.47,21,69.47,21s-4.14-1.53-5-3.75c-.39,2.57,1.85,7,1.85,7A3,3,0,0,1,64,23c-.85,5.58,1.38,7.29,1.38,7.29L70.7,23Z"/><path class="cls-28" d="M64.07,94.48s-5.22,6.86-2.91,12.55C53.21,102.9,50.5,80.12,50.5,80.12S46,93.73,46.39,90.82c-2.84-14,4.14-27,4.14-27a11.05,11.05,0,0,0-5.85,1c-1.23-6.61,10.45-18,10.45-18S52.91,49.22,46.36,50C68.88,34.68,59.45-3.37,121.53,3.6c59.1,4.67,45.17,42.16,67,57.68l-10.85-5.37s10.1,8.6,10.8,20.17L183,74.87s4.83,10.16-.47,28.55l-4.72-13.66s-2.49,18.36-13,24.54c-1.35,1.15-2.68-12.33-2.68-12.33-5.82,9.32-12.08,15.55-49.32,12.61C65.53,110.85,64.07,94.48,64.07,94.48Z"/><path class="cls-29" d="M64.07,94.48s-5.22,6.86-2.91,12.55C53.21,102.9,50.5,80.12,50.5,80.12S46,93.73,46.39,90.82c-2.84-14,4.14-27,4.14-27a11.05,11.05,0,0,0-5.85,1c-1.23-6.61,10.45-18,10.45-18S52.91,49.22,46.36,50C68.88,34.68,59.45-3.37,121.53,3.6c-100.07,17.1-48.38,98.54-8.77,111C65.53,110.85,64.07,94.48,64.07,94.48Z"/><path class="cls-30" d="M121.53,3.6c59.1,4.67,45.17,42.16,67,57.68l-10.85-5.37s10.1,8.6,10.8,20.17L183,74.87s4.83,10.16-.47,28.55l-4.72-13.66s-2.49,18.36-13,24.54c-1.35,1.15-2.68-12.33-2.68-12.33-5.82,9.32-12.08,15.55-49.32,12.61C123.61,110.33,224.87,74.66,121.53,3.6Z"/><path class="cls-31" d="M103.25,2.86c9.88,58.28-51.84,50.47-25.9,104.45,8.47,8.94,49.41,9.9,58.3,7.83,42.7-45.56-29.79-69.07-2.48-110C123.23,2.76,112.71,2.41,103.25,2.86Z"/><path class="cls-32" d="M81.09,31.11c-2.65-6.58,2.51-8.7,6.86-6.3,13.84,9.84-3.32,24.41-3.32,24.41S86.22,43.87,81.09,31.11Z"/><path class="cls-32" d="M145.44,36.19c3.65-6.08-1.11-9-5.79-7.29-15.2,7.54-.55,24.62-.55,24.62S138.37,48,145.44,36.19Z"/><path class="cls-33" d="M149.84,35.09a1,1,0,0,1-.64-.28A11.29,11.29,0,0,0,144,32.34a9.12,9.12,0,0,0-6,.82,1,1,0,1,1-1.07-1.79,11.25,11.25,0,0,1,7.43-1.08,13.33,13.33,0,0,1,6.28,3,1,1,0,0,1,0,1.47A1,1,0,0,1,149.84,35.09Z"/><path class="cls-33" d="M76,29.26a1,1,0,0,1-.78-.44,1.05,1.05,0,0,1,.27-1.45,13.21,13.21,0,0,1,6.68-2,11.25,11.25,0,0,1,7.16,2.23A1,1,0,1,1,88,29.21a9.28,9.28,0,0,0-5.76-1.75,11.42,11.42,0,0,0-5.56,1.62A1,1,0,0,1,76,29.26Z"/><path class="cls-34" d="M71.57,58.53s0,0-.07,0a.14.14,0,0,1,0-.19c.08-.09,2-2.26,15.25-7.06a112,112,0,0,1,15.46-4.11.13.13,0,0,1,.16.1.13.13,0,0,1-.11.15,113.86,113.86,0,0,0-15.42,4.1c-13.15,4.76-15.12,7-15.14,7A.16.16,0,0,1,71.57,58.53Z"/><path class="cls-34" d="M75.45,66.44h0a.14.14,0,0,1-.06-.18c0-.1,1.38-2.67,13.13-10.49a113.57,113.57,0,0,1,14-7.68.12.12,0,0,1,.17.07.13.13,0,0,1-.06.17,112.71,112.71,0,0,0-14,7.65c-11.63,7.75-13,10.37-13,10.4A.15.15,0,0,1,75.45,66.44Z"/><path class="cls-24" d="M157.08,18.36c-.4-2.3,10.11-10.12,15.41-1.68,3.68,5.84,17.62,17.73,7.77,26.39a11.19,11.19,0,0,1-13,1.56S161.26,21.63,157.08,18.36Z"/><path class="cls-35" d="M172.49,16.68c3.68,5.84,17.62,17.73,7.77,26.39-6.37,5.59-11.17,2.25-13,1.56C193,44.22,179.11,26.41,172.49,16.68Z"/><path class="cls-26" d="M158.58,20.21c-.31-1.83,7.81-7.73,12-1,2.93,4.65,14,14.12,6.19,21a9,9,0,0,1-10.39,1.24S161.58,24.72,158.58,20.21Z"/><path class="cls-27" d="M170.61,19.21c2.93,4.65,14,14.12,6.19,21a9,9,0,0,1-10.39,1.24S184.16,40,170.61,19.21Z"/><path class="cls-28" d="M159.74,24.6s3.56-1.07,4.4-2.29c-.19,3.35-2.79,6.49-2.79,6.49s4.33-.86,5.51-2.92c0,2.6-1.88,6.68-1.88,6.68s.48.13,1.43-.92c0,5.64-2.51,7-2.51,7l-4.09-8Z"/><path class="cls-36" d="M110.39,68.58h0c-7.16-1-6.55-8.83-6.34-11.4,0,0,5,3.11,7-2.28,1.55.21-.68-.13.86,0,1.81,6.81,6.57,3.43,6.57,3.43-.53,6.8-3.4,10.44-8.07,10.26Z"/><path class="cls-10" d="M113.38,58.1c0,.25-.1,1.35-.14,1.69,0,.16-.08.28-.15.28l-3.86-.31c-.07,0-.12-.14-.1-.3,0-.34.11-1.45.13-1.7l2.09-2.11Z"/><path class="cls-37" d="M52.78,54c-.36,4.63,5.22,8.84,12.47,9.41S78.67,60.71,79,56.08s-5.21-8.84-12.46-9.41S53.15,49.38,52.78,54Z"/><path class="cls-37" d="M142.73,60.54c-.36,4.63,5.8,8.89,13.77,9.52s14.72-2.61,15.08-7.24-5.79-8.89-13.76-9.52S143.1,55.92,142.73,60.54Z"/><path class="cls-38" d="M74.94,41.31c-.15,3.66,2.36,6.76,5.6,6.92s6-2.68,6.16-6.34S84.34,35.13,81.09,35,75.09,37.65,74.94,41.31Z"/><path class="cls-39" d="M77.21,42a3.86,3.86,0,0,0,3.42,4.22,3.8,3.8,0,0,0,3.75-3.87A3.88,3.88,0,0,0,81,38.12,3.81,3.81,0,0,0,77.21,42Z"/><path class="cls-10" d="M80.55,39.22a2.29,2.29,0,0,0,2,2.62,2.36,2.36,0,0,0,2.64-2,2.28,2.28,0,0,0-2-2.61A2.37,2.37,0,0,0,80.55,39.22Z"/><path class="cls-10" d="M77.22,42.13a1.51,1.51,0,0,0,1.3,1.74,1.57,1.57,0,0,0,1.76-1.33A1.52,1.52,0,0,0,79,40.8,1.57,1.57,0,0,0,77.22,42.13Z"/><path class="cls-38" d="M149.8,47.22c-.43,3.64-3.39,6.31-6.62,6s-5.51-3.59-5.09-7.23,3.4-6.31,6.63-6S150.23,43.58,149.8,47.22Z"/><path class="cls-39" d="M147.45,47.54a3.87,3.87,0,0,1-4,3.63,3.8,3.8,0,0,1-3.1-4.41,3.88,3.88,0,0,1,4-3.63A3.81,3.81,0,0,1,147.45,47.54Z"/><path class="cls-10" d="M144.58,44.28a2.29,2.29,0,0,1-2.34,2.28,2.38,2.38,0,0,1-2.3-2.4,2.28,2.28,0,0,1,2.34-2.27A2.36,2.36,0,0,1,144.58,44.28Z"/><path class="cls-10" d="M147.42,47.67a1.53,1.53,0,0,1-1.56,1.52,1.58,1.58,0,0,1-1.53-1.59,1.53,1.53,0,0,1,1.56-1.52A1.59,1.59,0,0,1,147.42,47.67Z"/><path class="cls-38" d="M106.24,58.77a5.47,5.47,0,0,1-5-5.88.49.49,0,0,1,1,.08,4.49,4.49,0,0,0,9,.71l.48-6.12a.49.49,0,0,1,1,.07l-.49,6.12A5.46,5.46,0,0,1,106.24,58.77Z"/><path class="cls-38" d="M116.16,59.56a5.47,5.47,0,0,1-5-5.88l.48-6.12a.49.49,0,0,1,1,.07l-.49,6.12a4.49,4.49,0,0,0,8.95.71.49.49,0,0,1,1,.08A5.49,5.49,0,0,1,116.16,59.56Z"/><path class="cls-40" d="M111.8,51.57c-.79-.06-6.48-2.49-6.26-5.23.25-3.25,4.74-2.9,6.89-2.73s6.64.53,6.39,3.78C118.6,50.15,112.91,51.66,111.8,51.57Z"/><path class="cls-40" d="M112.39,44.14c3.38.27,6.08.9,5.9,3.21s-5.42,3.78-6.44,3.7c-.62,0-6-2.36-5.79-4.67s3-2.5,6.33-2.24m.08-1c-2.14-.17-7.16-.57-7.46,3.21-.26,3.3,6.1,5.75,6.75,5.8,1.39.11,7.34-1.52,7.58-4.67.3-3.78-4.72-4.17-6.87-4.34Z"/><path class="cls-7" d="M177.4,135.21a52.92,52.92,0,0,0-4.69,6.93,10.57,10.57,0,0,1-1.3,1.59,11.92,11.92,0,0,1-1.23,1c-.41.29-.84.56-1.22.78a13.72,13.72,0,0,1-1.27.62,14.55,14.55,0,0,1-1.49.52,14.2,14.2,0,0,1-1.92.34c-.74.07-1.47.08-2.16.1a15.37,15.37,0,0,1-1.63-.14l-.43-.06c-.64-.11-1.3-.25-2-.45a42.75,42.75,0,0,1-4.89-1.8c-1.73-.74-3.41-1.53-5-2.35-.84-.43-1.65-.87-2.39-1.3a39.12,39.12,0,0,1-4.45-3.11l-1.12-.93a35.2,35.2,0,0,0-3.12-2.43,11.37,11.37,0,0,0-2.65-1.4,6.78,6.78,0,0,0-1.18-.31l-.31,0a6.66,6.66,0,0,0-.92,0,3.56,3.56,0,0,0-.85.23,3.85,3.85,0,0,0-.72.39,2,2,0,0,0-.35.26,2.94,2.94,0,0,0-.38.42c-.09.15-.18.3-.26.45a3.58,3.58,0,0,0-.38,1.55,7,7,0,0,0,.14,1.49c.12.53.26,1,.4,1.53a17.14,17.14,0,0,0,.88,2.49,27.18,27.18,0,0,0,1.38,2.57,34.41,34.41,0,0,0,3.22,4.41,54.4,54.4,0,0,0,8.07,7.7c1.41,1.09,2.91,2.19,4.47,3.26,1.75,1.21,3.23,2.18,4.67,3.06s3.26,2,5.1,2.9c1.49.75,3.09,1.48,5,2.29,1.38.57,3.21,1.31,5.1,1.88a46.15,46.15,0,0,0,5.54,1.31c.5.09,1,.16,1.5.23,1.2.17,2.46.29,3.75.38a52,52,0,0,0,5.85.11c.91,0,1.85-.13,2.66-.22,1-.1,1.88-.22,2.7-.36a46.13,46.13,0,0,0,5.61-1.3,51.54,51.54,0,0,0,5-1.79c.86-.36,1.71-.76,2.43-1.1.92-.43,1.79-.9,2.62-1.39a39.09,39.09,0,0,0,4.41-3.09,29.15,29.15,0,0,0,2.29-2,24.7,24.7,0,0,0,1.78-2,25.93,25.93,0,0,0,2.88-4.36,27.62,27.62,0,0,0,1.92-4.71c.09-.28.17-.56.25-.85v-.08l0-.08,0-.16,0-.09,0-.06,0,.09,0,.08a27.06,27.06,0,0,0,1-5.43c.06-.88.07-1.82,0-2.94s-.08-1.83-.15-2.6Z"/><path class="cls-4" d="M132.25,124.24A12.29,12.29,0,0,0,131.1,128l-.46-.11c-1.65-1.55-4.7-3.81-5.8-4.81-1.82-1.66-3.62-1.66-4.62,0-1.13,1.88,1.61,4.47,2.76,5.69.54.56,1,1.18,1.55,1.78l-.14.16a20.27,20.27,0,0,0-5-2.66c-1.68-.61-3.94-1-4.47,1.12-.35,1.37,3,3.92,4.45,4.74.89.5,1.73,1.11,2.63,1.62,0,.13,0,.25-.07.38-1.54-.57-3.08-.77-4.81-1.27-2.14-.63-3.85.39-3.76,2.3.11,2.17,3.88,3.42,5.5,3.82,1.24.3,2.37.24,3.64.45a8.23,8.23,0,0,0,1,.09c1.77,1.74,5.39,3.61,8,2.55a2.76,2.76,0,0,0,.2.47s0,0,0,0a1.82,1.82,0,0,0,2.14,1.14,6,6,0,0,0,3.91-2.27c1.39-1.86,3.28-5.3,2.24-7.75a2.9,2.9,0,0,0-2.49-1.56,8.09,8.09,0,0,0,0-1.9c-.19-2-2-3.77-1.63-5.79.16-1,.91-3,0-3.84C134.49,121,132.75,123.22,132.25,124.24Z"/><ellipse class="cls-7" cx="135.64" cy="144" rx="5.48" ry="2.16" transform="matrix(0.96, -0.29, 0.29, 0.96, -36.41, 46.36)"/><ellipse class="cls-7" cx="136.71" cy="141.23" rx="5.31" ry="2.23" transform="translate(-10.67 11.17) rotate(-4.5)"/><path class="cls-7" d="M139.66,137.43c-2.3-1.62-4.74-2.07-5.46-1s.55,3.24,2.85,4.86,3.41,2.1,4.13,1S142,139,139.66,137.43Z"/><ellipse class="cls-7" cx="140.11" cy="137.54" rx="2.26" ry="5.25" transform="translate(-48.77 83.94) rotate(-28.63)"/><path class="cls-7" d="M137.12,136.12c-1.34-.43-2.47-.36-2.92.31s-.13,1.72.69,2.82c-2,.43-3.4,1.3-3.47,2.25,0,.57.42,1.07,1.23,1.42-1.45.8-2.37,1.76-2.27,2.54.14,1.2,2.62,1.52,5.53.71,2.66-.74,4.75-2.16,5-3.32a2.13,2.13,0,0,0,1.22-.21C141.09,142.2,139.31,141.28,137.12,136.12Z"/><path class="cls-34" d="M150.47,64.76a.15.15,0,0,1-.1-.06s-1.61-2.52-13.85-9.28A114.22,114.22,0,0,0,121.93,49a.13.13,0,0,1-.08-.17.15.15,0,0,1,.17-.08,114.84,114.84,0,0,1,14.63,6.49C149,62,150.54,64.46,150.6,64.56a.14.14,0,0,1,0,.18A.11.11,0,0,1,150.47,64.76Z"/><path class="cls-34" d="M145.4,72a.11.11,0,0,1-.11-.09s-1-2.83-11.24-12.31a114.44,114.44,0,0,0-12.63-9.76.13.13,0,0,1,0-.18.13.13,0,0,1,.18,0,113.07,113.07,0,0,1,12.66,9.78c10.37,9.57,11.28,12.32,11.32,12.43a.13.13,0,0,1-.09.16S145.42,72,145.4,72Z"/><path class="cls-41" d="M165.56,162.44c58.33,11.2,48.06-30.08,48.06-30.08S211.93,165.27,165.56,162.44Z"/><path class="cls-41" d="M194.44,199.84c4.47,26.91-23.7,43.24-23.7,43.24S191.87,226.2,194.44,199.84Z"/><path class="cls-2" d="M143.93,141.66c37.28,31.27,41-16.61,41-16.61s-3.63,6.72-6.74,13.61C173.47,149,161,152.8,143.93,141.66Z"/><path class="cls-42" d="M176.81,45.59c-6.42,6.06,11.73,15.69,11.73,15.69S182,58,176.81,45.59Z"/><path class="cls-42" d="M177.41,56a30.69,30.69,0,0,1,11.08,20.06s-5.65-1-7.25-1.57C185,73.83,182,61.38,177.41,56Z"/><path class="cls-42" d="M183,74.87c4.68,11.44-.47,28.55-.47,28.55s2.43-22.38-3.31-29.25C180.12,74.44,182.59,75.06,183,74.87Z"/><path class="cls-42" d="M174.77,81c.62,1,2.29,7.18,2.95,9-4.95,22.65-13.56,24.33-13.56,24.33S175.38,100.18,174.77,81Z"/><path class="cls-42" d="M161.61,90.59c0,1.52.31,8.62.47,11.38-6.58,14.09-26.43,13.17-26.43,13.17S161.32,107.53,161.61,90.59Z"/><path class="cls-43" d="M133.17,5.09c-1.09,1.8-.42.47-2.07,3.42,8.1-1.48,27.47,7.43,27.47,7.43S151.89,8.26,133.17,5.09Z"/><path class="cls-44" d="M117.26,63.89a14.17,14.17,0,0,0-12.62.21,6.61,6.61,0,0,0,6.29,4.64C113.59,68.74,116,67.16,117.26,63.89Z"/></g></g></g></svg>