<svg xmlns="http://www.w3.org/2000/svg" viewBox="0 0 319.47 261.23"><defs><style>.cls-1{isolation:isolate;}.cls-2{fill:#c47002;}.cls-3{fill:#b76402;}.cls-4{fill:#ffc89f;}.cls-5{fill:#edb188;opacity:0.25;}.cls-10,.cls-15,.cls-23,.cls-40,.cls-5{mix-blend-mode:multiply;}.cls-6{fill:#ffd5b8;}.cls-7{fill:#d68005;}.cls-8{fill:#ffcd97;opacity:0.12;}.cls-8,.cls-9{mix-blend-mode:luminosity;}.cls-9{fill:#fca342;}.cls-10{fill:#aa5d00;opacity:0.21;}.cls-11{fill:#fff;}.cls-12{fill:#b2ccc9;opacity:0.38;}.cls-13,.cls-35{fill:#f2f6f9;}.cls-13{opacity:0.63;}.cls-14,.cls-15{fill:#bfdfdc;}.cls-14{opacity:0.19;}.cls-15,.cls-17{opacity:0.37;}.cls-16{fill:#844415;}.cls-17{fill:#ce7438;mix-blend-mode:color-burn;}.cls-18{fill:#3f2513;}.cls-19{fill:#fff0e1;}.cls-20{fill:#4f341f;}.cls-21{fill:#3d2718;}.cls-22{fill:#593821;}.cls-23{fill:#533928;opacity:0.33;}.cls-24{fill:#937e6d;opacity:0.27;}.cls-25{fill:#e59007;}.cls-26{fill:#f7a328;}.cls-27{fill:#ffccc0;opacity:0.65;}.cls-28{fill:#ffdcd7;opacity:0.78;}.cls-29{fill:#ef9506;}.cls-30{fill:#b76800;opacity:0.43;}.cls-31{fill:#ffba5f;opacity:0.11;}.cls-32{fill:#fffefd;}.cls-33{fill:#e58905;}.cls-34{fill:#bf6902;}.cls-36{fill:#ffa836;}.cls-37{fill:#ffae43;}.cls-38{fill:#3d271c;}.cls-39{fill:#ff6669;}.cls-40{fill:#fce5e4;}.cls-41{fill:#47270b;}.cls-42{fill:#381807;}.cls-43{fill:#ffa27d;}.cls-44{fill:#ffac3e;}</style></defs><title>Asset 3ldpi</title><g class="cls-1"><g id="Layer_2" data-name="Layer 2"><g id="Layer_1-2" data-name="Layer 1"><path class="cls-2" d="M187.74,107.66c-.1-.36-.19-.71-.26-1.07a15.26,15.26,0,0,1-.35-3.51,14.75,14.75,0,0,1,.15-1.69,13.1,13.1,0,0,1,.42-2A17.3,17.3,0,0,1,189.2,96a18.33,18.33,0,0,1,2.1-2.85,24,24,0,0,1,2.37-2.35,28.64,28.64,0,0,1,3-2.32,28.27,28.27,0,0,1,5.65-2.92,14.55,14.55,0,0,1,3.44-.83,28.65,28.65,0,0,1,3.65-.17,30.27,30.27,0,0,1,7.06.93,35.73,35.73,0,0,1,6.45,2.27,52.81,52.81,0,0,1,5.38,3c1.5.93,3,1.84,4.52,2.68s3,1.55,4.54,2.24c1.84.82,3.84,1.61,6.1,2.42a63.86,63.86,0,0,0,6.18,1.87c1.4.36,2.87.67,4.48.94,2,.33,4.05.59,6.13.8a54.56,54.56,0,0,0,6.67.21c1.3,0,2.49-.1,3.64-.21a42.87,42.87,0,0,0,10.53-2.39,32.42,32.42,0,0,0,4.63-2.27c1.24-.75,2.53-1.6,4.17-2.78L291.71,93c.64-.5,1.29-1,2-1.48a1.37,1.37,0,0,1,.29-.2l.43-.31a9.72,9.72,0,0,1,1.72-1,8.25,8.25,0,0,1,1.73-.57,5.14,5.14,0,0,1,1.05-.1,3.59,3.59,0,0,1,.8.11,2.71,2.71,0,0,1,.6.22l.11.05a2.11,2.11,0,0,1,1,1c.06.15.1.27.14.39a2.86,2.86,0,0,1,0,1.38l0,.09,0-.16a12.72,12.72,0,0,1-.82,2.71,28.28,28.28,0,0,1-1.89,3.59,41.25,41.25,0,0,1-2.39,4.5c-.62,1-1.31,2-1.9,2.76-.69,1-1.47,1.93-2.44,3.09a49.61,49.61,0,0,1-4.7,4.91c-1.23,1.11-2.5,2.15-3.76,3.08l-.07,0c-1.21.88-2.28,1.64-3.29,2.32-.85.58-1.87,1.26-2.92,1.88a63.54,63.54,0,0,1-6.08,3.23,67.58,67.58,0,0,1-6.91,2.74c-2.09.7-4.31,1.33-6.78,1.93-2,.48-4.36,1-6.67,1.4s-4.85.67-7.15.85c-2.69.2-4.89.3-7,.33-2.35,0-4.68,0-6.93-.18-1.19-.08-2.37-.24-3.47-.4-1.26-.19-2.5-.4-3.69-.65s-2.15-.47-3.34-.76-2.28-.62-3.34-.94c-2-.61-4.13-1.36-6.48-2.29-2.15-.84-4.43-1.76-6.66-2.81-1.09-.52-2-1-2.95-1.56-.44-.26-.87-.53-1.3-.81s-1.1-.79-1.49-1.1l.07.06-.08-.06-.08-.07-.15-.12.1.06c-.52-.41-.94-.78-1.33-1.14s-.8-.79-1.16-1.17c-.71-.75-1.41-1.53-2.08-2.32s-1.25-1.5-1.93-2.41l-.06-.09,0-.06a1.86,1.86,0,0,1-.35-.47.21.21,0,0,0,0-.06l-.12-.18-.13-.18c-.15-.22-.29-.45-.43-.69s-.46-.81-.72-1.35A14.37,14.37,0,0,1,187.74,107.66Z"/><path class="cls-3" d="M206.3,95.56c-9.05-.6-19.17,20.14,1.95,32.14,66.09,15.75,88.08-24,89.33-26.5C288.27,113,225.78,134,206.3,95.56Z"/><path class="cls-4" d="M300.89,79.43A12,12,0,0,1,302,83.11l.45-.11c1.61-1.53,4.57-3.76,5.63-4.74,1.78-1.64,3.54-1.65,4.52,0,1.12,1.84-1.54,4.39-2.66,5.59-.52.55-1,1.16-1.5,1.74l.13.17a20.25,20.25,0,0,1,4.9-2.65c1.64-.6,3.85-1,4.39,1.07.34,1.34-2.9,3.86-4.32,4.67-.87.49-1.69,1.1-2.57,1.6,0,.12.06.25.08.37,1.5-.57,3-.77,4.69-1.28,2.09-.63,3.77.36,3.69,2.23-.09,2.12-3.77,3.36-5.35,3.77-1.21.3-2.32.25-3.55.47-.32,0-.66.06-1,.09-1.72,1.72-5.25,3.56-7.78,2.55a2.67,2.67,0,0,1-.2.46s0,0,0,0a1.78,1.78,0,0,1-2.09,1.12A5.83,5.83,0,0,1,295.69,98c-1.37-1.82-3.24-5.16-2.24-7.56a2.82,2.82,0,0,1,2.42-1.55,7.75,7.75,0,0,1,0-1.86c.17-1.92,1.9-3.7,1.55-5.67-.16-1-.91-2.89-.05-3.75C298.68,76.26,300.39,78.43,300.89,79.43Z"/><ellipse class="cls-2" cx="297.75" cy="99.07" rx="2.11" ry="5.36" transform="translate(128.68 363.43) rotate(-75.8)"/><ellipse class="cls-2" cx="296.58" cy="96.42" rx="2.18" ry="5.19" transform="translate(192.09 390.25) rotate(-88.43)"/><ellipse class="cls-2" cx="294.88" cy="94.67" rx="4.97" ry="2.28" transform="translate(4.99 203.66) rotate(-38.4)"/><ellipse class="cls-2" cx="293.07" cy="92.99" rx="5.13" ry="2.2" transform="translate(82.23 316.79) rotate(-64.31)"/><path class="cls-2" d="M115.45,108.9c.23-.29.45-.58.66-.88a15.46,15.46,0,0,0,1.68-3.11,16.65,16.65,0,0,0,.51-1.62,12.84,12.84,0,0,0,.38-2,18.18,18.18,0,0,0-.06-3.74,17.71,17.71,0,0,0-.84-3.45,24.19,24.19,0,0,0-1.27-3.08,29.17,29.17,0,0,0-1.88-3.3,28.16,28.16,0,0,0-4.09-4.88,14.47,14.47,0,0,0-2.85-2.1,30.68,30.68,0,0,0-10.17-3.43,35.62,35.62,0,0,0-6.82-.4,52.75,52.75,0,0,0-6.15.73c-1.74.28-3.45.55-5.2.73s-3.38.26-5.06.31c-2,0-4.16,0-6.56-.13-2-.1-4.09-.32-6.42-.66-1.43-.21-2.9-.49-4.5-.86-2-.47-4-1-6-1.64A55.12,55.12,0,0,1,44.62,73c-1.18-.54-2.26-1.06-3.28-1.6a43.58,43.58,0,0,1-8.79-6.27,32.32,32.32,0,0,1-3.38-3.89c-.87-1.17-1.72-2.46-2.78-4.18-.39-.64-.76-1.3-1.14-2S24.44,53.73,24,53a1.61,1.61,0,0,0-.19-.31l-.28-.44a9.92,9.92,0,0,0-1.2-1.59A8,8,0,0,0,21,49.52,5.53,5.53,0,0,0,20,49a3.36,3.36,0,0,0-.77-.2,2.28,2.28,0,0,0-.64,0h-.12a2.07,2.07,0,0,0-1.29.55,3.71,3.71,0,0,0-.28.3,3.27,3.27,0,0,0-.38.63,2.83,2.83,0,0,0-.18.63l0,.1.06-.16a12.2,12.2,0,0,0-.3,2.82,27.71,27.71,0,0,0,.36,4,41.17,41.17,0,0,0,.46,5.07c.18,1.17.45,2.31.68,3.28.28,1.14.62,2.35,1.07,3.79a48.91,48.91,0,0,0,2.43,6.34,48.37,48.37,0,0,0,2.28,4.3l0,.07c.78,1.28,1.48,2.39,2.14,3.41.57.86,1.24,1.89,2,2.86a66,66,0,0,0,4.36,5.33,71.06,71.06,0,0,0,5.31,5.2c1.66,1.45,3.47,2.88,5.52,4.39,1.67,1.23,3.62,2.64,5.61,3.88s4.21,2.49,6.26,3.54c2.4,1.22,4.4,2.17,6.28,3,2.15.94,4.33,1.78,6.46,2.51,1.14.38,2.28.68,3.35,1,1.24.32,2.47.6,3.67.83,1,.21,2.15.4,3.36.59s2.35.31,3.46.43c2.08.21,4.32.34,6.85.39,2.31,0,4.77.09,7.23,0,1.2-.06,2.29-.15,3.32-.3.51-.07,1-.15,1.52-.24.67-.13,1.31-.31,1.8-.44l-.1,0,.1,0,.1,0,.19,0-.12,0c.65-.18,1.17-.36,1.67-.54s1-.42,1.52-.63c.95-.42,1.9-.87,2.81-1.34s1.74-.9,2.72-1.48l.09-.06.06,0a2,2,0,0,0,.5-.31l.06,0,.18-.11.19-.12c.23-.15.45-.31.66-.47a13.49,13.49,0,0,0,1.2-1A15.39,15.39,0,0,0,115.45,108.9Z"/><ellipse class="cls-4" cx="105.97" cy="251.3" rx="7.28" ry="3.15" transform="translate(-166.59 241.57) rotate(-65.09)"/><ellipse class="cls-4" cx="93.16" cy="250.18" rx="10.46" ry="4.53" transform="translate(-172.98 229.3) rotate(-65.09)"/><ellipse class="cls-4" cx="82.52" cy="244.51" rx="10.46" ry="4.53" transform="translate(-140.06 113.92) rotate(-40.95)"/><ellipse class="cls-4" cx="98.23" cy="241.63" rx="6.64" ry="14.03" transform="translate(-144.6 336.87) rotate(-89.29)"/><path class="cls-5" d="M81.4,240.74c2.73-2.53,5.72-4,7.75-4.06a21.26,21.26,0,0,1,9-1.92c7-.09,10.69,7.19,10.73,10.53,0,1.26-.12,7.11-4.12,9.79.67,1.27,1.2-7.38-.31-9.06S93.83,248.72,81.4,240.74Z"/><path class="cls-6" d="M81.4,241.88c-7.67,6.57-.84,8-.84,8S77.91,246.26,81.4,241.88Z"/><path class="cls-6" d="M90.09,248.45c-2.82,14.78,6,3.81,6,3.81S90.13,256.16,90.09,248.45Z"/><ellipse class="cls-4" cx="184.09" cy="252.27" rx="3.15" ry="7.28" transform="translate(-85.3 94.29) rotate(-23.49)"/><ellipse class="cls-4" cx="196.92" cy="251.47" rx="4.53" ry="10.46" transform="translate(-83.91 99.33) rotate(-23.49)"/><ellipse class="cls-4" cx="207.71" cy="246.06" rx="4.53" ry="10.46" transform="translate(-114.06 233.69) rotate(-47.63)"/><ellipse class="cls-4" cx="192.07" cy="242.8" rx="6.64" ry="14.03" transform="matrix(0.01, -1, 1, 0.01, -53.09, 431.84)"/><path class="cls-5" d="M210.76,242.71c-3-2.77-6.36-4.4-8.63-4.45a23.74,23.74,0,0,0-10-2.1c-7.75-.1-11.89,7.88-11.94,11.55,0,1.38.13,7.8,4.58,10.74-.74,1.39-1.33-8.1.36-9.94S196.92,251.47,210.76,242.71Z"/><path class="cls-7" d="M83.61,76.83c23.84-59,101.75-63.5,130.34,0,66.81,190.6-63,173-63,173S5.42,263,83.61,76.83Z"/><path class="cls-8" d="M214,76.86c66.81,190.6-63,173-63,173S251.18,257.58,214,76.86Z"/><path class="cls-9" d="M225,189.85c5.62,26.07-21.13,43.33-21.13,43.33S223.71,215.71,225,189.85Z"/><path class="cls-10" d="M151.71,250.22S3.7,262.71,84.82,73.38c-1.64,8.65,9.12,2.21,6.88,9.79C41.39,253,151.71,250.22,151.71,250.22Z"/><path class="cls-11" d="M90.78,109.31c-34,127.17,19.43,137.11,38.52,140,4.32.65,21.09,1.34,25.82,1.16,30.6-1.14,82.71-20,39.75-146.43C190.62,66.46,114.14,21.9,90.78,109.31Z"/><path class="cls-12" d="M90.78,109.31c-34,127.17,19.43,137.11,38.52,140,4.32.65,21.09,1.34,25.82,1.16,14.1-.52,32.76-4.82,44.59-21.66-46.4,17.09-117.92,19.82-96.17-149.07C98.45,87.21,94.08,96.94,90.78,109.31Z"/><ellipse class="cls-13" cx="145.44" cy="87.58" rx="38.88" ry="47.55" transform="translate(46.68 225.67) rotate(-85.48)"/><ellipse class="cls-14" cx="146.28" cy="82.35" rx="36.18" ry="44.26" transform="translate(62.31 227.7) rotate(-89.36)"/><path class="cls-4" d="M22,39.14a11.73,11.73,0,0,0-2.49,3l-.37-.28c-.89-2-2.76-5.23-3.36-6.55-1-2.2-2.63-2.89-4.16-1.78-1.74,1.26-.27,4.64.3,6.18.27.71.47,1.46.71,2.19l-.19.1A19.81,19.81,0,0,0,9,37.62c-1.27-1.19-3.16-2.41-4.45-.71-.83,1.09,1.18,4.67,2.18,6,.61.79,1.13,1.67,1.75,2.47-.08.1-.15.21-.22.31-1.16-1.11-2.47-1.87-3.83-3C2.7,41.28.77,41.55.12,43.3c-.74,2,2.17,4.56,3.48,5.54,1,.75,2,1.13,3.09,1.81.27.17.58.31.88.47.93,2.25,3.46,5.31,6.2,5.36a2.09,2.09,0,0,0,0,.5s0,0,0,0a1.78,1.78,0,0,0,1.49,1.84,5.87,5.87,0,0,0,4.39-.53c2-1.15,5-3.51,5-6.11A2.79,2.79,0,0,0,23,49.82a8,8,0,0,0,.76-1.7c.58-1.84-.32-4.14.76-5.83.53-.84,2-2.31,1.5-3.44C25.27,37.06,22.85,38.41,22,39.14Z"/><ellipse class="cls-2" cx="17.31" cy="58.46" rx="2.11" ry="5.36" transform="translate(-43.07 66.9) rotate(-81.46)"/><ellipse class="cls-2" cx="19.42" cy="56.47" rx="2.18" ry="5.19" transform="translate(-40.25 54.19) rotate(-68.83)"/><ellipse class="cls-2" cx="21.66" cy="55.52" rx="2.28" ry="4.97" transform="translate(-24.11 17.35) rotate(-28.86)"/><ellipse class="cls-2" cx="23.97" cy="54.66" rx="2.2" ry="5.13" transform="translate(-2.78 1.31) rotate(-2.95)"/><path class="cls-6" d="M210.76,244c8.54,7.2.93,8.8.93,8.8S214.65,248.77,210.76,244Z"/><path class="cls-6" d="M201.09,251.17c3.13,16.21-6.67,4.19-6.67,4.19S201,259.63,201.09,251.17Z"/><path class="cls-15" d="M118.83,173.67l.09-.56q3-.31,6.09-.73l-.15.84Q121.79,173.51,118.83,173.67Zm22-2.79.22-1.42q3.77-.86,7.56-1.91c0,.53,0,1,0,1.53C146,169.77,143.45,170.36,140.88,170.88Zm18.54-5.22.07-1.58q3.18-1.16,6.32-2.49c0,.51,0,1,0,1.45Q162.65,164.47,159.42,165.66Zm22.32-31.24c0,.13.07.3.12.49l.06.27c-.89.55-1.79,1.08-2.71,1.59l-.08-.94a43,43,0,0,1-5.59,3c0-.11.08-.22.13-.34a32.62,32.62,0,0,1-5.08,2.28c-.75.25-1.52.49-2.33.72a10.92,10.92,0,0,0-.12,1.32q-2.87,1.07-5.77,2l.07-1.48a36.37,36.37,0,0,1-9.69,2.58l-.38,0c-.27,0-.55.05-.83.06,0,.35-.1.93-.15,1.66q-2.55.54-5.08,1l.22-1.46a74.46,74.46,0,0,1-10.4,1.54l-4.48.15c-.1.31-.25.9-.43,1.68-2.22.19-4.41.32-6.56.42l.12-.67s-2.88-.28-6.71-.85h0l-.29,0-.4-.06c-1.56-.24-3.77-.63-3.77-.63-.1.44-.28,1.31-.5,2.47-2.75,0-5.36-.11-7.81-.23l.38-2S98,148,91.11,146.48h0l-.1,0c-1.16-.24-2.36-.5-3.57-.78-.16.49-.48,1.86-.9,3.77-2.1-.28-3.26-.48-3.26-.48l-9.88,9.32-4.92-1.24c.29-1.54.28-2.68-.16-3.21A7.53,7.53,0,0,0,67,152.61l-5.29,21.06s1.35-.75,5.11-10.95l4.68,1.49,6.86,9.32s1.09.25,3.08.6c-.4,2.07-.64,3.37-.66,3.47a57.09,57.09,0,0,0,8.68,1.8,38.13,38.13,0,0,0,8.55.4l.66-3.58c2.42.18,5,.31,7.72.39l-.67,3.54a25.82,25.82,0,0,0,6,.93h0l.57,0c1,0,1.89,0,2.63,0H115a14.14,14.14,0,0,0,2.63-.39l.7-4.13c2-.09,3.94-.2,6-.36-.29,1.6-.47,2.57-.47,2.57s.17.05.48.11a21.85,21.85,0,0,0,4.42.54A20.22,20.22,0,0,0,140,176.87l.44-2.84q4-.78,8.13-1.84c0,1.69-.07,2.82-.08,3.06a14.3,14.3,0,0,0,4.88,0c4.17-.67,5.79-3.11,5.79-3.11l.16-3.36c2.18-.81,4.36-1.7,6.51-2.67v1.43c9,.79,15.57-7.08,15.57-7.08l-.27-3,.83-22.32-1.1,19.34,0-.52"/><path class="cls-16" d="M74.45,156.47l9.88-9.32s90,15.53,121.49-36.4c6-9.89,11.29-26.27,12-25.76,3.08,2.17,8.68,3.66,8.56,4.63-20.76,94.92-147,82.09-147,82.09l-6.86-9.32-5.82-1.86L68.51,155Z"/><path class="cls-17" d="M68.08,158.75l6.82,2.18,5.58,9s121,4.19,142.45-82.2c2.28.87,3.46,1.22,3.46,1.87-21.54,96.42-147,82.09-147,82.09l-6.86-9.32-5.09-1.63Z"/><ellipse class="cls-18" cx="78.44" cy="159.33" rx="1.84" ry="1.86" transform="translate(-84.16 230.75) rotate(-87.5)"/><path class="cls-19" d="M104.73,147.06s-7.76-1.28-16.24-3.2c-.86,2.63-6.47,30.81-6.7,31.92C92.62,178.71,99,178,99,178Z"/><path class="cls-16" d="M102.67,158.23a71.62,71.62,0,0,1-16.81-2.45c-.3.91-1.84,8.55-1.84,9,10.73,3.25,17,2.38,17,2.38Z"/><path class="cls-19" d="M145.58,145.32A70.78,70.78,0,0,1,130.7,147c-.95,2.91-5.52,28.7-5.81,29.92A24,24,0,0,0,141,175.05Z"/><path class="cls-16" d="M143.84,156.65s-8.46,1.89-15.18,0c-.81,4.35-1.12,6-1.55,8.28a23.47,23.47,0,0,0,15.57-.75Z"/><path class="cls-19" d="M180.18,134a49.9,49.9,0,0,1-12.87,5.64c-.47,3-.38,24.85-.47,26.11,9,.79,15.57-7.08,15.57-7.08Z"/><path class="cls-16" d="M181.06,143.72s-7,5.82-14.08,6.14c-.2,4.36,0,5.25-.07,6.15,9,1.15,14.75-5.57,14.75-5.57Z"/><path class="cls-19" d="M190.36,126.48a64.41,64.41,0,0,1-7.57,6.12c.43,2.36,5.84,17.84,6.05,18.61,6.19-5.9,8.12-8.78,8.12-8.78Z"/><path class="cls-16" d="M192.7,132.13s-1.58,3.5-8.32,5.88c.84,2.43,1.74,5.32,1.68,5.07,5.21-1.3,8.67-6.11,8.67-6.11Z"/><path class="cls-19" d="M123.83,148.44s-5.36-.53-11.17-1.59c-.76,3.35-5.66,30.38-5.93,31.48,7.37,1.83,12,.52,12,.52Z"/><path class="cls-16" d="M122.18,158.23a34.32,34.32,0,0,1-11.55-.81c-.45,2.57-1.64,8.65-1.68,9.05,7.27,2.14,11.72.71,11.72.71Z"/><path class="cls-19" d="M161.49,141.45a35.27,35.27,0,0,1-10.9,2.68c-.49,3.4-1,27-1.09,29.3,7.49,1.26,10.67-3.07,10.67-3.07Z"/><path class="cls-16" d="M161,152.05a18.72,18.72,0,0,1-10.93,1.58c-.14,3.5-.35,7.27-.24,7.72,4.6,1.84,10.91-1.68,10.91-1.68Z"/><path class="cls-19" d="M191.7,122.42l12.75,12.35,8.1-17.32a62.72,62.72,0,0,1-16.29-6.7A47.5,47.5,0,0,0,191.7,122.42Z"/><path class="cls-16" d="M204.85,115a50.62,50.62,0,0,1-5.09-2.27c-.75,2.76-6.55,11.19-6.55,11.19l3.94,3.82S202.72,124.82,204.85,115Z"/><path class="cls-20" d="M55.19,145.76s11.22,2.68,14.18,6.26-13.3,34.09-13.3,34.09-38.5,7-13.83-25.76A41.43,41.43,0,0,1,55.19,145.76Z"/><path class="cls-21" d="M66.07,149.62a8.18,8.18,0,0,1,3.3,2.4c3.21,3.35-13.3,34.09-13.3,34.09s-12.55,1.1-16.18-6C59.35,193.54,66.07,149.62,66.07,149.62Z"/><path class="cls-22" d="M69.37,152s-9.39,8.82-16.64,10.7c-2.47.64-18.14-1.15-9.49-10.65,2.76-3,5.64-6.56,9.65-7.09C61.26,143.87,69.37,152,69.37,152Z"/><path class="cls-23" d="M92.16,144.66C80.52,177.82,99,178,99,178a54.46,54.46,0,0,1-17.23-2.2c0-.25,1.39-7.52,3.1-15.66,1.61-7.67,3.6-16.26,3.6-16.26S88.89,144,92.16,144.66Z"/><path class="cls-23" d="M112.66,146.85s3,.52,4.46.74c-12.05,26.79-1.84,31.49-1,31.65a27.9,27.9,0,0,1-9.35-.91Z"/><path class="cls-23" d="M130.7,147l4.5-.15s-9.5,28.36,5.81,28.19c-7.08,4.28-16.12,1.88-16.12,1.88S129.51,151.54,130.7,147Z"/><path class="cls-23" d="M150.59,144.13a28,28,0,0,0,4.64-.67c-7.14,32.54,4.94,26.9,4.94,26.9s-2.84,4.27-10.67,3.07c0-.81.31-12.45.61-20.81C150.29,147.81,150.59,144.13,150.59,144.13Z"/><path class="cls-23" d="M167.31,139.65a33.4,33.4,0,0,0,7.41-3c-8.33,19.2,4.73,23.87,7.69,22a21.46,21.46,0,0,1-15.57,7.08S166.86,142.28,167.31,139.65Z"/><path class="cls-23" d="M187.5,129c-2.12,18.68,8.46,14.71,8.46,14.71a97.64,97.64,0,0,1-7.12,7.48c-.21-.67-1.38-4.16-2.59-7.73-.54-1.59-1-3-1.56-4.56-.93-2.83-1.62-5-1.9-6.32C183.12,132.37,185.51,130.71,187.5,129Z"/><path class="cls-23" d="M193.16,117.54a47,47,0,0,0-1.46,4.88l12.75,12.35,4.92-10.67S202.46,134.25,193.16,117.54Z"/><path class="cls-24" d="M42.28,160.27a6,6,0,0,0,2.2,1.23c-16.88,25.24,9.89,24.86,9.89,24.86S41,188.8,35.43,182.59C30.66,176,39,164.93,42.28,160.27Z"/><path class="cls-24" d="M53.68,145c-20.11,17.24-1.52,17.85-1.52,17.85a17.2,17.2,0,0,1-9.14-2,4.22,4.22,0,0,1-1.91-5.63C41.75,154,48.3,144.48,53.68,145Z"/><path class="cls-25" d="M107.78,10.76c.59-2.2-9-10.74-14.86-3-4.09,5.36-18.71,15.72-9.88,25a11,11,0,0,0,12.5,2.66S103.42,13.57,107.78,10.76Z"/><path class="cls-26" d="M92.92,7.77c-4.09,5.36-18.71,15.72-9.88,25a11,11,0,0,0,12.5,2.66S68,34.22,92.92,7.77Z"/><path class="cls-27" d="M106.18,12.43c.47-1.76-6.92-8.21-11.63-2-3.25,4.27-14.9,12.52-7.86,19.93a8.73,8.73,0,0,0,10,2.11S102.71,16.61,106.18,12.43Z"/><path class="cls-28" d="M94.55,10.4c-3.25,4.27-14.9,12.52-7.86,19.93a8.73,8.73,0,0,0,10,2.11S82.19,27.76,94.55,10.4Z"/><path class="cls-29" d="M97.68,92.85s-4.63,7-2,12.44c-8-3.51-12.17-25.55-12.17-25.55S80,93.31,80.2,90.45C76.5,77,82.45,63.84,82.45,63.84a10.73,10.73,0,0,0-5.64,1.41c-1.64-6.37,9-18.23,9-18.23s-2,2.42-8.34,3.57C98.42,34.21,86.7-2.28,147.71.41c58,.64,46.86,38.13,69.19,51.82l-11-4.52s10.42,7.73,11.88,19l-5.48-.8s5.38,9.59,1.43,27.87l-5.51-13s-1.22,18.07-11.06,24.8c-1.24,1.21-3.43-11.86-3.43-11.86-5.06,9.48-10.76,16-47.28,15.57C100.19,108.72,97.68,92.85,97.68,92.85Z"/><path class="cls-30" d="M97.68,92.85s-4.63,7-2,12.44c-8-3.51-12.17-25.55-12.17-25.55S80,93.31,80.2,90.45C76.5,77,82.45,63.84,82.45,63.84a10.73,10.73,0,0,0-5.64,1.41c-1.64-6.37,9-18.23,9-18.23s-2,2.42-8.34,3.57C98.42,34.21,86.7-2.28,147.71.41c-74,20.55-40.66,99.31-1.21,108.83C100.19,108.72,97.68,92.85,97.68,92.85Z"/><path class="cls-31" d="M147.71.41c58,.64,46.86,38.13,69.19,51.82l-11-4.52s10.42,7.73,11.88,19l-5.48-.8s5.38,9.59,1.43,27.87l-5.51-13s-1.22,18.07-11.06,24.8c-1.24,1.21-3.43-11.86-3.43-11.86-5.06,9.48-10.76,16-47.28,15.57C156.81,104.37,253.22,62.88,147.71.41Z"/><path class="cls-32" d="M130,.87c13.49,56.2-47.2,53.05-18.33,104,8.86,8.17,48.85,6.39,57.39,3.79,38.63-47.27-33.43-65.73-9.51-107.5C149.69-.49,139.18-.18,130,.87Z"/><path class="cls-33" d="M110.09,29.91c-3-6.24,1.87-8.65,6.28-6.59,14.14,8.68-1.62,24-1.62,24S115.94,42,110.09,29.91Z"/><path class="cls-33" d="M173.2,30.61c3.15-6.17-1.68-8.68-6.13-6.73-14.33,8.37,1.09,24.05,1.09,24.05S167.08,42.59,173.2,30.61Z"/><path class="cls-34" d="M186.71,33.11a1,1,0,0,1-.44-.52,11.12,11.12,0,0,0-3.55-4.41,9,9,0,0,0-5.59-1.84,1,1,0,0,1-.18-2,11,11,0,0,1,7,2.23,13.08,13.08,0,0,1,4.24,5.34,1,1,0,0,1-.6,1.31A1,1,0,0,1,186.71,33.11Z"/><path class="cls-34" d="M95.91,34a1,1,0,0,1-.86.16,1,1,0,0,1-.73-1.24A13,13,0,0,1,98,27.14a11,11,0,0,1,6.73-2.93,1,1,0,0,1,1,1,1,1,0,0,1-1,1,9.06,9.06,0,0,0-5.38,2.4,11,11,0,0,0-3.08,4.74A1,1,0,0,1,95.91,34Z"/><path class="cls-35" d="M102.62,57.29a.11.11,0,0,1-.07,0,.12.12,0,0,1,0-.17c.07-.1,1.78-2.34,14.4-7.91a111.19,111.19,0,0,1,14.82-5,.12.12,0,0,1,.15.09.13.13,0,0,1-.09.16,111,111,0,0,0-14.77,5c-12.51,5.5-14.29,7.79-14.3,7.81A.14.14,0,0,1,102.62,57.29Z"/><path class="cls-35" d="M106.93,64.75h-.05a.14.14,0,0,1-.07-.17c0-.1,1.17-2.69,12.11-11.1a110.88,110.88,0,0,1,13.19-8.42.13.13,0,0,1,.17.05.14.14,0,0,1-.05.18,110.07,110.07,0,0,0-13.16,8.39c-10.83,8.33-12,11-12,11A.13.13,0,0,1,106.93,64.75Z"/><path class="cls-25" d="M183.37,12.46c-.54-2.22,9.19-10.55,14.92-2.67,4,5.46,18.36,16.14,9.32,25.23a11,11,0,0,1-12.56,2.38S187.67,15.36,183.37,12.46Z"/><path class="cls-36" d="M198.29,9.79c4,5.46,18.36,16.14,9.32,25.23-5.84,5.87-10.74,2.94-12.56,2.38C220.14,35.3,205.39,18.85,198.29,9.79Z"/><path class="cls-27" d="M185,14.16c-.43-1.77,7.1-8,11.66-1.78,3.17,4.35,14.63,12.86,7.43,20.1A8.78,8.78,0,0,1,194,34.37S188.18,18.36,185,14.16Z"/><path class="cls-28" d="M196.62,12.38c3.17,4.35,14.63,12.86,7.43,20.1A8.78,8.78,0,0,1,194,34.37S211.21,31.73,196.62,12.38Z"/><path class="cls-35" d="M180,58.15a.14.14,0,0,1-.11-.06s-1.74-2.35-14.12-8.13a112.62,112.62,0,0,0-14.66-5.35.12.12,0,0,1-.09-.15.13.13,0,0,1,.16-.09,110.76,110.76,0,0,1,14.7,5.36C178.38,55.57,180,57.85,180.1,58a.12.12,0,0,1,0,.17A.11.11,0,0,1,180,58.15Z"/><path class="cls-35" d="M175.52,65.51a.11.11,0,0,1-.11-.08s-1.14-2.7-11.78-11.26a109.37,109.37,0,0,0-13-8.69.13.13,0,0,1,0-.17.13.13,0,0,1,.18-.05,111.23,111.23,0,0,1,13,8.71c10.75,8.65,11.81,11.26,11.85,11.37a.11.11,0,0,1-.07.16Z"/><path class="cls-37" d="M204.41,37.7c-5.85,6.35,12.49,14.53,12.49,14.53S210.29,49.5,204.41,37.7Z"/><path class="cls-37" d="M205.69,47.84a30.08,30.08,0,0,1,12.14,18.83s-5.59-.62-7.19-1C214.26,64.71,210.54,52.77,205.69,47.84Z"/><path class="cls-37" d="M212.35,65.87c5.32,10.84,1.43,27.87,1.43,27.87s1.37-19.06-7.4-30.55C207.32,63.4,212,66.07,212.35,65.87Z"/><path class="cls-37" d="M202.12,68.28c.67,1,5.36,11,6.13,12.75-3.34,22.42-11.62,24.64-11.62,24.64S207.11,88.12,202.12,68.28Z"/><path class="cls-37" d="M193.21,80.89c0,1.49.19,10.12.35,12.81C189.38,106.9,169,108.64,169,108.64S192,100.22,193.21,80.89Z"/><path class="cls-38" d="M150.17,65.43c.06,6.8-4.16,11.88-9.29,11.88s-9.3-5.32-9.3-11.88c0-5.13.22-11.33,4.14-11.11,4.1.23,5.18-2.33,5.66-2.43.79-.16-.23,2.31,5.41,2.66C150.49,54.78,150.12,58.7,150.17,65.43Z"/><path class="cls-39" d="M149,71.25c-5.91-3.07-13.37-1.79-16.16,0,2.05,4.82,5.29,6.11,8.06,6.11S147.89,75.28,149,71.25Z"/><path class="cls-40" d="M84,54.12c0,4.54,5.67,8.28,12.78,8.36s12.91-3.53,13-8.07S104.07,46.13,97,46.05,84.05,49.59,84,54.12Z"/><path class="cls-40" d="M172.17,54.54c0,4.55,6.24,8.29,14.05,8.38s14.18-3.52,14.23-8.06-6.24-8.29-14-8.37S172.22,50,172.17,54.54Z"/><path class="cls-41" d="M105,38.44c-1,3.43.57,7,3.6,7.93S115,45.31,116,41.89s-.57-7-3.6-7.93S106.07,35,105,38.44Z"/><path class="cls-42" d="M107,39.65a3.78,3.78,0,0,0,2.2,4.83,3.71,3.71,0,0,0,4.5-2.73,3.79,3.79,0,0,0-2.2-4.84A3.72,3.72,0,0,0,107,39.65Z"/><path class="cls-11" d="M110.85,37.85a2.25,2.25,0,0,0,1.22,3,2.32,2.32,0,0,0,3-1.25,2.23,2.23,0,0,0-1.21-3A2.32,2.32,0,0,0,110.85,37.85Z"/><path class="cls-11" d="M107,39.78a1.5,1.5,0,0,0,.81,2,1.54,1.54,0,0,0,2-.83,1.49,1.49,0,0,0-.8-2A1.56,1.56,0,0,0,107,39.78Z"/><path class="cls-41" d="M177.87,39c1.13,3.4-.39,7-3.4,8s-6.36-.9-7.49-4.3.4-7,3.4-8S176.75,35.6,177.87,39Z"/><path class="cls-42" d="M175.93,40.25a3.8,3.8,0,0,1-2.09,4.89,3.72,3.72,0,0,1-4.56-2.63,3.79,3.79,0,0,1,2.08-4.89A3.73,3.73,0,0,1,175.93,40.25Z"/><path class="cls-11" d="M172,38.55a2.24,2.24,0,0,1-1.14,3,2.32,2.32,0,0,1-3-1.17,2.24,2.24,0,0,1,1.14-3A2.32,2.32,0,0,1,172,38.55Z"/><path class="cls-11" d="M176,40.38a1.48,1.48,0,0,1-.76,2,1.55,1.55,0,0,1-2-.78,1.5,1.5,0,0,1,.76-2A1.54,1.54,0,0,1,176,40.38Z"/><path class="cls-11" d="M141.56,51.88l1.77,2.31c0,.25-.07,1.33-.09,1.67,0,.16-.07.28-.14.28L139.32,56c-.07,0-.12-.13-.11-.29,0-.33.06-1.4.07-1.65Z"/><path class="cls-41" d="M136.47,55.09a5.36,5.36,0,0,1-5.33-5.37.5.5,0,0,1,.49-.48.48.48,0,0,1,.47.48,4.39,4.39,0,1,0,8.78,0l0-6a.48.48,0,1,1,1,0l0,6A5.35,5.35,0,0,1,136.47,55.09Z"/><path class="cls-41" d="M146.2,55.12a5.33,5.33,0,0,1-5.32-5.36l0-6a.48.48,0,1,1,1,0l0,6a4.39,4.39,0,0,0,8.78,0,.47.47,0,0,1,.48-.48.49.49,0,0,1,.48.48A5.35,5.35,0,0,1,146.2,55.12Z"/><path class="cls-43" d="M141.36,47.66c-.78,0-6.5-2-6.49-4.64,0-3.19,4.41-3.17,6.52-3.16s6.52,0,6.5,3.21C147.88,45.78,142.45,47.67,141.36,47.66Z"/><path class="cls-43" d="M141.39,40.37c3.31,0,6,.44,6,2.7s-5,4.08-6,4.07c-.61,0-6-1.85-6-4.12s2.69-2.66,6-2.65m0-1c-2.11,0-7,0-7.05,3.68,0,3.23,6.37,5.16,7,5.16,1.36,0,7-2,7-5.11,0-3.7-4.91-3.72-7-3.73Z"/><path class="cls-9" d="M227.59,93c24.07,15.27,39.57,11.86,52.88,8.75C268.26,112.71,235.25,106,227.59,93Z"/><path class="cls-29" d="M100.72,15.46s-3.27-1.57-3.89-2.88c-.33,3.27,1.69,6.7,1.69,6.7s-4-1.5-4.87-3.67c-.38,2.51,1.81,6.82,1.81,6.82a2.94,2.94,0,0,1-2.26-1.19c-.83,5.45,1.35,7.13,1.35,7.13l5.17-7.07Z"/><path class="cls-30" d="M100.72,15.46s-3.27-1.57-3.89-2.88c-.33,3.27,1.69,6.7,1.69,6.7s-4-1.5-4.87-3.67c-.38,2.51,1.81,6.82,1.81,6.82a2.94,2.94,0,0,1-2.26-1.19c-.83,5.45,1.35,7.13,1.35,7.13l5.17-7.07Z"/><path class="cls-29" d="M186.31,18.22s3.27-1.58,3.89-2.88c.34,3.27-1.69,6.69-1.69,6.69s4.05-1.5,4.87-3.66c.39,2.51-1.81,6.81-1.81,6.81A3,3,0,0,0,193.83,24c.83,5.45-1.35,7.13-1.35,7.13l-5.17-7.08Z"/><path class="cls-31" d="M186.31,18.22s3.27-1.58,3.89-2.88c.34,3.27-1.69,6.69-1.69,6.69s4.05-1.5,4.87-3.66c.39,2.51-1.81,6.81-1.81,6.81A3,3,0,0,0,193.83,24c.83,5.45-1.35,7.13-1.35,7.13l-5.17-7.08Z"/><path class="cls-3" d="M16.93,62.76c7,39.6,50.41,51.9,50.41,51.9L76.64,92S47.17,116.5,16.93,62.76Z"/><path class="cls-9" d="M26.39,57.1c9.84,30.65,50.25,22.35,50.25,22.35S33,78,26.39,57.1Z"/><path class="cls-44" d="M160,1.85c-1.07,1.77-.41.46-2,3.35,7.92-1.45,26.87,7.26,26.87,7.26S178.28,5,160,1.85Z"/></g></g></g></svg>