<svg xmlns="http://www.w3.org/2000/svg" viewBox="0 0 223.99 254.26"><defs><style>.cls-1{isolation:isolate;}.cls-2{fill:#ef9506;}.cls-3{fill:#ffc89f;}.cls-4{fill:#c47002;}.cls-5{fill:#edb188;opacity:0.25;}.cls-12,.cls-20,.cls-35,.cls-39,.cls-43,.cls-5,.cls-9{mix-blend-mode:multiply;}.cls-6{fill:#ffd5b8;}.cls-7{fill:#d68005;}.cls-8{fill:#ffa21a;}.cls-29,.cls-8{opacity:0.39;}.cls-43,.cls-9{fill:#aa5d00;}.cls-9{opacity:0.64;}.cls-10{fill:#fff;}.cls-11{fill:#b2ccc9;opacity:0.38;}.cls-12,.cls-24{fill:#bfdfdc;}.cls-12{opacity:0.29;}.cls-13{fill:#844415;}.cls-14{fill:#ce7438;opacity:0.37;mix-blend-mode:color-burn;}.cls-15{fill:#3f2513;}.cls-16{fill:#fff0e1;}.cls-17{fill:#4f341f;}.cls-18{fill:#3d2718;}.cls-19{fill:#593821;}.cls-20{fill:#533928;opacity:0.33;}.cls-21{fill:#937e6d;opacity:0.27;}.cls-22{fill:#ffcb8d;}.cls-22,.cls-45{opacity:0.36;}.cls-22,.cls-37,.cls-44,.cls-45{mix-blend-mode:luminosity;}.cls-23,.cls-38{fill:#f2f6f9;}.cls-23{opacity:0.63;}.cls-24{opacity:0.19;}.cls-25{fill:#e59007;}.cls-26{fill:#ffa836;}.cls-27{fill:#ffccc0;opacity:0.65;}.cls-28{fill:#ffdcd7;opacity:0.78;}.cls-29{fill:#ffaa39;}.cls-30,.cls-34{fill:#b76800;}.cls-30{opacity:0.34;}.cls-31{fill:#fffefd;}.cls-32{fill:#e58905;}.cls-33{fill:#bf6902;}.cls-34{opacity:0.43;}.cls-35{fill:#3d271c;}.cls-36{fill:#ff6669;}.cls-37{fill:#ffb26c;opacity:0.67;}.cls-39{fill:#fce5e4;}.cls-40{fill:#47270b;}.cls-41{fill:#381807;}.cls-42{fill:#ffa27d;}.cls-43{opacity:0.2;}.cls-44{fill:#fca342;}.cls-45{fill:#ffdcc0;}</style></defs><title>Asset 4ldpi</title><g class="cls-1"><g id="Layer_2" data-name="Layer 2"><g id="Layer_1-2" data-name="Layer 1"><path class="cls-2" d="M144.81,125.89c-.31-.18-.6-.37-.89-.56a14.64,14.64,0,0,1-2.56-2.23,11.46,11.46,0,0,1-1-1.27,12.54,12.54,0,0,1-1-1.65,16.8,16.8,0,0,1-1.22-3.37,17.85,17.85,0,0,1-.41-3.38,22.46,22.46,0,0,1,.09-3.19,29.43,29.43,0,0,1,.56-3.61,28,28,0,0,1,2-5.77A13.87,13.87,0,0,1,142.21,98a25.94,25.94,0,0,1,2.43-2.52,29.09,29.09,0,0,1,5.53-4,34,34,0,0,1,6-2.67,50,50,0,0,1,5.76-1.44c1.66-.34,3.29-.68,4.92-1.12s3.12-.9,4.64-1.43c1.82-.65,3.73-1.42,5.85-2.35a60.9,60.9,0,0,0,5.53-2.78c1.22-.67,2.44-1.43,3.74-2.3,1.6-1.09,3.22-2.27,4.79-3.49a53.88,53.88,0,0,0,4.79-4.26c.88-.89,1.66-1.72,2.4-2.55a41.91,41.91,0,0,0,5.75-8.62A30.27,30.27,0,0,0,206,53.82c.38-1.34.71-2.79,1.07-4.69.13-.71.25-1.43.36-2.14s.25-1.55.39-2.32a1.21,1.21,0,0,1,.07-.33l.09-.49a9.48,9.48,0,0,1,.55-1.84,7.92,7.92,0,0,1,.82-1.53,6,6,0,0,1,.67-.77,4.44,4.44,0,0,1,.62-.45,2.87,2.87,0,0,1,.57-.24l.11,0a2,2,0,0,1,1.34.05l.35.18a2.89,2.89,0,0,1,.56.44,2.74,2.74,0,0,1,.38.5l.05.08-.1-.13a12,12,0,0,1,1.23,2.43,27.83,27.83,0,0,1,1.05,3.75A40,40,0,0,1,217.52,51c.23,1.11.38,2.23.5,3.17.14,1.12.25,2.32.33,3.77a46.89,46.89,0,0,1,0,6.51,45.2,45.2,0,0,1-.59,4.64v.07c-.26,1.41-.51,2.64-.76,3.79-.21,1-.47,2.11-.79,3.24a65,65,0,0,1-2.1,6.26,68.31,68.31,0,0,1-3,6.47c-1,1.87-2.13,3.77-3.46,5.82-1.08,1.67-2.34,3.6-3.71,5.38s-2.93,3.67-4.42,5.31c-1.74,1.91-3.2,3.45-4.61,4.83-1.61,1.57-3.28,3.07-4.95,4.45-.88.73-1.81,1.39-2.68,2s-2,1.38-3,2-1.8,1.09-2.82,1.67-2,1.07-3,1.55c-1.8.9-3.77,1.78-6,2.69-2.05.83-4.25,1.7-6.5,2.43-1.09.36-2.1.65-3.08.87-.48.11-1,.21-1.44.29-.65.12-1.28.18-1.76.22h-.11l-.19,0,.12,0c-.64,0-1.18.08-1.68.08s-1.08,0-1.59,0c-1-.05-2-.13-3-.24-.81-.09-1.87-.22-2.94-.41l-.1,0h-.07a1.78,1.78,0,0,1-.55-.1h-.07l-.2,0-.21,0c-.25,0-.5-.12-.75-.19-.42-.12-.86-.27-1.4-.47A13.81,13.81,0,0,1,144.81,125.89Z"/><path class="cls-3" d="M221.78,37.14c-.18-3.42-3.35-5.08-6.6-5.26-.5-1.69-2.57-1.36-3.93-1-.71.21-1.49.44-2.22.58a7.07,7.07,0,0,0-2.06.36c-1.05.57-1.14,2.2-1.19,3.25a8,8,0,0,0,2.37,6.47c0,.13.07.26.12.38a2,2,0,0,0-.41.36s0,0,0,0a1.68,1.68,0,0,0-.37,2.21,5.48,5.48,0,0,0,3.13,2.76c2,.68,5.6,1.33,7.44-.3a2.65,2.65,0,0,0,.66-2.59,5.58,5.58,0,0,0,.8-.68A7.91,7.91,0,0,0,221.78,37.14Z"/><path class="cls-3" d="M214.73,31.66c0-1.22.09-2.26,0-3.49a45.68,45.68,0,0,0-.58-6.25c-.35-1.41-2-3.12-3.2-1.91-1.6,1.61-1.33,4.67-1.43,6.64-.13,2.63-.05,5.3-.06,7.93l5.39-.23C215.06,34.12,214.76,32.22,214.73,31.66Z"/><path class="cls-3" d="M219.62,30.46a2.72,2.72,0,0,0-4.91-2l-1.61.76c-1.35.34-.54,4.82-.37,5.83.57,3.17,3.32,4.75,6.5,4.78,2.34,0,3-1.82,4-3.61C225.09,33,222.64,28.52,219.62,30.46Z"/><path class="cls-4" d="M213.74,37a4.21,4.21,0,0,0-.57-.82,5.7,5.7,0,0,0-.95-.83l-.54-.34s-.71-.31-.68-.31l.77,0a7.78,7.78,0,0,0,1.4-.16,3.75,3.75,0,0,0,1.27-.59,2.65,2.65,0,0,0,.77-.84,2.39,2.39,0,0,0,.25-.78,1.8,1.8,0,0,0-.69-1.5,1.84,1.84,0,0,0-1.2-.49,3.14,3.14,0,0,0-.87.06c-.28.06-2.11.56-2.38.6-.46.06-.94.07-1.41.13l-.7.11a3.49,3.49,0,0,0-1.92,1,3.42,3.42,0,0,0-.72,1.81,8.36,8.36,0,0,0,0,2.16,9.69,9.69,0,0,0,.51,2.45,7.41,7.41,0,0,0,.48,1.07,5.53,5.53,0,0,0,2.17,2.15,6.88,6.88,0,0,0,1.5.64,5.81,5.81,0,0,0,1.19.24c1,0,1-.06,1-.09s-.09,0-.22,0a5.27,5.27,0,0,1-.7,0,5.8,5.8,0,0,1-1.21-.25,7.36,7.36,0,0,1-2.17-1.15,4.69,4.69,0,0,1-1.7-2.49,9.18,9.18,0,0,1-.31-1.09,9,9,0,0,1-.17-1.16,8.25,8.25,0,0,1,0-1.22,4.66,4.66,0,0,1,.49-2.43,2.11,2.11,0,0,1,.86-.84,7.36,7.36,0,0,1,2.56-.57,17.68,17.68,0,0,0,3.33-.7,1.51,1.51,0,0,1,1.47.31,1.63,1.63,0,0,1,.55,1.27,2.37,2.37,0,0,1-1.85,1.88,3.92,3.92,0,0,1-1.27.23l-.81,0-.9,0,.32.15,1.55.82a5.63,5.63,0,0,1,1,.8c.12.13.23.27.33.4a4.11,4.11,0,0,1,.24.39,6.72,6.72,0,0,1,.45,1.35A4,4,0,0,0,213.74,37Z"/><path class="cls-4" d="M214.83,28.39a1.58,1.58,0,0,1,1.1-.75,3.12,3.12,0,0,1,1.54,0,3.22,3.22,0,0,1,.61.24,2.86,2.86,0,0,1,1.22,1.57,7.82,7.82,0,0,1,.16.88,5.31,5.31,0,0,1-.22,2.11c-.07.26-.15.51-.24.76a6.36,6.36,0,0,1-.31.71,7.19,7.19,0,0,1-.37.67,3.53,3.53,0,0,1-1.49,1.5,3.13,3.13,0,0,1-1.24.29,2.39,2.39,0,0,1-1.09-.22,1.54,1.54,0,0,1-.41-.27,1.46,1.46,0,0,1-.29-.33,1.6,1.6,0,0,1-.17-.35,1.49,1.49,0,0,1-.09-.31c0-.19,0-.33,0-.43s0-.16,0-.16,0,0,0,.13a1.67,1.67,0,0,0,0,.44,2,2,0,0,0,.25.73,2.08,2.08,0,0,0,.3.38l.19.16.23.15a2.93,2.93,0,0,0,2.41.09c1-.51,1.15-.78,1.19-.83a4.62,4.62,0,0,0,.48-.58,7.06,7.06,0,0,0,.42-.64c.13-.23.25-.47.36-.71s.2-.5.29-.75a7.28,7.28,0,0,0,.33-1.62,5.08,5.08,0,0,0,0-.78,5.17,5.17,0,0,0-.1-.79,4.44,4.44,0,0,0-.43-1.11,2.8,2.8,0,0,0-1.53-1.17,3.69,3.69,0,0,0-.72-.15,3.19,3.19,0,0,0-1.61.18,1.91,1.91,0,0,0-1,1.24c-.05.16-.09.32-.14.47s-.49,1.51-.5,1.53h0s.08,0,.09,0S214.75,28.53,214.83,28.39Z"/><path class="cls-4" d="M221.11,38.94a3.23,3.23,0,0,0,2.18-2.23,8.73,8.73,0,0,0,.48-1.58c.11-.51.21-1.8.22-1.93a4.63,4.63,0,0,0-.26-1.55,2.26,2.26,0,0,0-.17-.35,2.4,2.4,0,0,0-.75-.87,3.8,3.8,0,0,0-1-.48c-.22-.07-1.56-.45-2,.52,0,0,0,.37.11.24a.93.93,0,0,1,.58-.56,2,2,0,0,1,1.07,0,3.33,3.33,0,0,1,1.11.58,3.5,3.5,0,0,1,.9,2.49,10.6,10.6,0,0,1-.15,1.48,11.5,11.5,0,0,1-.4,1.56,5.52,5.52,0,0,1-.71,1.39,2.36,2.36,0,0,1-3.09.81,2.34,2.34,0,0,1-1.16-1.27,4.53,4.53,0,0,1-.18-.92,1.75,1.75,0,0,1,.32-1.1c0-.09.07-.14.06-.15s0,0-.1.09a1.33,1.33,0,0,0-.23.38,2.29,2.29,0,0,0-.18.76,2.39,2.39,0,0,0,.15,1,2.75,2.75,0,0,0,.61,1"/><ellipse class="cls-2" cx="215.72" cy="47.26" rx="5.14" ry="2.03" transform="translate(4.46 111.59) rotate(-29.29)"/><ellipse class="cls-2" cx="213.15" cy="46.19" rx="4.98" ry="2.09" transform="translate(23.7 154.24) rotate(-41.92)"/><ellipse class="cls-2" cx="210.81" cy="46.1" rx="4.77" ry="2.18" transform="translate(135.45 248.31) rotate(-81.9)"/><ellipse class="cls-2" cx="208.45" cy="46.12" rx="2.12" ry="4.92" transform="translate(-4.12 65.94) rotate(-17.8)"/><ellipse class="cls-3" cx="64.82" cy="244.74" rx="6.98" ry="3.03" transform="translate(-184.45 200.44) rotate(-65.09)"/><ellipse class="cls-3" cx="52.53" cy="243.66" rx="10.04" ry="4.35" transform="translate(-190.59 188.67) rotate(-65.09)"/><ellipse class="cls-3" cx="42.31" cy="238.22" rx="10.04" ry="4.35" transform="translate(-145.77 86.03) rotate(-40.95)"/><ellipse class="cls-3" cx="57.39" cy="235.46" rx="6.37" ry="13.47" transform="translate(-178.76 289.93) rotate(-89.29)"/><path class="cls-5" d="M41.24,234.6c2.62-2.43,5.48-3.85,7.44-3.89a20.14,20.14,0,0,1,8.6-1.84c6.68-.09,10.25,6.89,10.29,10.1,0,1.21-.12,6.82-3.95,9.39.64,1.22,1.15-7.08-.3-8.69S53.16,242.26,41.24,234.6Z"/><path class="cls-6" d="M41.24,235.7c-7.36,6.3-.8,7.7-.8,7.7S37.89,239.89,41.24,235.7Z"/><path class="cls-6" d="M49.58,242c-2.71,14.18,5.74,3.66,5.74,3.66S49.62,249.4,49.58,242Z"/><ellipse class="cls-3" cx="139.78" cy="245.67" rx="3.03" ry="6.98" transform="translate(-86.34 76.08) rotate(-23.49)"/><ellipse class="cls-3" cx="152.09" cy="244.89" rx="4.35" ry="10.04" transform="translate(-85.01 80.92) rotate(-23.49)"/><ellipse class="cls-3" cx="162.44" cy="239.71" rx="4.35" ry="10.04" transform="translate(-124.13 198.17) rotate(-47.63)"/><ellipse class="cls-3" cx="147.43" cy="236.58" rx="6.37" ry="13.47" transform="translate(-90.95 381.06) rotate(-89.29)"/><path class="cls-5" d="M165.37,236.49c-2.92-2.66-6.11-4.22-8.29-4.26a22.73,22.73,0,0,0-9.57-2c-7.44-.09-11.41,7.57-11.46,11.09,0,1.32.13,7.48,4.4,10.3-.71,1.34-1.28-7.76.34-9.54S152.09,244.89,165.37,236.49Z"/><path class="cls-7" d="M43.36,77.32c22.88-56.57,97.64-60.93,125.07,0,64.11,182.89-60.49,166-60.49,166S-31.66,256,43.36,77.32Z"/><path class="cls-8" d="M168.43,77.35c64.11,182.89-60.49,166-60.49,166S204.15,250.76,168.43,77.35Z"/><path class="cls-9" d="M108.71,243.7s-142,12-64.18-169.69c-1.59,8.31,19.89-1.17,17.73,6.1C14,243.11,108.71,243.7,108.71,243.7Z"/><path class="cls-10" d="M58.24,108.49c-32.62,122,18.64,131.56,37,134.32,4.14.63,20.23,1.29,24.76,1.12,29.37-1.1,79.37-19.23,38.15-140.51C154.05,67.37,80.66,24.62,58.24,108.49Z"/><path class="cls-11" d="M58.24,108.49c-32.62,122,18.64,131.56,37,134.32,4.14.63,20.23,1.29,24.76,1.12,13.53-.5,31.44-4.63,42.79-20.78-44.52,16.39-113.14,19-92.28-143C65.61,87.28,61.41,96.62,58.24,108.49Z"/><path class="cls-6" d="M165.37,237.7c8.19,6.91.89,8.45.89,8.45S169.1,242.3,165.37,237.7Z"/><path class="cls-6" d="M156.09,244.61c3,15.56-6.4,4-6.4,4S156,252.73,156.09,244.61Z"/><path class="cls-12" d="M80.9,165l0-.54c1.89-.35,3.82-.73,5.77-1.15l-.09.82Q83.72,164.66,80.9,165Zm20.9-4.27.1-1.38q3.54-1.09,7.1-2.38c0,.5,0,1,.07,1.47C106.65,159.31,104.22,160.07,101.8,160.76Zm17.36-6.35,0-1.52c2-.89,3.93-1.84,5.86-2.84,0,.48.07.95.1,1.39C123.13,152.5,121.15,153.49,119.16,154.41Zm19.08-31.52c0,.12.08.28.14.47l.09.25c-.82.59-1.64,1.16-2.48,1.72l-.15-.89a41.42,41.42,0,0,1-5.13,3.25c0-.11.06-.22.1-.33a30.61,30.61,0,0,1-4.69,2.54c-.7.3-1.43.59-2.18.87a11.39,11.39,0,0,0,0,1.27c-1.77.82-3.56,1.58-5.37,2.3l0-1.43a34.94,34.94,0,0,1-9.09,3.18l-.35.06c-.26,0-.53.09-.8.12,0,.34,0,.89,0,1.6-1.59.47-3.19.91-4.78,1.31l.1-1.4A73.18,73.18,0,0,1,93.73,140l-4.28.46c-.08.31-.18.88-.29,1.65-2.11.33-4.2.62-6.25.87l.06-.65s-2.77-.06-6.47-.33h0l-.28,0-.39,0c-1.51-.12-3.66-.33-3.66-.33-.06.44-.17,1.27-.3,2.4-2.63.17-5.13.28-7.48.35l.21-2s-5.47-.49-12.2-1.39h-.09c-1.13-.15-2.3-.31-3.48-.49-.11.48-.32,1.81-.59,3.68-2-.12-3.15-.22-3.15-.22l-8.78,9.63-4.79-.83c.17-1.5.07-2.58-.39-3.06a7,7,0,0,0-1.39-1.08l-3.53,20.54s1.24-.82,4.09-10.86l4.59,1.09,7.25,8.42s1.06.16,3,.35c-.23,2-.36,3.27-.38,3.37a53.58,53.58,0,0,0,8.44,1.08,36.19,36.19,0,0,0,8.21-.23l.37-3.47c2.33,0,4.81-.07,7.41-.19l-.38,3.44a25,25,0,0,0,5.84.45h0l.55,0c1,0,1.81-.12,2.51-.22h.07a14.25,14.25,0,0,0,2.48-.57l.37-4c1.86-.22,3.75-.47,5.68-.77-.17,1.55-.27,2.49-.27,2.49l.48.08a21.39,21.39,0,0,0,4.26.19,19.43,19.43,0,0,0,10.55-3.24l.21-2.75q3.82-1,7.65-2.35c.08,1.62.14,2.71.14,2.93a14,14,0,0,0,4.68-.31,8.35,8.35,0,0,0,5.32-3.4l-.1-3.23c2-.93,4-1.94,6-3,.06.86.1,1.36.1,1.36,8.67.1,14.38-7.91,14.38-7.91l-.48-2.84-.82-21.42.35,18.59-.09-.51"/><path class="cls-13" d="M37.19,151.8,46,142.17s87.25,8.3,113.6-43.68c5-9.9,8.3-24.73,9-24.3,3.12,1.86,7.32,6.8,7.28,7.74C160.78,170.65,43,166,43,166l-7.25-8.42-5.7-1.35,1.33-5.45Z"/><path class="cls-14" d="M31.25,154.45,37.94,156l6,8.22s115.42-1.43,129.65-85.65c2.31,1.88,3.07,4.35,2.27,3.32C160.06,172,43,166,43,166l-7.25-8.42-5-1.18Z"/><ellipse class="cls-15" cx="41.21" cy="154.25" rx="1.79" ry="1.76" transform="matrix(1, -0.03, 0.03, 1, -4.96, 1.41)"/><path class="cls-16" d="M65.47,140.6s-7.51-.67-15.77-1.89c-.63,2.58-3.94,29.95-4.08,31,10.57,2,16.64.86,16.64.86Z"/><path class="cls-13" d="M64.31,151.43a68.8,68.8,0,0,1-16.26-1.12c-.22.89-1.14,8.32-1.11,8.71,10.5,2.32,16.45,1,16.45,1Z"/><path class="cls-16" d="M104.44,136a68.1,68.1,0,0,1-14.12,2.69c-.7,2.86-3.19,27.86-3.38,29a23,23,0,0,0,15.28-3Z"/><path class="cls-13" d="M103.59,146.92s-8,2.43-14.52,1.15c-.46,4.23-.64,5.81-.88,8A22.51,22.51,0,0,0,103,154.26Z"/><path class="cls-16" d="M136.71,122.62a47.71,47.71,0,0,1-11.9,6.33c-.23,2.93,1.45,23.81,1.45,25,8.67.1,14.38-7.91,14.38-7.91Z"/><path class="cls-13" d="M138.26,131.84s-6.28,6.08-13,6.91c.13,4.18.34,5,.39,5.88,8.64.45,13.71-6.4,13.71-6.4Z"/><path class="cls-16" d="M145.91,114.67a62.72,62.72,0,0,1-6.8,6.41c.58,2.22,6.89,16.64,7.14,17.37,5.49-6.1,7.13-9,7.13-9Z"/><path class="cls-13" d="M148.55,119.9s-1.25,3.47-7.52,6.23c1,2.27,2.05,5,2,4.74,4.89-1.63,7.85-6.48,7.85-6.48Z"/><path class="cls-16" d="M83.85,140.52s-5.17-.11-10.81-.71c-.48,3.27-3.2,29.48-3.38,30.56,7.19,1.21,11.49-.37,11.49-.37Z"/><path class="cls-13" d="M83,150a32.92,32.92,0,0,1-11.11.07c-.24,2.49-.94,8.39-1,8.78,7.12,1.52,11.27-.18,11.27-.18Z"/><path class="cls-16" d="M119.37,131.09a33.66,33.66,0,0,1-10.23,3.36c-.23,3.29,1,25.93,1.09,28.11,7.26.66,10-3.71,10-3.71Z"/><path class="cls-13" d="M119.68,141.27a18,18,0,0,1-10.34,2.31c.13,3.36.2,7,.33,7.4,4.54,1.43,10.32-2.4,10.32-2.4Z"/><path class="cls-16" d="M146.89,110.69,160,121.57l6.49-17.15a60,60,0,0,1-16.07-5.23A45.53,45.53,0,0,0,146.89,110.69Z"/><path class="cls-13" d="M158.93,102.59a53.16,53.16,0,0,1-5-1.79c-.52,2.69-5.46,11.17-5.46,11.17l4.06,3.38S157.62,112.18,158.93,102.59Z"/><path class="cls-17" d="M18,143s10.93,1.75,14,5S21.75,181.5,21.75,181.5-14.56,191,6.65,157.86A39.86,39.86,0,0,1,18,143Z"/><path class="cls-18" d="M28.67,145.85A7.86,7.86,0,0,1,32,147.91c3.32,3-10.25,33.59-10.25,33.59s-11.92,2-15.91-4.58C25.44,188.37,28.67,145.85,28.67,145.85Z"/><path class="cls-19" d="M32,147.91S23.66,157,16.86,159.36c-2.32.79-17.44.22-9.85-9.5,2.42-3.11,4.92-6.69,8.72-7.49C23.65,140.71,32,147.91,32,147.91Z"/><path class="cls-20" d="M53.27,139.21c-8.72,32.57,9,31.39,9,31.39a52.6,52.6,0,0,1-16.64-.86c0-.24.78-7.29,1.82-15.21,1-7.46,2.26-15.82,2.26-15.82S50.1,138.81,53.27,139.21Z"/><path class="cls-20" d="M73,139.81s2.9.29,4.33.38c-9.58,26.52.53,30.27,1.3,30.37a27.14,27.14,0,0,1-9-.19Z"/><path class="cls-20" d="M90.32,138.65l4.3-.47s-7,27.83,7.6,26.56c-6.46,4.6-15.28,3-15.28,3S89.51,143.08,90.32,138.65Z"/><path class="cls-20" d="M109.14,134.45a26.32,26.32,0,0,0,4.39-1c-4.46,31.66,6.69,25.38,6.69,25.38s-2.42,4.3-10,3.71c0-.78-.61-11.93-.93-19.95C109.12,138,109.14,134.45,109.14,134.45Z"/><path class="cls-20" d="M124.81,129a32.15,32.15,0,0,0,6.88-3.41c-6.58,19,6.26,22.49,8.95,20.51A20.58,20.58,0,0,1,126.26,154S124.57,131.5,124.81,129Z"/><path class="cls-20" d="M143.36,117.31c-.67,18,9.16,13.46,9.16,13.46a93.83,93.83,0,0,1-6.27,7.68c-.25-.63-1.62-3.89-3-7.21-.63-1.49-1.2-2.77-1.82-4.26-1.1-2.63-1.91-4.64-2.28-5.9C139.4,120.84,141.57,119.07,143.36,117.31Z"/><path class="cls-20" d="M147.93,105.91a47.39,47.39,0,0,0-1,4.78L160,121.57,163.93,111S158.05,121.22,147.93,105.91Z"/><path class="cls-21" d="M6.69,157.78a5.7,5.7,0,0,0,2.19,1c-14.31,25.38,11.27,23.07,11.27,23.07s-12.67,3.31-18.4-2.23C-3.29,173.71,3.92,162.47,6.69,157.78Z"/><path class="cls-21" d="M16.48,142.28c-18,18-.16,17.2-.16,17.2a16.56,16.56,0,0,1-8.89-1.26A4,4,0,0,1,5.2,153C5.72,151.8,11.29,142.23,16.48,142.28Z"/><path class="cls-22" d="M147.35,91.11c0,1.43.29,3.29.44,5.88C141.62,110.21,123,109.35,123,109.35S144.25,100.67,147.35,91.11Z"/><path class="cls-4" d="M39.1,89.28c.27-.17.55-.32.83-.46a13.14,13.14,0,0,1,2.88-1,11.43,11.43,0,0,1,1.45-.23A10.63,10.63,0,0,1,46,87.47a14.24,14.24,0,0,1,6.05,1.69,20,20,0,0,1,2.48,1.48,26.71,26.71,0,0,1,2.6,2,25.24,25.24,0,0,1,3.67,4.13,13,13,0,0,1,1.43,2.72,26.35,26.35,0,0,1,.93,3,27.26,27.26,0,0,1,.73,6.13,31.73,31.73,0,0,1-.53,5.9A43.68,43.68,0,0,1,62,119.76c-.47,1.46-.91,2.89-1.28,4.38s-.66,2.86-.92,4.29c-.29,1.73-.52,3.57-.72,5.65-.17,1.72-.25,3.55-.25,5.6,0,1.25.05,2.55.17,4,.15,1.75.37,3.54.64,5.32a49.9,49.9,0,0,0,1.26,5.66c.3,1.08.62,2.07,1,3A37.55,37.55,0,0,0,66.07,166a27.63,27.63,0,0,0,2.91,3.4c.89.89,1.89,1.79,3.23,2.91l1.53,1.23,1.66,1.33a.9.9,0,0,1,.23.2l.35.29a8.62,8.62,0,0,1,1.21,1.24A7,7,0,0,1,78,177.9a4.6,4.6,0,0,1,.32.86,4.06,4.06,0,0,1,.08.69,2.51,2.51,0,0,1-.06.55l0,.11a1.86,1.86,0,0,1-.64,1,2,2,0,0,1-.29.19,2.33,2.33,0,0,1-.59.25,2.61,2.61,0,0,1-.56.08h-.09l.15,0a10.42,10.42,0,0,1-2.46-.1,25.51,25.51,0,0,1-3.42-.82,35.92,35.92,0,0,1-4.3-1c-1-.3-1.92-.67-2.72-1s-1.94-.82-3.12-1.4a42.63,42.63,0,0,1-5.13-2.89c-1.2-.8-2.35-1.64-3.4-2.5l-.05,0c-1-.83-1.87-1.56-2.66-2.26s-1.46-1.31-2.2-2.06a54.22,54.22,0,0,1-4-4.42,59.4,59.4,0,0,1-3.79-5.22c-1-1.61-2-3.34-3.07-5.29-.84-1.59-1.8-3.44-2.61-5.31s-1.6-3.93-2.24-5.82c-.74-2.22-1.31-4.05-1.77-5.77-.54-2-1-3.94-1.34-5.86-.18-1-.3-2.05-.4-3s-.2-2.2-.25-3.25-.07-1.9-.07-3,0-2,.07-3c.08-1.82.26-3.76.53-5.93.26-2,.54-4.1.95-6.2.19-1,.42-2,.67-2.82.13-.42.26-.85.41-1.27a15.49,15.49,0,0,1,.6-1.48l0,.07,0-.08,0-.08.07-.16,0,.1c.23-.53.45-1,.67-1.36s.49-.84.74-1.23c.48-.76,1-1.51,1.5-2.24s1-1.38,1.61-2.14l.06-.07,0,0a1.66,1.66,0,0,1,.32-.39l0,0,.12-.14.13-.14c.15-.18.32-.35.48-.51s.59-.57,1-.9A12,12,0,0,1,39.1,89.28Z"/><path class="cls-3" d="M89.83,179.49a11.43,11.43,0,0,1-3.15,1.95l.21.39c1.8,1.13,4.58,3.36,5.74,4.11,2,1.27,2.37,2.9,1.1,4.2-1.43,1.47-4.44-.4-5.82-1.16-.64-.35-1.31-.65-2-1l-.12.16a19.08,19.08,0,0,1,3.62,3.93c.95,1.38,1.84,3.34,0,4.32-1.16.64-4.27-1.77-5.37-2.9-.66-.69-1.42-1.31-2.09-2l-.33.16c.89,1.26,1.43,2.61,2.3,4.06,1.08,1.79.56,3.59-1.19,4-2,.42-4-2.71-4.77-4.09-.58-1-.79-2.09-1.28-3.19a9.41,9.41,0,0,1-.33-.9c-2-1.2-4.56-4-4.21-6.63a2,2,0,0,1-.48-.08s0,0,0,0a1.7,1.7,0,0,1-1.54-1.68,5.6,5.6,0,0,1,1.12-4.08c1.36-1.71,4-4.24,6.5-3.88a2.71,2.71,0,0,1,2,1.89,7.52,7.52,0,0,1,1.72-.48c1.83-.3,3.89.88,5.65.1.86-.39,2.46-1.53,3.47-.94C92.25,176.69,90.64,178.8,89.83,179.49Z"/><ellipse class="cls-4" cx="70.82" cy="181.24" rx="2.03" ry="5.14" transform="translate(-0.33 0.13) rotate(-0.11)"/><ellipse class="cls-4" cx="73.01" cy="179.51" rx="2.09" ry="4.98" transform="translate(-37.78 20.52) rotate(-12.74)"/><ellipse class="cls-4" cx="74.23" cy="177.52" rx="2.18" ry="4.77" transform="matrix(0.61, -0.8, 0.8, 0.61, -111.97, 129.02)"/><ellipse class="cls-4" cx="75.36" cy="175.44" rx="2.12" ry="4.92" transform="translate(-111.5 214.69) rotate(-78.62)"/><ellipse class="cls-23" cx="107.02" cy="85.74" rx="45.5" ry="37.2" transform="translate(-17.53 28.36) rotate(-13.97)"/><ellipse class="cls-24" cx="105.33" cy="82.61" rx="42.47" ry="34.72" transform="translate(-0.91 1.18) rotate(-0.64)"/><path class="cls-25" d="M130.49,7.33c-.9-2,6.77-11.55,13.56-5.16,4.7,4.42,20.13,11.9,13.25,22.06a10.46,10.46,0,0,1-11.38,4.47S135.05,9.3,130.49,7.33Z"/><path class="cls-26" d="M144.05,2.17c4.7,4.42,20.13,11.9,13.25,22.06a10.46,10.46,0,0,1-11.38,4.47S171.68,23.22,144.05,2.17Z"/><path class="cls-27" d="M132.27,8.65c-.72-1.58,5.24-8.83,10.65-3.74,3.74,3.52,16,9.48,10.55,17.57A8.34,8.34,0,0,1,144.41,26S136.19,12.05,132.27,8.65Z"/><path class="cls-28" d="M142.92,4.91c3.74,3.52,16,9.48,10.55,17.57A8.34,8.34,0,0,1,144.41,26S157.31,19.35,142.92,4.91Z"/><path class="cls-2" d="M138.77,11.85s3-1.81,3.44-3.11a12.31,12.31,0,0,1-1,6.54s3.71-1.81,4.3-3.95c.6,2.36-1.09,6.66-1.09,6.66a2.82,2.82,0,0,0,2-1.34c1.29,5.12-.63,6.92-.63,6.92l-5.58-6.26Z"/><path class="cls-2" d="M152.92,83.21s5.48,5.92,3.85,11.43c7-4.57,7.48-26,7.48-26s5.47,12.26,4.79,9.6c1.38-13.31-6.3-24.76-6.3-24.76a10.25,10.25,0,0,1,5.54.44c.54-6.27-11.36-15.79-11.36-15.79s2.28,2,8.44,2.06C143,28,148.34-8.29,91.18,3.83,36.58,13.54,53,47.18,34,63.61l9.62-6S35,66.55,35.42,77.39l5-1.63s-3.57,9.9,3,26.53l3.15-13.14S50.63,106,61,110.82c1.36.94,1.38-11.73,1.38-11.73,6.26,8.14,12.65,13.38,47.06,7.26C153,98.59,152.92,83.21,152.92,83.21Z"/><path class="cls-29" d="M152.92,83.21s5.48,5.92,3.85,11.43c7-4.57,7.48-26,7.48-26s5.47,12.26,4.79,9.6c1.38-13.31-6.3-24.76-6.3-24.76a10.25,10.25,0,0,1,5.54.44c.54-6.27-11.36-15.79-11.36-15.79s2.28,2,8.44,2.06C143,28,148.34-8.29,91.18,3.83c73.06,7.77,54,87.34,18.24,102.52C153,98.59,152.92,83.21,152.92,83.21Z"/><path class="cls-30" d="M91.18,3.83C36.58,13.54,53,47.18,34,63.61l9.62-6S35,66.55,35.42,77.39l5-1.63s-3.57,9.9,3,26.53l3.15-13.14S50.63,106,61,110.82c1.36.94,1.38-11.73,1.38-11.73,6.26,8.14,12.65,13.38,47.06,7.26C74.38,122.89,16.48,51.63,91.18,3.83Z"/><path class="cls-31" d="M108.12,1.48c-3.9,55.15,52.84,42.28,33.6,94.89-7.08,9.09-45.1,13.7-53.57,12.58C44.27,70.41,109.61,42,80.47,6.28,89.51,3.2,99.28,1.92,108.12,1.48Z"/><path class="cls-32" d="M131.32,25.76c1.86-6.36-3.12-7.86-7-5.23-12,10.41,5.3,22.42,5.3,22.42S127.7,38.11,131.32,25.76Z"/><path class="cls-32" d="M71.87,36.34C67.93,31,72.09,27.88,76.6,29c14.84,5.64,2.75,22.87,2.75,22.87S79.53,46.68,71.87,36.34Z"/><path class="cls-33" d="M68.34,36.67a.93.93,0,0,0,.5-.42,10.67,10.67,0,0,1,4-3.59,8.51,8.51,0,0,1,5.57-.83,1,1,0,0,0,1.19-.7A1,1,0,0,0,79,29.94a10.58,10.58,0,0,0-7,1,12.48,12.48,0,0,0-4.85,4.36,1,1,0,0,0,1.19,1.39Z"/><path class="cls-33" d="M135.86,23.59a1,1,0,0,0,.31-1.81,12.43,12.43,0,0,0-6.4-1.24,10.47,10.47,0,0,0-6.47,2.72,1,1,0,0,0,1.39,1.37,8.7,8.7,0,0,1,5.21-2.15,10.48,10.48,0,0,1,5.32,1A.91.91,0,0,0,135.86,23.59Z"/><path class="cls-25" d="M59.42,20.8c.16-2.18-10.33-8.51-14.5-.17C42,26.4,30.12,38.74,40.09,45.91a10.47,10.47,0,0,0,12.22.27S55.82,24.22,59.42,20.8Z"/><path class="cls-26" d="M45.47,19.68C42.58,25.45,30.68,37.79,40.64,45c6.43,4.62,10.6,1.08,12.23.27C28.85,47.19,40.19,29.34,45.47,19.68Z"/><path class="cls-27" d="M58.19,22.66c.13-1.74-8-6.49-11.29.15C44.6,27.41,35.11,37.24,43.05,43a8.42,8.42,0,0,0,9.78.21S55.8,27.13,58.19,22.66Z"/><path class="cls-28" d="M46.9,22.81C44.6,27.41,35.11,37.24,43.05,43a8.42,8.42,0,0,0,9.78.21S36.17,43.37,46.9,22.81Z"/><path class="cls-2" d="M57.51,26.85s-3.41-.67-4.3-1.73a12.3,12.3,0,0,0,3.18,5.79s-4.11-.42-5.4-2.22c.25,2.42,2.36,6,2.36,6s-.44.17-1.41-.72c.55,5.25,3,6.27,3,6.27L58,32.49Z"/><path class="cls-34" d="M57.51,26.85s-3.41-.67-4.3-1.73a12.3,12.3,0,0,0,3.18,5.79s-4.11-.42-5.4-2.22c.25,2.42,2.36,6,2.36,6s-.44.17-1.41-.72c.55,5.25,3,6.27,3,6.27L58,32.49Z"/><path class="cls-35" d="M109.67,72c-5.93.66-9.92-2-12-16.41,0,0,5,7,8.88-.93,2-.29-.86.34,1.1-.07,6.92,6,8.5-2.38,8.5-2.38.49,3.26,2.68,17.84-6.38,19.78h-.07Z"/><path class="cls-36" d="M100.51,66.59c6.74-3.58,12-2.68,15.44-1.16-1.1,4.26-3.67,6.48-6.92,6.79C104.6,72.64,102.46,70.65,100.51,66.59Z"/><path class="cls-22" d="M152.74,28.15c-4.53,6.9,12.78,12,12.78,12S160.14,38.36,152.74,28.15Z"/><path class="cls-22" d="M154.14,36.13a50.73,50.73,0,0,1,8.46,7.25c6.45,6.79,5.68,10.51,5.68,10.51a11.43,11.43,0,0,0-5.54-.44C166,52,158,41.86,154.14,36.13Z"/><path class="cls-22" d="M162.74,53.45C171,67,169.08,78.59,169.08,78.59s-3.13-20-9.84-25C160.16,53.6,161.84,53.51,162.74,53.45Z"/><path class="cls-22" d="M157.88,61.27c.78.79,5.27,5.89,6.27,7.43-.35,22-7.38,25.94-7.38,25.94S163.52,78,157.88,61.27Z"/><path class="cls-37" d="M108.12,1.48C108.1,3,108,3,108,5.09c12.69-3,28.79,3.65,28.79,3.65S126.32,0,108.12,1.48Z"/><path class="cls-10" d="M110,57.21c0,.33.27,1.78.33,2.24,0,.21,0,.39-.08.4l-4.35.67c-.08,0-.17-.15-.2-.36-.08-.45-.31-1.92-.36-2.25l1.7-3.32Z"/><path class="cls-38" d="M142.67,50.43s.05,0,.06,0a.11.11,0,0,0,0-.17c-.07-.08-2-1.93-14.83-5.19a104.59,104.59,0,0,0-14.77-2.42.12.12,0,0,0-.14.11.14.14,0,0,0,.12.13,106.79,106.79,0,0,1,14.73,2.41c12.67,3.24,14.7,5.12,14.72,5.13A.15.15,0,0,0,142.67,50.43Z"/><path class="cls-38" d="M139.78,58.15l0,0a.13.13,0,0,0,0-.17c-.06-.09-1.53-2.36-13.17-8.58a107.24,107.24,0,0,0-13.77-5.87.13.13,0,0,0-.16.08.12.12,0,0,0,.08.15,106.79,106.79,0,0,1,13.73,5.86c11.53,6.16,13.07,8.47,13.08,8.49A.14.14,0,0,0,139.78,58.15Z"/><path class="cls-39" d="M161.62,48c.76,4.27-4.05,8.7-10.75,9.89s-12.74-1.3-13.5-5.58,4-8.7,10.75-9.89S160.86,43.75,161.62,48Z"/><path class="cls-39" d="M78.47,62.27c.76,4.28-4.59,8.8-12,10.11S52.58,71.29,51.82,67s4.59-8.8,12-10.11S77.71,58,78.47,62.27Z"/><path class="cls-40" d="M139.84,38.21c.47,3.39-1.58,6.51-4.59,6.95s-5.83-1.95-6.31-5.34,1.59-6.51,4.59-7S139.37,34.81,139.84,38.21Z"/><path class="cls-41" d="M137.79,39.05a3.62,3.62,0,0,1-2.8,4.24A3.56,3.56,0,0,1,131.14,40a3.63,3.63,0,0,1,2.8-4.24A3.56,3.56,0,0,1,137.79,39.05Z"/><path class="cls-10" d="M134.42,36.78a2.15,2.15,0,0,1-1.58,2.61,2.23,2.23,0,0,1-2.65-1.63,2.15,2.15,0,0,1,1.59-2.61A2.22,2.22,0,0,1,134.42,36.78Z"/><path class="cls-10" d="M137.79,39.18a1.42,1.42,0,0,1-1.06,1.74A1.47,1.47,0,0,1,135,39.84,1.42,1.42,0,0,1,136,38.1,1.47,1.47,0,0,1,137.79,39.18Z"/><path class="cls-40" d="M70.68,50.51c.73,3.35,3.73,5.57,6.71,4.94s4.8-3.84,4.08-7.19-3.73-5.56-6.71-4.94S70,47.16,70.68,50.51Z"/><path class="cls-41" d="M72.9,50.59a3.62,3.62,0,0,0,4.09,3,3.56,3.56,0,0,0,2.49-4.39,3.63,3.63,0,0,0-4.09-3A3.56,3.56,0,0,0,72.9,50.59Z"/><path class="cls-10" d="M75.27,47.3a2.14,2.14,0,0,0,2.4,1.9,2.2,2.2,0,0,0,1.91-2.43,2.13,2.13,0,0,0-2.38-1.91A2.22,2.22,0,0,0,75.27,47.3Z"/><path class="cls-10" d="M72.94,50.71A1.42,1.42,0,0,0,74.53,52a1.46,1.46,0,0,0,1.28-1.62,1.43,1.43,0,0,0-1.59-1.27A1.49,1.49,0,0,0,72.94,50.71Z"/><path class="cls-40" d="M112.28,57.31a5.11,5.11,0,0,0,4.14-5.93.46.46,0,1,0-.9.16A4.2,4.2,0,0,1,107.25,53l-1-5.65a.47.47,0,0,0-.53-.38.46.46,0,0,0-.37.54l1,5.65A5.13,5.13,0,0,0,112.28,57.31Z"/><path class="cls-40" d="M103.12,58.94A5.11,5.11,0,0,0,107.25,53l-1-5.65a.47.47,0,0,0-.53-.38.46.46,0,0,0-.37.54l1,5.65a4.19,4.19,0,1,1-8.26,1.47.46.46,0,0,0-.91.16A5.13,5.13,0,0,0,103.12,58.94Z"/><path class="cls-42" d="M106.45,51.11c.74-.13,5.81-2.91,5.36-5.44-.53-3-4.68-2.26-6.67-1.91s-6.13,1.09-5.6,4.09C100,50.4,105.43,51.29,106.45,51.11Z"/><path class="cls-42" d="M105.23,44.25c3.12-.56,5.72-.62,6.1,1.51s-4.4,4.76-5,4.87c-.94.16-6-.73-6.33-2.86s2.08-3,5.2-3.52m-.17-1c-2,.35-6.63,1.18-6,4.67.51,2.91,6.2,3.89,7.48,3.66.6-.11,6.3-3,5.76-6-.62-3.5-5.26-2.67-7.24-2.32Z"/><path class="cls-38" d="M69.78,63.39a.11.11,0,0,0,.09-.06s1.28-2.5,12-9.9a106.4,106.4,0,0,1,13-7.35.13.13,0,0,0,.06-.16.13.13,0,0,0-.17-.06,108.13,108.13,0,0,0-13,7.37c-10.88,7.48-12.09,9.89-12.13,10a.12.12,0,0,0,.06.16A.06.06,0,0,0,69.78,63.39Z"/><path class="cls-38" d="M75.16,69.64a.12.12,0,0,0,.1-.09s.64-2.73,9.34-12.48A106.16,106.16,0,0,1,95.47,46.83a.12.12,0,0,0,0-.17.12.12,0,0,0-.17,0A107.41,107.41,0,0,0,84.42,56.9C75.64,66.76,75,69.39,75,69.5a.12.12,0,0,0,.09.14Z"/><path class="cls-43" d="M34.34,100.8c-17.86,32.67,21.29,69,21.29,69S24.13,138.18,34.34,100.8Z"/><path class="cls-44" d="M181.24,174.47c6.8,31.05-15.87,46.62-15.87,46.62S179.81,205.29,181.24,174.47Z"/><path class="cls-45" d="M184.57,111.29C224,79.24,214.91,51.63,214.91,51.63S215.65,78,184.57,111.29Z"/></g></g></g></svg>