<svg xmlns="http://www.w3.org/2000/svg" viewBox="0 0 274.75 262.2"><defs><style>.cls-1{isolation:isolate;}.cls-2{fill:#ef9506;}.cls-3{fill:#ffc89f;}.cls-4{fill:#edb188;opacity:0.25;}.cls-11,.cls-19,.cls-36,.cls-37,.cls-4,.cls-43,.cls-8{mix-blend-mode:multiply;}.cls-5{fill:#ffd5b8;}.cls-6{fill:#d68005;}.cls-7{fill:#ffa21a;opacity:0.39;}.cls-43,.cls-8{fill:#aa5d00;}.cls-8{opacity:0.64;}.cls-9{fill:#fff;}.cls-10{fill:#b2ccc9;opacity:0.38;}.cls-11,.cls-25{fill:#bfdfdc;}.cls-11,.cls-30{opacity:0.29;}.cls-12{fill:#844415;}.cls-13{fill:#ce7438;opacity:0.37;mix-blend-mode:color-burn;}.cls-14{fill:#3f2513;}.cls-15{fill:#fff0e1;}.cls-16{fill:#4f341f;}.cls-17{fill:#3d2718;}.cls-18{fill:#593821;}.cls-19{fill:#533928;opacity:0.33;}.cls-20{fill:#937e6d;opacity:0.27;}.cls-21,.cls-22{fill:#ffcb8d;}.cls-21{opacity:0.24;}.cls-21,.cls-22,.cls-41,.cls-44,.cls-45{mix-blend-mode:luminosity;}.cls-22,.cls-45{opacity:0.36;}.cls-23{fill:#c47002;}.cls-24,.cls-35{fill:#f2f6f9;}.cls-24{opacity:0.63;}.cls-25{opacity:0.19;}.cls-26{fill:#e59007;}.cls-27{fill:#ffa836;}.cls-28{fill:#ffccc0;opacity:0.65;}.cls-29{fill:#ffdcd7;opacity:0.78;}.cls-30{fill:#ffb666;}.cls-31{fill:#b76800;opacity:0.34;}.cls-32{fill:#fffefd;}.cls-33{fill:#e58905;}.cls-34{fill:#bf6902;}.cls-36{fill:#3d271c;}.cls-37{fill:#fce5e4;}.cls-38{fill:#47270b;}.cls-39{fill:#381807;}.cls-40{fill:#ffa27d;}.cls-41{fill:#ffad5c;opacity:0.67;}.cls-42{fill:#ff6669;}.cls-43{opacity:0.2;}.cls-44{fill:#fca342;}.cls-45{fill:#ffdcc0;}</style></defs><title>Asset 5ldpi</title><g class="cls-1"><g id="Layer_2" data-name="Layer 2"><g id="Layer_1-2" data-name="Layer 1"><path class="cls-2" d="M145.74,108c-.14-.34-.27-.68-.38-1a15.73,15.73,0,0,1-.73-3.46,16.12,16.12,0,0,1,0-1.69,12.2,12.2,0,0,1,.2-2,17.47,17.47,0,0,1,1.11-3.57,17.89,17.89,0,0,1,1.78-3.06,22.82,22.82,0,0,1,2.09-2.59A28.31,28.31,0,0,1,152.51,88a28.63,28.63,0,0,1,5.29-3.52,14.43,14.43,0,0,1,3.33-1.2,29.48,29.48,0,0,1,3.6-.57,30.79,30.79,0,0,1,7.11.16,34.31,34.31,0,0,1,6.64,1.55,52.88,52.88,0,0,1,5.69,2.43c1.58.77,3.14,1.51,4.77,2.17s3.16,1.21,4.75,1.73c1.92.6,4,1.17,6.32,1.73,1.94.47,4,.85,6.34,1.18,1.43.2,2.92.35,4.55.45,2,.1,4.09.14,6.17.11a52.6,52.6,0,0,0,6.65-.52c1.28-.17,2.46-.37,3.59-.6a43.18,43.18,0,0,0,10.19-3.52,32.24,32.24,0,0,0,4.34-2.77c1.16-.87,2.34-1.86,3.84-3.21L247.32,82c.59-.56,1.18-1.13,1.78-1.68a1.18,1.18,0,0,1,.27-.23l.39-.35a10.25,10.25,0,0,1,1.6-1.18,7.94,7.94,0,0,1,1.65-.75,5,5,0,0,1,1-.22,4.28,4.28,0,0,1,.8,0,2.83,2.83,0,0,1,.62.16l.11,0a2,2,0,0,1,1.09.89,2.84,2.84,0,0,1,.17.36,2.87,2.87,0,0,1,.19.72,3.53,3.53,0,0,1,0,.65v-.07a12.21,12.21,0,0,1-.52,2.79A28,28,0,0,1,255,86.93a40.13,40.13,0,0,1-1.88,4.73c-.51,1.07-1.08,2.09-1.58,3-.58,1-1.25,2.07-2.09,3.33a51,51,0,0,1-4.12,5.38c-1.11,1.24-2.25,2.41-3.4,3.47l-.06.06c-1.11,1-2.09,1.87-3,2.66s-1.73,1.46-2.7,2.18a64.54,64.54,0,0,1-5.68,3.87,67.5,67.5,0,0,1-6.56,3.48c-2,.92-4.14,1.78-6.52,2.65-1.95.7-4.22,1.51-6.47,2.12s-4.74,1.2-7,1.63c-2.65.49-4.83.84-6.86,1.09-2.33.3-4.65.49-6.9.58-1.2,0-2.38,0-3.49,0-1.27,0-2.53-.13-3.74-.24s-2.18-.23-3.39-.39-2.33-.37-3.42-.57c-2.06-.39-4.25-.9-6.68-1.56-2.22-.61-4.59-1.27-6.92-2.07-1.13-.39-2.15-.79-3.1-1.22-.46-.21-.92-.43-1.38-.67s-1.17-.65-1.6-.92l.08,0-.08,0-.09-.06-.17-.1.11,0c-.56-.36-1-.67-1.44-1s-.88-.7-1.28-1c-.8-.67-1.57-1.36-2.32-2.07s-1.41-1.35-2.18-2.18L149,113l-.05-.06a1.79,1.79,0,0,1-.39-.43l-.05,0-.14-.16-.14-.17c-.18-.21-.35-.42-.51-.64s-.55-.76-.87-1.26A16,16,0,0,1,145.74,108Z"/><path class="cls-3" d="M255,67.6a12.21,12.21,0,0,1,1.55,3.53,3.16,3.16,0,0,1,.43-.16c1.43-1.7,4.12-4.23,5.07-5.33,1.58-1.81,3.33-2,4.48-.52,1.32,1.7-1.05,4.52-2,5.83-.45.61-.86,1.26-1.29,1.9l.15.15a19.56,19.56,0,0,1,4.57-3.16c1.56-.78,3.71-1.41,4.47.58.49,1.28-2.45,4.14-3.78,5.1-.81.59-1.56,1.28-2.37,1.87l.12.36c1.43-.73,2.9-1.1,4.51-1.78,2-.85,3.78-.06,3.91,1.8.14,2.12-3.38,3.76-4.9,4.33-1.17.43-2.27.5-3.48.85-.3.09-.64.14-1,.21-1.53,1.89-4.82,4.11-7.45,3.38a2.21,2.21,0,0,1-.15.48s0,0,0,0a1.78,1.78,0,0,1-1.95,1.35,5.82,5.82,0,0,1-4-1.75c-1.56-1.65-3.78-4.77-3.05-7.26a2.82,2.82,0,0,1,2.24-1.8,8,8,0,0,1-.25-1.84c0-1.93,1.48-3.88.92-5.8-.27-1-1.22-2.77-.46-3.72C252.42,64.69,254.36,66.66,255,67.6Z"/><ellipse class="cls-2" cx="254" cy="87.44" rx="2.11" ry="5.35" transform="translate(132.43 326.98) rotate(-82.09)"/><ellipse class="cls-2" cx="252.54" cy="84.93" rx="5.18" ry="2.18" transform="translate(-6.13 21.07) rotate(-4.72)"/><ellipse class="cls-2" cx="250.66" cy="83.39" rx="4.96" ry="2.27" transform="translate(13.82 200.39) rotate(-44.69)"/><ellipse class="cls-2" cx="248.69" cy="81.92" rx="5.12" ry="2.2" transform="translate(88.81 289.27) rotate(-70.6)"/><ellipse class="cls-3" cx="67.75" cy="252.29" rx="7.27" ry="3.15" transform="translate(-189.61 207.48) rotate(-65.09)"/><ellipse class="cls-3" cx="54.96" cy="251.17" rx="10.44" ry="4.52" transform="translate(-195.99 195.23) rotate(-65.09)"/><ellipse class="cls-3" cx="44.33" cy="245.51" rx="10.44" ry="4.52" transform="translate(-150.06 89.14) rotate(-40.95)"/><ellipse class="cls-3" cx="60.03" cy="242.64" rx="6.63" ry="14.01" transform="translate(-183.34 299.65) rotate(-89.29)"/><path class="cls-4" d="M43.22,241.74c2.73-2.52,5.7-4,7.74-4.05a21,21,0,0,1,8.95-1.91c7-.09,10.67,7.17,10.71,10.51,0,1.26-.12,7.1-4.11,9.77.66,1.28,1.19-7.36-.32-9S55.62,249.71,43.22,241.74Z"/><path class="cls-5" d="M43.22,242.89c-7.66,6.56-.84,8-.84,8S39.73,247.25,43.22,242.89Z"/><path class="cls-5" d="M51.89,249.45c-2.81,14.75,6,3.8,6,3.8S51.94,257.14,51.89,249.45Z"/><ellipse class="cls-3" cx="145.76" cy="253.26" rx="3.15" ry="7.27" transform="translate(-88.87 79.09) rotate(-23.49)"/><ellipse class="cls-3" cx="158.58" cy="252.46" rx="4.52" ry="10.44" transform="translate(-87.49 84.13) rotate(-23.49)"/><ellipse class="cls-3" cx="169.34" cy="247.06" rx="4.52" ry="10.44" transform="translate(-127.31 205.67) rotate(-47.63)"/><ellipse class="cls-3" cx="153.73" cy="243.8" rx="6.63" ry="14.01" transform="translate(-91.96 394.49) rotate(-89.29)"/><path class="cls-4" d="M172.39,243.71c-3-2.77-6.35-4.4-8.62-4.44a23.79,23.79,0,0,0-10-2.1c-7.74-.1-11.88,7.87-11.92,11.53,0,1.38.13,7.79,4.57,10.73-.73,1.39-1.33-8.08.36-9.93S158.58,252.46,172.39,243.71Z"/><path class="cls-6" d="M45.43,78.07c23.8-58.88,101.6-63.41,130.15,0,66.72,190.32-63,172.76-63,172.76S-32.65,264,45.43,78.07Z"/><path class="cls-7" d="M175.58,78.1c66.72,190.32-63,172.76-63,172.76S212.76,258.56,175.58,78.1Z"/><path class="cls-8" d="M113.43,251.21S-34.38,263.69,46.64,74.62C45,83.27,72.56,75.4,70.32,83,20.08,252.6,113.43,251.21,113.43,251.21Z"/><path class="cls-9" d="M58.93,109.12C25,236.11,78.33,246,97.4,248.91c4.31.65,21.06,1.34,25.78,1.16,30.56-1.14,82.59-20,39.69-146.23C158.63,66.32,82.26,21.83,58.93,109.12Z"/><path class="cls-10" d="M57.58,112.51c-31.68,122.08,19.88,133.67,39,136.55,4.3.65,21.93,1.19,26.65,1,14.08-.53,31.92-3.72,43.73-20.53C120.58,246.6,48.61,251.62,70.32,83,65.25,90.43,60.79,100.13,57.58,112.51Z"/><path class="cls-5" d="M172.39,245c8.53,7.2.94,8.79.94,8.79S176.27,249.76,172.39,245Z"/><path class="cls-5" d="M162.73,252.17c3.14,16.18-6.66,4.17-6.66,4.17S162.68,260.61,162.73,252.17Z"/><path class="cls-11" d="M84.27,172.31l.06-.56q3-.52,6-1.15c0,.29-.07.58-.1.85C88.22,171.78,86.23,172.06,84.27,172.31Zm21.79-4.26.12-1.43q3.69-1.11,7.4-2.42c0,.53,0,1,.06,1.54C111.12,166.59,108.58,167.36,106.06,168.05Zm18.12-6.45,0-1.58q3.09-1.36,6.13-2.9,0,.75.09,1.44C128.33,159.64,126.26,160.66,124.18,161.6ZM144.32,129c0,.13.08.3.14.49l.09.26c-.85.6-1.72,1.19-2.59,1.76l-.15-.92a43.7,43.7,0,0,1-5.37,3.34l.11-.35a31,31,0,0,1-4.91,2.61c-.73.3-1.49.6-2.28.88,0,.26,0,.71,0,1.32q-2.78,1.26-5.61,2.35l0-1.49a36.58,36.58,0,0,1-9.49,3.23l-.37.06-.83.12c0,.35,0,.93,0,1.66-1.66.47-3.32.92-5,1.33l.13-1.47a75.59,75.59,0,0,1-10.26,2.23l-4.46.45c-.08.32-.18.91-.31,1.71-2.2.33-4.37.61-6.51.86l.07-.69s-2.89-.08-6.73-.39h0l-.29,0-.41,0c-1.57-.14-3.8-.38-3.8-.38-.07.45-.19,1.32-.33,2.49-2.74.16-5.35.26-7.8.31l.24-2.05s-5.69-.55-12.68-1.55h-.1l-3.61-.54c-.13.5-.36,1.88-.65,3.82-2.11-.14-3.27-.26-3.27-.26L38,160l-5-.91c.19-1.55.1-2.69-.37-3.19a7.52,7.52,0,0,0-1.44-1.13l-3.86,21.34s1.3-.84,4.36-11.26l4.76,1.17,7.47,8.83s1.1.17,3.1.39c-.25,2.09-.41,3.4-.42,3.5A56.72,56.72,0,0,0,55.35,180a38.43,38.43,0,0,0,8.56-.17l.41-3.61c2.42,0,5,0,7.71-.14l-.42,3.58a26.17,26.17,0,0,0,6.07.52h0l.57,0a25.08,25.08,0,0,0,2.62-.21H81a14.6,14.6,0,0,0,2.59-.57l.42-4.17c1.93-.21,3.91-.46,5.91-.75L89.61,177s.17,0,.49.08a21.77,21.77,0,0,0,4.43.24,20.24,20.24,0,0,0,11-3.27l.25-2.86c2.65-.7,5.32-1.49,8-2.38.07,1.68.11,2.81.12,3a14.29,14.29,0,0,0,4.86-.29c4.11-.95,5.57-3.49,5.57-3.49l-.07-3.35c2.12-1,4.23-2,6.31-3.1.06.9.09,1.42.09,1.42,9,.18,15-8.1,15-8.1l-.47-3-.66-22.29.2,19.35-.09-.53"/><path class="cls-12" d="M38.9,158.16l9.22-9.95s90.72,9.42,118.6-44.44c5.31-10.26,8.86-25.66,9.61-25.21,3.22,2,7.55,7.14,7.5,8.12-16.48,92.19-139,86.33-139,86.33l-7.46-8.83-5.93-1.46,1.44-5.66Z"/><path class="cls-13" d="M32.7,160.85l6.95,1.72,6.17,8.61s120.12-.46,135.68-88c1.94,2.15,2.33,3.14,2.33,3.47-17.24,93.64-139,86.33-139,86.33l-7.46-8.83-5.19-1.28Z"/><ellipse class="cls-14" cx="43.06" cy="160.73" rx="1.86" ry="1.83" transform="matrix(1, -0.02, 0.02, 1, -3.8, 1.07)"/><path class="cls-15" d="M68.43,146.75S60.62,146,52,144.65c-.68,2.67-4.37,31.12-4.53,32.25,11,2.19,17.32,1,17.32,1Z"/><path class="cls-12" d="M67.13,158a71.61,71.61,0,0,1-16.91-1.31c-.24.92-1.26,8.64-1.23,9.05C59.9,168.26,66.1,167,66.1,167Z"/><path class="cls-15" d="M109,142.27a70.57,70.57,0,0,1-14.71,2.67c-.76,3-3.57,29-3.78,30.21a24,24,0,0,0,15.94-3Z"/><path class="cls-12" d="M108.05,153.66s-8.3,2.46-15.12,1.08c-.52,4.39-.72,6-1,8.35a23.43,23.43,0,0,0,15.47-1.8Z"/><path class="cls-15" d="M142.73,128.67a49.66,49.66,0,0,1-12.44,6.49c-.26,3.05,1.29,24.78,1.29,26,9,.18,15-8.1,15-8.1Z"/><path class="cls-12" d="M144.26,138.29s-6.59,6.26-13.62,7.06c.1,4.36.31,5.23.35,6.13,9,.55,14.32-6.54,14.32-6.54Z"/><path class="cls-15" d="M152.37,120.49a65.76,65.76,0,0,1-7.13,6.6c.58,2.32,7,17.38,7.28,18.14,5.77-6.3,7.49-9.29,7.49-9.29Z"/><path class="cls-12" d="M155.08,126s-1.34,3.6-7.89,6.42c1,2.37,2.09,5.19,2,4.94,5.09-1.64,8.21-6.67,8.21-6.67Z"/><path class="cls-15" d="M87.56,146.83s-5.38-.16-11.24-.83c-.53,3.39-3.6,30.65-3.79,31.76,7.47,1.33,12-.28,12-.28Z"/><path class="cls-12" d="M86.57,156.69a34.23,34.23,0,0,1-11.56,0c-.27,2.59-1.05,8.73-1.07,9.13,7.4,1.64,11.73-.08,11.73-.08Z"/><path class="cls-15" d="M124.61,137.34a35.46,35.46,0,0,1-10.68,3.4c-.26,3.42.84,27,.88,29.26,7.56.75,10.43-3.77,10.43-3.77Z"/><path class="cls-12" d="M124.84,147.93a18.67,18.67,0,0,1-10.78,2.31c.1,3.5.14,7.27.28,7.7,4.71,1.54,10.76-2.4,10.76-2.4Z"/><path class="cls-15" d="M153.43,116.35,167,127.79,173.87,110a62.51,62.51,0,0,1-16.68-5.59A47.48,47.48,0,0,0,153.43,116.35Z"/><path class="cls-12" d="M166,108a52,52,0,0,1-5.22-1.91c-.56,2.79-5.78,11.58-5.78,11.58l4.19,3.54S164.58,118,166,108Z"/><path class="cls-16" d="M19,148.77s11.36,1.92,14.55,5.29-11,34.86-11,34.86-37.88,9.59-15.51-24.73A41.46,41.46,0,0,1,19,148.77Z"/><path class="cls-17" d="M30.09,151.89a8.19,8.19,0,0,1,3.45,2.17c3.43,3.13-11,34.86-11,34.86S10.15,190.86,6.05,184C26.34,196.1,30.09,151.89,30.09,151.89Z"/><path class="cls-18" d="M33.54,154.06s-8.77,9.42-15.86,11.77c-2.42.81-18.15.09-10.17-10,2.55-3.21,5.18-6.91,9.14-7.71C24.91,146.49,33.54,154.06,33.54,154.06Z"/><path class="cls-19" d="M55.75,145.2c-9.37,33.81,9.08,32.74,9.08,32.74a54.78,54.78,0,0,1-17.32-1c0-.25.88-7.59,2-15.82,1.09-7.75,2.49-16.43,2.49-16.43S52.45,144.75,55.75,145.2Z"/><path class="cls-19" d="M76.32,146s3,.32,4.5.43c-10.21,27.51.28,31.5,1.08,31.61a28,28,0,0,1-9.37-.28Z"/><path class="cls-19" d="M94.31,144.94l4.48-.44s-7.57,28.89,7.68,27.69c-6.77,4.74-15.94,3-15.94,3S93.43,149.54,94.31,144.94Z"/><path class="cls-19" d="M113.93,140.74a27.47,27.47,0,0,0,4.58-1c-4.93,32.91,6.73,26.47,6.73,26.47s-2.55,4.45-10.43,3.77c0-.81-.53-12.42-.78-20.76C113.88,144.43,113.93,140.74,113.93,140.74Z"/><path class="cls-19" d="M130.29,135.16a33.55,33.55,0,0,0,7.18-3.49c-7,19.68,6.32,23.46,9.14,21.43a21.44,21.44,0,0,1-15,8.1S130,137.81,130.29,135.16Z"/><path class="cls-19" d="M149.69,123.2c-.86,18.76,9.42,14.09,9.42,14.09a97.45,97.45,0,0,1-6.59,7.94c-.26-.66-1.66-4.06-3.1-7.53-.65-1.56-1.23-2.89-1.86-4.45-1.12-2.75-1.95-4.85-2.32-6.16C145.55,126.84,147.82,125,149.69,123.2Z"/><path class="cls-19" d="M154.55,111.39a48.88,48.88,0,0,0-1.12,5L167,127.79l4.19-11S165,127.41,154.55,111.39Z"/><path class="cls-20" d="M7.11,164.1a5.87,5.87,0,0,0,2.27,1.07C-5.74,191.46,20.9,189.28,20.9,189.28S7.69,192.61,1.78,186.8C-3.42,180.59,4.18,169,7.11,164.1Z"/><path class="cls-20" d="M17.43,148.06c-18.88,18.53-.31,17.9-.31,17.9a17.1,17.1,0,0,1-9.24-1.4,4.19,4.19,0,0,1-2.28-5.47C6.15,157.87,12,148,17.43,148.06Z"/><path class="cls-21" d="M42.46,76.81C39,88.37,45.6,104.5,45.6,104.5S41.13,83,46.06,75.77A14.17,14.17,0,0,1,42.46,76.81Z"/><path class="cls-22" d="M51.94,83.05a18.7,18.7,0,0,0-2,3.87c4.84,22.11,13.24,23.76,13.24,23.76S52.72,94.64,51.94,83.05Z"/><path class="cls-22" d="M65.7,92.42c0,1.49-.3,3.42-.46,6.11C71.66,112.29,91,111.4,91,111.4S68.93,102.37,65.7,92.42Z"/><path class="cls-23" d="M47,89.54c.31,0,.62,0,.93,0a12.89,12.89,0,0,1,3,.46,12,12,0,0,1,1.36.49,10.39,10.39,0,0,1,1.53.76,14.27,14.27,0,0,1,2.5,2,15.53,15.53,0,0,1,1.9,2.34A21.43,21.43,0,0,1,59.66,98a26.78,26.78,0,0,1,1.27,3,24.63,24.63,0,0,1,1.2,5.28,12.5,12.5,0,0,1-.05,3,24.32,24.32,0,0,1-.64,3,26.08,26.08,0,0,1-2.27,5.61,30.38,30.38,0,0,1-3.24,4.81,43.82,43.82,0,0,1-3.65,3.79c-1.09,1-2.15,2-3.17,3.14s-1.92,2.15-2.81,3.26c-1.07,1.34-2.14,2.82-3.29,4.5-.95,1.4-1.89,2.93-2.86,4.69-.59,1.08-1.16,2.22-1.73,3.48-.69,1.58-1.34,3.22-2,4.88a47.33,47.33,0,0,0-1.6,5.44c-.24,1.08-.44,2.07-.6,3a36.83,36.83,0,0,0-.28,9.17,27.31,27.31,0,0,0,.89,4.29c.35,1.19.78,2.43,1.4,4,.24.6.49,1.19.73,1.78s.54,1.27.8,1.92a1.36,1.36,0,0,1,.11.28c0,.14.1.28.16.42a9.06,9.06,0,0,1,.45,1.63,6.6,6.6,0,0,1,.1,1.54,5.2,5.2,0,0,1-.14.89,3.48,3.48,0,0,1-.26.63,2.19,2.19,0,0,1-.31.44l-.07.08a1.79,1.79,0,0,1-1,.6l-.35,0a3,3,0,0,1-.62-.07,2.54,2.54,0,0,1-.52-.2l-.08,0,.14,0a10.22,10.22,0,0,1-2.06-1.25,23.79,23.79,0,0,1-2.55-2.31,36.91,36.91,0,0,1-3.2-2.93c-.69-.73-1.33-1.49-1.86-2.15s-1.27-1.62-2-2.67a42.14,42.14,0,0,1-3-4.9c-.65-1.26-1.24-2.52-1.73-3.76l0-.06c-.46-1.18-.86-2.22-1.2-3.2s-.64-1.81-.93-2.81a56,56,0,0,1-1.36-5.68,58.36,58.36,0,0,1-.79-6.27c-.12-1.87-.17-3.83-.13-6,0-1.76.07-3.8.26-5.78s.48-4.13.83-6.06c.4-2.25.79-4.09,1.2-5.79.47-1.94,1-3.85,1.62-5.66.33-1,.71-1.9,1.07-2.77s.87-2,1.32-2.9.84-1.67,1.34-2.59,1-1.74,1.49-2.55c.92-1.52,2-3.1,3.25-4.84s2.4-3.27,3.74-4.88c.65-.78,1.28-1.47,1.91-2.09.31-.31.62-.61.95-.9a14.05,14.05,0,0,1,1.22-1l-.07,0,.07,0,.07,0,.13-.1-.07.07c.45-.34.84-.61,1.22-.85s.82-.49,1.21-.71c.77-.43,1.56-.83,2.35-1.21S41.11,91,42,90.68l.08,0,.06,0a1.43,1.43,0,0,1,.46-.18l.06,0,.17-.06L43,90.3a6.37,6.37,0,0,1,.66-.21c.36-.11.77-.21,1.27-.31A12.4,12.4,0,0,1,47,89.54Z"/><path class="cls-23" d="M53.92,91.35a10.39,10.39,0,0,0-1.53-.76A11.36,11.36,0,0,0,51,90.1a12.81,12.81,0,0,0-3-.46c-.31,0-.62,0-.93,0a12.4,12.4,0,0,0-2.11.24c-.5.1-.91.2-1.27.31s-.44.13-.66.21l-.18.06-.17.06-.06,0a1.83,1.83,0,0,0-.46.18l-.06,0-.08,0c-.89.36-1.75.77-2.4,1.08s-1.57.79-2.35,1.21c-.39.22-.8.45-1.21.71s-.77.51-1.22.85l.07-.07-.13.1-.07,0-.07,0,.07,0c-.34.25-.79.6-1.22,1s-.64.59-1,.9c-.63.62-1.25,1.31-1.91,2.09-1.34,1.61-2.58,3.3-3.73,4.88-1.27,1.74-2.33,3.32-3.26,4.84-.49.81-1,1.67-1.49,2.55s-.93,1.77-1.33,2.59-.9,1.9-1.32,2.9-.75,1.8-1.08,2.77c-.6,1.81-1.15,3.72-1.62,5.66-.41,1.7-.79,3.54-1.2,5.79-.35,1.93-.63,4-.83,6.06s-.23,4-.26,5.79c0,2.16,0,4.12.14,6a58.2,58.2,0,0,0,.78,6.27,56.74,56.74,0,0,0,1.36,5.69c.29,1,.63,2,.93,2.8s.74,2,1.2,3.2l0,.06c.5,1.24,1.08,2.51,1.73,3.76a43.55,43.55,0,0,0,3,4.9c.75,1.05,1.39,1.9,2,2.68S27,179.29,27.68,180a35.38,35.38,0,0,0,3.19,2.93,24.8,24.8,0,0,0,2.55,2.31,10.78,10.78,0,0,0,2.06,1.26l-.13,0,.07,0a2.54,2.54,0,0,0,.52.2c-23.43-35.21-14.13-80,19.53-65.66,2.76,1.18,8.12-9.65,6.23-17.32C57.7,94.35,53.92,91.35,53.92,91.35Z"/><path class="cls-3" d="M49.31,191.42a11.44,11.44,0,0,1-3.63.4,3.1,3.1,0,0,1,0,.43c1.13,1.77,2.65,4.93,3.37,6.1,1.19,1.94.87,3.58-.8,4.19-1.91.71-3.78-2.23-4.69-3.49-.42-.58-.89-1.14-1.34-1.71l-.18.09a19.22,19.22,0,0,1,1.55,5c.26,1.63.22,3.75-1.8,3.87-1.29.07-3-3.39-3.53-4.86-.3-.9-.71-1.77-1-2.68h-.36c.26,1.5.16,2.93.32,4.58.2,2.05-1,3.43-2.74,3-2-.47-2.42-4.11-2.51-5.65-.06-1.18.19-2.19.22-3.38,0-.3.06-.62.09-.94-1.27-1.91-2.34-5.52-.93-7.69a2,2,0,0,1-.39-.26s0,0,0,0a1.67,1.67,0,0,1-.66-2.14A5.48,5.48,0,0,1,33,183.19c1.94-.94,5.38-2.05,7.42-.69a2.66,2.66,0,0,1,1,2.53,7.36,7.36,0,0,1,1.73.3c1.75.51,3.08,2.44,5,2.49.93,0,2.84-.32,3.48.63C52.66,190,50.32,191.15,49.31,191.42Z"/><ellipse class="cls-23" cx="31.68" cy="184.91" rx="5.06" ry="2" transform="translate(-148.94 134.19) rotate(-64.59)"/><ellipse class="cls-23" cx="34.35" cy="184.31" rx="4.9" ry="2.06" transform="translate(-152.99 177.05) rotate(-77.22)"/><ellipse class="cls-23" cx="36.28" cy="183.05" rx="2.15" ry="4.7" transform="translate(-79.65 36.82) rotate(-27.2)"/><ellipse class="cls-23" cx="38.17" cy="181.69" rx="2.08" ry="4.85" transform="translate(-130.04 103.13) rotate(-53.1)"/><path class="cls-24" d="M153.39,99.69c-4.91,20.87-29.59,32.91-55.12,26.9-14.47-3.41-27-11.66-33.47-22.17,3.21-9.79-6-17.46-3.86-26.5C65.86,57.05,90.54,45,116.07,51S158.3,78.82,153.39,99.69Z"/><ellipse class="cls-25" cx="107.54" cy="84.04" rx="36.13" ry="44.19" transform="translate(15.3 184.63) rotate(-85.48)"/><path class="cls-26" d="M140.17,7.92c-.79-2.14,8-11.48,14.51-4.29,4.54,5,20,14,12,24a10.92,10.92,0,0,1-12.19,3.75S144.75,10.33,140.17,7.92Z"/><path class="cls-27" d="M154.68,3.63c4.54,5,20,14,12,24a10.92,10.92,0,0,1-12.19,3.75S181.76,27.74,154.68,3.63Z"/><path class="cls-28" d="M141.9,9.44c-.62-1.71,6.16-8.78,11.39-3,3.61,4,15.93,11.14,9.58,19.13a8.7,8.7,0,0,1-9.71,3S145.72,13.29,141.9,9.44Z"/><path class="cls-29" d="M153.29,6.39c3.61,4,15.93,11.14,9.58,19.13a8.7,8.7,0,0,1-9.71,3S167.12,22.57,153.29,6.39Z"/><path class="cls-2" d="M148.42,13.29s3.23-1.65,3.82-3c.41,3.25-1.54,6.72-1.54,6.72s4-1.59,4.78-3.76c.44,2.49-1.66,6.84-1.66,6.84A3,3,0,0,0,156,18.9c1,5.42-1.19,7.14-1.19,7.14l-5.31-6.95Z"/><path class="cls-2" d="M157.46,88.68s5.23,6.59,3.1,12.19c7.67-4.2,9.85-26.48,9.85-26.48s4.72,13.19,4.23,10.36c2.49-13.73-4.59-26.27-4.59-26.27a10.77,10.77,0,0,1,5.73.9c1.07-6.48-10.56-17.33-10.56-17.33s2.21,2.23,8.62,2.81C151.55,30.42,160-6.91,99.53,1.15,41.93,6.91,56.29,43.22,35.29,58.81l10.49-5.46S36.1,62,35.64,73.26L41,72s-4.5,10,1,27.85l4.33-13.43s2.81,17.87,13.2,23.69C60.92,111.18,62,98,62,98c5.87,9,12.11,14.93,48.4,11.3C156.37,104.69,157.46,88.68,157.46,88.68Z"/><path class="cls-30" d="M157.46,88.68s5.23,6.59,3.1,12.19c7.67-4.2,9.85-26.48,9.85-26.48s4.72,13.19,4.23,10.36c2.49-13.73-4.59-26.27-4.59-26.27a10.77,10.77,0,0,1,5.73.9c1.07-6.48-10.56-17.33-10.56-17.33s2.21,2.23,8.62,2.81C151.55,30.42,160-6.91,99.53,1.15c75.41,13.9,49.22,95.19,10.82,108.14C156.37,104.69,157.46,88.68,157.46,88.68Z"/><path class="cls-31" d="M99.53,1.15C41.93,6.91,56.29,43.22,35.29,58.81l10.49-5.46S36.1,62,35.64,73.26L41,72s-4.5,10,1,27.85l4.33-13.43s2.81,17.87,13.2,23.69C60.92,111.18,62,98,62,98c5.87,9,12.11,14.93,48.4,11.3C99.67,105.36.11,72.61,99.53,1.15Z"/><path class="cls-32" d="M117.35.05C108.9,57.14,169,48.26,144.76,101.47c-8.09,8.91-48,10.67-56.74,8.84-42.6-43.6,27.66-68,.18-107.47C97.85.36,108.11-.19,117.35.05Z"/><path class="cls-33" d="M136.24,27.5c2.45-6.48-2.62-8.44-6.82-6-13.31,9.89,3.73,23.75,3.73,23.75S131.49,40.06,136.24,27.5Z"/><path class="cls-33" d="M73.53,33.77c-3.68-5.86.91-8.79,5.51-7.24,15,7,1,24,1,24S80.68,45.14,73.53,33.77Z"/><path class="cls-34" d="M64.47,35.15a1.06,1.06,0,0,0,.49-.47,11.05,11.05,0,0,1,4-4.05,8.92,8.92,0,0,1,5.74-1.27,1,1,0,0,0,.37-2,10.93,10.93,0,0,0-7.16,1.53,13.08,13.08,0,0,0-4.73,4.89,1,1,0,0,0,.47,1.36A1,1,0,0,0,64.47,35.15Z"/><path class="cls-34" d="M145.23,29.8a1,1,0,0,0,.87-.07,1,1,0,0,0,.38-1.39,13.1,13.1,0,0,0-5-4.56,11,11,0,0,0-7.25-1.06,1,1,0,0,0,.51,2,9,9,0,0,1,5.81.89,11,11,0,0,1,4.21,3.77A1,1,0,0,0,145.23,29.8Z"/><path class="cls-35" d="M146.09,54.06a.09.09,0,0,0,.07,0,.12.12,0,0,0,0-.17c-.08-.09-2-2.17-15-6.59A112.55,112.55,0,0,0,116,43.57a.13.13,0,0,0-.15.11.12.12,0,0,0,.11.14,112.83,112.83,0,0,1,15.14,3.69C144,51.88,146,54,146,54A.12.12,0,0,0,146.09,54.06Z"/><path class="cls-35" d="M142.47,61.87l0,0a.13.13,0,0,0,.06-.17c-.06-.1-1.4-2.57-13-10a110.44,110.44,0,0,0-13.86-7.21.13.13,0,0,0-.17.07.13.13,0,0,0,.07.16,111.12,111.12,0,0,1,13.83,7.19c11.51,7.33,12.92,9.85,12.93,9.88A.15.15,0,0,0,142.47,61.87Z"/><path class="cls-26" d="M65.13,16.28C65.47,14,55.06,6.61,50.05,15c-3.46,5.78-16.84,17.67-7,25.92a10.94,10.94,0,0,0,12.7,1.26S61.11,19.56,65.13,16.28Z"/><path class="cls-27" d="M50.05,15c-3.46,5.78-16.84,17.67-7,25.92,6.33,5.32,11,2,12.7,1.26C30.57,42.26,43.79,24.59,50.05,15Z"/><path class="cls-28" d="M63.7,18.12c.27-1.8-7.78-7.38-11.76-.74C49.18,22,38.53,31.46,46.33,38a8.77,8.77,0,0,0,10.16,1S60.86,22.58,63.7,18.12Z"/><path class="cls-29" d="M51.94,17.38C49.18,22,38.53,31.46,46.33,38a8.77,8.77,0,0,0,10.16,1S39.14,37.92,51.94,17.38Z"/><path class="cls-2" d="M62.66,22.42s-3.5-1-4.34-2.14c.25,3.27,2.85,6.28,2.85,6.28s-4.24-.76-5.44-2.74c.07,2.54,2,6.48,2,6.48s-.47.14-1.42-.87c.16,5.51,2.59,6.77,2.59,6.77l3.83-7.87Z"/><path class="cls-36" d="M108.38,64.67c-4.55.28-7.42-3.22-8.08-9.84,0,0,4.71,3.21,6.35-3.49,1.5-.15-.67.23.84,0,2.05,5.22,6.91,2.09,6.91,2.09.25,2.5,1,10.11-6,11.25h-.06Z"/><path class="cls-9" d="M107.21,52.07l2.08,2c0,.25.14,1.33.17,1.66,0,.16,0,.29-.1.3l-3.77.37c-.06,0-.13-.11-.15-.26,0-.34-.14-1.4-.17-1.65Z"/><path class="cls-37" d="M164.34,49.27c.45,4.51-4.91,8.73-12,9.44s-13.15-2.37-13.6-6.88,4.91-8.74,12-9.44S163.89,44.76,164.34,49.27Z"/><path class="cls-37" d="M76.67,57.48c.46,4.51-5.47,8.79-13.23,9.57S49,64.8,48.57,60.29,54,51.5,61.8,50.73,76.22,53,76.67,57.48Z"/><path class="cls-38" d="M142.45,37.33c.23,3.57-2.16,6.65-5.33,6.87s-5.91-2.49-6.13-6.06,2.16-6.65,5.33-6.87S142.23,33.76,142.45,37.33Z"/><path class="cls-39" d="M140.26,38A3.79,3.79,0,0,1,137,42.23a3.71,3.71,0,0,1-3.74-3.7,3.78,3.78,0,0,1,3.25-4.19A3.73,3.73,0,0,1,140.26,38Z"/><path class="cls-9" d="M136.93,35.41A2.23,2.23,0,0,1,135.07,38a2.31,2.31,0,0,1-2.62-1.9,2.24,2.24,0,0,1,1.86-2.59A2.31,2.31,0,0,1,136.93,35.41Z"/><path class="cls-9" d="M140.25,38.18A1.49,1.49,0,0,1,139,39.9a1.54,1.54,0,0,1-1.75-1.26,1.49,1.49,0,0,1,1.24-1.73A1.55,1.55,0,0,1,140.25,38.18Z"/><path class="cls-38" d="M69.51,44.62C70,48.17,73,50.71,76.09,50.3s5.31-3.61,4.82-7.15-3.44-6.09-6.59-5.68S69,41.08,69.51,44.62Z"/><path class="cls-39" d="M71.8,44.89a3.8,3.8,0,0,0,4,3.46A3.72,3.72,0,0,0,78.76,44a3.79,3.79,0,0,0-4-3.46A3.72,3.72,0,0,0,71.8,44.89Z"/><path class="cls-9" d="M74.54,41.65a2.24,2.24,0,0,0,2.34,2.17,2.32,2.32,0,0,0,2.19-2.38,2.23,2.23,0,0,0-2.34-2.17A2.31,2.31,0,0,0,74.54,41.65Z"/><path class="cls-9" d="M71.84,45a1.48,1.48,0,0,0,1.56,1.44,1.53,1.53,0,0,0,1.46-1.58,1.49,1.49,0,0,0-1.56-1.45A1.54,1.54,0,0,0,71.84,45Z"/><path class="cls-38" d="M112.25,55A5.35,5.35,0,0,0,117,49.17a.5.5,0,0,0-.53-.43.49.49,0,0,0-.43.53,4.38,4.38,0,0,1-8.71.87l-.6-6a.49.49,0,0,0-.52-.43.48.48,0,0,0-.43.53l.59,6A5.35,5.35,0,0,0,112.25,55Z"/><path class="cls-38" d="M102.59,56a5.34,5.34,0,0,0,4.78-5.84l-.6-6a.49.49,0,0,0-.52-.43.48.48,0,0,0-.43.53l.59,6a4.38,4.38,0,1,1-8.71.87.48.48,0,0,0-.53-.42.48.48,0,0,0-.43.52A5.36,5.36,0,0,0,102.59,56Z"/><path class="cls-40" d="M106.68,48.1c.78-.08,6.28-2.57,6-5.24-.31-3.16-4.68-2.73-6.78-2.52s-6.48.65-6.16,3.82C100,46.85,105.61,48.21,106.68,48.1Z"/><path class="cls-40" d="M106,40.86c3.29-.33,6-.19,6.22,2s-5,4.62-5.55,4.68c-1,.1-6.14-1.23-6.36-3.48s2.4-2.92,5.69-3.25m-.11-1c-2.09.21-7,.7-6.61,4.38.3,3.07,6.14,4.54,7.49,4.4.64-.06,6.8-2.58,6.48-5.8-.37-3.68-5.27-3.19-7.36-3Z"/><path class="cls-35" d="M69.21,61.76a.13.13,0,0,0,.09-.07s1.53-2.49,13.33-9.34a111.25,111.25,0,0,1,14.11-6.61.13.13,0,0,0,.08-.16.14.14,0,0,0-.17-.08,111.37,111.37,0,0,0-14.14,6.63c-11.92,6.92-13.37,9.34-13.43,9.44a.13.13,0,0,0,0,.17Z"/><path class="cls-35" d="M74.3,68.69a.13.13,0,0,0,.11-.1s.89-2.78,10.73-12.24a110.76,110.76,0,0,1,12.12-9.78.13.13,0,0,0,0-.18.13.13,0,0,0-.18,0A108.75,108.75,0,0,0,85,56.17C75,65.72,74.2,68.41,74.17,68.53a.12.12,0,0,0,.09.15Z"/><path class="cls-41" d="M117.35.05c-.16,1.1-.35,3.15,0,3.58,7.78-2,28.09,4.93,28.09,4.93S137,.5,117.35.05Z"/><path class="cls-42" d="M101.94,60.26a13.87,13.87,0,0,1,12.29-1,6.46,6.46,0,0,1-5.68,5.11C106,64.63,103.51,63.31,101.94,60.26Z"/><path class="cls-22" d="M161.62,31.25c-5.24,6.82,12.32,13.49,12.32,13.49S168.5,42.43,161.62,31.25Z"/><path class="cls-22" d="M162.44,39.65a52.15,52.15,0,0,1,8.22,8.18c6.17,7.55,5.07,11.34,5.07,11.34a12,12,0,0,0-5.71-.88C173.52,57.06,166,45.89,162.44,39.65Z"/><path class="cls-22" d="M170,58.29c7.49,14.66,4.63,26.58,4.63,26.58s-1.69-21-8.27-26.74C167.33,58.24,169.08,58.28,170,58.29Z"/><path class="cls-22" d="M165.68,67.53a69.73,69.73,0,0,1,4.62,6.69c-2.07,22.75-9.68,26.35-9.68,26.35S169.06,85.06,165.68,67.53Z"/><path class="cls-43" d="M32.18,99.18c2.15-3.32,9.33-.05,6.15,3.19-31.2,31.85-8.74,77.45-8.74,77.45S0,148.77,32.18,99.18Z"/><path class="cls-44" d="M188.21,180.18c9,31.81-22.7,55.31-22.7,55.31S188.68,212.28,188.21,180.18Z"/><path class="cls-45" d="M191,121.38c47.57-3.35,57.63-30,57.63-30S233.33,112.42,191,121.38Z"/></g></g></g></svg>