<svg xmlns="http://www.w3.org/2000/svg" viewBox="0 0 382.16 179.62"><defs><style>.cls-1{fill:#22083f;opacity:0.65;}.cls-2{fill:#6323a1;}.cls-3{fill:#7031ba;}.cls-4{fill:#fff;}</style></defs><title>Asset 8ldpi</title><g id="Layer_2" data-name="Layer 2"><g id="Layer_1-2" data-name="Layer 1"><path class="cls-1" d="M-4941.61-1318.4h325c11,0,19.83,12.76,19.83,28.51v68.8c0,15.75-8.88,28.51-19.83,28.51H-4687l28.61,35.64-66.69-35.64h-216.56c-11,0-19.83-12.76-19.83-28.51v-68.8C-4961.44-1305.64-4952.56-1318.4-4941.61-1318.4Z" transform="translate(4969.82 1328.05)"/><path class="cls-2" d="M-4941.26-1321.84h325.05c10.95,0,19.83,12.77,19.83,28.51v68.8c0,15.75-8.88,28.51-19.83,28.51h-70.41l28.61,35.65-66.7-35.65h-216.55c-10.95,0-19.83-12.76-19.83-28.51v-68.8C-4961.09-1309.07-4952.21-1321.84-4941.26-1321.84Z" transform="translate(4969.82 1328.05)"/><path class="cls-3" d="M-4941.26-1321.84c-40.49,153.12,344.88,97.31,344.88,97.31,0,15.75-8.88,28.51-19.83,28.51h-70.41l28.61,35.65-66.7-35.65h-216.55c-10.95,0-19.83-12.76-19.83-28.51v-68.8C-4961.09-1309.07-4959.92-1321.84-4941.26-1321.84Z" transform="translate(4969.82 1328.05)"/><path class="cls-4" d="M-4942.28-1281.7a4.39,4.39,0,0,1-3.95-2.27l1-.9a3.31,3.31,0,0,0,2.93,1.83c1.45,0,2.51-1,2.51-3.08v-8.58h1.47v8.57C-4938.28-1283.19-4940-1281.7-4942.28-1281.7Z" transform="translate(4969.82 1328.05)"/><path class="cls-4" d="M-4928.37-1291.35h1.39v9.46h-1.39v-1.64a3.63,3.63,0,0,1-3.24,1.85,3.46,3.46,0,0,1-3.63-3.79v-5.88h1.41v5.53c0,1.76.95,2.85,2.62,2.85a2.8,2.8,0,0,0,2.84-3Zm-3.43-1.36,1.74-2.65,1.47.68-2.07,2Z" transform="translate(4969.82 1328.05)"/><path class="cls-4" d="M-4918.78-1281.68a4.28,4.28,0,0,1-3.62-2v4.74h-1.41v-12.39h1.41v1.9a4.27,4.27,0,0,1,3.62-2.1,4.62,4.62,0,0,1,4.53,4.92A4.65,4.65,0,0,1-4918.78-1281.68Zm-.25-8.61a3.52,3.52,0,0,0-3.43,3.66,3.53,3.53,0,0,0,3.43,3.68,3.34,3.34,0,0,0,3.33-3.66A3.42,3.42,0,0,0-4919-1290.29Z" transform="translate(4969.82 1328.05)"/><path class="cls-4" d="M-4911.61-1293.42V-1295h1.61v1.56Zm.09,11.53v-9.46h1.41v9.46Z" transform="translate(4969.82 1328.05)"/><path class="cls-4" d="M-4904.93-1284.58a1.4,1.4,0,0,0,1.6,1.58,3,3,0,0,0,1.37-.33v1.21a3.65,3.65,0,0,1-1.7.4,2.41,2.41,0,0,1-2.68-2.67v-5.72h-1.32v-1.24h1.32v-2.86h1.41v2.86h3v1.24h-3Z" transform="translate(4969.82 1328.05)"/><path class="cls-4" d="M-4895.53-1282.89a3.9,3.9,0,0,0,3-1.34l.88.79a4.88,4.88,0,0,1-3.9,1.77,4.7,4.7,0,0,1-4.72-4.94,4.67,4.67,0,0,1,4.54-4.94c2.8,0,4.41,2.23,4.41,5a3.47,3.47,0,0,1,0,.44h-7.5A3.32,3.32,0,0,0-4895.53-1282.89Zm2.76-4.25c-.14-1.72-1.13-3.22-3-3.22a3.25,3.25,0,0,0-3.07,3.22Z" transform="translate(4969.82 1328.05)"/><path class="cls-4" d="M-4887.45-1281.89h-1.41v-9.46h1.41v2.47a4.06,4.06,0,0,1,3.86-2.64v1.52h-.11c-2.07,0-3.75,1.49-3.75,4.34Z" transform="translate(4969.82 1328.05)"/><path class="cls-4" d="M-4870.8-1281.68a4.26,4.26,0,0,1-3.62-2v4.74h-1.41v-12.39h1.41v1.9a4.24,4.24,0,0,1,3.62-2.1,4.62,4.62,0,0,1,4.52,4.92A4.64,4.64,0,0,1-4870.8-1281.68Zm-.26-8.61a3.52,3.52,0,0,0-3.42,3.66,3.53,3.53,0,0,0,3.42,3.68,3.34,3.34,0,0,0,3.34-3.66A3.42,3.42,0,0,0-4871.06-1290.29Z" transform="translate(4969.82 1328.05)"/><path class="cls-4" d="M-4859.35-1281.67a4.85,4.85,0,0,1-4.91-4.92,4.91,4.91,0,0,1,4.95-5,4.87,4.87,0,0,1,4.92,4.92A4.91,4.91,0,0,1-4859.35-1281.67Zm0-8.64a3.48,3.48,0,0,0-3.46,3.68,3.56,3.56,0,0,0,3.5,3.7,3.48,3.48,0,0,0,3.47-3.66A3.58,3.58,0,0,0-4859.35-1290.31Z" transform="translate(4969.82 1328.05)"/><path class="cls-4" d="M-4848.71-1281.7a6.52,6.52,0,0,1-3.92-1.39l.72-1a5.51,5.51,0,0,0,3.27,1.21c1.14,0,2-.59,2-1.5v0c0-1-1.11-1.32-2.36-1.67-1.48-.42-3.13-.93-3.13-2.67v0c0-1.63,1.36-2.71,3.22-2.71a6.48,6.48,0,0,1,3.41,1l-.64,1.06a5.35,5.35,0,0,0-2.8-.92c-1.12,0-1.83.59-1.83,1.38v0c0,.9,1.17,1.25,2.43,1.63,1.47.44,3,1,3,2.71v0C-4845.34-1282.75-4846.82-1281.7-4848.71-1281.7Z" transform="translate(4969.82 1328.05)"/><path class="cls-4" d="M-4838.54-1282.89a3.9,3.9,0,0,0,3-1.34l.88.79a4.89,4.89,0,0,1-3.9,1.77,4.7,4.7,0,0,1-4.72-4.94,4.67,4.67,0,0,1,4.54-4.94c2.8,0,4.41,2.23,4.41,5a3.47,3.47,0,0,1,0,.44h-7.51A3.33,3.33,0,0,0-4838.54-1282.89Zm2.76-4.25c-.15-1.72-1.13-3.22-3-3.22a3.27,3.27,0,0,0-3.08,3.22Z" transform="translate(4969.82 1328.05)"/><path class="cls-4" d="M-4827.7-1282.89a3.88,3.88,0,0,0,3-1.34l.88.79a4.88,4.88,0,0,1-3.9,1.77,4.7,4.7,0,0,1-4.72-4.94,4.67,4.67,0,0,1,4.54-4.94c2.8,0,4.41,2.23,4.41,5a3.47,3.47,0,0,1,0,.44h-7.5A3.32,3.32,0,0,0-4827.7-1282.89Zm2.76-4.25c-.14-1.72-1.13-3.22-3-3.22a3.26,3.26,0,0,0-3.07,3.22Z" transform="translate(4969.82 1328.05)"/><path class="cls-4" d="M-4814-1281.89h-1.41v-13.36h1.41v5.55a3.57,3.57,0,0,1,3.24-1.85,3.45,3.45,0,0,1,3.62,3.79v5.87h-1.41v-5.53c0-1.75-.95-2.85-2.61-2.85a2.78,2.78,0,0,0-2.84,3Z" transform="translate(4969.82 1328.05)"/><path class="cls-4" d="M-4803.59-1289.54l-.42-1.15a7.75,7.75,0,0,1,3.44-.79c2.58,0,4,1.32,4,3.81v5.78h-1.35v-1.42a4.16,4.16,0,0,1-3.43,1.63c-1.76,0-3.53-1-3.53-3s1.65-3.08,4-3.08a10.06,10.06,0,0,1,2.92.41v-.33c0-1.71-1-2.59-2.82-2.59A6.65,6.65,0,0,0-4803.59-1289.54Zm.17,4.83c0,1.21,1.09,1.91,2.38,1.91,1.74,0,3.16-1.06,3.16-2.56v-.92a9.9,9.9,0,0,0-2.78-.4C-4802.44-1286.68-4803.42-1285.91-4803.42-1284.71Z" transform="translate(4969.82 1328.05)"/><path class="cls-4" d="M-4790.4-1281.7a6.5,6.5,0,0,1-3.92-1.39l.71-1a5.54,5.54,0,0,0,3.28,1.21c1.14,0,2-.59,2-1.5v0c0-1-1.12-1.32-2.36-1.67-1.48-.42-3.13-.93-3.13-2.67v0c0-1.63,1.35-2.71,3.22-2.71a6.51,6.51,0,0,1,3.41,1l-.65,1.06a5.3,5.3,0,0,0-2.8-.92c-1.11,0-1.83.59-1.83,1.38v0c0,.9,1.17,1.25,2.44,1.63,1.46.44,3,1,3,2.71v0C-4787-1282.75-4788.52-1281.7-4790.4-1281.7Z" transform="translate(4969.82 1328.05)"/><path class="cls-4" d="M-4782.69-1284.58a1.4,1.4,0,0,0,1.59,1.58,3,3,0,0,0,1.38-.33v1.21a3.66,3.66,0,0,1-1.71.4,2.41,2.41,0,0,1-2.67-2.67v-5.72h-1.32v-1.24h1.32v-2.86h1.41v2.86h3v1.24h-3Z" transform="translate(4969.82 1328.05)"/><path class="cls-4" d="M-4776.65-1289.54l-.42-1.15a7.8,7.8,0,0,1,3.45-.79c2.58,0,4,1.32,4,3.81v5.78h-1.35v-1.42a4.15,4.15,0,0,1-3.42,1.63c-1.76,0-3.54-1-3.54-3s1.65-3.08,4.05-3.08a9.93,9.93,0,0,1,2.91.41v-.33c0-1.71-1-2.59-2.82-2.59A6.65,6.65,0,0,0-4776.65-1289.54Zm.17,4.83c0,1.21,1.1,1.91,2.38,1.91,1.74,0,3.17-1.06,3.17-2.56v-.92a10,10,0,0,0-2.79-.4C-4775.49-1286.68-4776.48-1285.91-4776.48-1284.71Z" transform="translate(4969.82 1328.05)"/><path class="cls-4" d="M-4760.85-1281.89v-13.36h1.41v13.36Z" transform="translate(4969.82 1328.05)"/><path class="cls-4" d="M-4755.61-1289.54l-.42-1.15a7.72,7.72,0,0,1,3.44-.79c2.58,0,4,1.32,4,3.81v5.78h-1.36v-1.42a4.15,4.15,0,0,1-3.42,1.63c-1.76,0-3.54-1-3.54-3s1.65-3.08,4.05-3.08a9.93,9.93,0,0,1,2.91.41v-.33c0-1.71-1-2.59-2.82-2.59A6.61,6.61,0,0,0-4755.61-1289.54Zm.16,4.83c0,1.21,1.1,1.91,2.38,1.91,1.74,0,3.17-1.06,3.17-2.56v-.92a10,10,0,0,0-2.78-.4C-4754.46-1286.68-4755.45-1285.91-4755.45-1284.71Z" transform="translate(4969.82 1328.05)"/><path class="cls-4" d="M-4735-1291.32v1.21h-3v8.22h-1.41v-8.22h-1.3v-1.22h1.3v-.83c0-2.07,1.05-3.17,2.86-3.17a4.41,4.41,0,0,1,1.56.24v1.23a4.66,4.66,0,0,0-1.38-.24c-1.1,0-1.64.66-1.64,2v.76Z" transform="translate(4969.82 1328.05)"/><path class="cls-4" d="M-4729.23-1282.89a3.9,3.9,0,0,0,3-1.34l.88.79a4.89,4.89,0,0,1-3.9,1.77,4.7,4.7,0,0,1-4.72-4.94,4.67,4.67,0,0,1,4.54-4.94c2.8,0,4.41,2.23,4.41,5a3.47,3.47,0,0,1,0,.44h-7.51A3.33,3.33,0,0,0-4729.23-1282.89Zm2.76-4.25c-.14-1.72-1.13-3.22-3-3.22a3.27,3.27,0,0,0-3.08,3.22Z" transform="translate(4969.82 1328.05)"/><path class="cls-4" d="M-4718.3-1281.67a4.86,4.86,0,0,1-4.85-4.92,4.88,4.88,0,0,1,4.85-5,4.88,4.88,0,0,1,3.79,1.68l-.93,1a3.81,3.81,0,0,0-2.88-1.43,3.49,3.49,0,0,0-3.38,3.68,3.54,3.54,0,0,0,3.48,3.7,3.9,3.9,0,0,0,2.89-1.41l.9.84A4.87,4.87,0,0,1-4718.3-1281.67Z" transform="translate(4969.82 1328.05)"/><path class="cls-4" d="M-4710.7-1281.89h-1.41v-13.36h1.41v5.55a3.6,3.6,0,0,1,3.25-1.85,3.45,3.45,0,0,1,3.62,3.79v5.87h-1.41v-5.53c0-1.75-.95-2.85-2.62-2.85a2.78,2.78,0,0,0-2.84,3Z" transform="translate(4969.82 1328.05)"/><path class="cls-4" d="M-4700.27-1289.54l-.42-1.15a7.75,7.75,0,0,1,3.44-.79c2.58,0,4,1.32,4,3.81v5.78h-1.36v-1.42a4.15,4.15,0,0,1-3.42,1.63c-1.76,0-3.54-1-3.54-3s1.65-3.08,4.05-3.08a9.93,9.93,0,0,1,2.91.41v-.33c0-1.71-1-2.59-2.82-2.59A6.61,6.61,0,0,0-4700.27-1289.54Zm.16,4.83c0,1.21,1.1,1.91,2.38,1.91,1.74,0,3.17-1.06,3.17-2.56v-.92a10,10,0,0,0-2.78-.4C-4699.12-1286.68-4700.11-1285.91-4700.11-1284.71Z" transform="translate(4969.82 1328.05)"/><path class="cls-4" d="M-4677.89-1291.35h1.39v9.46h-1.39v-1.64a3.61,3.61,0,0,1-3.24,1.85,3.45,3.45,0,0,1-3.62-3.79v-5.88h1.41v5.53c0,1.76.95,2.85,2.61,2.85a2.79,2.79,0,0,0,2.84-3Z" transform="translate(4969.82 1328.05)"/><path class="cls-4" d="M-4671.91-1281.89h-1.41v-9.46h1.41v1.65a3.57,3.57,0,0,1,3.24-1.85,3.45,3.45,0,0,1,3.62,3.79v5.87h-1.41v-5.53c0-1.75-.95-2.85-2.62-2.85a2.78,2.78,0,0,0-2.83,3Z" transform="translate(4969.82 1328.05)"/><path class="cls-4" d="M-4654.53-1284.58a1.4,1.4,0,0,0,1.6,1.58,2.93,2.93,0,0,0,1.37-.33v1.21a3.62,3.62,0,0,1-1.7.4,2.41,2.41,0,0,1-2.68-2.67v-5.72h-1.31v-1.24h1.31v-2.86h1.41v2.86h3v1.24h-3Z" transform="translate(4969.82 1328.05)"/><path class="cls-4" d="M-4645-1281.67a4.85,4.85,0,0,1-4.91-4.92,4.9,4.9,0,0,1,4.94-5,4.87,4.87,0,0,1,4.93,4.92A4.92,4.92,0,0,1-4645-1281.67Zm0-8.64a3.48,3.48,0,0,0-3.47,3.68,3.56,3.56,0,0,0,3.5,3.7,3.49,3.49,0,0,0,3.48-3.66A3.58,3.58,0,0,0-4645-1290.31Z" transform="translate(4969.82 1328.05)"/><path class="cls-4" d="M-4635.57-1284.58A1.4,1.4,0,0,0-4634-1283a3,3,0,0,0,1.38-.33v1.21a3.66,3.66,0,0,1-1.71.4,2.41,2.41,0,0,1-2.67-2.67v-5.72h-1.32v-1.24h1.32v-2.86h1.41v2.86h3v1.24h-3Z" transform="translate(4969.82 1328.05)"/><path class="cls-4" d="M-4629.52-1289.54l-.43-1.15a7.8,7.8,0,0,1,3.45-.79c2.58,0,4,1.32,4,3.81v5.78h-1.36v-1.42a4.15,4.15,0,0,1-3.42,1.63c-1.76,0-3.54-1-3.54-3s1.65-3.08,4.05-3.08a9.93,9.93,0,0,1,2.91.41v-.33c0-1.71-1-2.59-2.82-2.59A6.61,6.61,0,0,0-4629.52-1289.54Zm.16,4.83c0,1.21,1.1,1.91,2.38,1.91,1.74,0,3.17-1.06,3.17-2.56v-.92a10,10,0,0,0-2.78-.4C-4628.37-1286.68-4629.36-1285.91-4629.36-1284.71Z" transform="translate(4969.82 1328.05)"/><path class="cls-4" d="M-4619.34-1281.89v-13.36h1.41v13.36Z" transform="translate(4969.82 1328.05)"/><path class="cls-4" d="M-4937.62-1259.9v-1.91a4.26,4.26,0,0,1-3.63,2.11,4.63,4.63,0,0,1-4.52-4.93,4.65,4.65,0,0,1,4.52-4.94,4.29,4.29,0,0,1,3.63,2v-5.71h1.41v13.37Zm-3.37-8.41a3.35,3.35,0,0,0-3.34,3.66A3.42,3.42,0,0,0-4941-1261a3.53,3.53,0,0,0,3.42-3.68A3.53,3.53,0,0,0-4941-1268.31Z" transform="translate(4969.82 1328.05)"/><path class="cls-4" d="M-4928.89-1260.91a3.92,3.92,0,0,0,3-1.34l.88.79a4.89,4.89,0,0,1-3.9,1.77,4.71,4.71,0,0,1-4.73-4.94,4.67,4.67,0,0,1,4.54-4.94c2.81,0,4.42,2.23,4.42,5a3.47,3.47,0,0,1,0,.44h-7.51A3.32,3.32,0,0,0-4928.89-1260.91Zm2.77-4.25c-.15-1.72-1.14-3.22-3-3.22a3.26,3.26,0,0,0-3.08,3.22Z" transform="translate(4969.82 1328.05)"/><path class="cls-4" d="M-4917-1272.72h8.7v1.08l-5.82,11.74h-1.61l5.78-11.5h-7Z" transform="translate(4969.82 1328.05)"/><path class="cls-4" d="M-4902.18-1259.69a5.92,5.92,0,0,1-3.95-1.57l.84-1.12a4.62,4.62,0,0,0,3.15,1.38c2.31,0,3.86-2.35,3.81-5.63a4.12,4.12,0,0,1-3.63,2.06c-2.63,0-4.47-1.67-4.47-4a4.37,4.37,0,0,1,4.62-4.37,4.53,4.53,0,0,1,3.37,1.32c1,1,1.59,2.4,1.59,5C-4896.85-1262.56-4899-1259.69-4902.18-1259.69Zm.31-12a2.94,2.94,0,0,0-3.07,3,2.87,2.87,0,0,0,3.15,2.82,3,3,0,0,0,3.18-2.91A3,3,0,0,0-4901.87-1271.66Z" transform="translate(4969.82 1328.05)"/><path class="cls-4" d="M-4885.45-1259.72a6.5,6.5,0,0,1-3.92-1.39l.71-1a5.54,5.54,0,0,0,3.28,1.21c1.14,0,2-.59,2-1.5v0c0-1-1.12-1.32-2.36-1.67-1.48-.42-3.13-.93-3.13-2.67v0c0-1.63,1.35-2.71,3.22-2.71a6.51,6.51,0,0,1,3.41,1l-.65,1.06a5.3,5.3,0,0,0-2.8-.92c-1.11,0-1.83.59-1.83,1.38v0c0,.9,1.17,1.25,2.44,1.63,1.46.44,3,1,3,2.71v0C-4882.08-1260.77-4883.57-1259.72-4885.45-1259.72Z" transform="translate(4969.82 1328.05)"/><path class="cls-4" d="M-4878.91-1267.56l-.42-1.15a7.75,7.75,0,0,1,3.44-.79c2.58,0,4,1.32,4,3.81v5.79h-1.36v-1.43a4.15,4.15,0,0,1-3.42,1.63c-1.76,0-3.54-1-3.54-3s1.65-3.08,4.05-3.08a9.93,9.93,0,0,1,2.91.41v-.33c0-1.71-1-2.58-2.82-2.58A6.64,6.64,0,0,0-4878.91-1267.56Zm.16,4.84c0,1.2,1.1,1.9,2.38,1.9,1.74,0,3.17-1.06,3.17-2.56v-.92a10,10,0,0,0-2.78-.4C-4877.76-1264.7-4878.75-1263.93-4878.75-1262.72Z" transform="translate(4969.82 1328.05)"/><path class="cls-4" d="M-4867-1262.6a1.4,1.4,0,0,0,1.59,1.58,2.91,2.91,0,0,0,1.37-.33v1.21a3.59,3.59,0,0,1-1.7.4,2.41,2.41,0,0,1-2.67-2.67v-5.72h-1.32v-1.24h1.32v-2.86h1.41v2.86h3v1.24h-3Z" transform="translate(4969.82 1328.05)"/><path class="cls-4" d="M-4857.37-1260.91a3.9,3.9,0,0,0,3-1.34l.88.79a4.89,4.89,0,0,1-3.9,1.77,4.7,4.7,0,0,1-4.72-4.94,4.67,4.67,0,0,1,4.54-4.94c2.8,0,4.41,2.23,4.41,5a3.47,3.47,0,0,1,0,.44h-7.51A3.33,3.33,0,0,0-4857.37-1260.91Zm2.76-4.25c-.14-1.72-1.13-3.22-3-3.22a3.27,3.27,0,0,0-3.08,3.22Zm-3.86-5.64,1.74-2.65,1.46.67-2.07,2Z" transform="translate(4969.82 1328.05)"/><path class="cls-4" d="M-4850.58-1259.9v-13.37h1.41v13.37Z" transform="translate(4969.82 1328.05)"/><path class="cls-4" d="M-4845.85-1271.44V-1273h1.61v1.56Zm.09,11.54v-9.47h1.41v9.47Z" transform="translate(4969.82 1328.05)"/><path class="cls-4" d="M-4839.17-1262.6a1.41,1.41,0,0,0,1.6,1.58,2.93,2.93,0,0,0,1.37-.33v1.21a3.59,3.59,0,0,1-1.7.4,2.41,2.41,0,0,1-2.68-2.67v-5.72h-1.31v-1.24h1.31v-2.86h1.41v2.86h3v1.24h-3Z" transform="translate(4969.82 1328.05)"/><path class="cls-4" d="M-4829.77-1260.91a3.88,3.88,0,0,0,3-1.34l.88.79a4.88,4.88,0,0,1-3.9,1.77,4.7,4.7,0,0,1-4.72-4.94,4.67,4.67,0,0,1,4.54-4.94c2.8,0,4.41,2.23,4.41,5a3.47,3.47,0,0,1,0,.44h-7.5A3.32,3.32,0,0,0-4829.77-1260.91Zm2.76-4.25c-.14-1.72-1.13-3.22-3-3.22a3.26,3.26,0,0,0-3.07,3.22Z" transform="translate(4969.82 1328.05)"/><path class="cls-4" d="M-4820-1259.72a6.5,6.5,0,0,1-3.92-1.39l.72-1a5.51,5.51,0,0,0,3.27,1.21c1.14,0,2-.59,2-1.5v0c0-1-1.11-1.32-2.36-1.67-1.48-.42-3.13-.93-3.13-2.67v0c0-1.63,1.35-2.71,3.22-2.71a6.48,6.48,0,0,1,3.41,1l-.64,1.06a5.35,5.35,0,0,0-2.8-.92c-1.12,0-1.84.59-1.84,1.38v0c0,.9,1.18,1.25,2.44,1.63,1.46.44,3,1,3,2.71v0C-4816.6-1260.77-4818.08-1259.72-4820-1259.72Z" transform="translate(4969.82 1328.05)"/><path class="cls-4" d="M-4804.14-1259.69a4.87,4.87,0,0,1-4.86-4.92,4.89,4.89,0,0,1,4.86-5,4.9,4.9,0,0,1,3.79,1.68l-.94,1a3.81,3.81,0,0,0-2.87-1.43,3.5,3.5,0,0,0-3.39,3.68,3.54,3.54,0,0,0,3.48,3.7,3.88,3.88,0,0,0,2.89-1.41l.9.84A4.85,4.85,0,0,1-4804.14-1259.69Z" transform="translate(4969.82 1328.05)"/><path class="cls-4" d="M-4793.9-1259.69a4.85,4.85,0,0,1-4.91-4.92,4.9,4.9,0,0,1,4.94-5,4.87,4.87,0,0,1,4.93,4.92A4.92,4.92,0,0,1-4793.9-1259.69Zm0-8.64a3.48,3.48,0,0,0-3.46,3.68,3.56,3.56,0,0,0,3.49,3.7,3.49,3.49,0,0,0,3.48-3.66A3.58,3.58,0,0,0-4793.9-1268.33Z" transform="translate(4969.82 1328.05)"/><path class="cls-4" d="M-4785-1259.9h-1.41v-9.47h1.41v1.65a3.57,3.57,0,0,1,3.24-1.85,3.45,3.45,0,0,1,3.62,3.79v5.88h-1.41v-5.53c0-1.76-.95-2.86-2.61-2.86a2.79,2.79,0,0,0-2.84,3Z" transform="translate(4969.82 1328.05)"/><path class="cls-4" d="M-4770.79-1259.69a4.85,4.85,0,0,1-4.91-4.92,4.91,4.91,0,0,1,4.95-5,4.86,4.86,0,0,1,4.92,4.92A4.91,4.91,0,0,1-4770.79-1259.69Zm0-8.64a3.48,3.48,0,0,0-3.46,3.68,3.56,3.56,0,0,0,3.5,3.7,3.49,3.49,0,0,0,3.48-3.66A3.58,3.58,0,0,0-4770.79-1268.33Z" transform="translate(4969.82 1328.05)"/><path class="cls-4" d="M-4759-1259.69a4.86,4.86,0,0,1-4.85-4.92,4.88,4.88,0,0,1,4.85-5,4.9,4.9,0,0,1,3.79,1.68l-.93,1a3.83,3.83,0,0,0-2.88-1.43,3.5,3.5,0,0,0-3.39,3.68,3.55,3.55,0,0,0,3.48,3.7,3.9,3.9,0,0,0,2.9-1.41l.89.84A4.84,4.84,0,0,1-4759-1259.69Z" transform="translate(4969.82 1328.05)"/><path class="cls-4" d="M-4752.78-1271.44V-1273h1.61v1.56Zm.09,11.54v-9.47h1.41v9.47Z" transform="translate(4969.82 1328.05)"/><path class="cls-4" d="M-4740.4-1259.9v-1.91a4.26,4.26,0,0,1-3.63,2.11,4.63,4.63,0,0,1-4.52-4.93,4.65,4.65,0,0,1,4.52-4.94,4.27,4.27,0,0,1,3.63,2v-5.71h1.41v13.37Zm-3.37-8.41a3.35,3.35,0,0,0-3.33,3.66,3.41,3.41,0,0,0,3.33,3.68,3.52,3.52,0,0,0,3.42-3.68A3.52,3.52,0,0,0-4743.77-1268.31Z" transform="translate(4969.82 1328.05)"/><path class="cls-4" d="M-4731.52-1259.69a4.84,4.84,0,0,1-4.9-4.92,4.9,4.9,0,0,1,4.94-5,4.87,4.87,0,0,1,4.93,4.92A4.92,4.92,0,0,1-4731.52-1259.69Zm0-8.64a3.48,3.48,0,0,0-3.46,3.68,3.56,3.56,0,0,0,3.5,3.7,3.49,3.49,0,0,0,3.48-3.66A3.58,3.58,0,0,0-4731.52-1268.33Z" transform="translate(4969.82 1328.05)"/><path class="cls-4" d="M-4720.87-1259.72a6.5,6.5,0,0,1-3.92-1.39l.71-1a5.54,5.54,0,0,0,3.28,1.21c1.13,0,2-.59,2-1.5v0c0-1-1.12-1.32-2.36-1.67-1.49-.42-3.14-.93-3.14-2.67v0c0-1.63,1.36-2.71,3.23-2.71a6.48,6.48,0,0,1,3.4,1l-.64,1.06a5.32,5.32,0,0,0-2.8-.92c-1.12,0-1.83.59-1.83,1.38v0c0,.9,1.17,1.25,2.43,1.63,1.47.44,3,1,3,2.71v0C-4717.51-1260.77-4719-1259.72-4720.87-1259.72Z" transform="translate(4969.82 1328.05)"/><path class="cls-4" d="M-4714.39-1259.9h-.66v-1.93h1.69v1.65a2.26,2.26,0,0,1-2,2.51l-.22-.64C-4714.7-1258.64-4714.32-1259.12-4714.39-1259.9Z" transform="translate(4969.82 1328.05)"/><path class="cls-4" d="M-4701.7-1259.72a6.5,6.5,0,0,1-3.91-1.39l.71-1a5.54,5.54,0,0,0,3.28,1.21c1.13,0,2-.59,2-1.5v0c0-1-1.12-1.32-2.36-1.67-1.49-.42-3.14-.93-3.14-2.67v0c0-1.63,1.36-2.71,3.23-2.71a6.48,6.48,0,0,1,3.4,1l-.64,1.06a5.32,5.32,0,0,0-2.8-.92c-1.12,0-1.83.59-1.83,1.38v0c0,.9,1.17,1.25,2.43,1.63,1.47.44,3,1,3,2.71v0C-4698.33-1260.77-4699.81-1259.72-4701.7-1259.72Z" transform="translate(4969.82 1328.05)"/><path class="cls-4" d="M-4695.67-1271.44V-1273h1.61v1.56Zm.09,11.54v-9.47h1.41v9.47Z" transform="translate(4969.82 1328.05)"/><path class="cls-4" d="M-4686.71-1260.91a3.9,3.9,0,0,0,3-1.34l.88.79a4.88,4.88,0,0,1-3.9,1.77,4.7,4.7,0,0,1-4.72-4.94,4.67,4.67,0,0,1,4.54-4.94c2.8,0,4.41,2.23,4.41,5a3.47,3.47,0,0,1,0,.44H-4690A3.33,3.33,0,0,0-4686.71-1260.91Zm2.76-4.25c-.14-1.72-1.13-3.22-3-3.22a3.27,3.27,0,0,0-3.08,3.22Z" transform="translate(4969.82 1328.05)"/><path class="cls-4" d="M-4678.63-1259.9H-4680v-9.47h1.41v1.65a3.57,3.57,0,0,1,3.24-1.85,3.45,3.45,0,0,1,3.62,3.79v5.88h-1.41v-5.53c0-1.76-.95-2.86-2.62-2.86a2.78,2.78,0,0,0-2.83,3Z" transform="translate(4969.82 1328.05)"/><path class="cls-4" d="M-4661.16-1259.9v-1.91a4.26,4.26,0,0,1-3.63,2.11,4.63,4.63,0,0,1-4.52-4.93,4.65,4.65,0,0,1,4.52-4.94,4.27,4.27,0,0,1,3.63,2v-5.71h1.41v13.37Zm-3.37-8.41a3.35,3.35,0,0,0-3.33,3.66,3.41,3.41,0,0,0,3.33,3.68,3.52,3.52,0,0,0,3.42-3.68A3.52,3.52,0,0,0-4664.53-1268.31Z" transform="translate(4969.82 1328.05)"/><path class="cls-4" d="M-4652.28-1259.69a4.84,4.84,0,0,1-4.9-4.92,4.9,4.9,0,0,1,4.94-5,4.86,4.86,0,0,1,4.92,4.92A4.91,4.91,0,0,1-4652.28-1259.69Zm0-8.64a3.48,3.48,0,0,0-3.46,3.68,3.56,3.56,0,0,0,3.5,3.7,3.49,3.49,0,0,0,3.48-3.66A3.58,3.58,0,0,0-4652.28-1268.33Z" transform="translate(4969.82 1328.05)"/><path class="cls-4" d="M-4638.65-1267.56l-.42-1.15a7.8,7.8,0,0,1,3.45-.79c2.58,0,4,1.32,4,3.81v5.79h-1.35v-1.43a4.16,4.16,0,0,1-3.43,1.63c-1.75,0-3.53-1-3.53-3s1.65-3.08,4.05-3.08a9.93,9.93,0,0,1,2.91.41v-.33c0-1.71-1.05-2.58-2.82-2.58A6.65,6.65,0,0,0-4638.65-1267.56Zm.17,4.84c0,1.2,1.1,1.9,2.38,1.9,1.74,0,3.17-1.06,3.17-2.56v-.92a10,10,0,0,0-2.79-.4C-4637.49-1264.7-4638.48-1263.93-4638.48-1262.72Z" transform="translate(4969.82 1328.05)"/><path class="cls-4" d="M-4625.46-1259.72a6.52,6.52,0,0,1-3.92-1.39l.72-1a5.51,5.51,0,0,0,3.27,1.21c1.14,0,2-.59,2-1.5v0c0-1-1.11-1.32-2.36-1.67-1.48-.42-3.13-.93-3.13-2.67v0c0-1.63,1.36-2.71,3.22-2.71a6.48,6.48,0,0,1,3.41,1l-.64,1.06a5.35,5.35,0,0,0-2.8-.92c-1.12,0-1.83.59-1.83,1.38v0c0,.9,1.17,1.25,2.43,1.63,1.47.44,3,1,3,2.71v0C-4622.09-1260.77-4623.57-1259.72-4625.46-1259.72Z" transform="translate(4969.82 1328.05)"/><path class="cls-4" d="M-4619.34-1259.9v-9.47h1.41v9.47Zm.13-10.9,1.74-2.65,1.46.67-2.07,2Z" transform="translate(4969.82 1328.05)"/><path class="cls-4" d="M-4941-1238.93a3.92,3.92,0,0,0,3-1.34l.88.79a4.91,4.91,0,0,1-3.9,1.77,4.7,4.7,0,0,1-4.73-4.94,4.67,4.67,0,0,1,4.54-4.94c2.8,0,4.41,2.23,4.41,5,0,.13,0,.28,0,.44h-7.51A3.32,3.32,0,0,0-4941-1238.93Zm2.77-4.25c-.15-1.72-1.14-3.22-3-3.22a3.26,3.26,0,0,0-3.08,3.22Z" transform="translate(4969.82 1328.05)"/><path class="cls-4" d="M-4934.25-1237.93v-13.36h1.41v13.36Z" transform="translate(4969.82 1328.05)"/><path class="cls-4" d="M-4920.83-1237.74a6.55,6.55,0,0,1-3.92-1.39l.72-1a5.52,5.52,0,0,0,3.28,1.21c1.13,0,1.95-.59,1.95-1.5v0c0-1-1.11-1.32-2.36-1.67-1.48-.42-3.13-.93-3.13-2.67v0c0-1.63,1.36-2.71,3.22-2.71a6.48,6.48,0,0,1,3.41,1l-.64,1.06a5.35,5.35,0,0,0-2.8-.92c-1.12,0-1.83.59-1.83,1.38v0c0,.9,1.17,1.25,2.43,1.63,1.47.44,3,1,3,2.71v0C-4917.46-1238.79-4918.94-1237.74-4920.83-1237.74Z" transform="translate(4969.82 1328.05)"/><path class="cls-4" d="M-4910.66-1238.93a3.9,3.9,0,0,0,3-1.34l.88.79a4.88,4.88,0,0,1-3.9,1.77,4.7,4.7,0,0,1-4.72-4.94,4.67,4.67,0,0,1,4.54-4.94c2.8,0,4.41,2.23,4.41,5a3.47,3.47,0,0,1,0,.44h-7.5A3.32,3.32,0,0,0-4910.66-1238.93Zm2.76-4.25c-.14-1.72-1.13-3.22-3-3.22a3.25,3.25,0,0,0-3.07,3.22Z" transform="translate(4969.82 1328.05)"/><path class="cls-4" d="M-4899.8-1235a7.39,7.39,0,0,1-4.3-1.32l.64-1.1a6,6,0,0,0,3.64,1.21,3.11,3.11,0,0,0,3.44-3.37v-1.11a4.46,4.46,0,0,1-3.71,2,4.37,4.37,0,0,1-4.45-4.45,4.39,4.39,0,0,1,4.45-4.48,4.46,4.46,0,0,1,3.7,1.9v-1.7h1.41v7.82C-4895-1236.51-4896.89-1235-4899.8-1235Zm0-11.39a3.13,3.13,0,0,0-3.28,3.21,3.2,3.2,0,0,0,3.28,3.24,3.33,3.33,0,0,0,3.48-3.23A3.32,3.32,0,0,0-4899.82-1246.35Z" transform="translate(4969.82 1328.05)"/><path class="cls-4" d="M-4885.11-1247.39h1.39v9.46h-1.39v-1.64a3.61,3.61,0,0,1-3.24,1.85,3.46,3.46,0,0,1-3.63-3.79v-5.88h1.41v5.53c0,1.76.95,2.85,2.62,2.85a2.8,2.8,0,0,0,2.84-3Z" transform="translate(4969.82 1328.05)"/><path class="cls-4" d="M-4879.14-1237.93h-1.41v-9.46h1.41v1.65a3.57,3.57,0,0,1,3.24-1.85,3.46,3.46,0,0,1,3.63,3.79v5.87h-1.41v-5.52c0-1.76-.95-2.86-2.62-2.86a2.79,2.79,0,0,0-2.84,3Z" transform="translate(4969.82 1328.05)"/><path class="cls-4" d="M-4861.67-1237.93v-1.9a4.24,4.24,0,0,1-3.62,2.11,4.63,4.63,0,0,1-4.52-4.93,4.65,4.65,0,0,1,4.52-4.94,4.26,4.26,0,0,1,3.62,2v-5.71h1.41v13.36Zm-3.37-8.4a3.35,3.35,0,0,0-3.33,3.66A3.42,3.42,0,0,0-4865-1239a3.53,3.53,0,0,0,3.43-3.68A3.53,3.53,0,0,0-4865-1246.33Z" transform="translate(4969.82 1328.05)"/><path class="cls-4" d="M-4852.78-1237.71a4.85,4.85,0,0,1-4.91-4.92,4.9,4.9,0,0,1,4.94-5,4.87,4.87,0,0,1,4.93,4.92A4.92,4.92,0,0,1-4852.78-1237.71Zm0-8.64a3.48,3.48,0,0,0-3.46,3.68,3.56,3.56,0,0,0,3.49,3.7,3.48,3.48,0,0,0,3.48-3.66A3.58,3.58,0,0,0-4852.78-1246.35Z" transform="translate(4969.82 1328.05)"/><path class="cls-4" d="M-4834.63-1237.72a4.3,4.3,0,0,1-3.63-2v4.74h-1.41v-12.39h1.41v1.9a4.27,4.27,0,0,1,3.63-2.1,4.62,4.62,0,0,1,4.52,4.92A4.64,4.64,0,0,1-4834.63-1237.72Zm-.26-8.61a3.52,3.52,0,0,0-3.42,3.66,3.52,3.52,0,0,0,3.42,3.68,3.34,3.34,0,0,0,3.33-3.66A3.41,3.41,0,0,0-4834.89-1246.33Z" transform="translate(4969.82 1328.05)"/><path class="cls-4" d="M-4827.38-1237.93v-13.36h1.41v13.36Z" transform="translate(4969.82 1328.05)"/><path class="cls-4" d="M-4822.14-1245.58l-.42-1.15a7.75,7.75,0,0,1,3.44-.79c2.58,0,4,1.32,4,3.81v5.78h-1.35v-1.42a4.16,4.16,0,0,1-3.43,1.63c-1.76,0-3.53-1-3.53-3s1.65-3.08,4-3.08a10.06,10.06,0,0,1,2.92.41v-.33c0-1.71-1.05-2.58-2.82-2.58A6.65,6.65,0,0,0-4822.14-1245.58Zm.17,4.84c0,1.2,1.1,1.9,2.38,1.9,1.74,0,3.16-1.06,3.16-2.56v-.92a9.9,9.9,0,0,0-2.78-.4C-4821-1242.72-4822-1241.95-4822-1240.74Z" transform="translate(4969.82 1328.05)"/><path class="cls-4" d="M-4810.67-1237.93h-1.41v-9.46h1.41v1.65a3.57,3.57,0,0,1,3.24-1.85,3.45,3.45,0,0,1,3.62,3.79v5.87h-1.41v-5.52c0-1.76-.95-2.86-2.61-2.86a2.79,2.79,0,0,0-2.84,3Z" transform="translate(4969.82 1328.05)"/><path class="cls-4" d="M-4796.62-1238.93a3.9,3.9,0,0,0,3-1.34l.88.79a4.89,4.89,0,0,1-3.9,1.77,4.7,4.7,0,0,1-4.72-4.94,4.67,4.67,0,0,1,4.54-4.94c2.8,0,4.41,2.23,4.41,5a3.47,3.47,0,0,1,0,.44H-4800A3.33,3.33,0,0,0-4796.62-1238.93Zm2.76-4.25c-.15-1.72-1.13-3.22-3-3.22a3.27,3.27,0,0,0-3.08,3.22Z" transform="translate(4969.82 1328.05)"/><path class="cls-4" d="M-4788-1240.62a1.4,1.4,0,0,0,1.59,1.58,3,3,0,0,0,1.38-.33v1.21a3.66,3.66,0,0,1-1.71.4,2.41,2.41,0,0,1-2.67-2.67v-5.72h-1.32v-1.24h1.32v-2.86h1.41v2.86h3v1.24h-3Z" transform="translate(4969.82 1328.05)"/><path class="cls-4" d="M-4782-1245.58l-.42-1.15a7.78,7.78,0,0,1,3.44-.79c2.59,0,4,1.32,4,3.81v5.78h-1.35v-1.42a4.16,4.16,0,0,1-3.43,1.63c-1.75,0-3.53-1-3.53-3s1.65-3.08,4.05-3.08a9.93,9.93,0,0,1,2.91.41v-.33c0-1.71-1-2.58-2.82-2.58A6.65,6.65,0,0,0-4782-1245.58Zm.17,4.84c0,1.2,1.1,1.9,2.38,1.9,1.74,0,3.17-1.06,3.17-2.56v-.92a10,10,0,0,0-2.79-.4C-4780.85-1242.72-4781.84-1241.95-4781.84-1240.74Z" transform="translate(4969.82 1328.05)"/><path class="cls-4" d="M-4758.75-1237.93v-1.9a4.24,4.24,0,0,1-3.62,2.11,4.63,4.63,0,0,1-4.53-4.93,4.65,4.65,0,0,1,4.53-4.94,4.27,4.27,0,0,1,3.62,2v-5.71h1.41v13.36Zm-3.37-8.4a3.35,3.35,0,0,0-3.33,3.66,3.42,3.42,0,0,0,3.33,3.68,3.53,3.53,0,0,0,3.43-3.68A3.53,3.53,0,0,0-4762.12-1246.33Z" transform="translate(4969.82 1328.05)"/><path class="cls-4" d="M-4750-1238.93a3.92,3.92,0,0,0,3-1.34l.87.79a4.88,4.88,0,0,1-3.9,1.77,4.7,4.7,0,0,1-4.72-4.94,4.67,4.67,0,0,1,4.54-4.94c2.8,0,4.41,2.23,4.41,5,0,.13,0,.28,0,.44h-7.51A3.32,3.32,0,0,0-4750-1238.93Zm2.77-4.25c-.15-1.72-1.14-3.22-3-3.22a3.26,3.26,0,0,0-3.07,3.22Z" transform="translate(4969.82 1328.05)"/><path class="cls-4" d="M-4743.21-1237.93v-13.36h1.41v13.36Z" transform="translate(4969.82 1328.05)"/><path class="cls-4" d="M-4729.79-1237.74a6.52,6.52,0,0,1-3.92-1.39l.72-1a5.51,5.51,0,0,0,3.27,1.21c1.14,0,2-.59,2-1.5v0c0-1-1.11-1.32-2.36-1.67-1.48-.42-3.13-.93-3.13-2.67v0c0-1.63,1.36-2.71,3.22-2.71a6.48,6.48,0,0,1,3.41,1l-.64,1.06a5.35,5.35,0,0,0-2.8-.92c-1.12,0-1.83.59-1.83,1.38v0c0,.9,1.17,1.25,2.43,1.63,1.47.44,3,1,3,2.71v0C-4726.42-1238.79-4727.9-1237.74-4729.79-1237.74Z" transform="translate(4969.82 1328.05)"/><path class="cls-4" d="M-4723.76-1249.46V-1251h1.61v1.56Zm.09,11.53v-9.46h1.41v9.46Z" transform="translate(4969.82 1328.05)"/><path class="cls-4" d="M-4715.85-1237.74a6.5,6.5,0,0,1-3.92-1.39l.72-1a5.51,5.51,0,0,0,3.27,1.21c1.14,0,2-.59,2-1.5v0c0-1-1.11-1.32-2.36-1.67-1.48-.42-3.13-.93-3.13-2.67v0c0-1.63,1.35-2.71,3.22-2.71a6.48,6.48,0,0,1,3.41,1l-.64,1.06a5.35,5.35,0,0,0-2.8-.92c-1.12,0-1.84.59-1.84,1.38v0c0,.9,1.18,1.25,2.44,1.63,1.46.44,3,1,3,2.71v0C-4712.48-1238.79-4714-1237.74-4715.85-1237.74Z" transform="translate(4969.82 1328.05)"/><path class="cls-4" d="M-4708.14-1240.62a1.4,1.4,0,0,0,1.59,1.58,3,3,0,0,0,1.38-.33v1.21a3.66,3.66,0,0,1-1.71.4,2.41,2.41,0,0,1-2.67-2.67v-5.72h-1.32v-1.24h1.32v-2.86h1.41v2.86h3v1.24h-3Z" transform="translate(4969.82 1328.05)"/><path class="cls-4" d="M-4698.74-1238.93a3.9,3.9,0,0,0,3-1.34l.88.79a4.89,4.89,0,0,1-3.9,1.77,4.7,4.7,0,0,1-4.72-4.94,4.67,4.67,0,0,1,4.54-4.94c2.8,0,4.41,2.23,4.41,5a3.47,3.47,0,0,1,0,.44h-7.51A3.33,3.33,0,0,0-4698.74-1238.93Zm2.76-4.25c-.14-1.72-1.13-3.22-3-3.22a3.27,3.27,0,0,0-3.08,3.22Z" transform="translate(4969.82 1328.05)"/><path class="cls-4" d="M-4681.23-1247.59c2.17,0,3.51,1.46,3.51,3.81v5.85h-1.41v-5.52c0-1.84-.91-2.86-2.45-2.86a2.65,2.65,0,0,0-2.62,2.93v5.45h-1.39v-5.56c0-1.78-.94-2.82-2.44-2.82a2.73,2.73,0,0,0-2.63,3v5.4h-1.41v-9.46h1.41v1.59a3.45,3.45,0,0,1,3.05-1.79,3.21,3.21,0,0,1,3,1.88A3.79,3.79,0,0,1-4681.23-1247.59Z" transform="translate(4969.82 1328.05)"/><path class="cls-4" d="M-4674.11-1245.58l-.42-1.15a7.8,7.8,0,0,1,3.45-.79c2.58,0,4,1.32,4,3.81v5.78h-1.35v-1.42a4.16,4.16,0,0,1-3.43,1.63c-1.75,0-3.53-1-3.53-3s1.65-3.08,4.05-3.08a9.93,9.93,0,0,1,2.91.41v-.33c0-1.71-1-2.58-2.82-2.58A6.65,6.65,0,0,0-4674.11-1245.58Zm.17,4.84c0,1.2,1.1,1.9,2.38,1.9,1.74,0,3.17-1.06,3.17-2.56v-.92a10,10,0,0,0-2.79-.4C-4672.95-1242.72-4673.94-1241.95-4673.94-1240.74Z" transform="translate(4969.82 1328.05)"/><path class="cls-4" d="M-4655.31-1237.74a6.5,6.5,0,0,1-3.92-1.39l.71-1a5.54,5.54,0,0,0,3.28,1.21c1.13,0,2-.59,2-1.5v0c0-1-1.12-1.32-2.36-1.67-1.49-.42-3.14-.93-3.14-2.67v0c0-1.63,1.36-2.71,3.23-2.71a6.48,6.48,0,0,1,3.4,1l-.64,1.06a5.32,5.32,0,0,0-2.8-.92c-1.12,0-1.83.59-1.83,1.38v0c0,.9,1.17,1.25,2.43,1.63,1.47.44,3,1,3,2.71v0C-4651.95-1238.79-4653.43-1237.74-4655.31-1237.74Z" transform="translate(4969.82 1328.05)"/><path class="cls-4" d="M-4645-1237.71a4.85,4.85,0,0,1-4.91-4.92,4.9,4.9,0,0,1,4.94-5,4.87,4.87,0,0,1,4.93,4.92A4.92,4.92,0,0,1-4645-1237.71Zm0-8.64a3.48,3.48,0,0,0-3.46,3.68,3.56,3.56,0,0,0,3.49,3.7,3.49,3.49,0,0,0,3.48-3.66A3.58,3.58,0,0,0-4645-1246.35Z" transform="translate(4969.82 1328.05)"/><path class="cls-4" d="M-4637.36-1237.93v-13.36h1.41v13.36Z" transform="translate(4969.82 1328.05)"/><path class="cls-4" d="M-4632.13-1245.58l-.42-1.15a7.8,7.8,0,0,1,3.45-.79c2.58,0,4,1.32,4,3.81v5.78h-1.35v-1.42a4.15,4.15,0,0,1-3.42,1.63c-1.76,0-3.54-1-3.54-3s1.65-3.08,4.05-3.08a9.93,9.93,0,0,1,2.91.41v-.33c0-1.71-1-2.58-2.82-2.58A6.65,6.65,0,0,0-4632.13-1245.58Zm.17,4.84c0,1.2,1.1,1.9,2.38,1.9,1.74,0,3.17-1.06,3.17-2.56v-.92a10,10,0,0,0-2.79-.4C-4631-1242.72-4632-1241.95-4632-1240.74Z" transform="translate(4969.82 1328.05)"/><path class="cls-4" d="M-4620.66-1237.93h-1.41v-9.46h1.41v2.47a4.07,4.07,0,0,1,3.86-2.64v1.52h-.11c-2.06,0-3.75,1.49-3.75,4.34Z" transform="translate(4969.82 1328.05)"/><path class="cls-4" d="M-4853.69-1215.72a4.87,4.87,0,0,1-4.85-4.93,4.88,4.88,0,0,1,4.85-5,4.9,4.9,0,0,1,3.79,1.68l-.93,1a3.84,3.84,0,0,0-2.88-1.43,3.5,3.5,0,0,0-3.39,3.68,3.54,3.54,0,0,0,3.48,3.7,3.92,3.92,0,0,0,2.9-1.41l.89.84A4.84,4.84,0,0,1-4853.69-1215.72Z" transform="translate(4969.82 1328.05)"/><path class="cls-4" d="M-4843.45-1215.72a4.86,4.86,0,0,1-4.91-4.93,4.91,4.91,0,0,1,4.95-5,4.87,4.87,0,0,1,4.92,4.92A4.93,4.93,0,0,1-4843.45-1215.72Zm0-8.65a3.48,3.48,0,0,0-3.46,3.68,3.56,3.56,0,0,0,3.5,3.7,3.48,3.48,0,0,0,3.47-3.66A3.58,3.58,0,0,0-4843.45-1224.37Z" transform="translate(4969.82 1328.05)"/><path class="cls-4" d="M-4834.53-1215.94h-1.41v-9.47h1.41v1.65a3.57,3.57,0,0,1,3.24-1.85,3.46,3.46,0,0,1,3.63,3.79v5.88h-1.41v-5.53c0-1.76-1-2.86-2.62-2.86a2.79,2.79,0,0,0-2.84,3Z" transform="translate(4969.82 1328.05)"/><path class="cls-4" d="M-4808.32-1225.61c2.18,0,3.51,1.46,3.51,3.81v5.86h-1.41v-5.53c0-1.84-.91-2.86-2.45-2.86a2.65,2.65,0,0,0-2.62,2.93v5.46h-1.39v-5.57c0-1.78-.93-2.82-2.44-2.82a2.73,2.73,0,0,0-2.63,3v5.41h-1.41v-9.47h1.41v1.59a3.45,3.45,0,0,1,3.06-1.79,3.23,3.23,0,0,1,3,1.88A3.76,3.76,0,0,1-4808.32-1225.61Z" transform="translate(4969.82 1328.05)"/><path class="cls-4" d="M-4801.19-1223.6l-.42-1.15a7.72,7.72,0,0,1,3.44-.79c2.58,0,4,1.32,4,3.81v5.79h-1.36v-1.43a4.15,4.15,0,0,1-3.42,1.63c-1.76,0-3.54-1-3.54-3s1.65-3.08,4.05-3.08a9.93,9.93,0,0,1,2.91.41v-.33c0-1.71-1-2.58-2.82-2.58A6.6,6.6,0,0,0-4801.19-1223.6Zm.16,4.84c0,1.2,1.1,1.9,2.38,1.9,1.74,0,3.17-1.06,3.17-2.56v-.92a10,10,0,0,0-2.78-.4C-4800-1220.74-4801-1220-4801-1218.76Zm2.25-8.08,1.74-2.65,1.47.67-2.07,2Z" transform="translate(4969.82 1328.05)"/><path class="cls-4" d="M-4788-1215.76a6.5,6.5,0,0,1-3.91-1.39l.71-1a5.52,5.52,0,0,0,3.28,1.21c1.13,0,2-.59,2-1.5v0c0-1-1.12-1.32-2.37-1.67-1.48-.42-3.13-.93-3.13-2.67v0c0-1.63,1.36-2.71,3.23-2.71a6.48,6.48,0,0,1,3.4,1l-.64,1.06a5.35,5.35,0,0,0-2.8-.92c-1.12,0-1.83.59-1.83,1.38v0c0,.9,1.17,1.25,2.43,1.63,1.47.44,3,1,3,2.71v0C-4784.64-1216.8-4786.12-1215.76-4788-1215.76Z" transform="translate(4969.82 1328.05)"/><path class="cls-4" d="M-4773.39-1215.76a6.5,6.5,0,0,1-3.92-1.39l.72-1a5.51,5.51,0,0,0,3.27,1.21c1.14,0,2-.59,2-1.5v0c0-1-1.11-1.32-2.36-1.67-1.48-.42-3.13-.93-3.13-2.67v0c0-1.63,1.35-2.71,3.22-2.71a6.48,6.48,0,0,1,3.41,1l-.64,1.06a5.35,5.35,0,0,0-2.8-.92c-1.12,0-1.84.59-1.84,1.38v0c0,.9,1.18,1.25,2.44,1.63,1.46.44,3,1,3,2.71v0C-4770-1216.8-4771.5-1215.76-4773.39-1215.76Z" transform="translate(4969.82 1328.05)"/><path class="cls-4" d="M-4766.85-1223.6l-.42-1.15a7.75,7.75,0,0,1,3.44-.79c2.58,0,4,1.32,4,3.81v5.79h-1.36v-1.43a4.12,4.12,0,0,1-3.42,1.63c-1.76,0-3.53-1-3.53-3s1.64-3.08,4-3.08a9.93,9.93,0,0,1,2.91.41v-.33c0-1.71-1-2.58-2.82-2.58A6.64,6.64,0,0,0-4766.85-1223.6Zm.16,4.84c0,1.2,1.1,1.9,2.38,1.9,1.74,0,3.17-1.06,3.17-2.56v-.92a9.9,9.9,0,0,0-2.78-.4C-4765.7-1220.74-4766.69-1220-4766.69-1218.76Z" transform="translate(4969.82 1328.05)"/><path class="cls-4" d="M-4755-1218.64a1.4,1.4,0,0,0,1.59,1.58,2.91,2.91,0,0,0,1.37-.33v1.21a3.59,3.59,0,0,1-1.7.4,2.41,2.41,0,0,1-2.67-2.67v-5.72h-1.32v-1.24h1.32v-2.86h1.41v2.86h3v1.24h-3Z" transform="translate(4969.82 1328.05)"/><path class="cls-4" d="M-4745.31-1216.95a3.9,3.9,0,0,0,3-1.34l.88.79a4.88,4.88,0,0,1-3.9,1.78,4.71,4.71,0,0,1-4.72-5,4.67,4.67,0,0,1,4.54-4.94c2.8,0,4.41,2.23,4.41,5a3.47,3.47,0,0,1,0,.44h-7.5A3.32,3.32,0,0,0-4745.31-1216.95Zm2.76-4.25c-.14-1.72-1.13-3.22-3-3.22a3.25,3.25,0,0,0-3.07,3.22Zm-3.86-5.64,1.74-2.65,1.46.67-2.06,2Z" transform="translate(4969.82 1328.05)"/><path class="cls-4" d="M-4738.51-1215.94v-13.37h1.41v13.37Z" transform="translate(4969.82 1328.05)"/><path class="cls-4" d="M-4733.79-1227.48V-1229h1.61v1.56Zm.09,11.54v-9.47h1.41v9.47Z" transform="translate(4969.82 1328.05)"/><path class="cls-4" d="M-4727.1-1218.64a1.4,1.4,0,0,0,1.59,1.58,2.91,2.91,0,0,0,1.37-.33v1.21a3.59,3.59,0,0,1-1.7.4,2.41,2.41,0,0,1-2.67-2.67v-5.72h-1.32v-1.24h1.32v-2.86h1.41v2.86h3v1.24h-3Z" transform="translate(4969.82 1328.05)"/><path class="cls-4" d="M-4717.71-1216.95a3.92,3.92,0,0,0,3-1.34l.88.79a4.91,4.91,0,0,1-3.9,1.78,4.72,4.72,0,0,1-4.73-5,4.67,4.67,0,0,1,4.54-4.94c2.8,0,4.42,2.23,4.42,5a3.47,3.47,0,0,1,0,.44H-4721A3.32,3.32,0,0,0-4717.71-1216.95Zm2.77-4.25c-.15-1.72-1.14-3.22-3-3.22a3.26,3.26,0,0,0-3.08,3.22Z" transform="translate(4969.82 1328.05)"/><path class="cls-4" d="M-4707.91-1215.76a6.55,6.55,0,0,1-3.92-1.39l.72-1a5.52,5.52,0,0,0,3.28,1.21c1.13,0,1.95-.59,1.95-1.5v0c0-1-1.11-1.32-2.36-1.67-1.48-.42-3.13-.93-3.13-2.67v0c0-1.63,1.36-2.71,3.22-2.71a6.48,6.48,0,0,1,3.41,1l-.64,1.06a5.35,5.35,0,0,0-2.8-.92c-1.12,0-1.83.59-1.83,1.38v0c0,.9,1.17,1.25,2.43,1.63,1.47.44,3,1,3,2.71v0C-4704.54-1216.8-4706-1215.76-4707.91-1215.76Z" transform="translate(4969.82 1328.05)"/><path class="cls-4" d="M-4650.53-1148.43l-71.9-40.38h-226.11c-11.73,0-21.28-14.29-21.28-31.85v-75.54c0-17.56,9.55-31.85,21.28-31.85h339.61c11.73,0,21.27,14.29,21.27,31.85v75.54c0,17.56-9.54,31.85-21.27,31.85h-72.44Zm-298-178.51c-11.12,0-20.17,13.79-20.17,30.74v75.54c0,17,9.05,30.74,20.17,30.74h226.4l.13.07,67.33,37.82-28.94-37.89h74.69c11.12,0,20.16-13.79,20.16-30.74v-75.54c0-17-9-30.74-20.16-30.74Z" transform="translate(4969.82 1328.05)"/></g></g></svg>