<svg xmlns="http://www.w3.org/2000/svg" viewBox="0 0 522.46 249.6"><defs><style>.cls-1{fill:#22083f;opacity:0.65;}.cls-2{fill:#6323a1;}.cls-3{fill:#7031ba;}.cls-4{fill:#fff;}</style></defs><title>Asset 6ldpi</title><g id="Layer_2" data-name="Layer 2"><g id="Layer_1-2" data-name="Layer 1"><path class="cls-1" d="M-4767.42-3773.94h444.73c15,0,27.13,17.8,27.13,39.76v96c0,21.95-12.15,39.75-27.13,39.75H-4419l39.14,49.71-91.25-49.71h-296.29c-15,0-27.13-17.8-27.13-39.75v-96C-4794.55-3756.14-4782.4-3773.94-4767.42-3773.94Z" transform="translate(4805.81 3787.18)"/><path class="cls-2" d="M-4766.95-3778.73h444.73c15,0,27.13,17.8,27.13,39.75v96c0,22-12.15,39.75-27.13,39.75h-96.33l39.14,49.72-91.25-49.72h-296.29c-15,0-27.13-17.79-27.13-39.75v-96C-4794.08-3760.93-4781.93-3778.73-4766.95-3778.73Z" transform="translate(4805.81 3787.18)"/><path class="cls-3" d="M-4766.95-3778.73C-4867-3530.34-4295.09-3643-4295.09-3643c0,22-12.15,39.75-27.13,39.75h-96.33l39.14,49.72-91.25-49.72h-296.29c-15,0-27.13-17.79-27.13-39.75v-96C-4794.08-3760.93-4777.84-3781.86-4766.95-3778.73Z" transform="translate(4805.81 3787.18)"/><path class="cls-4" d="M-4765.06-3745.9c2.86.62,4.18,1.67,4.18,3.65,0,2.22-1.83,3.65-4.38,3.65a7.5,7.5,0,0,1-5.25-2.06l.9-1.06a6.12,6.12,0,0,0,4.4,1.82c1.73,0,2.86-.9,2.86-2.2s-.64-1.89-3.33-2.46c-3-.64-4.31-1.6-4.31-3.73s1.77-3.52,4.21-3.52a6.71,6.71,0,0,1,4.52,1.58l-.85,1.12a5.63,5.63,0,0,0-3.7-1.39c-1.67,0-2.74.91-2.74,2.09S-4767.89-3746.51-4765.06-3745.9Z" transform="translate(4805.81 3787.18)"/><path class="cls-4" d="M-4758.13-3750.34v-1.56h1.62v1.56Zm.1,11.55v-9.48h1.41v9.48Z" transform="translate(4805.81 3787.18)"/><path class="cls-4" d="M-4739.27-3739.79a4,4,0,0,0,3-1.34l.88.79a4.9,4.9,0,0,1-3.9,1.78,4.72,4.72,0,0,1-4.74-5,4.68,4.68,0,0,1,4.55-4.95c2.81,0,4.42,2.24,4.42,5a3.63,3.63,0,0,1,0,.44h-7.52A3.33,3.33,0,0,0-4739.27-3739.79Zm2.77-4.26c-.15-1.72-1.14-3.23-3-3.23a3.28,3.28,0,0,0-3.09,3.23Z" transform="translate(4805.81 3787.18)"/><path class="cls-4" d="M-4732.46-3738.79v-13.38h1.41v13.38Z" transform="translate(4805.81 3787.18)"/><path class="cls-4" d="M-4712.83-3738.58a4.31,4.31,0,0,1-3.64-2v4.75h-1.41v-12.42h1.41v1.91a4.27,4.27,0,0,1,3.64-2.11,4.63,4.63,0,0,1,4.53,4.93A4.66,4.66,0,0,1-4712.83-3738.58Zm-.26-8.62a3.52,3.52,0,0,0-3.43,3.66,3.54,3.54,0,0,0,3.43,3.69,3.36,3.36,0,0,0,3.34-3.67A3.42,3.42,0,0,0-4713.09-3747.2Z" transform="translate(4805.81 3787.18)"/><path class="cls-4" d="M-4701.37-3738.56a4.86,4.86,0,0,1-4.91-4.94,4.91,4.91,0,0,1,4.95-5,4.88,4.88,0,0,1,4.93,4.93A4.93,4.93,0,0,1-4701.37-3738.56Zm0-8.66a3.49,3.49,0,0,0-3.47,3.68,3.57,3.57,0,0,0,3.51,3.71,3.49,3.49,0,0,0,3.48-3.67A3.58,3.58,0,0,0-4701.37-3747.22Z" transform="translate(4805.81 3787.18)"/><path class="cls-4" d="M-4689.67-3739.79a3.94,3.94,0,0,0,3-1.34l.88.79a4.9,4.9,0,0,1-3.9,1.78,4.72,4.72,0,0,1-4.74-5,4.68,4.68,0,0,1,4.55-4.95c2.81,0,4.42,2.24,4.42,5,0,.12,0,.27,0,.44H-4693A3.32,3.32,0,0,0-4689.67-3739.79Zm2.77-4.26c-.14-1.72-1.13-3.23-3-3.23A3.27,3.27,0,0,0-4693-3744Z" transform="translate(4805.81 3787.18)"/><path class="cls-4" d="M-4681.08-3741.48a1.4,1.4,0,0,0,1.59,1.58,3.1,3.1,0,0,0,1.38-.33v1.21a3.66,3.66,0,0,1-1.71.4,2.41,2.41,0,0,1-2.67-2.68V-3747h-1.32v-1.25h1.32v-2.86h1.41v2.86h3v1.25h-3Z" transform="translate(4805.81 3787.18)"/><path class="cls-4" d="M-4675-3746.45l-.42-1.16a7.9,7.9,0,0,1,3.45-.79c2.58,0,4,1.32,4,3.82v5.79h-1.35v-1.43a4.17,4.17,0,0,1-3.43,1.64c-1.77,0-3.54-1-3.54-3s1.65-3.09,4.05-3.09a10.06,10.06,0,0,1,2.92.41v-.33c0-1.71-1.05-2.59-2.83-2.59A6.65,6.65,0,0,0-4675-3746.45Zm.17,4.84c0,1.21,1.1,1.91,2.38,1.91,1.74,0,3.17-1.07,3.17-2.57v-.92a9.9,9.9,0,0,0-2.78-.4C-4673.87-3743.59-4674.86-3742.82-4674.86-3741.61Z" transform="translate(4805.81 3787.18)"/><path class="cls-4" d="M-4655.11-3751.62h5c4,0,6.82,2.77,6.82,6.38v0c0,3.61-2.78,6.41-6.82,6.41h-5Zm5,10.29a3.66,3.66,0,0,0,3.87-3.84v0a3.68,3.68,0,0,0-3.87-3.87h-2.18v7.74Z" transform="translate(4805.81 3787.18)"/><path class="cls-4" d="M-4641.64-3741.61v0c0-2.14,1.63-3.13,4-3.13a6.91,6.91,0,0,1,2.4.4v-.16c0-1.16-.71-1.8-2.11-1.8a7.23,7.23,0,0,0-2.71.53l-.7-2.13a8.78,8.78,0,0,1,3.82-.79,4.58,4.58,0,0,1,3.32,1.1,4.32,4.32,0,0,1,1.06,3.14v5.7h-2.7v-1.06a3.77,3.77,0,0,1-3,1.25C-4640.12-3738.6-4641.64-3739.67-4641.64-3741.61Zm6.4-.64v-.5a4.34,4.34,0,0,0-1.78-.36c-1.19,0-1.93.47-1.93,1.35v0c0,.75.63,1.19,1.53,1.19C-4636.12-3740.53-4635.24-3741.24-4635.24-3742.25Z" transform="translate(4805.81 3787.18)"/><path class="cls-4" d="M-4630.2-3748.62h2.79v1.4a3.47,3.47,0,0,1,2.88-1.58c2.11,0,3.34,1.39,3.34,3.65v6.36H-4624v-5.48c0-1.32-.62-2-1.69-2s-1.74.68-1.74,2v5.48h-2.79Z" transform="translate(4805.81 3787.18)"/><path class="cls-4" d="M-4618.31-3741.57v-4.66h-1.17v-2.39h1.17v-2.51h2.79v2.51h2.31v2.39h-2.31v4.2c0,.64.27,1,.9,1a2.82,2.82,0,0,0,1.37-.35v2.24a4.09,4.09,0,0,1-2.2.57C-4617.16-3738.62-4618.31-3739.3-4618.31-3741.57Z" transform="translate(4805.81 3787.18)"/><path class="cls-4" d="M-4611.91-3743.65v0a4.9,4.9,0,0,1,4.86-5.12c3.28,0,4.79,2.55,4.79,5.34,0,.22,0,.47,0,.73h-6.84a2.29,2.29,0,0,0,2.4,1.93,3.25,3.25,0,0,0,2.39-1l1.59,1.41a4.89,4.89,0,0,1-4,1.84A4.92,4.92,0,0,1-4611.91-3743.65Zm6.93-.82a2.1,2.1,0,0,0-2.07-2.09,2.19,2.19,0,0,0-2.13,2.09Z" transform="translate(4805.81 3787.18)"/><path class="cls-4" d="M-4585.6-3751.72h2.6l5.5,12.93h-2.95l-1.17-2.87H-4587l-1.18,2.87h-2.88Zm3,7.56-1.71-4.16-1.7,4.16Z" transform="translate(4805.81 3787.18)"/><path class="cls-4" d="M-4575.68-3752.17h2.79v13.38h-2.79Z" transform="translate(4805.81 3787.18)"/><path class="cls-4" d="M-4570.21-3752.17h2.93v2.47h-2.93Zm.07,3.55h2.79v9.83h-2.79Z" transform="translate(4805.81 3787.18)"/><path class="cls-4" d="M-4564.67-3736.84l.95-2.09a6.41,6.41,0,0,0,3.32.9c1.91,0,2.81-.92,2.81-2.68v-.48a3.86,3.86,0,0,1-3.21,1.6,4.32,4.32,0,0,1-4.37-4.59v0a4.33,4.33,0,0,1,4.37-4.59,4,4,0,0,1,3.17,1.47v-1.29h2.79v7.62a5.31,5.31,0,0,1-1.25,3.87,5.8,5.8,0,0,1-4.24,1.32A9.3,9.3,0,0,1-4564.67-3736.84Zm7.08-7.34v0a2.28,2.28,0,0,0-2.41-2.28,2.26,2.26,0,0,0-2.38,2.28v0a2.25,2.25,0,0,0,2.38,2.28A2.28,2.28,0,0,0-4557.59-3744.18Z" transform="translate(4805.81 3787.18)"/><path class="cls-4" d="M-4552.35-3752.17h2.79v5a3.47,3.47,0,0,1,2.88-1.58c2.11,0,3.34,1.39,3.34,3.65v6.36h-2.79v-5.48c0-1.32-.62-2-1.69-2s-1.74.68-1.74,2v5.48h-2.79Z" transform="translate(4805.81 3787.18)"/><path class="cls-4" d="M-4540.87-3752.17h2.94v2.47h-2.94Zm.08,3.55h2.79v9.83h-2.79Z" transform="translate(4805.81 3787.18)"/><path class="cls-4" d="M-4535.86-3743.65v0a4.9,4.9,0,0,1,4.86-5.12c3.28,0,4.79,2.55,4.79,5.34,0,.22,0,.47,0,.73h-6.84a2.29,2.29,0,0,0,2.4,1.93,3.25,3.25,0,0,0,2.39-1l1.59,1.41a4.89,4.89,0,0,1-4,1.84A4.92,4.92,0,0,1-4535.86-3743.65Zm6.93-.82a2.1,2.1,0,0,0-2.07-2.09,2.19,2.19,0,0,0-2.13,2.09Z" transform="translate(4805.81 3787.18)"/><path class="cls-4" d="M-4524.14-3748.62h2.79v2a3.05,3.05,0,0,1,3.14-2.16v2.92h-.15c-1.85,0-3,1.12-3,3.46v3.63h-2.79Z" transform="translate(4805.81 3787.18)"/><path class="cls-4" d="M-4516.42-3752.17h2.94v2.47h-2.94Zm.08,3.55h2.79v9.83h-2.79Z" transform="translate(4805.81 3787.18)"/><path class="cls-4" d="M-4511.7-3737c1.26-.13,1.89-.77,1.8-1.82H-4511v-2.93h3v2.48c0,2.42-1.21,3.39-3.39,3.43Z" transform="translate(4805.81 3787.18)"/><path class="cls-4" d="M-4494.92-3746.45l-.42-1.16a8,8,0,0,1,3.45-.79c2.59,0,4,1.32,4,3.82v5.79h-1.36v-1.43a4.14,4.14,0,0,1-3.43,1.64c-1.76,0-3.54-1-3.54-3s1.65-3.09,4.05-3.09a10,10,0,0,1,2.92.41v-.33c0-1.71-1.05-2.59-2.83-2.59A6.69,6.69,0,0,0-4494.92-3746.45Zm.17,4.84c0,1.21,1.1,1.91,2.38,1.91,1.75,0,3.18-1.07,3.18-2.57v-.92a10,10,0,0,0-2.79-.4C-4493.76-3743.59-4494.75-3742.82-4494.75-3741.61Z" transform="translate(4805.81 3787.18)"/><path class="cls-4" d="M-4478.11-3748.27h1.39v9.48h-1.39v-1.65a3.63,3.63,0,0,1-3.25,1.86,3.46,3.46,0,0,1-3.63-3.8v-5.89h1.41v5.54c0,1.76.95,2.86,2.62,2.86a2.8,2.8,0,0,0,2.85-3Z" transform="translate(4805.81 3787.18)"/><path class="cls-4" d="M-4471.64-3741.48a1.41,1.41,0,0,0,1.6,1.58,3.06,3.06,0,0,0,1.37-.33v1.21a3.59,3.59,0,0,1-1.7.4,2.41,2.41,0,0,1-2.68-2.68V-3747h-1.32v-1.25h1.32v-2.86h1.41v2.86h3v1.25h-3Z" transform="translate(4805.81 3787.18)"/><path class="cls-4" d="M-4462.08-3738.56a4.86,4.86,0,0,1-4.92-4.94,4.91,4.91,0,0,1,4.95-5,4.88,4.88,0,0,1,4.94,4.93A4.93,4.93,0,0,1-4462.08-3738.56Zm0-8.66a3.48,3.48,0,0,0-3.47,3.68,3.57,3.57,0,0,0,3.5,3.71,3.49,3.49,0,0,0,3.49-3.67A3.58,3.58,0,0,0-4462.08-3747.22Z" transform="translate(4805.81 3787.18)"/><path class="cls-4" d="M-4453.15-3738.79h-1.41v-9.48h1.41v2.48a4,4,0,0,1,3.87-2.64v1.52h-.11c-2.07,0-3.76,1.49-3.76,4.35Z" transform="translate(4805.81 3787.18)"/><path class="cls-4" d="M-4429.63-3738.79v-1.9a4.28,4.28,0,0,1-3.63,2.11,4.63,4.63,0,0,1-4.53-4.94,4.65,4.65,0,0,1,4.53-4.95,4.27,4.27,0,0,1,3.63,2v-5.72h1.41v13.38Zm-3.38-8.41a3.34,3.34,0,0,0-3.33,3.66,3.42,3.42,0,0,0,3.33,3.69,3.54,3.54,0,0,0,3.43-3.69A3.52,3.52,0,0,0-4433-3747.2Z" transform="translate(4805.81 3787.18)"/><path class="cls-4" d="M-4420.88-3739.79a4,4,0,0,0,3-1.34l.88.79a4.92,4.92,0,0,1-3.91,1.78,4.72,4.72,0,0,1-4.73-5,4.68,4.68,0,0,1,4.55-4.95c2.8,0,4.42,2.24,4.42,5a3.63,3.63,0,0,1,0,.44h-7.52A3.33,3.33,0,0,0-4420.88-3739.79Zm2.77-4.26c-.15-1.72-1.14-3.23-3-3.23a3.27,3.27,0,0,0-3.08,3.23Z" transform="translate(4805.81 3787.18)"/><path class="cls-4" d="M-4404.19-3738.79v-13.38h1.42v13.38Z" transform="translate(4805.81 3787.18)"/><path class="cls-4" d="M-4398.94-3746.45l-.42-1.16a7.9,7.9,0,0,1,3.45-.79c2.58,0,4,1.32,4,3.82v5.79h-1.36v-1.43a4.14,4.14,0,0,1-3.43,1.64c-1.76,0-3.54-1-3.54-3s1.65-3.09,4.06-3.09a9.93,9.93,0,0,1,2.91.41v-.33c0-1.71-1-2.59-2.82-2.59A6.65,6.65,0,0,0-4398.94-3746.45Zm.16,4.84c0,1.21,1.1,1.91,2.39,1.91,1.74,0,3.17-1.07,3.17-2.57v-.92a10,10,0,0,0-2.79-.4C-4397.79-3743.59-4398.78-3742.82-4398.78-3741.61Z" transform="translate(4805.81 3787.18)"/><path class="cls-4" d="M-4374-3748.23v1.21h-3v8.23h-1.41V-3747h-1.3v-1.23h1.3v-.82c0-2.08,1.05-3.18,2.86-3.18a4.41,4.41,0,0,1,1.56.24v1.23a4.6,4.6,0,0,0-1.37-.24c-1.11,0-1.66.66-1.66,2v.77Z" transform="translate(4805.81 3787.18)"/><path class="cls-4" d="M-4372-3746.45l-.43-1.16a8,8,0,0,1,3.45-.79c2.59,0,4,1.32,4,3.82v5.79h-1.36v-1.43a4.14,4.14,0,0,1-3.43,1.64c-1.76,0-3.54-1-3.54-3s1.65-3.09,4.05-3.09a10,10,0,0,1,2.92.41v-.33c0-1.71-1-2.59-2.82-2.59A6.65,6.65,0,0,0-4372-3746.45Zm.16,4.84c0,1.21,1.1,1.91,2.38,1.91,1.75,0,3.18-1.07,3.18-2.57v-.92a10,10,0,0,0-2.79-.4C-4370.82-3743.59-4371.81-3742.82-4371.81-3741.61Z" transform="translate(4805.81 3787.18)"/><path class="cls-4" d="M-4351-3748.47c2.19,0,3.53,1.47,3.53,3.82v5.86h-1.42v-5.53c0-1.84-.91-2.87-2.46-2.87a2.66,2.66,0,0,0-2.62,2.94v5.46h-1.39v-5.57c0-1.78-.94-2.83-2.44-2.83a2.75,2.75,0,0,0-2.64,3v5.41h-1.41v-9.48h1.41v1.6a3.45,3.45,0,0,1,3.06-1.8,3.24,3.24,0,0,1,3.05,1.89A3.75,3.75,0,0,1-4351-3748.47Z" transform="translate(4805.81 3787.18)"/><path class="cls-4" d="M-4340.13-3738.56a4.87,4.87,0,0,1-4.92-4.94,4.91,4.91,0,0,1,4.95-5,4.88,4.88,0,0,1,4.94,4.93A4.93,4.93,0,0,1-4340.13-3738.56Zm0-8.66a3.48,3.48,0,0,0-3.47,3.68,3.57,3.57,0,0,0,3.5,3.71,3.49,3.49,0,0,0,3.49-3.67A3.58,3.58,0,0,0-4340.13-3747.22Z" transform="translate(4805.81 3787.18)"/><path class="cls-4" d="M-4329.47-3738.6a6.48,6.48,0,0,1-3.93-1.4l.72-1a5.52,5.52,0,0,0,3.28,1.21c1.14,0,2-.59,2-1.51v0c0-1-1.12-1.33-2.36-1.67-1.49-.43-3.14-.94-3.14-2.68v0c0-1.63,1.36-2.71,3.23-2.71a6.5,6.5,0,0,1,3.41,1l-.64,1.07a5.36,5.36,0,0,0-2.81-.92c-1.12,0-1.83.59-1.83,1.38v0c0,.9,1.17,1.25,2.44,1.63,1.46.44,3,1,3,2.72v0C-4326.1-3739.65-4327.59-3738.6-4329.47-3738.6Z" transform="translate(4805.81 3787.18)"/><path class="cls-4" d="M-4322.93-3746.45l-.42-1.16a7.94,7.94,0,0,1,3.45-.79c2.59,0,4,1.32,4,3.82v5.79h-1.36v-1.43a4.14,4.14,0,0,1-3.43,1.64c-1.76,0-3.54-1-3.54-3s1.65-3.09,4-3.09a10.06,10.06,0,0,1,2.92.41v-.33c0-1.71-1.05-2.59-2.83-2.59A6.65,6.65,0,0,0-4322.93-3746.45Zm.17,4.84c0,1.21,1.1,1.91,2.38,1.91,1.75,0,3.18-1.07,3.18-2.57v-.92a10,10,0,0,0-2.79-.4C-4321.77-3743.59-4322.76-3742.82-4322.76-3741.61Z" transform="translate(4805.81 3787.18)"/><path class="cls-4" d="M-4765.57-3716.55a4.86,4.86,0,0,1-4.92-4.94,4.91,4.91,0,0,1,4.95-5,4.88,4.88,0,0,1,4.94,4.94A4.93,4.93,0,0,1-4765.57-3716.55Zm0-8.66a3.48,3.48,0,0,0-3.47,3.69,3.56,3.56,0,0,0,3.5,3.7,3.49,3.49,0,0,0,3.49-3.67A3.59,3.59,0,0,0-4765.57-3725.21Z" transform="translate(4805.81 3787.18)"/><path class="cls-4" d="M-4753-3716.57a4.28,4.28,0,0,1-3.63-2v1.82H-4758v-13.39h1.41v5.81a4.26,4.26,0,0,1,3.63-2.11,4.64,4.64,0,0,1,4.53,4.94A4.65,4.65,0,0,1-4753-3716.57Zm-.26-8.62a3.53,3.53,0,0,0-3.43,3.67,3.53,3.53,0,0,0,3.43,3.68,3.35,3.35,0,0,0,3.34-3.67A3.42,3.42,0,0,0-4753.27-3725.19Z" transform="translate(4805.81 3787.18)"/><path class="cls-4" d="M-4744.46-3716.77h-1.41v-9.49h1.41v2.48a4.06,4.06,0,0,1,3.87-2.64v1.52h-.11c-2.07,0-3.76,1.49-3.76,4.35Z" transform="translate(4805.81 3787.18)"/><path class="cls-4" d="M-4738.35-3724.44l-.43-1.16a8,8,0,0,1,3.45-.78c2.59,0,4,1.32,4,3.81v5.8h-1.36v-1.43a4.16,4.16,0,0,1-3.43,1.63c-1.76,0-3.54-1-3.54-3s1.65-3.08,4.05-3.08a10,10,0,0,1,2.92.4v-.33c0-1.71-1.05-2.59-2.82-2.59A6.65,6.65,0,0,0-4738.35-3724.44Zm.16,4.84c0,1.21,1.1,1.91,2.39,1.91,1.74,0,3.17-1.06,3.17-2.57v-.92a10,10,0,0,0-2.79-.4C-4737.2-3721.58-4738.19-3720.81-4738.19-3719.6Z" transform="translate(4805.81 3787.18)"/><path class="cls-4" d="M-4719.75-3727.47h.68v1.93h-1.69v-1.65a2.24,2.24,0,0,1,2-2.51l.22.64C-4719.44-3728.73-4719.8-3728.26-4719.75-3727.47Zm3.67,0h.66v1.93h-1.67v-1.65a2.24,2.24,0,0,1,2-2.51l.22.64C-4715.77-3728.73-4716.13-3728.26-4716.08-3727.47Z" transform="translate(4805.81 3787.18)"/><path class="cls-4" d="M-4712.1-3729.61h1.45v11.5h7.23v1.34h-8.68Z" transform="translate(4805.81 3787.18)"/><path class="cls-4" d="M-4700.43-3724.44l-.42-1.16a7.89,7.89,0,0,1,3.44-.78c2.59,0,4,1.32,4,3.81v5.8h-1.36v-1.43a4.16,4.16,0,0,1-3.43,1.63c-1.76,0-3.54-1-3.54-3s1.65-3.08,4.05-3.08a10,10,0,0,1,2.92.4v-.33c0-1.71-1-2.59-2.82-2.59A6.65,6.65,0,0,0-4700.43-3724.44Zm.16,4.84c0,1.21,1.1,1.91,2.39,1.91,1.74,0,3.17-1.06,3.17-2.57v-.92a10,10,0,0,0-2.79-.4C-4699.28-3721.58-4700.27-3720.81-4700.27-3719.6Z" transform="translate(4805.81 3787.18)"/><path class="cls-4" d="M-4677.88-3716.77h-4.46v-12.84h4.46c4,0,6.82,2.77,6.82,6.4S-4673.85-3716.77-4677.88-3716.77Zm0-11.5h-3v10.16h3a5,5,0,0,0,5.32-5.06A5,5,0,0,0-4677.88-3728.27Z" transform="translate(4805.81 3787.18)"/><path class="cls-4" d="M-4668.2-3728.33v-1.56h1.62v1.56Zm.09,11.56v-9.49h1.42v9.49Z" transform="translate(4805.81 3787.18)"/><path class="cls-4" d="M-4656.39-3726.26h1.53l-4.13,9.56h-1.25l-4.11-9.56h1.56l3.19,7.87Z" transform="translate(4805.81 3787.18)"/><path class="cls-4" d="M-4652.61-3728.33v-1.56h1.62v1.56Zm.1,11.56v-9.49h1.41v9.49Z" transform="translate(4805.81 3787.18)"/><path class="cls-4" d="M-4646.41-3716.77h-1.41v-9.49h1.41v1.65a3.62,3.62,0,0,1,3.25-1.85,3.46,3.46,0,0,1,3.63,3.8v5.89h-1.41v-5.54c0-1.76-1-2.86-2.62-2.86a2.79,2.79,0,0,0-2.85,3Z" transform="translate(4805.81 3787.18)"/><path class="cls-4" d="M-4636-3724.44l-.42-1.16a7.9,7.9,0,0,1,3.45-.78c2.58,0,4,1.32,4,3.81v5.8h-1.36v-1.43a4.16,4.16,0,0,1-3.43,1.63c-1.76,0-3.54-1-3.54-3s1.66-3.08,4.06-3.08a10,10,0,0,1,2.91.4v-.33c0-1.71-1-2.59-2.82-2.59A6.65,6.65,0,0,0-4636-3724.44Zm.17,4.84c0,1.21,1.1,1.91,2.38,1.91,1.74,0,3.17-1.06,3.17-2.57v-.92a9.92,9.92,0,0,0-2.79-.4C-4634.81-3721.58-4635.8-3720.81-4635.8-3719.6Z" transform="translate(4805.81 3787.18)"/><path class="cls-4" d="M-4612-3716.55a6.42,6.42,0,0,1-6.44-6.62,6.47,6.47,0,0,1,6.5-6.66,6.66,6.66,0,0,1,5,2l-1,1.07a5.56,5.56,0,0,0-4-1.76,5,5,0,0,0-5,5.28,5.07,5.07,0,0,0,5,5.32,5.55,5.55,0,0,0,4.14-1.86l1,.94A6.69,6.69,0,0,1-4612-3716.55Z" transform="translate(4805.81 3787.18)"/><path class="cls-4" d="M-4600.43-3716.55a4.86,4.86,0,0,1-4.92-4.94,4.91,4.91,0,0,1,5-5,4.88,4.88,0,0,1,4.94,4.94A4.93,4.93,0,0,1-4600.43-3716.55Zm0-8.66a3.48,3.48,0,0,0-3.47,3.69,3.56,3.56,0,0,0,3.5,3.7,3.49,3.49,0,0,0,3.49-3.67A3.58,3.58,0,0,0-4600.43-3725.21Z" transform="translate(4805.81 3787.18)"/><path class="cls-4" d="M-4582-3726.46c2.18,0,3.52,1.47,3.52,3.82v5.87h-1.42v-5.54c0-1.84-.91-2.86-2.45-2.86a2.66,2.66,0,0,0-2.63,2.93v5.47h-1.39v-5.58c0-1.78-.94-2.82-2.44-2.82a2.75,2.75,0,0,0-2.64,3v5.41h-1.41v-9.49h1.41v1.6a3.45,3.45,0,0,1,3.06-1.8,3.24,3.24,0,0,1,3,1.89A3.78,3.78,0,0,1-4582-3726.46Z" transform="translate(4805.81 3787.18)"/><path class="cls-4" d="M-4571.29-3717.78a3.92,3.92,0,0,0,3-1.34l.88.79a4.9,4.9,0,0,1-3.9,1.78,4.72,4.72,0,0,1-4.74-5,4.68,4.68,0,0,1,4.55-4.95c2.81,0,4.42,2.24,4.42,5a3.55,3.55,0,0,1,0,.44h-7.52A3.33,3.33,0,0,0-4571.29-3717.78Zm2.77-4.26c-.14-1.72-1.14-3.23-3-3.23a3.29,3.29,0,0,0-3.09,3.23Z" transform="translate(4805.81 3787.18)"/><path class="cls-4" d="M-4557-3716.77v-1.91a4.26,4.26,0,0,1-3.63,2.11,4.64,4.64,0,0,1-4.53-4.94,4.66,4.66,0,0,1,4.53-4.95,4.28,4.28,0,0,1,3.63,2v-5.72h1.41v13.39Zm-3.37-8.42a3.35,3.35,0,0,0-3.34,3.67,3.42,3.42,0,0,0,3.34,3.68,3.53,3.53,0,0,0,3.43-3.68A3.53,3.53,0,0,0-4560.37-3725.19Z" transform="translate(4805.81 3787.18)"/><path class="cls-4" d="M-4552.39-3728.33v-1.56h1.61v1.56Zm.09,11.56v-9.49h1.41v9.49Z" transform="translate(4805.81 3787.18)"/><path class="cls-4" d="M-4547.06-3724.44l-.42-1.16a7.93,7.93,0,0,1,3.45-.78c2.59,0,4,1.32,4,3.81v5.8h-1.35v-1.43a4.16,4.16,0,0,1-3.43,1.63c-1.76,0-3.54-1-3.54-3s1.65-3.08,4-3.08a10.09,10.09,0,0,1,2.92.4v-.33c0-1.71-1-2.59-2.83-2.59A6.65,6.65,0,0,0-4547.06-3724.44Zm.17,4.84c0,1.21,1.1,1.91,2.38,1.91,1.75,0,3.18-1.06,3.18-2.57v-.92a10,10,0,0,0-2.79-.4C-4545.9-3721.58-4546.89-3720.81-4546.89-3719.6Z" transform="translate(4805.81 3787.18)"/><path class="cls-4" d="M-4536.4-3727.69h-.66v-1.92h1.69v1.65a2.25,2.25,0,0,1-2,2.51l-.22-.64C-4536.71-3726.42-4536.33-3726.9-4536.4-3727.69Zm3.67,0h-.66v-1.92h1.67v1.65a2.25,2.25,0,0,1-2,2.51l-.22-.64C-4533-3726.42-4532.66-3726.9-4532.73-3727.69Z" transform="translate(4805.81 3787.18)"/><path class="cls-4" d="M-4528.33-3716.77h-.66v-1.93h1.69v1.65a2.25,2.25,0,0,1-2,2.51l-.22-.64C-4528.64-3715.51-4528.26-3716-4528.33-3716.77Z" transform="translate(4805.81 3787.18)"/><path class="cls-4" d="M-4515.13-3716.77h-1.42v-13.39h1.42v5.55a3.59,3.59,0,0,1,3.24-1.85,3.46,3.46,0,0,1,3.63,3.8v5.89h-1.41v-5.54c0-1.76-.95-2.86-2.62-2.86a2.79,2.79,0,0,0-2.84,3Z" transform="translate(4805.81 3787.18)"/><path class="cls-4" d="M-4498.52-3726.26h1.4v9.49h-1.4v-1.65a3.61,3.61,0,0,1-3.24,1.85,3.46,3.46,0,0,1-3.63-3.8v-5.89h1.41v5.54c0,1.76.95,2.86,2.62,2.86a2.79,2.79,0,0,0,2.84-3Z" transform="translate(4805.81 3787.18)"/><path class="cls-4" d="M-4488.9-3716.57a4.31,4.31,0,0,1-3.64-2v1.82h-1.41v-13.39h1.41v5.81a4.26,4.26,0,0,1,3.64-2.11,4.64,4.64,0,0,1,4.53,4.94A4.65,4.65,0,0,1-4488.9-3716.57Zm-.26-8.62a3.53,3.53,0,0,0-3.43,3.67,3.53,3.53,0,0,0,3.43,3.68,3.35,3.35,0,0,0,3.34-3.67A3.42,3.42,0,0,0-4489.16-3725.19Z" transform="translate(4805.81 3787.18)"/><path class="cls-4" d="M-4481.73-3728.33v-1.56h1.61v1.56Zm.09,11.56v-9.49h1.41v9.49Z" transform="translate(4805.81 3787.18)"/><path class="cls-4" d="M-4472.76-3717.78a3.92,3.92,0,0,0,3-1.34l.88.79a4.92,4.92,0,0,1-3.91,1.78,4.72,4.72,0,0,1-4.73-5,4.68,4.68,0,0,1,4.55-4.95c2.8,0,4.42,2.24,4.42,5a3.55,3.55,0,0,1,0,.44h-7.52A3.33,3.33,0,0,0-4472.76-3717.78Zm2.77-4.26c-.15-1.72-1.14-3.23-3-3.23a3.27,3.27,0,0,0-3.08,3.23Z" transform="translate(4805.81 3787.18)"/><path class="cls-4" d="M-4464.67-3716.77h-1.42v-9.49h1.42v2.48a4.05,4.05,0,0,1,3.87-2.64v1.52h-.11c-2.08,0-3.76,1.49-3.76,4.35Z" transform="translate(4805.81 3787.18)"/><path class="cls-4" d="M-4458.56-3724.44l-.43-1.16a8,8,0,0,1,3.45-.78c2.59,0,4,1.32,4,3.81v5.8h-1.36v-1.43a4.16,4.16,0,0,1-3.43,1.63c-1.76,0-3.54-1-3.54-3s1.65-3.08,4.05-3.08a10,10,0,0,1,2.92.4v-.33c0-1.71-1.05-2.59-2.83-2.59A6.64,6.64,0,0,0-4458.56-3724.44Zm.16,4.84c0,1.21,1.1,1.91,2.38,1.91,1.75,0,3.18-1.06,3.18-2.57v-.92a10,10,0,0,0-2.79-.4C-4457.41-3721.58-4458.4-3720.81-4458.4-3719.6Z" transform="translate(4805.81 3787.18)"/><path class="cls-4" d="M-4435.67-3716.57a4.3,4.3,0,0,1-3.63-2v4.75h-1.41v-12.42h1.41v1.91a4.26,4.26,0,0,1,3.63-2.11,4.63,4.63,0,0,1,4.53,4.94A4.65,4.65,0,0,1-4435.67-3716.57Zm-.25-8.62a3.53,3.53,0,0,0-3.43,3.67,3.53,3.53,0,0,0,3.43,3.68,3.35,3.35,0,0,0,3.33-3.67A3.42,3.42,0,0,0-4435.92-3725.19Z" transform="translate(4805.81 3787.18)"/><path class="cls-4" d="M-4424.2-3716.55a4.86,4.86,0,0,1-4.92-4.94,4.91,4.91,0,0,1,4.95-5,4.88,4.88,0,0,1,4.94,4.94A4.93,4.93,0,0,1-4424.2-3716.55Zm0-8.66a3.48,3.48,0,0,0-3.47,3.69,3.56,3.56,0,0,0,3.5,3.7,3.49,3.49,0,0,0,3.49-3.67A3.58,3.58,0,0,0-4424.2-3725.21Z" transform="translate(4805.81 3787.18)"/><path class="cls-4" d="M-4409.07-3716.77v-1.91a4.26,4.26,0,0,1-3.63,2.11,4.63,4.63,0,0,1-4.53-4.94,4.66,4.66,0,0,1,4.53-4.95,4.28,4.28,0,0,1,3.63,2v-5.72h1.41v13.39Zm-3.37-8.42a3.35,3.35,0,0,0-3.34,3.67,3.42,3.42,0,0,0,3.34,3.68,3.53,3.53,0,0,0,3.42-3.68A3.52,3.52,0,0,0-4412.44-3725.19Z" transform="translate(4805.81 3787.18)"/><path class="cls-4" d="M-4404.47-3728.33v-1.56h1.62v1.56Zm.1,11.56v-9.49h1.41v9.49Z" transform="translate(4805.81 3787.18)"/><path class="cls-4" d="M-4392.07-3716.77v-1.91a4.26,4.26,0,0,1-3.63,2.11,4.64,4.64,0,0,1-4.53-4.94,4.66,4.66,0,0,1,4.53-4.95,4.28,4.28,0,0,1,3.63,2v-5.72h1.42v13.39Zm-3.37-8.42a3.35,3.35,0,0,0-3.34,3.67,3.42,3.42,0,0,0,3.34,3.68,3.53,3.53,0,0,0,3.43-3.68A3.53,3.53,0,0,0-4395.44-3725.19Z" transform="translate(4805.81 3787.18)"/><path class="cls-4" d="M-4383.17-3716.55a4.87,4.87,0,0,1-4.92-4.94,4.92,4.92,0,0,1,5-5,4.88,4.88,0,0,1,4.93,4.94A4.93,4.93,0,0,1-4383.17-3716.55Zm0-8.66a3.49,3.49,0,0,0-3.47,3.69,3.57,3.57,0,0,0,3.51,3.7,3.49,3.49,0,0,0,3.48-3.67A3.58,3.58,0,0,0-4383.17-3725.21Z" transform="translate(4805.81 3787.18)"/><path class="cls-4" d="M-4360.84-3726.26h1.52l-4.13,9.56h-1.24l-4.11-9.56h1.56l3.19,7.87Z" transform="translate(4805.81 3787.18)"/><path class="cls-4" d="M-4357.06-3728.33v-1.56h1.61v1.56Zm.09,11.56v-9.49h1.41v9.49Z" transform="translate(4805.81 3787.18)"/><path class="cls-4" d="M-4349.14-3716.59a6.5,6.5,0,0,1-3.92-1.39l.71-1a5.57,5.57,0,0,0,3.29,1.21c1.13,0,2-.59,2-1.51v0c0-1-1.12-1.32-2.37-1.67-1.48-.42-3.13-.94-3.13-2.68v0c0-1.63,1.35-2.71,3.22-2.71a6.53,6.53,0,0,1,3.42,1l-.65,1.07a5.35,5.35,0,0,0-2.8-.92c-1.12,0-1.84.59-1.84,1.38v0c0,.9,1.18,1.25,2.44,1.64,1.47.44,3.05,1,3.05,2.71v0C-4345.76-3717.64-4347.25-3716.59-4349.14-3716.59Z" transform="translate(4805.81 3787.18)"/><path class="cls-4" d="M-4343.1-3728.33v-1.56h1.61v1.56Zm.09,11.56v-9.49h1.41v9.49Z" transform="translate(4805.81 3787.18)"/><path class="cls-4" d="M-4336.41-3719.47a1.4,1.4,0,0,0,1.6,1.58,2.93,2.93,0,0,0,1.37-.33v1.21a3.59,3.59,0,0,1-1.7.4,2.41,2.41,0,0,1-2.68-2.68V-3725h-1.32v-1.25h1.32v-2.86h1.41v2.86h3v1.25h-3Z" transform="translate(4805.81 3787.18)"/><path class="cls-4" d="M-4330.36-3724.44l-.42-1.16a8,8,0,0,1,3.45-.78c2.59,0,4,1.32,4,3.81v5.8h-1.36v-1.43a4.16,4.16,0,0,1-3.43,1.63c-1.76,0-3.54-1-3.54-3s1.65-3.08,4.05-3.08a10,10,0,0,1,2.92.4v-.33c0-1.71-1.05-2.59-2.83-2.59A6.69,6.69,0,0,0-4330.36-3724.44Zm.17,4.84c0,1.21,1.1,1.91,2.38,1.91,1.75,0,3.18-1.06,3.18-2.57v-.92a10,10,0,0,0-2.79-.4C-4329.2-3721.58-4330.19-3720.81-4330.19-3719.6Z" transform="translate(4805.81 3787.18)"/><path class="cls-4" d="M-4318.87-3716.77h-1.41v-9.49h1.41v2.48a4.05,4.05,0,0,1,3.87-2.64v1.52h-.11c-2.08,0-3.76,1.49-3.76,4.35Z" transform="translate(4805.81 3787.18)"/><path class="cls-4" d="M-4760-3707.6h1.56l-5.52,12.93h-1.28l-5.52-12.93h1.61l4.57,11.06Z" transform="translate(4805.81 3787.18)"/><path class="cls-4" d="M-4753.25-3695.77a3.92,3.92,0,0,0,3-1.34l.88.79a4.9,4.9,0,0,1-3.9,1.78,4.72,4.72,0,0,1-4.74-4.95,4.69,4.69,0,0,1,4.55-5c2.81,0,4.42,2.24,4.42,5a3.55,3.55,0,0,1,0,.44h-7.52A3.33,3.33,0,0,0-4753.25-3695.77Zm2.77-4.26c-.15-1.72-1.14-3.22-3-3.22a3.27,3.27,0,0,0-3.09,3.22Z" transform="translate(4805.81 3787.18)"/><path class="cls-4" d="M-4745.16-3694.76h-1.41v-9.48h1.41v1.65a3.61,3.61,0,0,1,3.25-1.86,3.46,3.46,0,0,1,3.63,3.8v5.89h-1.41v-5.54c0-1.76-1-2.86-2.63-2.86a2.79,2.79,0,0,0-2.84,3Z" transform="translate(4805.81 3787.18)"/><path class="cls-4" d="M-4728.54-3704.24h1.39v9.48h-1.39v-1.65a3.62,3.62,0,0,1-3.25,1.85,3.46,3.46,0,0,1-3.63-3.8v-5.88h1.41v5.53c0,1.77,1,2.87,2.63,2.87a2.81,2.81,0,0,0,2.84-3Z" transform="translate(4805.81 3787.18)"/><path class="cls-4" d="M-4720.84-3694.58a6.52,6.52,0,0,1-3.92-1.39l.71-1a5.57,5.57,0,0,0,3.29,1.21c1.13,0,2-.59,2-1.5v0c0-1-1.12-1.32-2.37-1.67-1.48-.42-3.13-.94-3.13-2.68v0c0-1.63,1.35-2.71,3.23-2.71a6.45,6.45,0,0,1,3.41,1l-.65,1.06a5.32,5.32,0,0,0-2.8-.92c-1.12,0-1.84.59-1.84,1.38v0c0,.9,1.18,1.25,2.44,1.64,1.47.44,3.05,1,3.05,2.71v0C-4717.46-3695.62-4718.95-3694.58-4720.84-3694.58Z" transform="translate(4805.81 3787.18)"/><path class="cls-4" d="M-4714.34-3694.76h-.66v-1.93h1.68v1.65a2.26,2.26,0,0,1-2,2.52l-.22-.65C-4714.65-3693.5-4714.27-3694-4714.34-3694.76Z" transform="translate(4805.81 3787.18)"/><path class="cls-4" d="M-4692.14-3694.76v-1.91a4.26,4.26,0,0,1-3.63,2.11,4.63,4.63,0,0,1-4.53-4.93,4.66,4.66,0,0,1,4.53-5,4.3,4.3,0,0,1,3.63,2v-5.72h1.41v13.39Zm-3.38-8.42a3.35,3.35,0,0,0-3.33,3.67,3.42,3.42,0,0,0,3.33,3.68,3.53,3.53,0,0,0,3.43-3.68A3.53,3.53,0,0,0-4695.52-3703.18Z" transform="translate(4805.81 3787.18)"/><path class="cls-4" d="M-4683.39-3695.77a3.92,3.92,0,0,0,3-1.34l.88.79a4.92,4.92,0,0,1-3.91,1.78,4.72,4.72,0,0,1-4.73-4.95,4.68,4.68,0,0,1,4.55-5c2.8,0,4.42,2.24,4.42,5a3.55,3.55,0,0,1,0,.44h-7.52A3.33,3.33,0,0,0-4683.39-3695.77Zm2.77-4.26c-.15-1.72-1.14-3.22-3-3.22a3.26,3.26,0,0,0-3.08,3.22Z" transform="translate(4805.81 3787.18)"/><path class="cls-4" d="M-4666.09-3706.32v-1.56h1.62v1.56Zm.09,11.56v-9.48h1.42v9.48Z" transform="translate(4805.81 3787.18)"/><path class="cls-4" d="M-4659.89-3694.76h-1.41v-9.48h1.41v1.65a3.61,3.61,0,0,1,3.25-1.86,3.46,3.46,0,0,1,3.63,3.8v5.89h-1.41v-5.54c0-1.76-1-2.86-2.63-2.86a2.79,2.79,0,0,0-2.84,3Z" transform="translate(4805.81 3787.18)"/><path class="cls-4" d="M-4639.14-3704.45c2.18,0,3.52,1.47,3.52,3.82v5.87H-4637v-5.54c0-1.84-.92-2.86-2.46-2.86a2.66,2.66,0,0,0-2.63,2.93v5.47h-1.39v-5.58c0-1.78-.93-2.82-2.44-2.82a2.75,2.75,0,0,0-2.64,3v5.41H-4650v-9.48h1.41v1.59a3.47,3.47,0,0,1,3.06-1.8,3.24,3.24,0,0,1,3.05,1.89A3.8,3.8,0,0,1-4639.14-3704.45Z" transform="translate(4805.81 3787.18)"/><path class="cls-4" d="M-4628.38-3695.77a3.9,3.9,0,0,0,3-1.34l.88.79a4.9,4.9,0,0,1-3.9,1.78,4.71,4.71,0,0,1-4.73-4.95,4.68,4.68,0,0,1,4.54-5c2.81,0,4.42,2.24,4.42,5,0,.13,0,.27,0,.44h-7.52A3.32,3.32,0,0,0-4628.38-3695.77Zm2.77-4.26c-.14-1.72-1.13-3.22-3-3.22a3.26,3.26,0,0,0-3.08,3.22Z" transform="translate(4805.81 3787.18)"/><path class="cls-4" d="M-4614.09-3694.76v-1.91a4.26,4.26,0,0,1-3.63,2.11,4.63,4.63,0,0,1-4.53-4.93,4.67,4.67,0,0,1,4.53-5,4.28,4.28,0,0,1,3.63,2v-5.72h1.41v13.39Zm-3.37-8.42a3.35,3.35,0,0,0-3.34,3.67,3.42,3.42,0,0,0,3.34,3.68,3.53,3.53,0,0,0,3.43-3.68A3.53,3.53,0,0,0-4617.46-3703.18Z" transform="translate(4805.81 3787.18)"/><path class="cls-4" d="M-4609.48-3706.32v-1.56h1.61v1.56Zm.09,11.56v-9.48h1.41v9.48Z" transform="translate(4805.81 3787.18)"/><path class="cls-4" d="M-4604.15-3702.43l-.42-1.15a7.83,7.83,0,0,1,3.45-.79c2.59,0,4,1.32,4,3.81v5.8h-1.36v-1.43a4.16,4.16,0,0,1-3.43,1.63c-1.76,0-3.54-1-3.54-3s1.65-3.08,4.05-3.08a10,10,0,0,1,2.92.4v-.33c0-1.71-1.05-2.59-2.83-2.59A6.69,6.69,0,0,0-4604.15-3702.43Zm.17,4.84c0,1.21,1.1,1.91,2.38,1.91,1.75,0,3.18-1.06,3.18-2.57v-.91a9.64,9.64,0,0,0-2.79-.41C-4603-3699.57-4604-3698.8-4604-3697.59Z" transform="translate(4805.81 3787.18)"/><path class="cls-4" d="M-4592.26-3697.46a1.4,1.4,0,0,0,1.6,1.58,2.93,2.93,0,0,0,1.37-.33v1.21a3.5,3.5,0,0,1-1.7.4,2.41,2.41,0,0,1-2.68-2.67V-3703H-4595v-1.24h1.32v-2.87h1.41v2.87h3v1.24h-3Z" transform="translate(4805.81 3787.18)"/><path class="cls-4" d="M-4582.7-3694.54a4.86,4.86,0,0,1-4.92-4.94,4.91,4.91,0,0,1,4.95-5,4.88,4.88,0,0,1,4.94,4.94A4.93,4.93,0,0,1-4582.7-3694.54Zm0-8.66a3.48,3.48,0,0,0-3.47,3.69,3.56,3.56,0,0,0,3.5,3.7,3.49,3.49,0,0,0,3.49-3.67A3.58,3.58,0,0,0-4582.7-3703.2Z" transform="translate(4805.81 3787.18)"/><path class="cls-4" d="M-4560.32-3694.54a4.88,4.88,0,0,1-4.86-4.94,4.9,4.9,0,0,1,4.86-5,4.91,4.91,0,0,1,3.8,1.69l-.94,1a3.81,3.81,0,0,0-2.88-1.43,3.51,3.51,0,0,0-3.39,3.69,3.54,3.54,0,0,0,3.49,3.7,3.88,3.88,0,0,0,2.89-1.41l.9.84A4.86,4.86,0,0,1-4560.32-3694.54Z" transform="translate(4805.81 3787.18)"/><path class="cls-4" d="M-4552.71-3694.76h-1.41v-9.48h1.41v2.47a4.07,4.07,0,0,1,3.87-2.64v1.52h-.11c-2.07,0-3.76,1.49-3.76,4.35Z" transform="translate(4805.81 3787.18)"/><path class="cls-4" d="M-4542.91-3695.77a3.92,3.92,0,0,0,3-1.34l.88.79a4.9,4.9,0,0,1-3.91,1.78,4.72,4.72,0,0,1-4.73-4.95,4.69,4.69,0,0,1,4.55-5c2.81,0,4.42,2.24,4.42,5a3.55,3.55,0,0,1,0,.44h-7.52A3.33,3.33,0,0,0-4542.91-3695.77Zm2.77-4.26c-.15-1.72-1.14-3.22-3-3.22a3.26,3.26,0,0,0-3.08,3.22Z" transform="translate(4805.81 3787.18)"/><path class="cls-4" d="M-4532-3695.77a3.92,3.92,0,0,0,3-1.34l.88.79a4.92,4.92,0,0,1-3.91,1.78,4.72,4.72,0,0,1-4.73-4.95,4.69,4.69,0,0,1,4.55-5c2.8,0,4.42,2.24,4.42,5a3.55,3.55,0,0,1,0,.44h-7.52A3.33,3.33,0,0,0-4532-3695.77Zm2.77-4.26c-.15-1.72-1.14-3.22-3-3.22a3.26,3.26,0,0,0-3.08,3.22Z" transform="translate(4805.81 3787.18)"/><path class="cls-4" d="M-4524-3694.76h-1.41v-9.48h1.41v2.47a4.05,4.05,0,0,1,3.87-2.64v1.52h-.11c-2.07,0-3.76,1.49-3.76,4.35Z" transform="translate(4805.81 3787.18)"/><path class="cls-4" d="M-4517.82-3694.76v-9.48h1.41v9.48Zm.13-10.92,1.74-2.65,1.47.67-2.07,2Z" transform="translate(4805.81 3787.18)"/><path class="cls-4" d="M-4512.57-3702.43l-.42-1.15a7.75,7.75,0,0,1,3.44-.79c2.59,0,4,1.32,4,3.81v5.8h-1.36v-1.43a4.16,4.16,0,0,1-3.43,1.63c-1.76,0-3.54-1-3.54-3s1.65-3.08,4.06-3.08a10,10,0,0,1,2.91.4v-.33c0-1.71-1-2.59-2.82-2.59A6.65,6.65,0,0,0-4512.57-3702.43Zm.16,4.84c0,1.21,1.1,1.91,2.39,1.91,1.74,0,3.17-1.06,3.17-2.57v-.91a9.58,9.58,0,0,0-2.79-.41C-4511.42-3699.57-4512.41-3698.8-4512.41-3697.59Z" transform="translate(4805.81 3787.18)"/><path class="cls-4" d="M-4487.73-3695.77a3.92,3.92,0,0,0,3-1.34l.88.79a4.9,4.9,0,0,1-3.91,1.78,4.72,4.72,0,0,1-4.73-4.95,4.69,4.69,0,0,1,4.55-5c2.81,0,4.42,2.24,4.42,5a3.55,3.55,0,0,1,0,.44h-7.52A3.33,3.33,0,0,0-4487.73-3695.77Zm2.77-4.26c-.15-1.72-1.14-3.22-3-3.22a3.27,3.27,0,0,0-3.08,3.22Z" transform="translate(4805.81 3787.18)"/><path class="cls-4" d="M-4477.92-3694.58a6.52,6.52,0,0,1-3.92-1.39l.71-1a5.57,5.57,0,0,0,3.29,1.21c1.13,0,2-.59,2-1.5v0c0-1-1.12-1.32-2.37-1.67-1.48-.42-3.13-.94-3.13-2.68v0c0-1.63,1.36-2.71,3.23-2.71a6.42,6.42,0,0,1,3.41,1l-.64,1.06a5.36,5.36,0,0,0-2.81-.92c-1.12,0-1.83.59-1.83,1.38v0c0,.9,1.17,1.25,2.43,1.64,1.47.44,3.05,1,3.05,2.71v0C-4474.54-3695.62-4476-3694.58-4477.92-3694.58Z" transform="translate(4805.81 3787.18)"/><path class="cls-4" d="M-4470.19-3697.46a1.4,1.4,0,0,0,1.59,1.58,3,3,0,0,0,1.38-.33v1.21a3.54,3.54,0,0,1-1.71.4,2.41,2.41,0,0,1-2.68-2.67V-3703h-1.32v-1.24h1.32v-2.87h1.42v2.87h3v1.24h-3Z" transform="translate(4805.81 3787.18)"/><path class="cls-4" d="M-4464.14-3702.43l-.42-1.15a7.76,7.76,0,0,1,3.45-.79c2.58,0,4,1.32,4,3.81v5.8h-1.36v-1.43a4.16,4.16,0,0,1-3.43,1.63c-1.76,0-3.54-1-3.54-3s1.66-3.08,4.06-3.08a10,10,0,0,1,2.91.4v-.33c0-1.71-1-2.59-2.82-2.59A6.65,6.65,0,0,0-4464.14-3702.43Zm.17,4.84c0,1.21,1.1,1.91,2.38,1.91,1.74,0,3.17-1.06,3.17-2.57v-.91a9.53,9.53,0,0,0-2.79-.41C-4463-3699.57-4464-3698.8-4464-3697.59Z" transform="translate(4805.81 3787.18)"/><path class="cls-4" d="M-4452.66-3694.76h-1.41v-9.48h1.41v2.47a4.07,4.07,0,0,1,3.87-2.64v1.52h-.11c-2.07,0-3.76,1.49-3.76,4.35Z" transform="translate(4805.81 3787.18)"/><path class="cls-4" d="M-4431.87-3695.77a3.92,3.92,0,0,0,3-1.34l.88.79a4.9,4.9,0,0,1-3.91,1.78,4.72,4.72,0,0,1-4.73-4.95,4.69,4.69,0,0,1,4.55-5c2.81,0,4.42,2.24,4.42,5a3.55,3.55,0,0,1,0,.44h-7.52A3.33,3.33,0,0,0-4431.87-3695.77Zm2.77-4.26c-.15-1.72-1.14-3.22-3-3.22a3.27,3.27,0,0,0-3.08,3.22Z" transform="translate(4805.81 3787.18)"/><path class="cls-4" d="M-4425.06-3694.76v-13.39h1.41v13.39Z" transform="translate(4805.81 3787.18)"/><path class="cls-4" d="M-4398.92-3704.45c2.18,0,3.52,1.47,3.52,3.82v5.87h-1.41v-5.54c0-1.84-.92-2.86-2.46-2.86a2.65,2.65,0,0,0-2.62,2.93v5.47h-1.39v-5.58c0-1.78-.94-2.82-2.44-2.82a2.74,2.74,0,0,0-2.64,3v5.41h-1.42v-9.48h1.42v1.59a3.46,3.46,0,0,1,3.06-1.8,3.22,3.22,0,0,1,3,1.89A3.8,3.8,0,0,1-4398.92-3704.45Z" transform="translate(4805.81 3787.18)"/><path class="cls-4" d="M-4392.3-3706.32v-1.56h1.62v1.56Zm.1,11.56v-9.48h1.41v9.48Z" transform="translate(4805.81 3787.18)"/><path class="cls-4" d="M-4384.37-3694.58a6.55,6.55,0,0,1-3.93-1.39l.72-1a5.52,5.52,0,0,0,3.28,1.21c1.14,0,2-.59,2-1.5v0c0-1-1.12-1.32-2.36-1.67-1.49-.42-3.14-.94-3.14-2.68v0c0-1.63,1.36-2.71,3.23-2.71a6.42,6.42,0,0,1,3.41,1l-.64,1.06a5.36,5.36,0,0,0-2.81-.92c-1.12,0-1.83.59-1.83,1.38v0c0,.9,1.17,1.25,2.44,1.64,1.46.44,3,1,3,2.71v0C-4381-3695.62-4382.48-3694.58-4384.37-3694.58Z" transform="translate(4805.81 3787.18)"/><path class="cls-4" d="M-4367.52-3704.45c2.19,0,3.52,1.47,3.52,3.82v5.87h-1.41v-5.54c0-1.84-.91-2.86-2.46-2.86a2.65,2.65,0,0,0-2.62,2.93v5.47h-1.39v-5.58c0-1.78-.94-2.82-2.44-2.82a2.74,2.74,0,0,0-2.64,3v5.41h-1.41v-9.48h1.41v1.59a3.46,3.46,0,0,1,3.06-1.8,3.24,3.24,0,0,1,3,1.89A3.77,3.77,0,0,1-4367.52-3704.45Z" transform="translate(4805.81 3787.18)"/><path class="cls-4" d="M-4360.8-3694.76v-9.48h1.41v9.48Zm.13-10.92,1.74-2.65,1.47.67-2.08,2Z" transform="translate(4805.81 3787.18)"/><path class="cls-4" d="M-4353-3694.58a6.55,6.55,0,0,1-3.93-1.39l.72-1a5.54,5.54,0,0,0,3.28,1.21c1.14,0,2-.59,2-1.5v0c0-1-1.12-1.32-2.37-1.67-1.49-.42-3.14-.94-3.14-2.68v0c0-1.63,1.36-2.71,3.23-2.71a6.39,6.39,0,0,1,3.41,1l-.64,1.06a5.36,5.36,0,0,0-2.81-.92c-1.11,0-1.83.59-1.83,1.38v0c0,.9,1.17,1.25,2.44,1.64,1.47.44,3,1,3,2.71v0C-4349.6-3695.62-4351.08-3694.58-4353-3694.58Z" transform="translate(4805.81 3787.18)"/><path class="cls-4" d="M-4346.94-3706.32v-1.56h1.62v1.56Zm.1,11.56v-9.48h1.41v9.48Z" transform="translate(4805.81 3787.18)"/><path class="cls-4" d="M-4331.29-3704.45c2.18,0,3.52,1.47,3.52,3.82v5.87h-1.41v-5.54c0-1.84-.92-2.86-2.46-2.86a2.65,2.65,0,0,0-2.62,2.93v5.47h-1.4v-5.58c0-1.78-.93-2.82-2.44-2.82a2.75,2.75,0,0,0-2.64,3v5.41h-1.41v-9.48h1.41v1.59a3.49,3.49,0,0,1,3.07-1.8,3.22,3.22,0,0,1,3,1.89A3.8,3.8,0,0,1-4331.29-3704.45Z" transform="translate(4805.81 3787.18)"/><path class="cls-4" d="M-4320.38-3694.54a4.86,4.86,0,0,1-4.91-4.94,4.91,4.91,0,0,1,4.95-5,4.88,4.88,0,0,1,4.93,4.94A4.93,4.93,0,0,1-4320.38-3694.54Zm0-8.66a3.48,3.48,0,0,0-3.46,3.69,3.56,3.56,0,0,0,3.5,3.7,3.5,3.5,0,0,0,3.49-3.67A3.59,3.59,0,0,0-4320.38-3703.2Z" transform="translate(4805.81 3787.18)"/><path class="cls-4" d="M-4765.63-3672.53a4.87,4.87,0,0,1-4.86-4.93,4.9,4.9,0,0,1,4.86-5,4.91,4.91,0,0,1,3.8,1.69l-.94,1a3.81,3.81,0,0,0-2.88-1.43,3.51,3.51,0,0,0-3.39,3.69,3.54,3.54,0,0,0,3.48,3.7,3.9,3.9,0,0,0,2.9-1.41l.9.85A4.89,4.89,0,0,1-4765.63-3672.53Z" transform="translate(4805.81 3787.18)"/><path class="cls-4" d="M-4755.38-3672.53a4.86,4.86,0,0,1-4.91-4.93,4.92,4.92,0,0,1,4.95-5,4.88,4.88,0,0,1,4.93,4.94A4.93,4.93,0,0,1-4755.38-3672.53Zm0-8.66a3.48,3.48,0,0,0-3.46,3.69,3.56,3.56,0,0,0,3.5,3.7,3.5,3.5,0,0,0,3.49-3.66A3.59,3.59,0,0,0-4755.38-3681.19Z" transform="translate(4805.81 3787.18)"/><path class="cls-4" d="M-4746.44-3672.75h-1.41v-9.48h1.41v2.47a4.07,4.07,0,0,1,3.87-2.64v1.52h-.11c-2.08,0-3.76,1.49-3.76,4.35Z" transform="translate(4805.81 3787.18)"/><path class="cls-4" d="M-4740.33-3680.42l-.43-1.15a7.83,7.83,0,0,1,3.45-.79c2.59,0,4,1.32,4,3.81v5.8h-1.36v-1.43a4.16,4.16,0,0,1-3.43,1.63c-1.76,0-3.54-1-3.54-3s1.65-3.08,4.05-3.08a10,10,0,0,1,2.92.4v-.33c0-1.7-1.05-2.58-2.83-2.58A6.64,6.64,0,0,0-4740.33-3680.42Zm.16,4.84c0,1.22,1.1,1.91,2.38,1.91,1.75,0,3.18-1.06,3.18-2.57v-.91a9.93,9.93,0,0,0-2.79-.41C-4739.18-3677.56-4740.17-3676.79-4740.17-3675.58Z" transform="translate(4805.81 3787.18)"/><path class="cls-4" d="M-4730.59-3681v-1.19h8v.9l-6.31,7.39h6.31v1.19h-8.21v-.9l6.29-7.39Z" transform="translate(4805.81 3787.18)"/><path class="cls-4" d="M-4715.74-3672.53a4.86,4.86,0,0,1-4.91-4.93,4.92,4.92,0,0,1,4.95-5,4.88,4.88,0,0,1,4.93,4.94A4.93,4.93,0,0,1-4715.74-3672.53Zm0-8.66a3.48,3.48,0,0,0-3.46,3.69,3.56,3.56,0,0,0,3.5,3.7,3.49,3.49,0,0,0,3.48-3.66A3.58,3.58,0,0,0-4715.74-3681.19Zm-.53-2.47,1.74-2.66,1.47.68-2.07,2Z" transform="translate(4805.81 3787.18)"/><path class="cls-4" d="M-4706.8-3672.75h-1.42v-9.48h1.42v1.65a3.58,3.58,0,0,1,3.24-1.86,3.47,3.47,0,0,1,3.63,3.8v5.89h-1.41v-5.54c0-1.76-.95-2.86-2.62-2.86a2.79,2.79,0,0,0-2.84,3Z" transform="translate(4805.81 3787.18)"/><path class="cls-4" d="M-4681.47-3672.75v-1.91a4.26,4.26,0,0,1-3.63,2.11,4.63,4.63,0,0,1-4.53-4.93,4.67,4.67,0,0,1,4.53-5,4.28,4.28,0,0,1,3.63,2v-5.72h1.42v13.39Zm-3.37-8.42a3.35,3.35,0,0,0-3.34,3.67,3.43,3.43,0,0,0,3.34,3.69,3.54,3.54,0,0,0,3.43-3.69A3.53,3.53,0,0,0-4684.84-3681.17Z" transform="translate(4805.81 3787.18)"/><path class="cls-4" d="M-4672.72-3673.76a3.9,3.9,0,0,0,3-1.34l.88.79a4.9,4.9,0,0,1-3.9,1.78,4.72,4.72,0,0,1-4.74-4.95,4.69,4.69,0,0,1,4.55-5c2.81,0,4.42,2.24,4.42,5,0,.13,0,.28,0,.44H-4676A3.32,3.32,0,0,0-4672.72-3673.76Zm2.77-4.25c-.14-1.73-1.13-3.23-3-3.23A3.26,3.26,0,0,0-4676-3678Z" transform="translate(4805.81 3787.18)"/><path class="cls-4" d="M-4665.91-3672.75v-13.39h1.41v13.39Z" transform="translate(4805.81 3787.18)"/><path class="cls-4" d="M-4653.34-3684.31v-1.55h1.62v1.55Zm.09,11.56v-9.48h1.42v9.48Z" transform="translate(4805.81 3787.18)"/><path class="cls-4" d="M-4647.14-3672.75h-1.41v-9.48h1.41v1.65a3.58,3.58,0,0,1,3.25-1.86,3.47,3.47,0,0,1,3.63,3.8v5.89h-1.41v-5.54c0-1.76-1-2.86-2.63-2.86a2.79,2.79,0,0,0-2.84,3Z" transform="translate(4805.81 3787.18)"/><path class="cls-4" d="M-4632.32-3682.2v1.21h-3v8.24h-1.41V-3681h-1.3v-1.22h1.3v-.83c0-2.07,1-3.17,2.86-3.17a4.43,4.43,0,0,1,1.56.23v1.23a4.92,4.92,0,0,0-1.38-.23c-1.1,0-1.65.66-1.65,2v.77Z" transform="translate(4805.81 3787.18)"/><path class="cls-4" d="M-4630.48-3684.31v-1.55h1.61v1.55Zm.09,11.56v-9.48h1.41v9.48Z" transform="translate(4805.81 3787.18)"/><path class="cls-4" d="M-4621.52-3673.76a3.9,3.9,0,0,0,3-1.34l.88.79a4.88,4.88,0,0,1-3.9,1.78,4.71,4.71,0,0,1-4.73-4.95,4.69,4.69,0,0,1,4.54-5c2.81,0,4.43,2.24,4.43,5a3.47,3.47,0,0,1,0,.44h-7.52A3.32,3.32,0,0,0-4621.52-3673.76Zm2.77-4.25c-.14-1.73-1.13-3.23-3-3.23a3.26,3.26,0,0,0-3.08,3.23Z" transform="translate(4805.81 3787.18)"/><path class="cls-4" d="M-4613.43-3672.75h-1.41v-9.48h1.41v2.47a4.08,4.08,0,0,1,3.87-2.64v1.52h-.11c-2.07,0-3.76,1.49-3.76,4.35Z" transform="translate(4805.81 3787.18)"/><path class="cls-4" d="M-4606-3672.75h-1.41v-9.48h1.41v1.65a3.61,3.61,0,0,1,3.25-1.86,3.47,3.47,0,0,1,3.63,3.8v5.89h-1.41v-5.54c0-1.76-1-2.86-2.62-2.86a2.79,2.79,0,0,0-2.85,3Z" transform="translate(4805.81 3787.18)"/><path class="cls-4" d="M-4591.78-3672.53a4.87,4.87,0,0,1-4.92-4.93,4.92,4.92,0,0,1,4.95-5,4.88,4.88,0,0,1,4.94,4.94A4.93,4.93,0,0,1-4591.78-3672.53Zm0-8.66a3.48,3.48,0,0,0-3.47,3.69,3.56,3.56,0,0,0,3.5,3.7,3.49,3.49,0,0,0,3.49-3.66A3.58,3.58,0,0,0-4591.78-3681.19Z" transform="translate(4805.81 3787.18)"/><path class="cls-4" d="M-4584.13-3672.75h-.66v-1.93h1.69v1.65a2.27,2.27,0,0,1-2,2.52l-.22-.65C-4584.44-3671.49-4584.06-3672-4584.13-3672.75Z" transform="translate(4805.81 3787.18)"/><path class="cls-4" d="M-4567.67-3672.44c-.81,2-1.73,2.68-3.16,2.68a4.32,4.32,0,0,1-2-.48l.47-1.12a3,3,0,0,0,1.49.35c.84,0,1.37-.44,1.94-1.78l-4.31-9.44h1.56l3.45,7.9,3-7.9h1.51Z" transform="translate(4805.81 3787.18)"/><path class="cls-4" d="M-4561.36-3680.42l-.42-1.15a7.76,7.76,0,0,1,3.45-.79c2.58,0,4,1.32,4,3.81v5.8h-1.36v-1.43a4.16,4.16,0,0,1-3.43,1.63c-1.76,0-3.54-1-3.54-3s1.65-3.08,4.06-3.08a10,10,0,0,1,2.91.4v-.33c0-1.7-1-2.58-2.82-2.58A6.65,6.65,0,0,0-4561.36-3680.42Zm.16,4.84c0,1.22,1.1,1.91,2.39,1.91,1.74,0,3.17-1.06,3.17-2.57v-.91a9.93,9.93,0,0,0-2.79-.41C-4560.21-3677.56-4561.2-3676.79-4561.2-3675.58Z" transform="translate(4805.81 3787.18)"/><path class="cls-4" d="M-4535.84-3669.82v-4.84a4.26,4.26,0,0,1-3.63,2.11,4.63,4.63,0,0,1-4.53-4.93,4.66,4.66,0,0,1,4.53-5,4.28,4.28,0,0,1,3.63,2v-1.81h1.41v12.41Zm-3.37-11.35a3.35,3.35,0,0,0-3.34,3.67,3.43,3.43,0,0,0,3.34,3.69,3.54,3.54,0,0,0,3.43-3.69A3.53,3.53,0,0,0-4539.21-3681.17Z" transform="translate(4805.81 3787.18)"/><path class="cls-4" d="M-4524.54-3682.23h1.39v9.48h-1.39v-1.65a3.6,3.6,0,0,1-3.25,1.85,3.46,3.46,0,0,1-3.63-3.8v-5.88h1.41v5.54c0,1.76,1,2.86,2.63,2.86a2.8,2.8,0,0,0,2.84-3Z" transform="translate(4805.81 3787.18)"/><path class="cls-4" d="M-4515.79-3673.76a3.92,3.92,0,0,0,3-1.34l.88.79a4.9,4.9,0,0,1-3.91,1.78,4.72,4.72,0,0,1-4.73-4.95,4.69,4.69,0,0,1,4.55-5c2.81,0,4.42,2.24,4.42,5a3.47,3.47,0,0,1,0,.44h-7.52A3.33,3.33,0,0,0-4515.79-3673.76Zm2.77-4.25c-.15-1.73-1.14-3.23-3-3.23a3.26,3.26,0,0,0-3.08,3.23Z" transform="translate(4805.81 3787.18)"/><path class="cls-4" d="M-4501.15-3672.75v-13.39h1.42v13.39Z" transform="translate(4805.81 3787.18)"/><path class="cls-4" d="M-4495.9-3680.42l-.42-1.15a7.76,7.76,0,0,1,3.45-.79c2.58,0,4,1.32,4,3.81v5.8h-1.36v-1.43a4.16,4.16,0,0,1-3.43,1.63c-1.76,0-3.54-1-3.54-3s1.66-3.08,4.06-3.08a10,10,0,0,1,2.91.4v-.33c0-1.7-1-2.58-2.82-2.58A6.65,6.65,0,0,0-4495.9-3680.42Zm.17,4.84c0,1.22,1.1,1.91,2.38,1.91,1.74,0,3.17-1.06,3.17-2.57v-.91a9.87,9.87,0,0,0-2.79-.41C-4494.74-3677.56-4495.73-3676.79-4495.73-3675.58Z" transform="translate(4805.81 3787.18)"/><path class="cls-4" d="M-4474.85-3672.57a6.55,6.55,0,0,1-3.93-1.39l.72-1a5.52,5.52,0,0,0,3.28,1.21c1.14,0,2-.59,2-1.5v0c0-.95-1.12-1.32-2.36-1.67-1.49-.42-3.14-.93-3.14-2.68v0c0-1.64,1.36-2.72,3.23-2.72a6.51,6.51,0,0,1,3.41,1.05l-.64,1.06a5.36,5.36,0,0,0-2.81-.92c-1.12,0-1.83.59-1.83,1.38v0c0,.89,1.17,1.24,2.44,1.63,1.46.44,3,1,3,2.71v0C-4471.48-3673.61-4473-3672.57-4474.85-3672.57Z" transform="translate(4805.81 3787.18)"/><path class="cls-4" d="M-4462.12-3682.23h1.39v9.48h-1.39v-1.65a3.62,3.62,0,0,1-3.25,1.85,3.46,3.46,0,0,1-3.63-3.8v-5.88h1.41v5.54c0,1.76.95,2.86,2.62,2.86a2.81,2.81,0,0,0,2.85-3Z" transform="translate(4805.81 3787.18)"/><path class="cls-4" d="M-4452.51-3672.55a4.26,4.26,0,0,1-3.63-2v4.75h-1.42v-12.41h1.42v1.9a4.28,4.28,0,0,1,3.63-2.11,4.64,4.64,0,0,1,4.53,4.94A4.65,4.65,0,0,1-4452.51-3672.55Zm-.26-8.62a3.53,3.53,0,0,0-3.43,3.67,3.54,3.54,0,0,0,3.43,3.69,3.36,3.36,0,0,0,3.34-3.67A3.42,3.42,0,0,0-4452.77-3681.17Z" transform="translate(4805.81 3787.18)"/><path class="cls-4" d="M-4441.2-3673.76a3.9,3.9,0,0,0,3-1.34l.89.79a4.92,4.92,0,0,1-3.91,1.78,4.71,4.71,0,0,1-4.73-4.95,4.69,4.69,0,0,1,4.54-5c2.81,0,4.43,2.24,4.43,5a3.47,3.47,0,0,1,0,.44h-7.52A3.32,3.32,0,0,0-4441.2-3673.76Zm2.77-4.25c-.14-1.73-1.13-3.23-3-3.23a3.26,3.26,0,0,0-3.08,3.23Z" transform="translate(4805.81 3787.18)"/><path class="cls-4" d="M-4433.11-3672.75h-1.41v-9.48h1.41v2.47a4.08,4.08,0,0,1,3.87-2.64v1.52h-.11c-2.07,0-3.76,1.49-3.76,4.35Z" transform="translate(4805.81 3787.18)"/><path class="cls-4" d="M-4422.16-3682.2v1.21h-3v8.24h-1.41V-3681h-1.3v-1.22h1.3v-.83c0-2.07,1.05-3.17,2.86-3.17a4.43,4.43,0,0,1,1.56.23v1.23a4.91,4.91,0,0,0-1.37-.23c-1.1,0-1.65.66-1.65,2v.77Z" transform="translate(4805.81 3787.18)"/><path class="cls-4" d="M-4420.32-3684.31v-1.55h1.61v1.55Zm.09,11.56v-9.48h1.41v9.48Z" transform="translate(4805.81 3787.18)"/><path class="cls-4" d="M-4411.26-3672.53a4.87,4.87,0,0,1-4.86-4.93,4.9,4.9,0,0,1,4.86-5,4.91,4.91,0,0,1,3.8,1.69l-.94,1a3.81,3.81,0,0,0-2.88-1.43,3.51,3.51,0,0,0-3.39,3.69,3.54,3.54,0,0,0,3.48,3.7,3.9,3.9,0,0,0,2.9-1.41l.9.85A4.89,4.89,0,0,1-4411.26-3672.53Z" transform="translate(4805.81 3787.18)"/><path class="cls-4" d="M-4405-3684.31v-1.55h1.61v1.55Zm.09,11.56v-9.48h1.41v9.48Z" transform="translate(4805.81 3787.18)"/><path class="cls-4" d="M-4396-3673.76a3.92,3.92,0,0,0,3-1.34l.88.79a4.92,4.92,0,0,1-3.91,1.78,4.71,4.71,0,0,1-4.73-4.95,4.69,4.69,0,0,1,4.55-5c2.8,0,4.42,2.24,4.42,5a3.47,3.47,0,0,1,0,.44h-7.52A3.33,3.33,0,0,0-4396-3673.76Zm2.77-4.25c-.15-1.73-1.14-3.23-3-3.23a3.26,3.26,0,0,0-3.08,3.23Z" transform="translate(4805.81 3787.18)"/><path class="cls-4" d="M-4373.93-3672.75v-1.91a4.24,4.24,0,0,1-3.63,2.11,4.63,4.63,0,0,1-4.53-4.93,4.67,4.67,0,0,1,4.53-5,4.28,4.28,0,0,1,3.63,2v-5.72h1.42v13.39Zm-3.37-8.42a3.36,3.36,0,0,0-3.34,3.67,3.43,3.43,0,0,0,3.34,3.69,3.54,3.54,0,0,0,3.43-3.69A3.53,3.53,0,0,0-4377.3-3681.17Z" transform="translate(4805.81 3787.18)"/><path class="cls-4" d="M-4365.18-3673.76a3.9,3.9,0,0,0,3-1.34l.88.79a4.9,4.9,0,0,1-3.9,1.78,4.71,4.71,0,0,1-4.73-4.95,4.69,4.69,0,0,1,4.54-5c2.81,0,4.42,2.24,4.42,5,0,.13,0,.28,0,.44h-7.52A3.32,3.32,0,0,0-4365.18-3673.76Zm2.77-4.25c-.14-1.73-1.13-3.23-3-3.23a3.26,3.26,0,0,0-3.08,3.23Z" transform="translate(4805.81 3787.18)"/><path class="cls-4" d="M-4346.48-3673.76a3.9,3.9,0,0,0,3-1.34l.88.79a4.9,4.9,0,0,1-3.9,1.78,4.72,4.72,0,0,1-4.74-4.95,4.69,4.69,0,0,1,4.55-5c2.81,0,4.42,2.24,4.42,5a3.47,3.47,0,0,1,0,.44h-7.51A3.32,3.32,0,0,0-4346.48-3673.76Zm2.77-4.25c-.14-1.73-1.13-3.23-3-3.23a3.26,3.26,0,0,0-3.08,3.23Z" transform="translate(4805.81 3787.18)"/><path class="cls-4" d="M-4336.66-3672.57a6.55,6.55,0,0,1-3.93-1.39l.72-1a5.52,5.52,0,0,0,3.28,1.21c1.14,0,2-.59,2-1.5v0c0-.95-1.12-1.32-2.36-1.67-1.49-.42-3.14-.93-3.14-2.68v0c0-1.64,1.36-2.72,3.23-2.72a6.51,6.51,0,0,1,3.41,1.05l-.64,1.06a5.36,5.36,0,0,0-2.81-.92c-1.12,0-1.83.59-1.83,1.38v0c0,.89,1.17,1.24,2.44,1.63,1.46.44,3,1,3,2.71v0C-4333.29-3673.61-4334.77-3672.57-4336.66-3672.57Z" transform="translate(4805.81 3787.18)"/><path class="cls-4" d="M-4328.94-3675.45a1.4,1.4,0,0,0,1.59,1.58,3,3,0,0,0,1.38-.33v1.21a3.54,3.54,0,0,1-1.71.4,2.41,2.41,0,0,1-2.67-2.67V-3681h-1.32v-1.24h1.32v-2.86h1.41v2.86h3v1.24h-3Z" transform="translate(4805.81 3787.18)"/><path class="cls-4" d="M-4319.53-3673.76a3.92,3.92,0,0,0,3-1.34l.88.79a4.92,4.92,0,0,1-3.91,1.78,4.72,4.72,0,0,1-4.73-4.95,4.69,4.69,0,0,1,4.55-5c2.8,0,4.42,2.24,4.42,5a3.47,3.47,0,0,1,0,.44h-7.52A3.33,3.33,0,0,0-4319.53-3673.76Zm2.77-4.25c-.15-1.73-1.14-3.23-3-3.23a3.26,3.26,0,0,0-3.08,3.23Z" transform="translate(4805.81 3787.18)"/><path class="cls-4" d="M-4764.86-3650.54a4.26,4.26,0,0,1-3.63-2v4.75h-1.41v-12.41h1.41v1.91a4.26,4.26,0,0,1,3.63-2.11,4.62,4.62,0,0,1,4.53,4.93A4.65,4.65,0,0,1-4764.86-3650.54Zm-.26-8.62a3.53,3.53,0,0,0-3.43,3.67,3.54,3.54,0,0,0,3.43,3.69,3.35,3.35,0,0,0,3.34-3.67A3.42,3.42,0,0,0-4765.12-3659.16Z" transform="translate(4805.81 3787.18)"/><path class="cls-4" d="M-4757.59-3650.74v-13.39h1.41v13.39Z" transform="translate(4805.81 3787.18)"/><path class="cls-4" d="M-4752.35-3658.41l-.42-1.15a7.76,7.76,0,0,1,3.45-.79c2.58,0,4,1.32,4,3.81v5.8h-1.36v-1.43a4.15,4.15,0,0,1-3.42,1.63c-1.77,0-3.54-1-3.54-3s1.65-3.08,4-3.08a10,10,0,0,1,2.91.4v-.33c0-1.7-1-2.58-2.82-2.58A6.65,6.65,0,0,0-4752.35-3658.41Zm.17,4.85c0,1.21,1.1,1.9,2.38,1.9,1.74,0,3.17-1.06,3.17-2.56v-.92a9.9,9.9,0,0,0-2.78-.4C-4751.19-3655.54-4752.18-3654.77-4752.18-3653.56Z" transform="translate(4805.81 3787.18)"/><path class="cls-4" d="M-4740.87-3650.74h-1.41v-9.48h1.41v1.65a3.6,3.6,0,0,1,3.25-1.85,3.46,3.46,0,0,1,3.63,3.79v5.89h-1.41v-5.54c0-1.76-1-2.86-2.62-2.86a2.79,2.79,0,0,0-2.85,3Z" transform="translate(4805.81 3787.18)"/><path class="cls-4" d="M-4726.8-3651.75a3.92,3.92,0,0,0,3-1.34l.88.79a4.87,4.87,0,0,1-3.9,1.78,4.72,4.72,0,0,1-4.74-4.95,4.68,4.68,0,0,1,4.55-5c2.81,0,4.42,2.23,4.42,5a3.47,3.47,0,0,1,0,.44h-7.52A3.33,3.33,0,0,0-4726.8-3651.75Zm2.77-4.25c-.15-1.73-1.14-3.23-3-3.23a3.27,3.27,0,0,0-3.08,3.23Z" transform="translate(4805.81 3787.18)"/><path class="cls-4" d="M-4718.21-3653.44a1.4,1.4,0,0,0,1.59,1.58,3,3,0,0,0,1.38-.33v1.21a3.54,3.54,0,0,1-1.71.41,2.42,2.42,0,0,1-2.68-2.68V-3659h-1.32v-1.24h1.32v-2.86h1.42v2.86h3v1.24h-3Z" transform="translate(4805.81 3787.18)"/><path class="cls-4" d="M-4712.16-3658.41l-.42-1.15a7.76,7.76,0,0,1,3.45-.79c2.58,0,4,1.32,4,3.81v5.8h-1.36v-1.43a4.16,4.16,0,0,1-3.43,1.63c-1.76,0-3.54-1-3.54-3s1.65-3.08,4.06-3.08a10,10,0,0,1,2.91.4v-.33c0-1.7-1-2.58-2.82-2.58A6.65,6.65,0,0,0-4712.16-3658.41Zm.16,4.85c0,1.21,1.1,1.9,2.39,1.9,1.74,0,3.17-1.06,3.17-2.56v-.92a10,10,0,0,0-2.79-.4C-4711-3655.54-4712-3654.77-4712-3653.56Z" transform="translate(4805.81 3787.18)"/><path class="cls-4" d="M-4685.45-3650.74v-13.39h1.41v13.39Z" transform="translate(4805.81 3787.18)"/><path class="cls-4" d="M-4674-3660.22h1.39v9.48H-4674v-1.65a3.6,3.6,0,0,1-3.25,1.85,3.46,3.46,0,0,1-3.63-3.79v-5.89h1.41v5.54c0,1.76,1,2.86,2.63,2.86a2.8,2.8,0,0,0,2.84-3Z" transform="translate(4805.81 3787.18)"/><path class="cls-4" d="M-4665.18-3650.52a4.87,4.87,0,0,1-4.86-4.93,4.89,4.89,0,0,1,4.86-5,4.91,4.91,0,0,1,3.8,1.68l-.94,1a3.84,3.84,0,0,0-2.88-1.43,3.51,3.51,0,0,0-3.39,3.69,3.54,3.54,0,0,0,3.48,3.7,3.9,3.9,0,0,0,2.9-1.41l.9.85A4.89,4.89,0,0,1-4665.18-3650.52Z" transform="translate(4805.81 3787.18)"/><path class="cls-4" d="M-4655.07-3651.75a3.92,3.92,0,0,0,3-1.34l.88.79a4.89,4.89,0,0,1-3.91,1.78,4.72,4.72,0,0,1-4.73-4.95,4.68,4.68,0,0,1,4.55-5c2.8,0,4.42,2.23,4.42,5a3.47,3.47,0,0,1,0,.44h-7.52A3.32,3.32,0,0,0-4655.07-3651.75Zm2.77-4.25c-.15-1.73-1.14-3.23-3-3.23a3.26,3.26,0,0,0-3.08,3.23Z" transform="translate(4805.81 3787.18)"/><path class="cls-4" d="M-4630-3653.44a1.4,1.4,0,0,0,1.59,1.58,3,3,0,0,0,1.38-.33v1.21a3.54,3.54,0,0,1-1.71.41,2.42,2.42,0,0,1-2.68-2.68V-3659h-1.32v-1.24h1.32v-2.86h1.42v2.86h3v1.24h-3Z" transform="translate(4805.81 3787.18)"/><path class="cls-4" d="M-4623.92-3658.41l-.42-1.15a7.76,7.76,0,0,1,3.45-.79c2.58,0,4,1.32,4,3.81v5.8h-1.36v-1.43a4.16,4.16,0,0,1-3.43,1.63c-1.76,0-3.54-1-3.54-3s1.65-3.08,4.06-3.08a10,10,0,0,1,2.91.4v-.33c0-1.7-1-2.58-2.82-2.58A6.65,6.65,0,0,0-4623.92-3658.41Zm.16,4.85c0,1.21,1.1,1.9,2.39,1.9,1.74,0,3.17-1.06,3.17-2.56v-.92a10,10,0,0,0-2.79-.4C-4622.77-3655.54-4623.76-3654.77-4623.76-3653.56Z" transform="translate(4805.81 3787.18)"/><path class="cls-4" d="M-4613.72-3650.74v-13.39h1.41v13.39Z" transform="translate(4805.81 3787.18)"/><path class="cls-4" d="M-4587.89-3650.43c-.81,2-1.72,2.68-3.15,2.68a4.33,4.33,0,0,1-2-.48l.47-1.12a3,3,0,0,0,1.49.35c.84,0,1.38-.44,1.94-1.78l-4.31-9.44h1.56l3.45,7.9,3.05-7.9h1.5Z" transform="translate(4805.81 3787.18)"/><path class="cls-4" d="M-4560.88-3650.52a4.87,4.87,0,0,1-4.86-4.93,4.89,4.89,0,0,1,4.86-5,4.9,4.9,0,0,1,3.79,1.68l-.93,1a3.86,3.86,0,0,0-2.88-1.43,3.51,3.51,0,0,0-3.4,3.69,3.55,3.55,0,0,0,3.49,3.7,3.9,3.9,0,0,0,2.9-1.41l.9.85A4.9,4.9,0,0,1-4560.88-3650.52Z" transform="translate(4805.81 3787.18)"/><path class="cls-4" d="M-4550.63-3650.52a4.87,4.87,0,0,1-4.92-4.93,4.92,4.92,0,0,1,5-5,4.87,4.87,0,0,1,4.93,4.93A4.93,4.93,0,0,1-4550.63-3650.52Zm0-8.66a3.49,3.49,0,0,0-3.47,3.69,3.57,3.57,0,0,0,3.51,3.7,3.49,3.49,0,0,0,3.48-3.66A3.58,3.58,0,0,0-4550.63-3659.18Z" transform="translate(4805.81 3787.18)"/><path class="cls-4" d="M-4532.25-3660.42c2.18,0,3.52,1.46,3.52,3.81v5.87h-1.41v-5.54c0-1.83-.92-2.86-2.46-2.86a2.65,2.65,0,0,0-2.62,2.93v5.47h-1.4v-5.58c0-1.77-.93-2.82-2.44-2.82a2.75,2.75,0,0,0-2.64,3v5.41h-1.41v-9.48h1.41v1.59a3.48,3.48,0,0,1,3.07-1.79,3.2,3.2,0,0,1,3,1.89A3.78,3.78,0,0,1-4532.25-3660.42Z" transform="translate(4805.81 3787.18)"/><path class="cls-4" d="M-4521.34-3650.52a4.86,4.86,0,0,1-4.91-4.93,4.91,4.91,0,0,1,4.95-5,4.87,4.87,0,0,1,4.93,4.93A4.93,4.93,0,0,1-4521.34-3650.52Zm0-8.66a3.49,3.49,0,0,0-3.46,3.69,3.56,3.56,0,0,0,3.5,3.7,3.49,3.49,0,0,0,3.48-3.66A3.58,3.58,0,0,0-4521.34-3659.18Z" transform="translate(4805.81 3787.18)"/><path class="cls-4" d="M-4493.12-3651.75a3.92,3.92,0,0,0,3-1.34l.88.79a4.87,4.87,0,0,1-3.91,1.78,4.72,4.72,0,0,1-4.73-4.95,4.68,4.68,0,0,1,4.55-5c2.81,0,4.42,2.23,4.42,5a3.47,3.47,0,0,1,0,.44h-7.52A3.32,3.32,0,0,0-4493.12-3651.75Zm2.77-4.25c-.15-1.73-1.14-3.23-3-3.23a3.27,3.27,0,0,0-3.08,3.23Z" transform="translate(4805.81 3787.18)"/><path class="cls-4" d="M-4483.31-3650.56a6.52,6.52,0,0,1-3.92-1.39l.71-1a5.57,5.57,0,0,0,3.29,1.21c1.13,0,2-.59,2-1.5v0c0-.95-1.12-1.32-2.37-1.67-1.48-.42-3.13-.93-3.13-2.68v0c0-1.64,1.35-2.72,3.23-2.72a6.54,6.54,0,0,1,3.41,1l-.65,1.06a5.31,5.31,0,0,0-2.8-.91c-1.12,0-1.84.58-1.84,1.37v0c0,.9,1.18,1.24,2.44,1.63,1.47.44,3,1,3,2.71v0C-4479.93-3651.6-4481.42-3650.56-4483.31-3650.56Z" transform="translate(4805.81 3787.18)"/><path class="cls-4" d="M-4475.58-3653.44a1.4,1.4,0,0,0,1.59,1.58,3,3,0,0,0,1.38-.33v1.21a3.54,3.54,0,0,1-1.71.41,2.42,2.42,0,0,1-2.68-2.68V-3659h-1.32v-1.24h1.32v-2.86h1.42v2.86h3v1.24h-3Z" transform="translate(4805.81 3787.18)"/><path class="cls-4" d="M-4466.17-3651.75a3.93,3.93,0,0,0,3-1.34l.88.79a4.89,4.89,0,0,1-3.91,1.78,4.71,4.71,0,0,1-4.73-4.95,4.68,4.68,0,0,1,4.55-5c2.8,0,4.42,2.23,4.42,5a3.47,3.47,0,0,1,0,.44h-7.52A3.32,3.32,0,0,0-4466.17-3651.75Zm2.76-4.25c-.14-1.73-1.13-3.23-3-3.23a3.26,3.26,0,0,0-3.08,3.23Z" transform="translate(4805.81 3787.18)"/><path class="cls-4" d="M-4432.13-3660.42c2.19,0,3.53,1.46,3.53,3.81v5.87H-4430v-5.54c0-1.83-.91-2.86-2.45-2.86a2.66,2.66,0,0,0-2.63,2.93v5.47h-1.39v-5.58c0-1.77-.94-2.82-2.44-2.82a2.75,2.75,0,0,0-2.64,3v5.41H-4443v-9.48h1.41v1.59a3.47,3.47,0,0,1,3.06-1.79,3.23,3.23,0,0,1,3.05,1.89A3.75,3.75,0,0,1-4432.13-3660.42Z" transform="translate(4805.81 3787.18)"/><path class="cls-4" d="M-4425.5-3662.29v-1.56h1.61v1.56Zm.09,11.55v-9.48h1.41v9.48Z" transform="translate(4805.81 3787.18)"/><path class="cls-4" d="M-4417.58-3650.56a6.5,6.5,0,0,1-3.92-1.39l.71-1a5.56,5.56,0,0,0,3.28,1.21c1.14,0,2-.59,2-1.5v0c0-.95-1.12-1.32-2.37-1.67-1.49-.42-3.14-.93-3.14-2.68v0c0-1.64,1.36-2.72,3.23-2.72a6.48,6.48,0,0,1,3.41,1l-.64,1.06a5.34,5.34,0,0,0-2.8-.91c-1.12,0-1.84.58-1.84,1.37v0c0,.9,1.18,1.24,2.44,1.63,1.47.44,3.05,1,3.05,2.71v0C-4414.2-3651.6-4415.69-3650.56-4417.58-3650.56Z" transform="translate(4805.81 3787.18)"/><path class="cls-4" d="M-4400.72-3660.42c2.18,0,3.52,1.46,3.52,3.81v5.87h-1.41v-5.54c0-1.83-.92-2.86-2.46-2.86a2.65,2.65,0,0,0-2.62,2.93v5.47h-1.4v-5.58c0-1.77-.93-2.82-2.44-2.82a2.75,2.75,0,0,0-2.64,3v5.41h-1.41v-9.48h1.41v1.59a3.47,3.47,0,0,1,3.06-1.79,3.23,3.23,0,0,1,3,1.89A3.78,3.78,0,0,1-4400.72-3660.42Z" transform="translate(4805.81 3787.18)"/><path class="cls-4" d="M-4389.81-3650.52a4.86,4.86,0,0,1-4.91-4.93,4.91,4.91,0,0,1,4.95-5,4.87,4.87,0,0,1,4.93,4.93A4.93,4.93,0,0,1-4389.81-3650.52Zm0-8.66a3.49,3.49,0,0,0-3.47,3.69,3.57,3.57,0,0,0,3.51,3.7,3.49,3.49,0,0,0,3.48-3.66A3.58,3.58,0,0,0-4389.81-3659.18Z" transform="translate(4805.81 3787.18)"/><path class="cls-4" d="M-4360.73-3650.54a4.26,4.26,0,0,1-3.63-2v4.75h-1.41v-12.41h1.41v1.91a4.26,4.26,0,0,1,3.63-2.11,4.63,4.63,0,0,1,4.53,4.93A4.65,4.65,0,0,1-4360.73-3650.54Zm-.26-8.62a3.53,3.53,0,0,0-3.43,3.67,3.54,3.54,0,0,0,3.43,3.69,3.35,3.35,0,0,0,3.34-3.67A3.42,3.42,0,0,0-4361-3659.16Z" transform="translate(4805.81 3787.18)"/><path class="cls-4" d="M-4349.27-3650.52a4.86,4.86,0,0,1-4.91-4.93,4.91,4.91,0,0,1,5-5,4.87,4.87,0,0,1,4.93,4.93A4.92,4.92,0,0,1-4349.27-3650.52Zm0-8.66a3.49,3.49,0,0,0-3.46,3.69,3.56,3.56,0,0,0,3.5,3.7,3.5,3.5,0,0,0,3.49-3.66A3.59,3.59,0,0,0-4349.27-3659.18Z" transform="translate(4805.81 3787.18)"/><path class="cls-4" d="M-4337.56-3651.75a3.92,3.92,0,0,0,3-1.34l.88.79a4.89,4.89,0,0,1-3.91,1.78,4.72,4.72,0,0,1-4.73-4.95,4.68,4.68,0,0,1,4.55-5c2.8,0,4.42,2.23,4.42,5a3.47,3.47,0,0,1,0,.44h-7.52A3.32,3.32,0,0,0-4337.56-3651.75Zm2.77-4.25c-.15-1.73-1.14-3.23-3-3.23a3.26,3.26,0,0,0-3.08,3.23Z" transform="translate(4805.81 3787.18)"/><path class="cls-4" d="M-4329-3653.44a1.4,1.4,0,0,0,1.6,1.58,2.93,2.93,0,0,0,1.37-.33v1.21a3.48,3.48,0,0,1-1.7.41,2.42,2.42,0,0,1-2.68-2.68V-3659h-1.32v-1.24h1.32v-2.86h1.41v2.86h3v1.24h-3Z" transform="translate(4805.81 3787.18)"/><path class="cls-4" d="M-4322.93-3658.41l-.42-1.15a7.83,7.83,0,0,1,3.45-.79c2.59,0,4,1.32,4,3.81v5.8h-1.36v-1.43a4.16,4.16,0,0,1-3.43,1.63c-1.76,0-3.54-1-3.54-3s1.65-3.08,4-3.08a10.09,10.09,0,0,1,2.92.4v-.33c0-1.7-1.05-2.58-2.83-2.58A6.65,6.65,0,0,0-4322.93-3658.41Zm.17,4.85c0,1.21,1.1,1.9,2.38,1.9,1.75,0,3.18-1.06,3.18-2.56v-.92a10,10,0,0,0-2.79-.4C-4321.77-3655.54-4322.76-3654.77-4322.76-3653.56Z" transform="translate(4805.81 3787.18)"/><path class="cls-4" d="M-4711.85-3628.73v-1.91a4.26,4.26,0,0,1-3.63,2.11,4.63,4.63,0,0,1-4.53-4.93,4.66,4.66,0,0,1,4.53-4.95,4.26,4.26,0,0,1,3.63,2v-5.73h1.42v13.39Zm-3.37-8.42a3.35,3.35,0,0,0-3.34,3.67,3.42,3.42,0,0,0,3.34,3.69,3.54,3.54,0,0,0,3.43-3.69A3.53,3.53,0,0,0-4715.22-3637.15Z" transform="translate(4805.81 3787.18)"/><path class="cls-4" d="M-4703.1-3629.74a3.92,3.92,0,0,0,3-1.34l.88.79a4.87,4.87,0,0,1-3.9,1.78,4.72,4.72,0,0,1-4.74-4.95,4.68,4.68,0,0,1,4.55-4.95c2.81,0,4.42,2.24,4.42,5a3.47,3.47,0,0,1,0,.44h-7.52A3.33,3.33,0,0,0-4703.1-3629.74Zm2.77-4.25c-.14-1.73-1.14-3.23-3-3.23a3.29,3.29,0,0,0-3.09,3.23Z" transform="translate(4805.81 3787.18)"/><path class="cls-4" d="M-4693.28-3628.54a6.54,6.54,0,0,1-3.93-1.4l.72-1a5.52,5.52,0,0,0,3.28,1.21c1.14,0,2-.58,2-1.5v0c0-.95-1.12-1.32-2.36-1.67-1.49-.42-3.14-.93-3.14-2.67v0c0-1.63,1.36-2.72,3.23-2.72a6.51,6.51,0,0,1,3.41,1.05l-.64,1.06a5.43,5.43,0,0,0-2.81-.91c-1.12,0-1.83.58-1.83,1.37v0c0,.9,1.17,1.25,2.44,1.63,1.46.44,3,1,3,2.72v0C-4689.91-3629.59-4691.39-3628.54-4693.28-3628.54Z" transform="translate(4805.81 3787.18)"/><path class="cls-4" d="M-4683-3628.51a4.87,4.87,0,0,1-4.86-4.93,4.89,4.89,0,0,1,4.86-5,4.86,4.86,0,0,1,3.79,1.69l-.93,1a3.84,3.84,0,0,0-2.88-1.44,3.5,3.5,0,0,0-3.39,3.69,3.55,3.55,0,0,0,3.48,3.71,3.91,3.91,0,0,0,2.9-1.42l.9.85A4.9,4.9,0,0,1-4683-3628.51Z" transform="translate(4805.81 3787.18)"/><path class="cls-4" d="M-4675.4-3628.73h-1.41v-9.48h1.41v2.48a4.07,4.07,0,0,1,3.87-2.65v1.53h-.11c-2.07,0-3.76,1.48-3.76,4.34Z" transform="translate(4805.81 3787.18)"/><path class="cls-4" d="M-4669.35-3640.28v-1.56h1.62v1.56Zm.1,11.55v-9.48h1.41v9.48Z" transform="translate(4805.81 3787.18)"/><path class="cls-4" d="M-4659.52-3628.53a4.29,4.29,0,0,1-3.63-2v1.81h-1.41v-13.39h1.41v5.82a4.26,4.26,0,0,1,3.63-2.11,4.63,4.63,0,0,1,4.53,4.93A4.64,4.64,0,0,1-4659.52-3628.53Zm-.25-8.62a3.53,3.53,0,0,0-3.43,3.67,3.54,3.54,0,0,0,3.43,3.69,3.36,3.36,0,0,0,3.34-3.67A3.42,3.42,0,0,0-4659.77-3637.15Z" transform="translate(4805.81 3787.18)"/><path class="cls-4" d="M-4652.34-3640.28v-1.56h1.61v1.56Zm.09,11.55v-9.48h1.41v9.48Z" transform="translate(4805.81 3787.18)"/><path class="cls-4" d="M-4643.23-3628.51a4.86,4.86,0,0,1-4.91-4.93,4.91,4.91,0,0,1,5-5,4.88,4.88,0,0,1,4.93,4.93A4.93,4.93,0,0,1-4643.23-3628.51Zm0-8.66a3.49,3.49,0,0,0-3.46,3.69,3.56,3.56,0,0,0,3.5,3.71,3.5,3.5,0,0,0,3.48-3.67A3.59,3.59,0,0,0-4643.23-3637.17Zm-.53-2.47,1.74-2.66,1.47.68-2.07,2Z" transform="translate(4805.81 3787.18)"/><path class="cls-4" d="M-4629.65-3636.39l-.43-1.16a7.83,7.83,0,0,1,3.45-.79c2.59,0,4,1.32,4,3.82v5.79h-1.36v-1.43a4.16,4.16,0,0,1-3.43,1.63c-1.76,0-3.54-1-3.54-3s1.65-3.08,4.05-3.08a10.39,10.39,0,0,1,2.92.4v-.33c0-1.7-1.05-2.58-2.82-2.58A6.51,6.51,0,0,0-4629.65-3636.39Zm.16,4.84c0,1.21,1.1,1.9,2.39,1.9,1.74,0,3.17-1.06,3.17-2.56v-.92a10,10,0,0,0-2.79-.4C-4628.5-3633.53-4629.49-3632.76-4629.49-3631.55Z" transform="translate(4805.81 3787.18)"/><path class="cls-4" d="M-4619.46-3628.73v-13.39h1.42v13.39Z" transform="translate(4805.81 3787.18)"/><path class="cls-4" d="M-4609.22-3640.28v-1.56h1.61v1.56Zm.09,11.55v-9.48h1.41v9.48Z" transform="translate(4805.81 3787.18)"/><path class="cls-4" d="M-4603-3628.73h-1.41v-9.48h1.41v1.65a3.58,3.58,0,0,1,3.25-1.85,3.46,3.46,0,0,1,3.63,3.79v5.89h-1.41v-5.54c0-1.76-1-2.86-2.63-2.86a2.79,2.79,0,0,0-2.84,3Z" transform="translate(4805.81 3787.18)"/><path class="cls-4" d="M-4588.2-3638.17v1.21h-3v8.23h-1.41V-3637h-1.3v-1.23h1.3v-.83c0-2.07,1-3.17,2.86-3.17a4.19,4.19,0,0,1,1.56.24v1.23a4.66,4.66,0,0,0-1.38-.24c-1.1,0-1.65.66-1.65,2v.77Z" transform="translate(4805.81 3787.18)"/><path class="cls-4" d="M-4586.37-3640.28v-1.56h1.62v1.56Zm.1,11.55v-9.48h1.41v9.48Z" transform="translate(4805.81 3787.18)"/><path class="cls-4" d="M-4577.4-3629.74a3.9,3.9,0,0,0,3-1.34l.88.79a4.87,4.87,0,0,1-3.9,1.78,4.72,4.72,0,0,1-4.74-4.95,4.68,4.68,0,0,1,4.55-4.95c2.81,0,4.42,2.24,4.42,5,0,.13,0,.28,0,.44h-7.52A3.31,3.31,0,0,0-4577.4-3629.74Zm2.77-4.25c-.14-1.73-1.13-3.23-3-3.23a3.27,3.27,0,0,0-3.08,3.23Z" transform="translate(4805.81 3787.18)"/><path class="cls-4" d="M-4569.31-3628.73h-1.41v-9.48h1.41v2.48a4.08,4.08,0,0,1,3.87-2.65v1.53h-.11c-2.07,0-3.76,1.48-3.76,4.34Z" transform="translate(4805.81 3787.18)"/><path class="cls-4" d="M-4561.88-3628.73h-1.41v-9.48h1.41v1.65a3.6,3.6,0,0,1,3.25-1.85,3.46,3.46,0,0,1,3.63,3.79v5.89h-1.41v-5.54c0-1.76-1-2.86-2.63-2.86a2.79,2.79,0,0,0-2.84,3Z" transform="translate(4805.81 3787.18)"/><path class="cls-4" d="M-4547.66-3628.51a4.86,4.86,0,0,1-4.92-4.93,4.91,4.91,0,0,1,4.95-5,4.88,4.88,0,0,1,4.94,4.93A4.93,4.93,0,0,1-4547.66-3628.51Zm0-8.66a3.49,3.49,0,0,0-3.47,3.69,3.56,3.56,0,0,0,3.5,3.71,3.5,3.5,0,0,0,3.49-3.67A3.59,3.59,0,0,0-4547.66-3637.17Z" transform="translate(4805.81 3787.18)"/><path class="cls-4" d="M-4530.46-3629.74a3.92,3.92,0,0,0,3-1.34l.88.79a4.87,4.87,0,0,1-3.9,1.78,4.72,4.72,0,0,1-4.74-4.95,4.68,4.68,0,0,1,4.55-4.95c2.81,0,4.42,2.24,4.42,5a3.47,3.47,0,0,1,0,.44h-7.52A3.33,3.33,0,0,0-4530.46-3629.74Zm2.77-4.25c-.14-1.73-1.14-3.23-3-3.23a3.28,3.28,0,0,0-3.09,3.23Z" transform="translate(4805.81 3787.18)"/><path class="cls-4" d="M-4522.37-3628.73h-1.41v-9.48h1.41v1.65a3.6,3.6,0,0,1,3.25-1.85,3.46,3.46,0,0,1,3.63,3.79v5.89h-1.41v-5.54c0-1.76-1-2.86-2.63-2.86a2.79,2.79,0,0,0-2.84,3Z" transform="translate(4805.81 3787.18)"/><path class="cls-4" d="M-4503.84-3628.54a6.56,6.56,0,0,1-3.93-1.4l.72-1a5.52,5.52,0,0,0,3.28,1.21c1.14,0,2-.58,2-1.5v0c0-.95-1.12-1.32-2.36-1.67-1.49-.42-3.14-.93-3.14-2.67v0c0-1.63,1.36-2.72,3.23-2.72a6.51,6.51,0,0,1,3.41,1.05l-.64,1.06a5.43,5.43,0,0,0-2.81-.91c-1.12,0-1.83.58-1.83,1.37v0c0,.9,1.17,1.25,2.44,1.63,1.46.44,3,1,3,2.72v0C-4500.47-3629.59-4501.95-3628.54-4503.84-3628.54Z" transform="translate(4805.81 3787.18)"/><path class="cls-4" d="M-4491.11-3638.21h1.39v9.48h-1.39v-1.65a3.62,3.62,0,0,1-3.25,1.85,3.46,3.46,0,0,1-3.63-3.79v-5.89h1.41v5.54c0,1.76,1,2.86,2.62,2.86a2.8,2.8,0,0,0,2.85-3Z" transform="translate(4805.81 3787.18)"/><path class="cls-4" d="M-4476.11-3638.17v1.21h-3v8.23h-1.41V-3637h-1.3v-1.23h1.3v-.83c0-2.07,1-3.17,2.86-3.17a4.19,4.19,0,0,1,1.56.24v1.23a4.61,4.61,0,0,0-1.38-.24c-1.1,0-1.65.66-1.65,2v.77Z" transform="translate(4805.81 3787.18)"/><path class="cls-4" d="M-4474-3636.39l-.42-1.16a7.8,7.8,0,0,1,3.45-.79c2.59,0,4,1.32,4,3.82v5.79h-1.36v-1.43a4.16,4.16,0,0,1-3.43,1.63c-1.76,0-3.54-1-3.54-3s1.65-3.08,4.05-3.08a10.44,10.44,0,0,1,2.92.4v-.33c0-1.7-1.05-2.58-2.83-2.58A6.55,6.55,0,0,0-4474-3636.39Zm.17,4.84c0,1.21,1.1,1.9,2.38,1.9,1.75,0,3.18-1.06,3.18-2.56v-.92a10,10,0,0,0-2.79-.4C-4472.88-3633.53-4473.87-3632.76-4473.87-3631.55Z" transform="translate(4805.81 3787.18)"/><path class="cls-4" d="M-4453.11-3638.41c2.18,0,3.52,1.47,3.52,3.81v5.87H-4451v-5.54c0-1.83-.92-2.86-2.46-2.86a2.66,2.66,0,0,0-2.62,2.94v5.46h-1.39v-5.57c0-1.78-.94-2.83-2.44-2.83a2.75,2.75,0,0,0-2.64,3v5.41H-4464v-9.48h1.42v1.6a3.44,3.44,0,0,1,3.06-1.8,3.2,3.2,0,0,1,3,1.89A3.78,3.78,0,0,1-4453.11-3638.41Z" transform="translate(4805.81 3787.18)"/><path class="cls-4" d="M-4442.19-3628.51a4.86,4.86,0,0,1-4.92-4.93,4.91,4.91,0,0,1,4.95-5,4.88,4.88,0,0,1,4.94,4.93A4.93,4.93,0,0,1-4442.19-3628.51Zm0-8.66a3.49,3.49,0,0,0-3.47,3.69,3.56,3.56,0,0,0,3.5,3.71,3.5,3.5,0,0,0,3.49-3.67A3.59,3.59,0,0,0-4442.19-3637.17Z" transform="translate(4805.81 3787.18)"/><path class="cls-4" d="M-4431.54-3628.54a6.53,6.53,0,0,1-3.92-1.4l.71-1a5.57,5.57,0,0,0,3.29,1.21c1.13,0,2-.58,2-1.5v0c0-.95-1.12-1.32-2.37-1.67-1.48-.42-3.13-.93-3.13-2.67v0c0-1.63,1.35-2.72,3.23-2.72a6.54,6.54,0,0,1,3.41,1.05l-.65,1.06a5.4,5.4,0,0,0-2.8-.91c-1.12,0-1.84.58-1.84,1.37v0c0,.9,1.18,1.25,2.44,1.63,1.47.44,3.05,1,3.05,2.72v0C-4428.16-3629.59-4429.65-3628.54-4431.54-3628.54Z" transform="translate(4805.81 3787.18)"/><path class="cls-4" d="M-4425-3636.39l-.42-1.16a7.8,7.8,0,0,1,3.45-.79c2.58,0,4,1.32,4,3.82v5.79h-1.35v-1.43a4.16,4.16,0,0,1-3.43,1.63c-1.76,0-3.54-1-3.54-3s1.65-3.08,4.05-3.08a10.44,10.44,0,0,1,2.92.4v-.33c0-1.7-1.05-2.58-2.83-2.58A6.51,6.51,0,0,0-4425-3636.39Zm.17,4.84c0,1.21,1.1,1.9,2.38,1.9,1.74,0,3.17-1.06,3.17-2.56v-.92a9.9,9.9,0,0,0-2.78-.4C-4423.83-3633.53-4424.82-3632.76-4424.82-3631.55Z" transform="translate(4805.81 3787.18)"/><path class="cls-4" d="M-4405.09-3628.51a4.86,4.86,0,0,1-4.91-4.93,4.91,4.91,0,0,1,4.95-5,4.88,4.88,0,0,1,4.93,4.93A4.93,4.93,0,0,1-4405.09-3628.51Zm0-8.66a3.49,3.49,0,0,0-3.46,3.69,3.56,3.56,0,0,0,3.5,3.71,3.5,3.5,0,0,0,3.49-3.67A3.6,3.6,0,0,0-4405.09-3637.17Z" transform="translate(4805.81 3787.18)"/><path class="cls-4" d="M-4392.52-3628.53a4.27,4.27,0,0,1-3.63-2v1.81h-1.42v-13.39h1.42v5.82a4.26,4.26,0,0,1,3.63-2.11,4.63,4.63,0,0,1,4.53,4.93A4.65,4.65,0,0,1-4392.52-3628.53Zm-.26-8.62a3.53,3.53,0,0,0-3.43,3.67,3.54,3.54,0,0,0,3.43,3.69,3.35,3.35,0,0,0,3.34-3.67A3.42,3.42,0,0,0-4392.78-3637.15Z" transform="translate(4805.81 3787.18)"/><path class="cls-4" d="M-4384-3628.73h-1.42v-9.48h1.42v2.48a4.06,4.06,0,0,1,3.87-2.65v1.53h-.11c-2.08,0-3.76,1.48-3.76,4.34Z" transform="translate(4805.81 3787.18)"/><path class="cls-4" d="M-4377.87-3636.39l-.42-1.16a7.83,7.83,0,0,1,3.45-.79c2.59,0,4,1.32,4,3.82v5.79h-1.36v-1.43a4.16,4.16,0,0,1-3.43,1.63c-1.76,0-3.54-1-3.54-3s1.65-3.08,4.05-3.08a10.44,10.44,0,0,1,2.92.4v-.33c0-1.7-1.05-2.58-2.83-2.58A6.55,6.55,0,0,0-4377.87-3636.39Zm.17,4.84c0,1.21,1.1,1.9,2.38,1.9,1.75,0,3.18-1.06,3.18-2.56v-.92a10,10,0,0,0-2.79-.4C-4376.71-3633.53-4377.7-3632.76-4377.7-3631.55Z" transform="translate(4805.81 3787.18)"/><path class="cls-4" d="M-4368-3628.73v-1.92h1.69v1.92Z" transform="translate(4805.81 3787.18)"/><path class="cls-4" d="M-4370-3537.58l-97.54-55.85h-309.41c-15.94,0-28.9-19.82-28.9-44.2V-3743c0-24.37,13-44.2,28.9-44.2h464.65c15.94,0,28.9,19.83,28.9,44.2v105.35c0,24.38-13,44.2-28.9,44.2h-99.54Zm-406.95-248.49c-15.32,0-27.79,19.33-27.79,43.09v105.35c0,23.76,12.47,43.09,27.79,43.09h309.71l.13.08,93,53.24-40-53.32h101.76c15.32,0,27.79-19.33,27.79-43.09V-3743c0-23.76-12.47-43.09-27.79-43.09Z" transform="translate(4805.81 3787.18)"/></g></g></svg>