<svg xmlns="http://www.w3.org/2000/svg" viewBox="0 0 456.04 206.45"><defs><style>.cls-1{fill:#22083f;opacity:0.65;}.cls-2{fill:#6323a1;}.cls-3{fill:#7031ba;}.cls-4{fill:#fff;}</style></defs><title>Asset 6ldpi</title><g id="Layer_2" data-name="Layer 2"><g id="Layer_1-2" data-name="Layer 1"><path class="cls-1" d="M-4787.22-4865.66h388c13.08,0,23.68,15.53,23.68,34.69v83.73c0,19.16-10.6,34.68-23.68,34.68h-84l34.15,43.38-79.62-43.38h-258.52c-13.07,0-23.67-15.52-23.67-34.68V-4831C-4810.89-4850.13-4800.29-4865.66-4787.22-4865.66Z" transform="translate(4820.8 4865.66)"/><path class="cls-2" d="M-4786.81-4856.14h388c13.08,0,23.68,14.51,23.68,32.41v78.24c0,17.9-10.6,32.41-23.68,32.41h-84l34.15,40.53-79.62-40.53h-258.52c-13.07,0-23.67-14.51-23.67-32.41v-78.24C-4810.48-4841.63-4799.88-4856.14-4786.81-4856.14Z" transform="translate(4820.8 4865.66)"/><path class="cls-3" d="M-4786.81-4856.14c-96,206.85,411.72,110.65,411.72,110.65,0,17.9-10.6,32.41-23.68,32.41h-84l34.15,40.53-79.62-40.53h-258.52c-13.07,0-23.67-14.51-23.67-32.41v-78.24C-4810.48-4841.63-4800.71-4856.14-4786.81-4856.14Z" transform="translate(4820.8 4865.66)"/><path class="cls-4" d="M-4777.67-4815.19h-1.59l-1.54-3.47h-7.15l-1.56,3.47H-4791l6-13.23h1.39Zm-6.7-11.5-3,6.7h6Z" transform="translate(4820.8 4865.66)"/><path class="cls-4" d="M-4762.91-4827v-1.6h1.66v1.6Zm.1,11.82v-9.7h1.44v9.7Z" transform="translate(4820.8 4865.66)"/><path class="cls-4" d="M-4756.56-4815.19H-4758v-9.7h1.45v1.69a3.67,3.67,0,0,1,3.32-1.9,3.55,3.55,0,0,1,3.71,3.89v6H-4751v-5.67c0-1.8-1-2.92-2.68-2.92a2.85,2.85,0,0,0-2.91,3Z" transform="translate(4820.8 4865.66)"/><path class="cls-4" d="M-4746.41-4827v-1.6h1.65v1.6Zm.09,11.82v-9.7h1.45v9.7Z" transform="translate(4820.8 4865.66)"/><path class="cls-4" d="M-4737.14-4815a5,5,0,0,1-5-5.05,5,5,0,0,1,5-5.09,5,5,0,0,1,3.88,1.73l-1,1a3.9,3.9,0,0,0-2.94-1.46,3.59,3.59,0,0,0-3.48,3.77,3.63,3.63,0,0,0,3.57,3.79,4,4,0,0,0,3-1.44l.92.86A5,5,0,0,1-4737.14-4815Z" transform="translate(4820.8 4865.66)"/><path class="cls-4" d="M-4730.77-4827v-1.6h1.66v1.6Zm.1,11.82v-9.7h1.44v9.7Z" transform="translate(4820.8 4865.66)"/><path class="cls-4" d="M-4721.44-4815a5,5,0,0,1-5-5.05,5,5,0,0,1,5.07-5.09,5,5,0,0,1,5,5.05A5,5,0,0,1-4721.44-4815Zm0-8.86A3.57,3.57,0,0,0-4725-4820a3.65,3.65,0,0,0,3.59,3.79,3.57,3.57,0,0,0,3.56-3.75A3.66,3.66,0,0,0-4721.44-4823.82Z" transform="translate(4820.8 4865.66)"/><path class="cls-4" d="M-4710.54-4815a6.7,6.7,0,0,1-4-1.43l.74-1a5.65,5.65,0,0,0,3.36,1.24c1.16,0,2-.6,2-1.54v0c0-1-1.14-1.35-2.42-1.71-1.52-.43-3.21-.95-3.21-2.74v0c0-1.67,1.39-2.78,3.31-2.78a6.62,6.62,0,0,1,3.49,1.07l-.66,1.09a5.49,5.49,0,0,0-2.87-.94c-1.15,0-1.88.6-1.88,1.41v0c0,.92,1.2,1.28,2.5,1.67,1.5.46,3.11,1,3.11,2.78v0C-4707.09-4816.07-4708.61-4815-4710.54-4815Z" transform="translate(4820.8 4865.66)"/><path class="cls-4" d="M-4684.24-4815.19v-2a4.35,4.35,0,0,1-3.71,2.16,4.74,4.74,0,0,1-4.64-5.05,4.77,4.77,0,0,1,4.64-5.07,4.37,4.37,0,0,1,3.71,2.07v-5.86h1.45v13.7Zm-3.45-8.61a3.42,3.42,0,0,0-3.41,3.75,3.49,3.49,0,0,0,3.41,3.77,3.62,3.62,0,0,0,3.51-3.77A3.61,3.61,0,0,0-4687.69-4823.8Z" transform="translate(4820.8 4865.66)"/><path class="cls-4" d="M-4675.29-4816.22a4,4,0,0,0,3.06-1.37l.9.81a5,5,0,0,1-4,1.82,4.83,4.83,0,0,1-4.85-5.07,4.79,4.79,0,0,1,4.66-5.07c2.87,0,4.52,2.29,4.52,5.14a3.54,3.54,0,0,1,0,.45h-7.69A3.4,3.4,0,0,0-4675.29-4816.22Zm2.84-4.36c-.15-1.76-1.17-3.3-3.1-3.3a3.34,3.34,0,0,0-3.15,3.3Z" transform="translate(4820.8 4865.66)"/><path class="cls-4" d="M-4655.95-4815.19v-13.7h1.45v13.7Z" transform="translate(4820.8 4865.66)"/><path class="cls-4" d="M-4650.58-4823l-.43-1.19a8.12,8.12,0,0,1,3.53-.8c2.64,0,4.13,1.35,4.13,3.9v5.93h-1.39v-1.46a4.26,4.26,0,0,1-3.51,1.67c-1.8,0-3.62-1-3.62-3s1.68-3.16,4.14-3.16a10.15,10.15,0,0,1,3,.42v-.34c0-1.75-1.07-2.65-2.89-2.65A6.66,6.66,0,0,0-4650.58-4823Zm.17,4.95c0,1.24,1.13,1.95,2.44,1.95,1.78,0,3.25-1.09,3.25-2.62v-.94a10,10,0,0,0-2.86-.42C-4649.4-4820.11-4650.41-4819.32-4650.41-4818.08Z" transform="translate(4820.8 4865.66)"/><path class="cls-4" d="M-4623.62-4816.22a4,4,0,0,0,3.06-1.37l.9.81a5,5,0,0,1-4,1.82,4.83,4.83,0,0,1-4.84-5.07,4.79,4.79,0,0,1,4.66-5.07c2.87,0,4.52,2.29,4.52,5.14a3.54,3.54,0,0,1,0,.45H-4627A3.39,3.39,0,0,0-4623.62-4816.22Zm2.84-4.36c-.15-1.76-1.17-3.3-3.1-3.3a3.34,3.34,0,0,0-3.15,3.3Z" transform="translate(4820.8 4865.66)"/><path class="cls-4" d="M-4609-4815.19v-2a4.37,4.37,0,0,1-3.72,2.16,4.74,4.74,0,0,1-4.63-5.05,4.77,4.77,0,0,1,4.63-5.07A4.39,4.39,0,0,1-4609-4823v-5.86h1.44v13.7Zm-3.45-8.61a3.43,3.43,0,0,0-3.42,3.75,3.5,3.5,0,0,0,3.42,3.77,3.61,3.61,0,0,0,3.5-3.77A3.6,3.6,0,0,0-4612.45-4823.8Z" transform="translate(4820.8 4865.66)"/><path class="cls-4" d="M-4603.77-4823l-.43-1.19a8.12,8.12,0,0,1,3.53-.8c2.64,0,4.13,1.35,4.13,3.9v5.93h-1.39v-1.46a4.26,4.26,0,0,1-3.51,1.67c-1.8,0-3.62-1-3.62-3s1.68-3.16,4.14-3.16a10.15,10.15,0,0,1,3,.42v-.34c0-1.75-1.07-2.65-2.89-2.65A6.66,6.66,0,0,0-4603.77-4823Zm.17,4.95c0,1.24,1.13,1.95,2.44,1.95,1.78,0,3.25-1.09,3.25-2.62v-.94a10,10,0,0,0-2.86-.42C-4602.59-4820.11-4603.6-4819.32-4603.6-4818.08Z" transform="translate(4820.8 4865.66)"/><path class="cls-4" d="M-4585.68-4815.19v-2a4.37,4.37,0,0,1-3.72,2.16A4.74,4.74,0,0,1-4594-4820a4.77,4.77,0,0,1,4.63-5.07,4.37,4.37,0,0,1,3.72,2.07v-5.86h1.45v13.7Zm-3.45-8.61a3.43,3.43,0,0,0-3.42,3.75,3.5,3.5,0,0,0,3.42,3.77,3.62,3.62,0,0,0,3.51-3.77A3.61,3.61,0,0,0-4589.13-4823.8Z" transform="translate(4820.8 4865.66)"/><path class="cls-4" d="M-4564.26-4815a5,5,0,0,1-5-5.05,5,5,0,0,1,5-5.09,5,5,0,0,1,3.89,1.73l-1,1a3.9,3.9,0,0,0-2.94-1.46,3.59,3.59,0,0,0-3.48,3.77,3.63,3.63,0,0,0,3.57,3.79,4,4,0,0,0,3-1.44l.92.86A5,5,0,0,1-4564.26-4815Z" transform="translate(4820.8 4865.66)"/><path class="cls-4" d="M-4553.77-4815a5,5,0,0,1-5-5.05,5,5,0,0,1,5.07-5.09,5,5,0,0,1,5,5.05A5,5,0,0,1-4553.77-4815Zm0-8.86a3.56,3.56,0,0,0-3.54,3.77,3.64,3.64,0,0,0,3.58,3.79,3.58,3.58,0,0,0,3.57-3.75A3.67,3.67,0,0,0-4553.77-4823.82Z" transform="translate(4820.8 4865.66)"/><path class="cls-4" d="M-4544.63-4815.19h-1.45v-9.7h1.45v1.69a3.68,3.68,0,0,1,3.32-1.9,3.55,3.55,0,0,1,3.72,3.89v6H-4539v-5.67c0-1.8-1-2.92-2.68-2.92a2.86,2.86,0,0,0-2.91,3Z" transform="translate(4820.8 4865.66)"/><path class="cls-4" d="M-4532.57-4817.95a1.44,1.44,0,0,0,1.64,1.62,3.07,3.07,0,0,0,1.4-.34v1.24a3.64,3.64,0,0,1-1.74.41,2.47,2.47,0,0,1-2.74-2.74v-5.86h-1.35v-1.27h1.35v-2.93h1.44v2.93h3.08v1.27h-3.08Z" transform="translate(4820.8 4865.66)"/><path class="cls-4" d="M-4522.94-4816.22a4,4,0,0,0,3.06-1.37l.9.81a5,5,0,0,1-4,1.82,4.83,4.83,0,0,1-4.84-5.07,4.79,4.79,0,0,1,4.65-5.07c2.88,0,4.53,2.29,4.53,5.14a3.54,3.54,0,0,1,0,.45h-7.7A3.4,3.4,0,0,0-4522.94-4816.22Zm2.83-4.36c-.15-1.76-1.16-3.3-3.09-3.3a3.35,3.35,0,0,0-3.16,3.3Z" transform="translate(4820.8 4865.66)"/><path class="cls-4" d="M-4505-4825.1c2.23,0,3.6,1.5,3.6,3.91v6h-1.44v-5.67c0-1.87-.94-2.92-2.52-2.92a2.71,2.71,0,0,0-2.68,3v5.59h-1.43v-5.7c0-1.82-1-2.89-2.49-2.89a2.81,2.81,0,0,0-2.71,3.05v5.54h-1.44v-9.7h1.44v1.63a3.54,3.54,0,0,1,3.14-1.84,3.3,3.3,0,0,1,3.11,1.93A3.88,3.88,0,0,1-4505-4825.1Z" transform="translate(4820.8 4865.66)"/><path class="cls-4" d="M-4493.11-4815a4.37,4.37,0,0,1-3.71-2.07v4.86h-1.45v-12.7h1.45v2a4.35,4.35,0,0,1,3.71-2.16,4.74,4.74,0,0,1,4.64,5.05A4.76,4.76,0,0,1-4493.11-4815Zm-.26-8.82a3.61,3.61,0,0,0-3.51,3.75,3.62,3.62,0,0,0,3.51,3.77A3.42,3.42,0,0,0-4490-4820,3.49,3.49,0,0,0-4493.37-4823.8Z" transform="translate(4820.8 4865.66)"/><path class="cls-4" d="M-4481.38-4815a5,5,0,0,1-5-5.05,5,5,0,0,1,5.07-5.09,5,5,0,0,1,5,5.05A5,5,0,0,1-4481.38-4815Zm0-8.86a3.57,3.57,0,0,0-3.55,3.77,3.65,3.65,0,0,0,3.59,3.79,3.57,3.57,0,0,0,3.56-3.75A3.67,3.67,0,0,0-4481.38-4823.82Z" transform="translate(4820.8 4865.66)"/><path class="cls-4" d="M-4472.25-4815.19h-1.44v-9.7h1.44v2.53a4.17,4.17,0,0,1,4-2.7v1.56h-.11c-2.12,0-3.85,1.52-3.85,4.45Z" transform="translate(4820.8 4865.66)"/><path class="cls-4" d="M-4465.53-4823l-.43-1.19a8.12,8.12,0,0,1,3.53-.8c2.64,0,4.13,1.35,4.13,3.9v5.93h-1.39v-1.46a4.26,4.26,0,0,1-3.51,1.67c-1.8,0-3.62-1-3.62-3s1.68-3.16,4.14-3.16a10.15,10.15,0,0,1,3,.42v-.34c0-1.75-1.07-2.65-2.89-2.65A6.66,6.66,0,0,0-4465.53-4823Zm.17,4.95c0,1.24,1.13,1.95,2.44,1.95,1.78,0,3.25-1.09,3.25-2.62v-.94a10,10,0,0,0-2.86-.42C-4464.35-4820.11-4465.36-4819.32-4465.36-4818.08Zm2.31-8.28,1.78-2.72,1.5.7-2.12,2Z" transform="translate(4820.8 4865.66)"/><path class="cls-4" d="M-4453.78-4815.19h-1.45v-9.7h1.45v1.69a3.67,3.67,0,0,1,3.32-1.9,3.55,3.55,0,0,1,3.71,3.89v6h-1.44v-5.67c0-1.8-1-2.92-2.68-2.92a2.86,2.86,0,0,0-2.91,3Z" transform="translate(4820.8 4865.66)"/><path class="cls-4" d="M-4439.39-4816.22a4,4,0,0,0,3.06-1.37l.9.81a5,5,0,0,1-4,1.82,4.83,4.83,0,0,1-4.84-5.07,4.79,4.79,0,0,1,4.65-5.07c2.87,0,4.53,2.29,4.53,5.14a3.54,3.54,0,0,1,0,.45h-7.7A3.4,3.4,0,0,0-4439.39-4816.22Zm2.83-4.36c-.15-1.76-1.16-3.3-3.09-3.3a3.35,3.35,0,0,0-3.16,3.3Z" transform="translate(4820.8 4865.66)"/><path class="cls-4" d="M-4432-4823l-.43-1.19a8.12,8.12,0,0,1,3.53-.8c2.64,0,4.13,1.35,4.13,3.9v5.93h-1.39v-1.46a4.28,4.28,0,0,1-3.51,1.67c-1.81,0-3.63-1-3.63-3s1.69-3.16,4.15-3.16a10.15,10.15,0,0,1,3,.42v-.34c0-1.75-1.07-2.65-2.89-2.65A6.66,6.66,0,0,0-4432-4823Zm.17,4.95c0,1.24,1.12,1.95,2.44,1.95,1.78,0,3.24-1.09,3.24-2.62v-.94a9.94,9.94,0,0,0-2.85-.42C-4430.82-4820.11-4431.83-4819.32-4431.83-4818.08Z" transform="translate(4820.8 4865.66)"/><path class="cls-4" d="M-4406.11-4815a6.7,6.7,0,0,1-4-1.43l.74-1a5.65,5.65,0,0,0,3.36,1.24c1.16,0,2-.6,2-1.54v0c0-1-1.14-1.35-2.42-1.71-1.52-.43-3.21-.95-3.21-2.74v0c0-1.67,1.39-2.78,3.31-2.78a6.62,6.62,0,0,1,3.49,1.07l-.66,1.09a5.49,5.49,0,0,0-2.87-.94c-1.15,0-1.88.6-1.88,1.41v0c0,.92,1.2,1.28,2.5,1.67,1.5.46,3.11,1,3.11,2.78v0C-4402.66-4816.07-4404.18-4815-4406.11-4815Z" transform="translate(4820.8 4865.66)"/><path class="cls-4" d="M-4395.7-4816.22a4,4,0,0,0,3.06-1.37l.9.81a5,5,0,0,1-4,1.82,4.83,4.83,0,0,1-4.85-5.07,4.8,4.8,0,0,1,4.66-5.07c2.87,0,4.52,2.29,4.52,5.14a3.54,3.54,0,0,1,0,.45h-7.69A3.4,3.4,0,0,0-4395.7-4816.22Zm2.84-4.36c-.15-1.76-1.17-3.3-3.1-3.3a3.34,3.34,0,0,0-3.15,3.3Z" transform="translate(4820.8 4865.66)"/><path class="cls-4" d="M-4788.7-4792.67h-1.45v-13.7h1.45v5.68a3.67,3.67,0,0,1,3.32-1.89,3.54,3.54,0,0,1,3.72,3.88v6h-1.45v-5.67c0-1.8-1-2.93-2.68-2.93a2.86,2.86,0,0,0-2.91,3Z" transform="translate(4820.8 4865.66)"/><path class="cls-4" d="M-4778.55-4804.5v-1.59h1.65v1.59Zm.09,11.83v-9.71h1.45v9.71Z" transform="translate(4820.8 4865.66)"/><path class="cls-4" d="M-4768.49-4792.47a4.37,4.37,0,0,1-3.72-2.06v4.86h-1.45v-12.71h1.45v2a4.35,4.35,0,0,1,3.72-2.16,4.74,4.74,0,0,1,4.63,5.05A4.75,4.75,0,0,1-4768.49-4792.47Zm-.27-8.82a3.61,3.61,0,0,0-3.51,3.76,3.62,3.62,0,0,0,3.51,3.77,3.43,3.43,0,0,0,3.42-3.76A3.51,3.51,0,0,0-4768.76-4801.29Z" transform="translate(4820.8 4865.66)"/><path class="cls-4" d="M-4756.77-4792.45a5,5,0,0,1-5-5.05,5,5,0,0,1,5.07-5.08,5,5,0,0,1,5,5.05A5,5,0,0,1-4756.77-4792.45Zm0-8.86a3.57,3.57,0,0,0-3.55,3.78,3.65,3.65,0,0,0,3.59,3.79,3.58,3.58,0,0,0,3.57-3.76A3.67,3.67,0,0,0-4756.77-4801.31Z" transform="translate(4820.8 4865.66)"/><path class="cls-4" d="M-4747.12-4795.43a1.43,1.43,0,0,0,1.63,1.61,3,3,0,0,0,1.41-.34v1.24a3.59,3.59,0,0,1-1.75.42,2.47,2.47,0,0,1-2.74-2.74v-5.86h-1.35v-1.28h1.35v-2.92h1.45v2.92h3.07v1.28h-3.07Z" transform="translate(4820.8 4865.66)"/><path class="cls-4" d="M-4737.5-4793.71a4,4,0,0,0,3.06-1.37l.9.81a5,5,0,0,1-4,1.82,4.83,4.83,0,0,1-4.84-5.07,4.79,4.79,0,0,1,4.66-5.06c2.87,0,4.52,2.29,4.52,5.14a3.7,3.7,0,0,1,0,.45h-7.7A3.4,3.4,0,0,0-4737.5-4793.71Zm2.83-4.35c-.15-1.76-1.16-3.3-3.09-3.3a3.35,3.35,0,0,0-3.16,3.3Z" transform="translate(4820.8 4865.66)"/><path class="cls-4" d="M-4728.72-4795.43a1.43,1.43,0,0,0,1.63,1.61,3,3,0,0,0,1.41-.34v1.24a3.55,3.55,0,0,1-1.74.42,2.47,2.47,0,0,1-2.74-2.74v-5.86h-1.36v-1.28h1.36v-2.92h1.44v2.92h3.08v1.28h-3.08Z" transform="translate(4820.8 4865.66)"/><path class="cls-4" d="M-4723-4804.5v-1.59h1.65v1.59Zm.09,11.83v-9.71h1.45v9.71Z" transform="translate(4820.8 4865.66)"/><path class="cls-4" d="M-4718.49-4801.16v-1.22h8.18v.92l-6.46,7.57h6.46v1.22h-8.41v-.92l6.44-7.57Z" transform="translate(4820.8 4865.66)"/><path class="cls-4" d="M-4707.16-4800.52l-.43-1.18a8,8,0,0,1,3.52-.81c2.65,0,4.13,1.35,4.13,3.91v5.93h-1.38v-1.47a4.28,4.28,0,0,1-3.51,1.67c-1.81,0-3.63-1-3.63-3s1.69-3.15,4.15-3.15a10.52,10.52,0,0,1,3,.41v-.34c0-1.74-1.07-2.64-2.9-2.64A6.78,6.78,0,0,0-4707.16-4800.52Zm.17,5c0,1.23,1.12,2,2.44,2,1.78,0,3.24-1.09,3.24-2.63v-.94a10.35,10.35,0,0,0-2.85-.41C-4706-4797.59-4707-4796.8-4707-4795.56Z" transform="translate(4820.8 4865.66)"/><path class="cls-4" d="M-4691.7-4792.47a4.38,4.38,0,0,1-3.72-2.06v1.86h-1.44v-13.7h1.44v5.95a4.36,4.36,0,0,1,3.72-2.16,4.74,4.74,0,0,1,4.64,5.05A4.75,4.75,0,0,1-4691.7-4792.47Zm-.26-8.82a3.61,3.61,0,0,0-3.51,3.76,3.62,3.62,0,0,0,3.51,3.77,3.43,3.43,0,0,0,3.41-3.76A3.5,3.5,0,0,0-4692-4801.29Z" transform="translate(4820.8 4865.66)"/><path class="cls-4" d="M-4683.84-4800.52l-.43-1.18a8,8,0,0,1,3.53-.81c2.64,0,4.13,1.35,4.13,3.91v5.93H-4678v-1.47a4.28,4.28,0,0,1-3.51,1.67c-1.8,0-3.63-1-3.63-3s1.69-3.15,4.15-3.15a10.52,10.52,0,0,1,3,.41v-.34c0-1.74-1.07-2.64-2.89-2.64A6.79,6.79,0,0,0-4683.84-4800.52Zm.17,5c0,1.23,1.12,2,2.44,2,1.78,0,3.25-1.09,3.25-2.63v-.94a10.49,10.49,0,0,0-2.86-.41C-4682.66-4797.59-4683.67-4796.8-4683.67-4795.56Z" transform="translate(4820.8 4865.66)"/><path class="cls-4" d="M-4655.81-4789.67v-5a4.33,4.33,0,0,1-3.71,2.16,4.74,4.74,0,0,1-4.64-5.05,4.76,4.76,0,0,1,4.64-5.06,4.36,4.36,0,0,1,3.71,2.06v-1.86h1.45v12.71Zm-3.45-11.62a3.43,3.43,0,0,0-3.41,3.76,3.5,3.5,0,0,0,3.41,3.77,3.62,3.62,0,0,0,3.51-3.77A3.61,3.61,0,0,0-4659.26-4801.29Z" transform="translate(4820.8 4865.66)"/><path class="cls-4" d="M-4644.25-4802.38h1.43v9.71h-1.43v-1.69a3.68,3.68,0,0,1-3.32,1.89,3.54,3.54,0,0,1-3.72-3.88v-6h1.45v5.67c0,1.8,1,2.93,2.68,2.93a2.87,2.87,0,0,0,2.91-3Z" transform="translate(4820.8 4865.66)"/><path class="cls-4" d="M-4635.3-4793.71a4,4,0,0,0,3.06-1.37l.9.81a5,5,0,0,1-4,1.82,4.83,4.83,0,0,1-4.84-5.07,4.79,4.79,0,0,1,4.66-5.06c2.87,0,4.52,2.29,4.52,5.14a3.7,3.7,0,0,1,0,.45h-7.69A3.39,3.39,0,0,0-4635.3-4793.71Zm2.83-4.35c-.15-1.76-1.16-3.3-3.09-3.3a3.33,3.33,0,0,0-3.15,3.3Z" transform="translate(4820.8 4865.66)"/><path class="cls-4" d="M-4610.74-4792.67v-2a4.33,4.33,0,0,1-3.71,2.16,4.74,4.74,0,0,1-4.64-5.05,4.76,4.76,0,0,1,4.64-5.06,4.36,4.36,0,0,1,3.71,2.06v-5.85h1.45v13.7Zm-3.45-8.62a3.43,3.43,0,0,0-3.42,3.76,3.51,3.51,0,0,0,3.42,3.77,3.62,3.62,0,0,0,3.51-3.77A3.61,3.61,0,0,0-4614.19-4801.29Z" transform="translate(4820.8 4865.66)"/><path class="cls-4" d="M-4601.79-4793.71a4,4,0,0,0,3.06-1.37l.9.81a5,5,0,0,1-4,1.82,4.83,4.83,0,0,1-4.84-5.07,4.79,4.79,0,0,1,4.66-5.06c2.87,0,4.52,2.29,4.52,5.14a3.7,3.7,0,0,1,0,.45h-7.69A3.39,3.39,0,0,0-4601.79-4793.71Zm2.84-4.35c-.15-1.76-1.17-3.3-3.1-3.3a3.33,3.33,0,0,0-3.15,3.3Z" transform="translate(4820.8 4865.66)"/><path class="cls-4" d="M-4589.8-4792.47a4.36,4.36,0,0,1-3.71-2.06v1.86H-4595v-13.7h1.45v5.95a4.33,4.33,0,0,1,3.71-2.16,4.74,4.74,0,0,1,4.64,5.05A4.75,4.75,0,0,1-4589.8-4792.47Zm-.26-8.82a3.61,3.61,0,0,0-3.51,3.76,3.62,3.62,0,0,0,3.51,3.77,3.43,3.43,0,0,0,3.41-3.76A3.5,3.5,0,0,0-4590.06-4801.29Z" transform="translate(4820.8 4865.66)"/><path class="cls-4" d="M-4582.37-4792.67v-9.71h1.44v9.71Zm.13-11.17,1.78-2.72,1.51.69-2.13,2Z" transform="translate(4820.8 4865.66)"/><path class="cls-4" d="M-4577-4800.52l-.44-1.18a8,8,0,0,1,3.53-.81c2.65,0,4.13,1.35,4.13,3.91v5.93h-1.39v-1.47a4.25,4.25,0,0,1-3.51,1.67c-1.8,0-3.62-1-3.62-3s1.69-3.15,4.15-3.15a10.4,10.4,0,0,1,3,.41v-.34c0-1.74-1.07-2.64-2.89-2.64A6.78,6.78,0,0,0-4577-4800.52Zm.16,5c0,1.23,1.13,2,2.44,2,1.79,0,3.25-1.09,3.25-2.63v-.94a10.35,10.35,0,0,0-2.85-.41C-4575.82-4797.59-4576.84-4796.8-4576.84-4795.56Z" transform="translate(4820.8 4865.66)"/><path class="cls-4" d="M-4552.48-4793.71a4,4,0,0,0,3.06-1.37l.9.81a5,5,0,0,1-4,1.82,4.83,4.83,0,0,1-4.84-5.07,4.79,4.79,0,0,1,4.66-5.06c2.87,0,4.52,2.29,4.52,5.14a3.7,3.7,0,0,1,0,.45h-7.69A3.39,3.39,0,0,0-4552.48-4793.71Zm2.84-4.35c-.15-1.76-1.17-3.3-3.1-3.3a3.33,3.33,0,0,0-3.15,3.3Z" transform="translate(4820.8 4865.66)"/><path class="cls-4" d="M-4537.79-4792.67h-1.67l-3-4-3,4h-1.62l3.81-4.94-3.66-4.77h1.66l2.87,3.76,2.87-3.76h1.61l-3.67,4.73Z" transform="translate(4820.8 4865.66)"/><path class="cls-4" d="M-4535.41-4804.5v-1.59h1.66v1.59Zm.1,11.83v-9.71h1.44v9.71Z" transform="translate(4820.8 4865.66)"/><path class="cls-4" d="M-4527.3-4792.49a6.69,6.69,0,0,1-4-1.42l.74-1a5.7,5.7,0,0,0,3.36,1.23c1.16,0,2-.6,2-1.53v0c0-1-1.14-1.35-2.42-1.71-1.52-.43-3.21-1-3.21-2.74v0c0-1.67,1.39-2.78,3.31-2.78a6.71,6.71,0,0,1,3.49,1.07l-.66,1.09a5.49,5.49,0,0,0-2.87-.94c-1.15,0-1.88.6-1.88,1.41v0c0,.92,1.2,1.28,2.5,1.67,1.5.45,3.11,1,3.11,2.78v0C-4523.85-4793.56-4525.37-4792.49-4527.3-4792.49Z" transform="translate(4820.8 4865.66)"/><path class="cls-4" d="M-4519.4-4795.43a1.43,1.43,0,0,0,1.63,1.61,3,3,0,0,0,1.41-.34v1.24a3.57,3.57,0,0,1-1.75.42,2.47,2.47,0,0,1-2.74-2.74v-5.86h-1.35v-1.28h1.35v-2.92h1.45v2.92h3.08v1.28h-3.08Z" transform="translate(4820.8 4865.66)"/><path class="cls-4" d="M-4513.74-4804.5v-1.59h1.66v1.59Zm.1,11.83v-9.71h1.44v9.71Z" transform="translate(4820.8 4865.66)"/><path class="cls-4" d="M-4507.39-4792.67h-1.45v-9.71h1.45v2.54a4.16,4.16,0,0,1,4-2.71v1.56h-.12c-2.12,0-3.84,1.52-3.84,4.45Z" transform="translate(4820.8 4865.66)"/><path class="cls-4" d="M-4484.41-4802.38h1.43v9.71h-1.43v-1.69a3.68,3.68,0,0,1-3.32,1.89,3.54,3.54,0,0,1-3.71-3.88v-6h1.44v5.67c0,1.8,1,2.93,2.69,2.93a2.86,2.86,0,0,0,2.9-3Z" transform="translate(4820.8 4865.66)"/><path class="cls-4" d="M-4478.29-4792.67h-1.45v-9.71h1.45v1.69a3.67,3.67,0,0,1,3.32-1.89,3.54,3.54,0,0,1,3.72,3.88v6h-1.45v-5.67c0-1.8-1-2.93-2.68-2.93a2.86,2.86,0,0,0-2.91,3Z" transform="translate(4820.8 4865.66)"/><path class="cls-4" d="M-4453.07-4792.47a4.38,4.38,0,0,1-3.72-2.06v4.86h-1.44v-12.71h1.44v2a4.36,4.36,0,0,1,3.72-2.16,4.73,4.73,0,0,1,4.63,5.05A4.75,4.75,0,0,1-4453.07-4792.47Zm-.26-8.82a3.61,3.61,0,0,0-3.51,3.76,3.61,3.61,0,0,0,3.51,3.77,3.43,3.43,0,0,0,3.41-3.76A3.5,3.5,0,0,0-4453.33-4801.29Z" transform="translate(4820.8 4865.66)"/><path class="cls-4" d="M-4445.64-4792.67v-13.7h1.44v13.7Z" transform="translate(4820.8 4865.66)"/><path class="cls-4" d="M-4440.28-4800.52l-.43-1.18a8,8,0,0,1,3.53-.81c2.65,0,4.13,1.35,4.13,3.91v5.93h-1.39v-1.47a4.26,4.26,0,0,1-3.51,1.67c-1.8,0-3.62-1-3.62-3s1.69-3.15,4.15-3.15a10.45,10.45,0,0,1,3,.41v-.34c0-1.74-1.07-2.64-2.89-2.64A6.79,6.79,0,0,0-4440.28-4800.52Zm.17,5c0,1.23,1.13,2,2.44,2,1.78,0,3.25-1.09,3.25-2.63v-.94a10.35,10.35,0,0,0-2.85-.41C-4439.09-4797.59-4440.11-4796.8-4440.11-4795.56Z" transform="translate(4820.8 4865.66)"/><path class="cls-4" d="M-4428.53-4792.67H-4430v-9.71h1.45v1.69a3.67,3.67,0,0,1,3.32-1.89,3.54,3.54,0,0,1,3.72,3.88v6h-1.45v-5.67c0-1.8-1-2.93-2.68-2.93a2.86,2.86,0,0,0-2.91,3Z" transform="translate(4820.8 4865.66)"/><path class="cls-4" d="M-4414.14-4793.71a4,4,0,0,0,3.06-1.37l.9.81a5,5,0,0,1-4,1.82,4.83,4.83,0,0,1-4.84-5.07,4.79,4.79,0,0,1,4.65-5.06c2.88,0,4.53,2.29,4.53,5.14a3.7,3.7,0,0,1,0,.45h-7.7A3.4,3.4,0,0,0-4414.14-4793.71Zm2.83-4.35c-.15-1.76-1.16-3.3-3.09-3.3a3.35,3.35,0,0,0-3.16,3.3Z" transform="translate(4820.8 4865.66)"/><path class="cls-4" d="M-4405.36-4795.43a1.43,1.43,0,0,0,1.63,1.61,3,3,0,0,0,1.41-.34v1.24a3.55,3.55,0,0,1-1.74.42,2.47,2.47,0,0,1-2.74-2.74v-5.86h-1.36v-1.28h1.36v-2.92h1.44v2.92h3.08v1.28h-3.08Z" transform="translate(4820.8 4865.66)"/><path class="cls-4" d="M-4399.17-4800.52l-.43-1.18a8,8,0,0,1,3.53-.81c2.64,0,4.13,1.35,4.13,3.91v5.93h-1.39v-1.47a4.26,4.26,0,0,1-3.51,1.67c-1.8,0-3.62-1-3.62-3s1.69-3.15,4.14-3.15a10.52,10.52,0,0,1,3,.41v-.34c0-1.74-1.07-2.64-2.89-2.64A6.79,6.79,0,0,0-4399.17-4800.52Zm.17,5c0,1.23,1.13,2,2.44,2,1.78,0,3.25-1.09,3.25-2.63v-.94a10.43,10.43,0,0,0-2.86-.41C-4398-4797.59-4399-4796.8-4399-4795.56Z" transform="translate(4820.8 4865.66)"/><path class="cls-4" d="M-4789.58-4778l-.44-1.19a8.12,8.12,0,0,1,3.53-.8c2.65,0,4.13,1.35,4.13,3.9v5.93h-1.39v-1.46a4.25,4.25,0,0,1-3.51,1.67c-1.8,0-3.62-1-3.62-3s1.69-3.16,4.15-3.16a10,10,0,0,1,3,.42v-.34c0-1.75-1.07-2.65-2.89-2.65A6.65,6.65,0,0,0-4789.58-4778Zm.16,4.95c0,1.24,1.13,1.95,2.44,1.95,1.79,0,3.25-1.09,3.25-2.62v-.94a9.94,9.94,0,0,0-2.85-.42C-4788.4-4775.08-4789.42-4774.29-4789.42-4773Z" transform="translate(4820.8 4865.66)"/><path class="cls-4" d="M-4771.5-4770.16v-1.95a4.35,4.35,0,0,1-3.71,2.16,4.74,4.74,0,0,1-4.64-5.05,4.77,4.77,0,0,1,4.64-5.07,4.37,4.37,0,0,1,3.71,2.07v-5.86h1.45v13.7Zm-3.45-8.61a3.42,3.42,0,0,0-3.41,3.75,3.49,3.49,0,0,0,3.41,3.77,3.62,3.62,0,0,0,3.51-3.77A3.61,3.61,0,0,0-4774.95-4778.77Z" transform="translate(4820.8 4865.66)"/><path class="cls-4" d="M-4766.79-4782v-1.6h1.65v1.6Zm.1,11.82v-9.7h1.44v9.7Z" transform="translate(4820.8 4865.66)"/><path class="cls-4" d="M-4757.52-4769.93a5,5,0,0,1-5-5,5,5,0,0,1,5-5.09,5,5,0,0,1,3.89,1.73l-1,1a3.9,3.9,0,0,0-2.95-1.46A3.58,3.58,0,0,0-4761-4775a3.63,3.63,0,0,0,3.57,3.79,4,4,0,0,0,3-1.44l.92.86A5,5,0,0,1-4757.52-4769.93Z" transform="translate(4820.8 4865.66)"/><path class="cls-4" d="M-4751.14-4782v-1.6h1.65v1.6Zm.09,11.82v-9.7h1.45v9.7Z" transform="translate(4820.8 4865.66)"/><path class="cls-4" d="M-4741.81-4769.93a5,5,0,0,1-5-5,5,5,0,0,1,5.06-5.09,5,5,0,0,1,5.05,5A5,5,0,0,1-4741.81-4769.93Zm0-8.86a3.56,3.56,0,0,0-3.55,3.77,3.65,3.65,0,0,0,3.58,3.79,3.57,3.57,0,0,0,3.57-3.75A3.67,3.67,0,0,0-4741.81-4778.79Z" transform="translate(4820.8 4865.66)"/><path class="cls-4" d="M-4732.68-4770.16h-1.44v-9.7h1.44v1.69a3.68,3.68,0,0,1,3.32-1.9,3.55,3.55,0,0,1,3.72,3.89v6h-1.45v-5.67c0-1.8-1-2.92-2.68-2.92a2.86,2.86,0,0,0-2.91,3Z" transform="translate(4820.8 4865.66)"/><path class="cls-4" d="M-4722-4778l-.43-1.19a8.11,8.11,0,0,1,3.52-.8c2.65,0,4.13,1.35,4.13,3.9v5.93h-1.39v-1.46a4.25,4.25,0,0,1-3.51,1.67c-1.8,0-3.62-1-3.62-3s1.69-3.16,4.15-3.16a10,10,0,0,1,3,.42v-.34c0-1.75-1.07-2.65-2.89-2.65A6.65,6.65,0,0,0-4722-4778Zm.17,4.95c0,1.24,1.12,1.95,2.44,1.95,1.78,0,3.24-1.09,3.24-2.62v-.94a9.94,9.94,0,0,0-2.85-.42C-4720.82-4775.08-4721.83-4774.29-4721.83-4773Z" transform="translate(4820.8 4865.66)"/><path class="cls-4" d="M-4711.57-4770.16v-13.7h1.44v13.7Z" transform="translate(4820.8 4865.66)"/><path class="cls-4" d="M-4689-4780.07c2.23,0,3.6,1.5,3.6,3.91v6h-1.45v-5.67c0-1.87-.93-2.92-2.51-2.92a2.71,2.71,0,0,0-2.68,3v5.59h-1.43v-5.7c0-1.82-1-2.89-2.5-2.89a2.8,2.8,0,0,0-2.7,3.05v5.54h-1.44v-9.7h1.44v1.63a3.54,3.54,0,0,1,3.13-1.84,3.31,3.31,0,0,1,3.12,1.93A3.89,3.89,0,0,1-4689-4780.07Z" transform="translate(4820.8 4865.66)"/><path class="cls-4" d="M-4681.67-4778l-.43-1.19a8.12,8.12,0,0,1,3.53-.8c2.64,0,4.13,1.35,4.13,3.9v5.93h-1.39v-1.46a4.26,4.26,0,0,1-3.51,1.67c-1.8,0-3.62-1-3.62-3s1.69-3.16,4.14-3.16a10.15,10.15,0,0,1,3,.42v-.34c0-1.75-1.07-2.65-2.89-2.65A6.66,6.66,0,0,0-4681.67-4778Zm.17,4.95c0,1.24,1.13,1.95,2.44,1.95,1.78,0,3.25-1.09,3.25-2.62v-.94a10,10,0,0,0-2.86-.42C-4680.49-4775.08-4681.5-4774.29-4681.5-4773Zm2.31-8.28,1.78-2.72,1.5.7-2.12,2Z" transform="translate(4820.8 4865.66)"/><path class="cls-4" d="M-4668.16-4770a6.7,6.7,0,0,1-4-1.43l.74-1a5.65,5.65,0,0,0,3.36,1.24c1.16,0,2-.6,2-1.54v0c0-1-1.14-1.35-2.42-1.71-1.52-.43-3.21-1-3.21-2.74v0c0-1.67,1.39-2.78,3.31-2.78a6.62,6.62,0,0,1,3.49,1.07l-.66,1.09a5.49,5.49,0,0,0-2.87-.94c-1.15,0-1.88.6-1.88,1.41v0c0,.92,1.2,1.28,2.5,1.67,1.5.46,3.11,1,3.11,2.78v0C-4664.71-4771-4666.23-4770-4668.16-4770Z" transform="translate(4820.8 4865.66)"/><path class="cls-4" d="M-4651-4769.93a5,5,0,0,1-5-5,5,5,0,0,1,5-5.09,5,5,0,0,1,3.89,1.73l-1,1a3.9,3.9,0,0,0-2.95-1.46,3.58,3.58,0,0,0-3.47,3.77,3.63,3.63,0,0,0,3.57,3.79,4,4,0,0,0,3-1.44l.92.86A5,5,0,0,1-4651-4769.93Z" transform="translate(4820.8 4865.66)"/><path class="cls-4" d="M-4640.62-4771.19a4,4,0,0,0,3.06-1.37l.9.81a5,5,0,0,1-4,1.82,4.83,4.83,0,0,1-4.84-5.07,4.79,4.79,0,0,1,4.65-5.07c2.88,0,4.53,2.29,4.53,5.14a3.54,3.54,0,0,1,0,.45h-7.7A3.4,3.4,0,0,0-4640.62-4771.19Zm2.83-4.35c-.15-1.77-1.16-3.31-3.09-3.31a3.36,3.36,0,0,0-3.16,3.31Z" transform="translate(4820.8 4865.66)"/><path class="cls-4" d="M-4632.35-4770.16h-1.44v-9.7h1.44v2.53a4.16,4.16,0,0,1,4-2.7v1.56h-.11c-2.12,0-3.85,1.52-3.85,4.45Z" transform="translate(4820.8 4865.66)"/><path class="cls-4" d="M-4622.23-4769.93a5,5,0,0,1-5-5,5,5,0,0,1,5-5.09,5,5,0,0,1,3.88,1.73l-.95,1a3.92,3.92,0,0,0-2.95-1.46,3.58,3.58,0,0,0-3.47,3.77,3.63,3.63,0,0,0,3.56,3.79,4,4,0,0,0,3-1.44l.92.86A5,5,0,0,1-4622.23-4769.93Z" transform="translate(4820.8 4865.66)"/><path class="cls-4" d="M-4615.33-4778l-.43-1.19a8.12,8.12,0,0,1,3.53-.8c2.64,0,4.13,1.35,4.13,3.9v5.93h-1.39v-1.46a4.26,4.26,0,0,1-3.51,1.67c-1.8,0-3.62-1-3.62-3s1.69-3.16,4.14-3.16a10.15,10.15,0,0,1,3,.42v-.34c0-1.75-1.07-2.65-2.89-2.65A6.66,6.66,0,0,0-4615.33-4778Zm.17,4.95c0,1.24,1.13,1.95,2.44,1.95,1.78,0,3.25-1.09,3.25-2.62v-.94a10,10,0,0,0-2.86-.42C-4614.15-4775.08-4615.16-4774.29-4615.16-4773Z" transform="translate(4820.8 4865.66)"/><path class="cls-4" d="M-4603.58-4770.16H-4605v-9.7h1.45v1.69a3.67,3.67,0,0,1,3.32-1.9,3.55,3.55,0,0,1,3.72,3.89v6H-4598v-5.67c0-1.8-1-2.92-2.68-2.92a2.86,2.86,0,0,0-2.91,3Z" transform="translate(4820.8 4865.66)"/><path class="cls-4" d="M-4589-4769.93a5,5,0,0,1-5-5,5,5,0,0,1,5.07-5.09,5,5,0,0,1,5,5A5,5,0,0,1-4589-4769.93Zm0-8.86a3.57,3.57,0,0,0-3.55,3.77,3.65,3.65,0,0,0,3.59,3.79,3.57,3.57,0,0,0,3.56-3.75A3.67,3.67,0,0,0-4589-4778.79Z" transform="translate(4820.8 4865.66)"/><path class="cls-4" d="M-4574.09-4778l-.44-1.19a8.16,8.16,0,0,1,3.53-.8c2.65,0,4.13,1.35,4.13,3.9v5.93h-1.39v-1.46a4.25,4.25,0,0,1-3.51,1.67c-1.8,0-3.62-1-3.62-3s1.69-3.16,4.15-3.16a10,10,0,0,1,3,.42v-.34c0-1.75-1.07-2.65-2.89-2.65A6.65,6.65,0,0,0-4574.09-4778Zm.16,4.95c0,1.24,1.13,1.95,2.44,1.95,1.79,0,3.25-1.09,3.25-2.62v-.94a9.94,9.94,0,0,0-2.85-.42C-4572.91-4775.08-4573.93-4774.29-4573.93-4773Z" transform="translate(4820.8 4865.66)"/><path class="cls-4" d="M-4563.66-4770.16v-13.7h1.44v13.7Z" transform="translate(4820.8 4865.66)"/><path class="cls-4" d="M-4547.21-4777.44c2.93.64,4.28,1.71,4.28,3.73,0,2.28-1.88,3.74-4.49,3.74a7.74,7.74,0,0,1-5.37-2.1l.92-1.09a6.27,6.27,0,0,0,4.51,1.86c1.76,0,2.93-.92,2.93-2.26s-.66-1.93-3.42-2.51c-3-.66-4.41-1.63-4.41-3.81s1.82-3.6,4.32-3.6a6.84,6.84,0,0,1,4.61,1.61l-.86,1.14a5.79,5.79,0,0,0-3.79-1.42c-1.71,0-2.8.94-2.8,2.14S-4550.1-4778.06-4547.21-4777.44Z" transform="translate(4820.8 4865.66)"/><path class="cls-4" d="M-4535.73-4769.93a5,5,0,0,1-5-5,5,5,0,0,1,5.07-5.09,5,5,0,0,1,5,5A5,5,0,0,1-4535.73-4769.93Zm0-8.86a3.57,3.57,0,0,0-3.55,3.77,3.65,3.65,0,0,0,3.59,3.79,3.58,3.58,0,0,0,3.57-3.75A3.67,3.67,0,0,0-4535.73-4778.79Z" transform="translate(4820.8 4865.66)"/><path class="cls-4" d="M-4527.91-4770.16v-13.7h1.45v13.7Z" transform="translate(4820.8 4865.66)"/><path class="cls-4" d="M-4508.62-4767.16v-4.95a4.37,4.37,0,0,1-3.72,2.16A4.74,4.74,0,0,1-4517-4775a4.77,4.77,0,0,1,4.63-5.07,4.39,4.39,0,0,1,3.72,2.07v-1.86h1.44v12.7Zm-3.45-11.61a3.43,3.43,0,0,0-3.42,3.75,3.5,3.5,0,0,0,3.42,3.77,3.62,3.62,0,0,0,3.51-3.77A3.61,3.61,0,0,0-4512.07-4778.77Z" transform="translate(4820.8 4865.66)"/><path class="cls-4" d="M-4497.06-4779.86h1.42v9.7h-1.42v-1.69a3.72,3.72,0,0,1-3.33,1.9,3.55,3.55,0,0,1-3.71-3.89v-6h1.44v5.67c0,1.8,1,2.92,2.69,2.92a2.87,2.87,0,0,0,2.91-3Z" transform="translate(4820.8 4865.66)"/><path class="cls-4" d="M-4488.11-4771.19a4,4,0,0,0,3-1.37l.9.81a5,5,0,0,1-4,1.82A4.83,4.83,0,0,1-4493-4775a4.79,4.79,0,0,1,4.65-5.07c2.87,0,4.52,2.29,4.52,5.14a3.54,3.54,0,0,1,0,.45h-7.69A3.4,3.4,0,0,0-4488.11-4771.19Zm2.83-4.35c-.15-1.77-1.16-3.31-3.1-3.31a3.35,3.35,0,0,0-3.15,3.31Z" transform="translate(4820.8 4865.66)"/><path class="cls-4" d="M-4468-4773.76h-.08l-4.78-7v10.62h-1.45v-13.14h1.5l4.79,7.17,4.78-7.17h1.51v13.14h-1.49v-10.64Z" transform="translate(4820.8 4865.66)"/><path class="cls-4" d="M-4454-4771.19a4,4,0,0,0,3.06-1.37l.9.81a5,5,0,0,1-4,1.82,4.83,4.83,0,0,1-4.84-5.07,4.79,4.79,0,0,1,4.66-5.07c2.87,0,4.52,2.29,4.52,5.14a3.54,3.54,0,0,1,0,.45h-7.69A3.39,3.39,0,0,0-4454-4771.19Zm2.84-4.35c-.15-1.77-1.17-3.31-3.1-3.31a3.34,3.34,0,0,0-3.15,3.31Z" transform="translate(4820.8 4865.66)"/><path class="cls-4" d="M-4445.76-4770.16h-1.44v-9.7h1.44v2.53a4.17,4.17,0,0,1,4-2.7v1.56h-.11c-2.12,0-3.85,1.52-3.85,4.45Z" transform="translate(4820.8 4865.66)"/><path class="cls-4" d="M-4435.64-4769.93a5,5,0,0,1-5-5,5,5,0,0,1,5-5.09,5,5,0,0,1,3.88,1.73l-.95,1a3.92,3.92,0,0,0-2.95-1.46,3.58,3.58,0,0,0-3.47,3.77,3.63,3.63,0,0,0,3.56,3.79,4,4,0,0,0,3-1.44l.92.86A5,5,0,0,1-4435.64-4769.93Z" transform="translate(4820.8 4865.66)"/><path class="cls-4" d="M-4422.41-4779.86h1.42v9.7h-1.42v-1.69a3.7,3.7,0,0,1-3.32,1.9,3.55,3.55,0,0,1-3.72-3.89v-6h1.44v5.67c0,1.8,1,2.92,2.69,2.92a2.87,2.87,0,0,0,2.91-3Z" transform="translate(4820.8 4865.66)"/><path class="cls-4" d="M-4416.3-4770.16h-1.44v-9.7h1.44v2.53a4.16,4.16,0,0,1,4-2.7v1.56h-.11c-2.12,0-3.85,1.52-3.85,4.45Z" transform="translate(4820.8 4865.66)"/><path class="cls-4" d="M-4410.11-4782v-1.6h1.65v1.6Zm.1,11.82v-9.7h1.44v9.7Z" transform="translate(4820.8 4865.66)"/><path class="cls-4" d="M-4400.78-4769.93a5,5,0,0,1-5-5,5,5,0,0,1,5.07-5.09,5,5,0,0,1,5.05,5A5,5,0,0,1-4400.78-4769.93Zm0-8.86a3.57,3.57,0,0,0-3.55,3.77,3.65,3.65,0,0,0,3.59,3.79,3.57,3.57,0,0,0,3.56-3.75A3.66,3.66,0,0,0-4400.78-4778.79Z" transform="translate(4820.8 4865.66)"/><path class="cls-4" d="M-4393-4770.16h-.67v-2h1.72v1.69a2.3,2.3,0,0,1-2.08,2.57l-.23-.66C-4393.28-4768.86-4392.88-4769.35-4393-4770.16Z" transform="translate(4820.8 4865.66)"/><path class="cls-4" d="M-4761.58-4747.32c-.82,2-1.76,2.74-3.22,2.74a4.42,4.42,0,0,1-2.07-.49l.49-1.15a3,3,0,0,0,1.52.36c.86,0,1.41-.45,2-1.82l-4.41-9.67h1.59l3.53,8.09,3.12-8.09h1.54Z" transform="translate(4820.8 4865.66)"/><path class="cls-4" d="M-4745.31-4748.68a4,4,0,0,0,3.06-1.37l.9.81a5,5,0,0,1-4,1.82,4.83,4.83,0,0,1-4.84-5.07,4.79,4.79,0,0,1,4.66-5.06c2.87,0,4.52,2.29,4.52,5.14a3.7,3.7,0,0,1,0,.45h-7.69A3.39,3.39,0,0,0-4745.31-4748.68Zm2.84-4.35c-.15-1.76-1.17-3.3-3.1-3.3a3.33,3.33,0,0,0-3.15,3.3Z" transform="translate(4820.8 4865.66)"/><path class="cls-4" d="M-4738.35-4747.64v-13.7h1.45v13.7Z" transform="translate(4820.8 4865.66)"/><path class="cls-4" d="M-4723.54-4747.42a5,5,0,0,1-5-5.05,5,5,0,0,1,5-5.08,5,5,0,0,1,3.88,1.72l-1,1a3.91,3.91,0,0,0-2.94-1.47,3.59,3.59,0,0,0-3.48,3.78,3.63,3.63,0,0,0,3.57,3.79,4,4,0,0,0,3-1.45l.92.87A5,5,0,0,1-4723.54-4747.42Z" transform="translate(4820.8 4865.66)"/><path class="cls-4" d="M-4710.32-4757.35h1.43v9.71h-1.43v-1.69a3.68,3.68,0,0,1-3.32,1.89,3.54,3.54,0,0,1-3.71-3.88v-6h1.44v5.67c0,1.8,1,2.93,2.68,2.93a2.86,2.86,0,0,0,2.91-3Z" transform="translate(4820.8 4865.66)"/><path class="cls-4" d="M-4705.08-4755.49l-.44-1.18a8,8,0,0,1,3.53-.81c2.65,0,4.13,1.35,4.13,3.91v5.93h-1.39v-1.47a4.25,4.25,0,0,1-3.51,1.67c-1.8,0-3.62-1-3.62-3s1.69-3.15,4.15-3.15a10.4,10.4,0,0,1,3,.41v-.34c0-1.74-1.07-2.64-2.89-2.64A6.78,6.78,0,0,0-4705.08-4755.49Zm.17,5c0,1.24,1.12,1.95,2.44,1.95,1.78,0,3.24-1.09,3.24-2.63v-.94a10.35,10.35,0,0,0-2.85-.41C-4703.9-4752.56-4704.91-4751.77-4704.91-4750.53Z" transform="translate(4820.8 4865.66)"/><path class="cls-4" d="M-4694.65-4747.64v-13.7h1.44v13.7Z" transform="translate(4820.8 4865.66)"/><path class="cls-4" d="M-4679.17-4757.31v1.24h-3.06v8.43h-1.45v-8.43H-4685v-1.26h1.33v-.84c0-2.12,1.07-3.25,2.93-3.25a4.61,4.61,0,0,1,1.6.24v1.26a4.85,4.85,0,0,0-1.41-.24c-1.13,0-1.69.67-1.69,2.06v.79Z" transform="translate(4820.8 4865.66)"/><path class="cls-4" d="M-4670.45-4757.35h1.43v9.71h-1.43v-1.69a3.68,3.68,0,0,1-3.32,1.89,3.54,3.54,0,0,1-3.71-3.88v-6h1.44v5.67c0,1.8,1,2.93,2.68,2.93a2.86,2.86,0,0,0,2.91-3Z" transform="translate(4820.8 4865.66)"/><path class="cls-4" d="M-4661.5-4748.68a4,4,0,0,0,3.06-1.37l.9.81a5,5,0,0,1-4,1.82,4.83,4.83,0,0,1-4.84-5.07,4.79,4.79,0,0,1,4.66-5.06c2.87,0,4.52,2.29,4.52,5.14a3.7,3.7,0,0,1,0,.45h-7.69A3.39,3.39,0,0,0-4661.5-4748.68Zm2.84-4.35c-.15-1.76-1.17-3.3-3.1-3.3a3.33,3.33,0,0,0-3.15,3.3Z" transform="translate(4820.8 4865.66)"/><path class="cls-4" d="M-4643.88-4747.44a4.38,4.38,0,0,1-3.72-2.06v1.86H-4649v-13.7h1.44v5.95a4.36,4.36,0,0,1,3.72-2.16,4.74,4.74,0,0,1,4.64,5.05A4.75,4.75,0,0,1-4643.88-4747.44Zm-.26-8.82a3.61,3.61,0,0,0-3.51,3.76,3.62,3.62,0,0,0,3.51,3.77,3.43,3.43,0,0,0,3.41-3.76A3.5,3.5,0,0,0-4644.14-4756.26Z" transform="translate(4820.8 4865.66)"/><path class="cls-4" d="M-4636-4755.49l-.43-1.18a8,8,0,0,1,3.53-.81c2.64,0,4.13,1.35,4.13,3.91v5.93h-1.39v-1.47a4.26,4.26,0,0,1-3.51,1.67c-1.8,0-3.63-1-3.63-3s1.69-3.15,4.15-3.15a10.52,10.52,0,0,1,3,.41v-.34c0-1.74-1.07-2.64-2.89-2.64A6.79,6.79,0,0,0-4636-4755.49Zm.17,5c0,1.24,1.12,1.95,2.44,1.95,1.78,0,3.25-1.09,3.25-2.63v-.94a10.43,10.43,0,0,0-2.86-.41C-4634.84-4752.56-4635.85-4751.77-4635.85-4750.53Z" transform="translate(4820.8 4865.66)"/><path class="cls-4" d="M-4618.83-4757.35h1.42v9.71h-1.42v-1.69a3.7,3.7,0,0,1-3.32,1.89,3.54,3.54,0,0,1-3.72-3.88v-6h1.45v5.67c0,1.8,1,2.93,2.68,2.93a2.87,2.87,0,0,0,2.91-3Z" transform="translate(4820.8 4865.66)"/><path class="cls-4" d="M-4612.21-4750.4a1.43,1.43,0,0,0,1.63,1.61,3,3,0,0,0,1.41-.34v1.24a3.57,3.57,0,0,1-1.75.42,2.47,2.47,0,0,1-2.74-2.74v-5.86H-4615v-1.28h1.35v-2.92h1.45v2.92h3.08v1.28h-3.08Z" transform="translate(4820.8 4865.66)"/><path class="cls-4" d="M-4606.54-4759.47v-1.59h1.65v1.59Zm.09,11.83v-9.71h1.44v9.71Z" transform="translate(4820.8 4865.66)"/><path class="cls-4" d="M-4602-4756.13v-1.22h8.19v.92l-6.46,7.57h6.46v1.22h-8.41v-.92l6.44-7.57Z" transform="translate(4820.8 4865.66)"/><path class="cls-4" d="M-4590.65-4755.49l-.43-1.18a8,8,0,0,1,3.52-.81c2.65,0,4.13,1.35,4.13,3.91v5.93h-1.39v-1.47a4.25,4.25,0,0,1-3.51,1.67c-1.8,0-3.62-1-3.62-3s1.69-3.15,4.15-3.15a10.4,10.4,0,0,1,3,.41v-.34c0-1.74-1.07-2.64-2.89-2.64A6.78,6.78,0,0,0-4590.65-4755.49Zm.17,5c0,1.24,1.12,1.95,2.44,1.95,1.78,0,3.24-1.09,3.24-2.63v-.94a10.35,10.35,0,0,0-2.85-.41C-4589.47-4752.56-4590.48-4751.77-4590.48-4750.53Z" transform="translate(4820.8 4865.66)"/><path class="cls-4" d="M-4572.56-4747.64v-2a4.36,4.36,0,0,1-3.72,2.16,4.74,4.74,0,0,1-4.64-5.05,4.76,4.76,0,0,1,4.64-5.06,4.38,4.38,0,0,1,3.72,2.06v-5.85h1.44v13.7Zm-3.46-8.62a3.43,3.43,0,0,0-3.41,3.76,3.5,3.5,0,0,0,3.41,3.77,3.62,3.62,0,0,0,3.51-3.77A3.61,3.61,0,0,0-4576-4756.26Z" transform="translate(4820.8 4865.66)"/><path class="cls-4" d="M-4563.47-4747.42a5,5,0,0,1-5-5.05,5,5,0,0,1,5.07-5.08,5,5,0,0,1,5.05,5.05A5,5,0,0,1-4563.47-4747.42Zm0-8.86a3.56,3.56,0,0,0-3.54,3.78,3.65,3.65,0,0,0,3.58,3.79,3.58,3.58,0,0,0,3.57-3.76A3.67,3.67,0,0,0-4563.47-4756.28Z" transform="translate(4820.8 4865.66)"/><path class="cls-4" d="M-4545.77-4747.42a5,5,0,0,1-5-5.05,5,5,0,0,1,5-5.08,5,5,0,0,1,3.88,1.72l-.95,1a3.93,3.93,0,0,0-2.95-1.47,3.59,3.59,0,0,0-3.47,3.78,3.63,3.63,0,0,0,3.56,3.79,4,4,0,0,0,3-1.45l.92.87A5,5,0,0,1-4545.77-4747.42Z" transform="translate(4820.8 4865.66)"/><path class="cls-4" d="M-4535.28-4747.42a5,5,0,0,1-5-5.05,5,5,0,0,1,5.06-5.08,5,5,0,0,1,5.05,5.05A5,5,0,0,1-4535.28-4747.42Zm0-8.86a3.56,3.56,0,0,0-3.55,3.78,3.65,3.65,0,0,0,3.58,3.79,3.57,3.57,0,0,0,3.57-3.76A3.67,3.67,0,0,0-4535.28-4756.28Z" transform="translate(4820.8 4865.66)"/><path class="cls-4" d="M-4516.48-4757.55c2.23,0,3.6,1.5,3.6,3.9v6h-1.44v-5.67c0-1.88-.94-2.93-2.52-2.93a2.72,2.72,0,0,0-2.68,3v5.6h-1.43v-5.71c0-1.82-1-2.89-2.49-2.89a2.82,2.82,0,0,0-2.71,3.06v5.54h-1.44v-9.71h1.44v1.64a3.54,3.54,0,0,1,3.14-1.84,3.28,3.28,0,0,1,3.11,1.93A3.88,3.88,0,0,1-4516.48-4757.55Z" transform="translate(4820.8 4865.66)"/><path class="cls-4" d="M-4505.32-4747.42a5,5,0,0,1-5-5.05,5,5,0,0,1,5.07-5.08,5,5,0,0,1,5.05,5.05A5,5,0,0,1-4505.32-4747.42Zm0-8.86a3.57,3.57,0,0,0-3.55,3.78,3.65,3.65,0,0,0,3.59,3.79,3.57,3.57,0,0,0,3.56-3.76A3.66,3.66,0,0,0-4505.32-4756.28Z" transform="translate(4820.8 4865.66)"/><path class="cls-4" d="M-4481.87-4760.78h1.6l-5.65,13.23h-1.31l-5.65-13.23h1.65l4.67,11.32Z" transform="translate(4820.8 4865.66)"/><path class="cls-4" d="M-4471.79-4757.35h1.43v9.71h-1.43v-1.69a3.7,3.7,0,0,1-3.32,1.89,3.54,3.54,0,0,1-3.72-3.88v-6h1.45v5.67c0,1.8,1,2.93,2.68,2.93a2.87,2.87,0,0,0,2.91-3Z" transform="translate(4820.8 4865.66)"/><path class="cls-4" d="M-4467-4747.64v-13.7h1.45v13.7Z" transform="translate(4820.8 4865.66)"/><path class="cls-4" d="M-4457.81-4747.42a5,5,0,0,1-5-5.05,5,5,0,0,1,5-5.08,5,5,0,0,1,3.88,1.72l-1,1a3.91,3.91,0,0,0-2.94-1.47,3.59,3.59,0,0,0-3.47,3.78,3.62,3.62,0,0,0,3.56,3.79,4,4,0,0,0,3-1.45l.92.87A5,5,0,0,1-4457.81-4747.42Z" transform="translate(4820.8 4865.66)"/><path class="cls-4" d="M-4450.91-4755.49l-.43-1.18a8,8,0,0,1,3.53-.81c2.64,0,4.13,1.35,4.13,3.91v5.93h-1.39v-1.47a4.28,4.28,0,0,1-3.51,1.67c-1.8,0-3.63-1-3.63-3s1.69-3.15,4.15-3.15a10.52,10.52,0,0,1,3,.41v-.34c0-1.74-1.07-2.64-2.89-2.64A6.79,6.79,0,0,0-4450.91-4755.49Zm.17,5c0,1.24,1.12,1.95,2.44,1.95,1.78,0,3.25-1.09,3.25-2.63v-.94a10.43,10.43,0,0,0-2.86-.41C-4449.73-4752.56-4450.74-4751.77-4450.74-4750.53Z" transform="translate(4820.8 4865.66)"/><path class="cls-4" d="M-4439.16-4747.64h-1.45v-9.71h1.45v1.69a3.66,3.66,0,0,1,3.32-1.89,3.54,3.54,0,0,1,3.71,3.88v6h-1.44v-5.67c0-1.8-1-2.93-2.69-2.93a2.85,2.85,0,0,0-2.9,3Z" transform="translate(4820.8 4865.66)"/><path class="cls-4" d="M-4424.62-4747.42a5,5,0,0,1-5-5.05,5,5,0,0,1,5.06-5.08,5,5,0,0,1,5.05,5.05A5,5,0,0,1-4424.62-4747.42Zm0-8.86a3.57,3.57,0,0,0-3.55,3.78,3.65,3.65,0,0,0,3.58,3.79,3.57,3.57,0,0,0,3.57-3.76A3.67,3.67,0,0,0-4424.62-4756.28Z" transform="translate(4820.8 4865.66)"/><path class="cls-4" d="M-4417.48-4747.64v-2h1.73v2Z" transform="translate(4820.8 4865.66)"/><path class="cls-4" d="M-4440-4659.2l-85.51-45.75h-270c-13.95,0-25.3-16.21-25.3-36.15V-4827c0-19.93,11.35-36.15,25.3-36.15h405.43c13.95,0,25.3,16.22,25.3,36.15v85.89c0,19.94-11.35,36.15-25.3,36.15h-86.64ZM-4795.5-4862c-13.33,0-24.17,15.7-24.17,35v85.89c0,19.31,10.84,35,24.17,35h270.25l80.86,43.25-34.69-43.25h89c13.32,0,24.16-15.71,24.16-35V-4827c0-19.31-10.84-35-24.16-35Z" transform="translate(4820.8 4865.66)"/></g></g></svg>