<svg xmlns="http://www.w3.org/2000/svg" viewBox="0 0 427.8 193.67"><defs><style>.cls-1{fill:#22083f;opacity:0.65;}.cls-2{fill:#6323a1;}.cls-3{fill:#7031ba;}.cls-4{fill:#fff;}</style></defs><title>Asset 7ldpi</title><g id="Layer_2" data-name="Layer 2"><g id="Layer_1-2" data-name="Layer 1"><path class="cls-1" d="M-4302.61-2520.73h-364c-12.26,0-22.21,14.57-22.21,32.54v78.55c0,18,9.95,32.54,22.21,32.54h78.85l-32,40.69,74.69-40.69h242.52c12.27,0,22.21-14.57,22.21-32.54v-78.55C-4280.4-2506.16-4290.34-2520.73-4302.61-2520.73Z" transform="translate(4698.91 2520.73)"/><path class="cls-2" d="M-4303-2511.8h-364c-12.27,0-22.21,13.61-22.21,30.41V-2408c0,16.79,9.94,30.4,22.21,30.4h78.85l-32,38,74.69-38H-4303c12.27,0,22.21-13.61,22.21-30.4v-73.39C-4280.79-2498.19-4290.73-2511.8-4303-2511.8Z" transform="translate(4698.91 2520.73)"/><path class="cls-3" d="M-4667-2511.8c-12.27,0-22.21,13.61-22.21,30.41V-2408c0,16.79,9.94,30.4,22.21,30.4h78.85l-32,38,74.69-38H-4303c12.27,0,22.21-13.61,22.21-30.4C-4280.79-2408-4747.57-2321.93-4667-2511.8Z" transform="translate(4698.91 2520.73)"/><path class="cls-4" d="M-4654.76-2493.5h-7.51v4.2h6.72v1.27h-6.72v4.31h7.6v1.27h-9v-12.32h8.9Z" transform="translate(4698.91 2520.73)"/><path class="cls-4" d="M-4650.74-2482.45h-1.36v-9.1h1.36v1.59a3.44,3.44,0,0,1,3.11-1.78,3.33,3.33,0,0,1,3.49,3.64v5.65h-1.36v-5.31c0-1.69-.91-2.75-2.51-2.75a2.67,2.67,0,0,0-2.73,2.85Z" transform="translate(4698.91 2520.73)"/><path class="cls-4" d="M-4634.87-2482.45v-12.84h1.35v12.84Z" transform="translate(4698.91 2520.73)"/><path class="cls-4" d="M-4629.84-2489.81l-.4-1.1a7.43,7.43,0,0,1,3.3-.76c2.48,0,3.87,1.27,3.87,3.66v5.56h-1.3v-1.37a4,4,0,0,1-3.29,1.56c-1.69,0-3.39-.95-3.39-2.85s1.58-2.95,3.89-2.95a9.59,9.59,0,0,1,2.79.38v-.31c0-1.64-1-2.48-2.71-2.48A6.45,6.45,0,0,0-4629.84-2489.81Zm.16,4.65c0,1.16,1.06,1.83,2.29,1.83,1.67,0,3-1,3-2.46v-.88a9.27,9.27,0,0,0-2.67-.39C-4628.73-2487.06-4629.68-2486.32-4629.68-2485.16Z" transform="translate(4698.91 2520.73)"/><path class="cls-4" d="M-4613.39-2489.81l-.4-1.1a7.43,7.43,0,0,1,3.3-.76c2.48,0,3.87,1.27,3.87,3.66v5.56h-1.3v-1.37a4,4,0,0,1-3.29,1.56c-1.69,0-3.39-.95-3.39-2.85s1.58-2.95,3.88-2.95a9.61,9.61,0,0,1,2.8.38v-.31c0-1.64-1-2.48-2.71-2.48A6.45,6.45,0,0,0-4613.39-2489.81Zm.16,4.65c0,1.16,1,1.83,2.29,1.83,1.67,0,3-1,3-2.46v-.88a9.27,9.27,0,0,0-2.67-.39C-4612.28-2487.06-4613.23-2486.32-4613.23-2485.16Z" transform="translate(4698.91 2520.73)"/><path class="cls-4" d="M-4602.37-2482.45h-1.36v-9.1h1.36v1.59a3.44,3.44,0,0,1,3.11-1.78,3.33,3.33,0,0,1,3.49,3.64v5.65h-1.36v-5.31c0-1.69-.91-2.75-2.51-2.75a2.67,2.67,0,0,0-2.73,2.85Z" transform="translate(4698.91 2520.73)"/><path class="cls-4" d="M-4591-2485a1.35,1.35,0,0,0,1.53,1.52,2.88,2.88,0,0,0,1.32-.32v1.16a3.4,3.4,0,0,1-1.64.39,2.32,2.32,0,0,1-2.57-2.57v-5.49h-1.27v-1.2h1.27v-2.74h1.36v2.74h2.88v1.2H-4591Z" transform="translate(4698.91 2520.73)"/><path class="cls-4" d="M-4585.74-2493.54V-2495h1.55v1.49Zm.09,11.09v-9.1h1.35v9.1Z" transform="translate(4698.91 2520.73)"/><path class="cls-4" d="M-4577.12-2479.6a7.08,7.08,0,0,1-4.13-1.27l.62-1.05a5.81,5.81,0,0,0,3.5,1.16,3,3,0,0,0,3.3-3.24v-1.07a4.32,4.32,0,0,1-3.57,1.91,4.19,4.19,0,0,1-4.27-4.27,4.23,4.23,0,0,1,4.27-4.31,4.26,4.26,0,0,1,3.56,1.83v-1.64h1.35v7.51C-4572.49-2481.1-4574.32-2479.6-4577.12-2479.6Zm0-10.94a3,3,0,0,0-3.15,3.07,3.07,3.07,0,0,0,3.15,3.12,3.2,3.2,0,0,0,3.34-3.1A3.19,3.19,0,0,0-4577.13-2490.54Z" transform="translate(4698.91 2520.73)"/><path class="cls-4" d="M-4563-2491.55h1.34v9.1H-4563V-2484a3.47,3.47,0,0,1-3.12,1.78,3.33,3.33,0,0,1-3.48-3.64v-5.65h1.36v5.32a2.42,2.42,0,0,0,2.51,2.74,2.69,2.69,0,0,0,2.73-2.85Zm-4.87-1.37v-1.67h1.58v1.67Zm3.09,0v-1.67h1.59v1.67Z" transform="translate(4698.91 2520.73)"/><path class="cls-4" d="M-4554.6-2483.42a3.77,3.77,0,0,0,2.86-1.28l.85.75a4.72,4.72,0,0,1-3.75,1.71,4.53,4.53,0,0,1-4.54-4.75,4.49,4.49,0,0,1,4.36-4.75c2.7,0,4.24,2.15,4.24,4.82,0,.12,0,.26,0,.42h-7.22A3.19,3.19,0,0,0-4554.6-2483.42Zm2.65-4.08c-.14-1.65-1.09-3.1-2.9-3.1a3.15,3.15,0,0,0-3,3.1Z" transform="translate(4698.91 2520.73)"/><path class="cls-4" d="M-4540.9-2482.45v-1.83a4.07,4.07,0,0,1-3.48,2,4.44,4.44,0,0,1-4.34-4.73,4.47,4.47,0,0,1,4.34-4.75,4.09,4.09,0,0,1,3.48,1.93v-5.48h1.36v12.84Zm-3.23-8.08a3.21,3.21,0,0,0-3.2,3.52,3.28,3.28,0,0,0,3.2,3.54,3.39,3.39,0,0,0,3.29-3.54A3.39,3.39,0,0,0-4544.13-2490.53Z" transform="translate(4698.91 2520.73)"/><path class="cls-4" d="M-4536-2489.81l-.41-1.1a7.51,7.51,0,0,1,3.31-.76c2.48,0,3.87,1.27,3.87,3.66v5.56h-1.3v-1.37a4,4,0,0,1-3.29,1.56c-1.69,0-3.4-.95-3.4-2.85s1.59-2.95,3.89-2.95a9.66,9.66,0,0,1,2.8.38v-.31c0-1.64-1-2.48-2.71-2.48A6.42,6.42,0,0,0-4536-2489.81Zm.16,4.65c0,1.16,1,1.83,2.28,1.83,1.68,0,3.05-1,3.05-2.46v-.88a9.29,9.29,0,0,0-2.68-.39C-4534.87-2487.06-4535.82-2486.32-4535.82-2485.16Z" transform="translate(4698.91 2520.73)"/><path class="cls-4" d="M-4519-2482.45v-1.83a4.09,4.09,0,0,1-3.48,2,4.44,4.44,0,0,1-4.35-4.73,4.47,4.47,0,0,1,4.35-4.75,4.09,4.09,0,0,1,3.48,1.93v-5.48h1.36v12.84Zm-3.23-8.08a3.22,3.22,0,0,0-3.21,3.52,3.28,3.28,0,0,0,3.21,3.54A3.4,3.4,0,0,0-4519-2487,3.39,3.39,0,0,0-4522.25-2490.53Z" transform="translate(4698.91 2520.73)"/><path class="cls-4" d="M-4501.64-2491.55h1.47l-4,9.17h-1.2l-3.94-9.17h1.49l3.07,7.55Z" transform="translate(4698.91 2520.73)"/><path class="cls-4" d="M-4497.95-2489.81l-.41-1.1a7.48,7.48,0,0,1,3.31-.76c2.48,0,3.87,1.27,3.87,3.66v5.56h-1.3v-1.37a4,4,0,0,1-3.29,1.56c-1.69,0-3.4-.95-3.4-2.85s1.59-2.95,3.89-2.95a9.66,9.66,0,0,1,2.8.38v-.31c0-1.64-1-2.48-2.71-2.48A6.38,6.38,0,0,0-4497.95-2489.81Zm.15,4.65c0,1.16,1.06,1.83,2.29,1.83,1.67,0,3.05-1,3.05-2.46v-.88a9.29,9.29,0,0,0-2.68-.39C-4496.85-2487.06-4497.8-2486.32-4497.8-2485.16Z" transform="translate(4698.91 2520.73)"/><path class="cls-4" d="M-4486.94-2482.45h-1.35v-9.1h1.35v2.38a3.9,3.9,0,0,1,3.72-2.54v1.46h-.11c-2,0-3.61,1.43-3.61,4.17Z" transform="translate(4698.91 2520.73)"/><path class="cls-4" d="M-4481.13-2493.54V-2495h1.55v1.49Zm.09,11.09v-9.1h1.36v9.1Z" transform="translate(4698.91 2520.73)"/><path class="cls-4" d="M-4472.38-2482.24a4.67,4.67,0,0,1-4.72-4.73,4.71,4.71,0,0,1,4.75-4.77,4.68,4.68,0,0,1,4.74,4.73A4.73,4.73,0,0,1-4472.38-2482.24Zm0-8.3a3.34,3.34,0,0,0-3.33,3.53,3.43,3.43,0,0,0,3.36,3.56A3.36,3.36,0,0,0-4469-2487,3.43,3.43,0,0,0-4472.38-2490.54Z" transform="translate(4698.91 2520.73)"/><path class="cls-4" d="M-4462.16-2482.28a6.28,6.28,0,0,1-3.76-1.33l.69-1a5.28,5.28,0,0,0,3.15,1.16c1.09,0,1.88-.56,1.88-1.44v0c0-.91-1.08-1.26-2.27-1.6-1.43-.4-3-.9-3-2.57v0c0-1.57,1.3-2.61,3.1-2.61a6.2,6.2,0,0,1,3.27,1l-.62,1a5.08,5.08,0,0,0-2.69-.88c-1.07,0-1.76.56-1.76,1.32v0c0,.86,1.13,1.2,2.34,1.57,1.41.42,2.92,1,2.92,2.6v0C-4458.92-2483.28-4460.34-2482.28-4462.16-2482.28Z" transform="translate(4698.91 2520.73)"/><path class="cls-4" d="M-4445.3-2482.26a4.12,4.12,0,0,1-3.49-1.93v4.55h-1.35v-11.91h1.35v1.83a4.1,4.1,0,0,1,3.49-2A4.44,4.44,0,0,1-4441-2487,4.45,4.45,0,0,1-4445.3-2482.26Zm-.25-8.27a3.39,3.39,0,0,0-3.29,3.52,3.39,3.39,0,0,0,3.29,3.54,3.21,3.21,0,0,0,3.2-3.52A3.28,3.28,0,0,0-4445.55-2490.53Z" transform="translate(4698.91 2520.73)"/><path class="cls-4" d="M-4432-2491.55h1.34v9.1H-4432V-2484a3.44,3.44,0,0,1-3.11,1.78,3.32,3.32,0,0,1-3.48-3.64v-5.65h1.35v5.32a2.43,2.43,0,0,0,2.52,2.74,2.68,2.68,0,0,0,2.72-2.85Z" transform="translate(4698.91 2520.73)"/><path class="cls-4" d="M-4423.6-2483.42a3.78,3.78,0,0,0,2.87-1.28l.84.75a4.69,4.69,0,0,1-3.75,1.71,4.52,4.52,0,0,1-4.53-4.75,4.49,4.49,0,0,1,4.36-4.75c2.69,0,4.24,2.15,4.24,4.82a3.25,3.25,0,0,1,0,.42h-7.21A3.19,3.19,0,0,0-4423.6-2483.42Zm2.66-4.08c-.14-1.65-1.09-3.1-2.91-3.1a3.13,3.13,0,0,0-2.95,3.1Z" transform="translate(4698.91 2520.73)"/><path class="cls-4" d="M-4412.35-2482.26a4.12,4.12,0,0,1-3.49-1.93v1.74h-1.35v-12.84h1.35v5.57a4.1,4.1,0,0,1,3.49-2A4.44,4.44,0,0,1-4408-2487,4.45,4.45,0,0,1-4412.35-2482.26Zm-.25-8.27a3.39,3.39,0,0,0-3.29,3.52,3.39,3.39,0,0,0,3.29,3.54,3.21,3.21,0,0,0,3.2-3.52A3.29,3.29,0,0,0-4412.6-2490.53Z" transform="translate(4698.91 2520.73)"/><path class="cls-4" d="M-4405.38-2482.45v-12.84h1.35v12.84Z" transform="translate(4698.91 2520.73)"/><path class="cls-4" d="M-4396.72-2482.24a4.67,4.67,0,0,1-4.72-4.73,4.71,4.71,0,0,1,4.75-4.77A4.68,4.68,0,0,1-4392-2487,4.72,4.72,0,0,1-4396.72-2482.24Zm0-8.3A3.34,3.34,0,0,0-4400-2487a3.42,3.42,0,0,0,3.36,3.56,3.35,3.35,0,0,0,3.34-3.52A3.43,3.43,0,0,0-4396.72-2490.54Z" transform="translate(4698.91 2520.73)"/><path class="cls-4" d="M-4386.5-2482.28a6.28,6.28,0,0,1-3.76-1.33l.68-1a5.33,5.33,0,0,0,3.15,1.16c1.09,0,1.89-.56,1.89-1.44v0c0-.91-1.08-1.26-2.27-1.6-1.43-.4-3-.9-3-2.57v0c0-1.57,1.3-2.61,3.09-2.61a6.23,6.23,0,0,1,3.28,1l-.62,1a5.08,5.08,0,0,0-2.69-.88c-1.07,0-1.76.56-1.76,1.32v0c0,.86,1.13,1.2,2.34,1.57,1.41.42,2.92,1,2.92,2.6v0C-4383.26-2483.28-4384.69-2482.28-4386.5-2482.28Z" transform="translate(4698.91 2520.73)"/><path class="cls-4" d="M-4368-2491.55h1.34v9.1H-4368V-2484a3.44,3.44,0,0,1-3.11,1.78,3.32,3.32,0,0,1-3.48-3.64v-5.65h1.35v5.32a2.43,2.43,0,0,0,2.52,2.74,2.68,2.68,0,0,0,2.72-2.85Z" transform="translate(4698.91 2520.73)"/><path class="cls-4" d="M-4361.81-2485a1.35,1.35,0,0,0,1.53,1.52,2.85,2.85,0,0,0,1.32-.32v1.16a3.4,3.4,0,0,1-1.64.39,2.32,2.32,0,0,1-2.57-2.57v-5.49h-1.26v-1.2h1.26v-2.74h1.36v2.74h2.88v1.2h-2.88Z" transform="translate(4698.91 2520.73)"/><path class="cls-4" d="M-4356.49-2493.54V-2495h1.54v1.49Zm.08,11.09v-9.1h1.36v9.1Z" transform="translate(4698.91 2520.73)"/><path class="cls-4" d="M-4351.78-2482.45v-12.84h1.36v12.84Z" transform="translate(4698.91 2520.73)"/><path class="cls-4" d="M-4347.24-2493.54V-2495h1.55v1.49Zm.09,11.09v-9.1h1.36v9.1Z" transform="translate(4698.91 2520.73)"/><path class="cls-4" d="M-4343-2490.4v-1.15h7.67v.86l-6.05,7.09h6.05v1.15h-7.88v-.86l6-7.09Z" transform="translate(4698.91 2520.73)"/><path class="cls-4" d="M-4332.33-2489.81l-.4-1.1a7.43,7.43,0,0,1,3.3-.76c2.48,0,3.87,1.27,3.87,3.66v5.56h-1.3v-1.37a4,4,0,0,1-3.29,1.56c-1.69,0-3.39-.95-3.39-2.85s1.58-2.95,3.88-2.95a9.61,9.61,0,0,1,2.8.38v-.31c0-1.64-1-2.48-2.71-2.48A6.42,6.42,0,0,0-4332.33-2489.81Zm.16,4.65c0,1.16,1.05,1.83,2.29,1.83,1.67,0,3-1,3-2.46v-.88a9.29,9.29,0,0,0-2.68-.39C-4331.22-2487.06-4332.17-2486.32-4332.17-2485.16Z" transform="translate(4698.91 2520.73)"/><path class="cls-4" d="M-4321.31-2482.45h-1.36v-9.1h1.36v2.38a3.89,3.89,0,0,1,3.71-2.54v1.46h-.11c-2,0-3.6,1.43-3.6,4.17Z" transform="translate(4698.91 2520.73)"/><path class="cls-4" d="M-4311.77-2482.24a4.67,4.67,0,0,1-4.72-4.73,4.71,4.71,0,0,1,4.75-4.77A4.68,4.68,0,0,1-4307-2487,4.72,4.72,0,0,1-4311.77-2482.24Zm0-8.3a3.34,3.34,0,0,0-3.33,3.53,3.42,3.42,0,0,0,3.36,3.56,3.35,3.35,0,0,0,3.34-3.52A3.43,3.43,0,0,0-4311.77-2490.54Z" transform="translate(4698.91 2520.73)"/><path class="cls-4" d="M-4303.2-2482.45h-1.36v-9.1h1.36v1.59a3.44,3.44,0,0,1,3.11-1.78,3.33,3.33,0,0,1,3.49,3.64v5.65H-4298v-5.31c0-1.69-.91-2.75-2.51-2.75a2.67,2.67,0,0,0-2.73,2.85Z" transform="translate(4698.91 2520.73)"/><path class="cls-4" d="M-4666.14-2462.3a3.78,3.78,0,0,0,2.87-1.28l.85.75a4.72,4.72,0,0,1-3.75,1.71,4.53,4.53,0,0,1-4.54-4.75,4.49,4.49,0,0,1,4.36-4.75c2.69,0,4.24,2.15,4.24,4.82,0,.12,0,.26,0,.42h-7.22A3.19,3.19,0,0,0-4666.14-2462.3Zm2.66-4.08c-.14-1.65-1.09-3.1-2.9-3.1a3.14,3.14,0,0,0-3,3.1Z" transform="translate(4698.91 2520.73)"/><path class="cls-4" d="M-4659.6-2461.33v-12.84h1.35v12.84Z" transform="translate(4698.91 2520.73)"/><path class="cls-4" d="M-4635.16-2470.62c2.09,0,3.38,1.41,3.38,3.66v5.63h-1.36v-5.31c0-1.76-.88-2.75-2.36-2.75a2.55,2.55,0,0,0-2.51,2.82v5.24h-1.34v-5.35c0-1.71-.9-2.71-2.34-2.71a2.64,2.64,0,0,0-2.53,2.87v5.19h-1.36v-9.1h1.36v1.53a3.31,3.31,0,0,1,2.93-1.72,3.11,3.11,0,0,1,2.93,1.81A3.62,3.62,0,0,1-4635.16-2470.62Z" transform="translate(4698.91 2520.73)"/><path class="cls-4" d="M-4624.69-2461.12a4.67,4.67,0,0,1-4.71-4.73,4.71,4.71,0,0,1,4.75-4.77,4.68,4.68,0,0,1,4.73,4.73A4.72,4.72,0,0,1-4624.69-2461.12Zm0-8.3a3.33,3.33,0,0,0-3.32,3.53,3.42,3.42,0,0,0,3.36,3.56,3.35,3.35,0,0,0,3.34-3.52A3.43,3.43,0,0,0-4624.69-2469.42Z" transform="translate(4698.91 2520.73)"/><path class="cls-4" d="M-4611.26-2470.43h1.46l-4,9.17h-1.19l-3.94-9.17h1.49l3.06,7.55Z" transform="translate(4698.91 2520.73)"/><path class="cls-4" d="M-4607.63-2472.41v-1.5h1.55v1.5Zm.09,11.08v-9.1h1.35v9.1Z" transform="translate(4698.91 2520.73)"/><path class="cls-4" d="M-4592.62-2470.62c2.09,0,3.38,1.41,3.38,3.66v5.63h-1.36v-5.31c0-1.76-.88-2.75-2.36-2.75a2.55,2.55,0,0,0-2.51,2.82v5.24h-1.34v-5.35c0-1.71-.9-2.71-2.34-2.71a2.64,2.64,0,0,0-2.53,2.87v5.19H-4603v-9.1h1.36v1.53a3.33,3.33,0,0,1,2.94-1.72,3.1,3.1,0,0,1,2.92,1.81A3.62,3.62,0,0,1-4592.62-2470.62Z" transform="translate(4698.91 2520.73)"/><path class="cls-4" d="M-4586.26-2472.41v-1.5h1.54v1.5Zm.08,11.08v-9.1h1.36v9.1Z" transform="translate(4698.91 2520.73)"/><path class="cls-4" d="M-4577.66-2462.3a3.78,3.78,0,0,0,2.87-1.28l.84.75a4.68,4.68,0,0,1-3.74,1.71,4.53,4.53,0,0,1-4.54-4.75,4.49,4.49,0,0,1,4.36-4.75c2.69,0,4.24,2.15,4.24,4.82a3.25,3.25,0,0,1,0,.42h-7.21A3.19,3.19,0,0,0-4577.66-2462.3Zm2.66-4.08c-.14-1.65-1.09-3.1-2.91-3.1a3.13,3.13,0,0,0-2.95,3.1Z" transform="translate(4698.91 2520.73)"/><path class="cls-4" d="M-4569.9-2461.33h-1.35v-9.1h1.35v1.59a3.44,3.44,0,0,1,3.12-1.78,3.32,3.32,0,0,1,3.48,3.64v5.65h-1.35v-5.31a2.43,2.43,0,0,0-2.52-2.75,2.68,2.68,0,0,0-2.73,2.85Z" transform="translate(4698.91 2520.73)"/><path class="cls-4" d="M-4558.58-2463.92a1.35,1.35,0,0,0,1.53,1.52,2.82,2.82,0,0,0,1.32-.32v1.16a3.34,3.34,0,0,1-1.64.39,2.31,2.31,0,0,1-2.56-2.57v-5.49h-1.27v-1.2h1.27v-2.74h1.35v2.74h2.89v1.2h-2.89Z" transform="translate(4698.91 2520.73)"/><path class="cls-4" d="M-4549.41-2461.12a4.67,4.67,0,0,1-4.72-4.73,4.72,4.72,0,0,1,4.76-4.77,4.68,4.68,0,0,1,4.73,4.73A4.73,4.73,0,0,1-4549.41-2461.12Zm0-8.3a3.34,3.34,0,0,0-3.33,3.53,3.43,3.43,0,0,0,3.37,3.56,3.35,3.35,0,0,0,3.34-3.52A3.43,3.43,0,0,0-4549.41-2469.42Z" transform="translate(4698.91 2520.73)"/><path class="cls-4" d="M-4525.37-2461.33v-1.83a4.09,4.09,0,0,1-3.48,2,4.44,4.44,0,0,1-4.35-4.73,4.47,4.47,0,0,1,4.35-4.75,4.07,4.07,0,0,1,3.48,1.94v-5.49h1.35v12.84Zm-3.24-8.08a3.22,3.22,0,0,0-3.2,3.52,3.28,3.28,0,0,0,3.2,3.54,3.39,3.39,0,0,0,3.29-3.54A3.39,3.39,0,0,0-4528.61-2469.41Z" transform="translate(4698.91 2520.73)"/><path class="cls-4" d="M-4517-2462.3a3.74,3.74,0,0,0,2.86-1.28l.85.75a4.7,4.7,0,0,1-3.75,1.71,4.53,4.53,0,0,1-4.54-4.75,4.49,4.49,0,0,1,4.37-4.75c2.69,0,4.24,2.15,4.24,4.82a3.25,3.25,0,0,1,0,.42h-7.22A3.2,3.2,0,0,0-4517-2462.3Zm2.65-4.08c-.14-1.65-1.09-3.1-2.9-3.1a3.15,3.15,0,0,0-3,3.1Z" transform="translate(4698.91 2520.73)"/><path class="cls-4" d="M-4500.92-2461.33v-12.84h1.35v12.84Z" transform="translate(4698.91 2520.73)"/><path class="cls-4" d="M-4495.89-2468.68l-.4-1.11a7.48,7.48,0,0,1,3.31-.76c2.48,0,3.87,1.27,3.87,3.66v5.56h-1.31v-1.37a4,4,0,0,1-3.29,1.56c-1.69,0-3.39-1-3.39-2.85s1.58-3,3.89-3a9.94,9.94,0,0,1,2.79.38v-.31c0-1.64-1-2.48-2.71-2.48A6.31,6.31,0,0,0-4495.89-2468.68Zm.16,4.64c0,1.16,1.06,1.83,2.29,1.83,1.67,0,3-1,3-2.46v-.88a9.21,9.21,0,0,0-2.67-.39C-4494.78-2465.94-4495.73-2465.2-4495.73-2464Z" transform="translate(4698.91 2520.73)"/><path class="cls-4" d="M-4476.48-2473.65h1.39v11h6.94v1.28h-8.33Z" transform="translate(4698.91 2520.73)"/><path class="cls-4" d="M-4459.35-2470.43h1.33v9.1h-1.33v-1.58a3.48,3.48,0,0,1-3.12,1.77,3.32,3.32,0,0,1-3.48-3.64v-5.65h1.35v5.32a2.42,2.42,0,0,0,2.52,2.74,2.69,2.69,0,0,0,2.73-2.85Z" transform="translate(4698.91 2520.73)"/><path class="cls-4" d="M-4453.61-2461.33H-4455v-9.1h1.36v1.59a3.44,3.44,0,0,1,3.11-1.78A3.33,3.33,0,0,1-4447-2467v5.65h-1.36v-5.31c0-1.69-.91-2.75-2.52-2.75a2.68,2.68,0,0,0-2.72,2.85Z" transform="translate(4698.91 2520.73)"/><path class="cls-4" d="M-4443.6-2468.68l-.4-1.11a7.48,7.48,0,0,1,3.31-.76c2.48,0,3.87,1.27,3.87,3.66v5.56h-1.31v-1.37a4,4,0,0,1-3.29,1.56c-1.68,0-3.39-1-3.39-2.85s1.58-3,3.89-3a9.94,9.94,0,0,1,2.79.38v-.31c0-1.64-1-2.48-2.71-2.48A6.31,6.31,0,0,0-4443.6-2468.68Zm.16,4.64c0,1.16,1.06,1.83,2.29,1.83,1.67,0,3-1,3-2.46v-.88a9.21,9.21,0,0,0-2.67-.39C-4442.49-2465.94-4443.44-2465.2-4443.44-2464Z" transform="translate(4698.91 2520.73)"/><path class="cls-4" d="M-4419.58-2461.14a4.1,4.1,0,0,1-3.48-1.93v4.55h-1.35v-11.91h1.35v1.83a4.09,4.09,0,0,1,3.48-2,4.44,4.44,0,0,1,4.35,4.73A4.46,4.46,0,0,1-4419.58-2461.14Zm-.24-8.27a3.39,3.39,0,0,0-3.29,3.52,3.39,3.39,0,0,0,3.29,3.54,3.21,3.21,0,0,0,3.2-3.52A3.29,3.29,0,0,0-4419.82-2469.41Z" transform="translate(4698.91 2520.73)"/><path class="cls-4" d="M-4412.2-2468.68l-.4-1.11a7.43,7.43,0,0,1,3.3-.76c2.48,0,3.87,1.27,3.87,3.66v5.56h-1.3v-1.37a4,4,0,0,1-3.29,1.56c-1.69,0-3.39-1-3.39-2.85s1.58-3,3.89-3a9.94,9.94,0,0,1,2.79.38v-.31c0-1.64-1-2.48-2.71-2.48A6.31,6.31,0,0,0-4412.2-2468.68Zm.16,4.64c0,1.16,1.05,1.83,2.29,1.83,1.67,0,3-1,3-2.46v-.88a9.27,9.27,0,0,0-2.67-.39C-4411.09-2465.94-4412-2465.2-4412-2464Z" transform="translate(4698.91 2520.73)"/><path class="cls-4" d="M-4401.18-2461.33h-1.36v-9.1h1.36v2.38a3.89,3.89,0,0,1,3.71-2.53v1.46h-.1c-2,0-3.61,1.42-3.61,4.17Z" transform="translate(4698.91 2520.73)"/><path class="cls-4" d="M-4395.32-2468.68l-.4-1.11a7.43,7.43,0,0,1,3.3-.76c2.48,0,3.87,1.27,3.87,3.66v5.56h-1.3v-1.37a4,4,0,0,1-3.29,1.56c-1.69,0-3.39-1-3.39-2.85s1.58-3,3.88-3a10,10,0,0,1,2.8.38v-.31c0-1.64-1-2.48-2.71-2.48A6.28,6.28,0,0,0-4395.32-2468.68Zm.16,4.64c0,1.16,1.05,1.83,2.29,1.83,1.67,0,3-1,3-2.46v-.88a9.27,9.27,0,0,0-2.67-.39C-4394.21-2465.94-4395.16-2465.2-4395.16-2464Z" transform="translate(4698.91 2520.73)"/><path class="cls-4" d="M-4372-2461.12a4.67,4.67,0,0,1-4.66-4.73,4.7,4.7,0,0,1,4.66-4.77,4.7,4.7,0,0,1,3.65,1.62l-.9.95a3.65,3.65,0,0,0-2.76-1.37,3.36,3.36,0,0,0-3.26,3.53,3.41,3.41,0,0,0,3.34,3.56,3.74,3.74,0,0,0,2.78-1.36l.87.81A4.71,4.71,0,0,1-4372-2461.12Z" transform="translate(4698.91 2520.73)"/><path class="cls-4" d="M-4364.73-2461.33h-1.36v-9.1h1.36v2.38a3.89,3.89,0,0,1,3.71-2.53v1.46h-.1c-2,0-3.61,1.42-3.61,4.17Z" transform="translate(4698.91 2520.73)"/><path class="cls-4" d="M-4355.33-2462.3a3.74,3.74,0,0,0,2.86-1.28l.85.75a4.7,4.7,0,0,1-3.75,1.71,4.53,4.53,0,0,1-4.54-4.75,4.49,4.49,0,0,1,4.37-4.75c2.69,0,4.24,2.15,4.24,4.82a3.25,3.25,0,0,1,0,.42h-7.22A3.2,3.2,0,0,0-4355.33-2462.3Zm2.65-4.08c-.14-1.65-1.09-3.1-2.9-3.1a3.15,3.15,0,0,0-3,3.1Z" transform="translate(4698.91 2520.73)"/><path class="cls-4" d="M-4348.4-2468.68l-.4-1.11a7.48,7.48,0,0,1,3.31-.76c2.48,0,3.87,1.27,3.87,3.66v5.56h-1.31v-1.37a4,4,0,0,1-3.29,1.56c-1.68,0-3.39-1-3.39-2.85s1.58-3,3.89-3a9.89,9.89,0,0,1,2.79.38v-.31c0-1.64-1-2.48-2.7-2.48A6.32,6.32,0,0,0-4348.4-2468.68Zm.16,4.64c0,1.16,1.06,1.83,2.29,1.83,1.67,0,3-1,3-2.46v-.88a9.21,9.21,0,0,0-2.67-.39C-4347.29-2465.94-4348.24-2465.2-4348.24-2464Z" transform="translate(4698.91 2520.73)"/><path class="cls-4" d="M-4337.38-2461.33h-1.35v-9.1h1.35v2.38a3.89,3.89,0,0,1,3.71-2.53v1.46h-.1c-2,0-3.61,1.42-3.61,4.17Z" transform="translate(4698.91 2520.73)"/><path class="cls-4" d="M-4319.08-2461.15a6.29,6.29,0,0,1-3.76-1.34l.68-1a5.33,5.33,0,0,0,3.15,1.16c1.09,0,1.89-.56,1.89-1.44v0c0-.91-1.08-1.26-2.27-1.6-1.43-.4-3-.89-3-2.57v0c0-1.57,1.3-2.6,3.09-2.6a6.22,6.22,0,0,1,3.28,1l-.62,1a5.08,5.08,0,0,0-2.69-.88c-1.07,0-1.76.56-1.76,1.32v0c0,.87,1.13,1.2,2.34,1.57,1.41.42,2.92,1,2.92,2.6v0C-4315.84-2462.16-4317.26-2461.15-4319.08-2461.15Z" transform="translate(4698.91 2520.73)"/><path class="cls-4" d="M-4306.86-2470.43h1.33v9.1h-1.33v-1.58a3.48,3.48,0,0,1-3.12,1.77,3.32,3.32,0,0,1-3.48-3.64v-5.65h1.35v5.32a2.42,2.42,0,0,0,2.52,2.74,2.69,2.69,0,0,0,2.73-2.85Z" transform="translate(4698.91 2520.73)"/><path class="cls-4" d="M-4299.47-2461.15a6.29,6.29,0,0,1-3.76-1.34l.68-1a5.33,5.33,0,0,0,3.15,1.16c1.09,0,1.88-.56,1.88-1.44v0c0-.91-1.07-1.26-2.27-1.6-1.42-.4-3-.89-3-2.57v0c0-1.57,1.3-2.6,3.09-2.6a6.16,6.16,0,0,1,3.27,1l-.61,1a5.11,5.11,0,0,0-2.69-.88c-1.08,0-1.76.56-1.76,1.32v0c0,.87,1.12,1.2,2.34,1.57,1.4.42,2.92,1,2.92,2.6v0C-4296.23-2462.16-4297.66-2461.15-4299.47-2461.15Z" transform="translate(4698.91 2520.73)"/><path class="cls-4" d="M-4666-2440a4.67,4.67,0,0,1-4.66-4.73,4.7,4.7,0,0,1,4.66-4.77,4.66,4.66,0,0,1,3.64,1.62l-.89,1a3.66,3.66,0,0,0-2.77-1.37,3.36,3.36,0,0,0-3.25,3.53,3.41,3.41,0,0,0,3.34,3.56,3.74,3.74,0,0,0,2.78-1.36l.86.81A4.67,4.67,0,0,1-4666-2440Z" transform="translate(4698.91 2520.73)"/><path class="cls-4" d="M-4659.57-2447.56l-.4-1.11a7.43,7.43,0,0,1,3.3-.76c2.48,0,3.87,1.27,3.87,3.66v5.56h-1.3v-1.37a4,4,0,0,1-3.29,1.56c-1.69,0-3.39-.95-3.39-2.85s1.58-3,3.89-3a9.56,9.56,0,0,1,2.79.39v-.32c0-1.64-1-2.48-2.71-2.48A6.31,6.31,0,0,0-4659.57-2447.56Zm.16,4.64c0,1.16,1.05,1.83,2.29,1.83,1.67,0,3-1,3-2.46v-.88a9.27,9.27,0,0,0-2.67-.39C-4658.46-2444.82-4659.41-2444.08-4659.41-2442.92Z" transform="translate(4698.91 2520.73)"/><path class="cls-4" d="M-4649.78-2440.21V-2453h1.35v12.84Z" transform="translate(4698.91 2520.73)"/><path class="cls-4" d="M-4641.27-2441.18a3.78,3.78,0,0,0,2.87-1.28l.85.75a4.69,4.69,0,0,1-3.75,1.71,4.53,4.53,0,0,1-4.54-4.75,4.49,4.49,0,0,1,4.36-4.75c2.69,0,4.24,2.15,4.24,4.82,0,.12,0,.27,0,.42h-7.22A3.19,3.19,0,0,0-4641.27-2441.18Zm2.66-4.08c-.14-1.65-1.09-3.09-2.9-3.09a3.13,3.13,0,0,0-3,3.09Z" transform="translate(4698.91 2520.73)"/><path class="cls-4" d="M-4633.5-2440.21h-1.36v-9.1h1.36v1.59a3.44,3.44,0,0,1,3.11-1.78,3.32,3.32,0,0,1,3.48,3.64v5.65h-1.35v-5.31a2.43,2.43,0,0,0-2.52-2.75,2.68,2.68,0,0,0-2.72,2.85Z" transform="translate(4698.91 2520.73)"/><path class="cls-4" d="M-4616.71-2440.21V-2442a4.1,4.1,0,0,1-3.49,2,4.44,4.44,0,0,1-4.34-4.73,4.47,4.47,0,0,1,4.34-4.75,4.13,4.13,0,0,1,3.49,1.94V-2453h1.35v12.84Zm-3.24-8.07a3.21,3.21,0,0,0-3.2,3.51,3.28,3.28,0,0,0,3.2,3.54,3.39,3.39,0,0,0,3.29-3.54A3.38,3.38,0,0,0-4619.95-2448.28Z" transform="translate(4698.91 2520.73)"/><path class="cls-4" d="M-4611.8-2447.56l-.41-1.11a7.51,7.51,0,0,1,3.31-.76c2.48,0,3.87,1.27,3.87,3.66v5.56h-1.3v-1.37a4,4,0,0,1-3.29,1.56c-1.69,0-3.4-.95-3.4-2.85s1.59-3,3.89-3a9.63,9.63,0,0,1,2.8.39v-.32c0-1.64-1-2.48-2.71-2.48A6.28,6.28,0,0,0-4611.8-2447.56Zm.16,4.64c0,1.16,1.05,1.83,2.28,1.83,1.68,0,3-1,3-2.46v-.88a9.29,9.29,0,0,0-2.68-.39C-4610.69-2444.82-4611.64-2444.08-4611.64-2442.92Z" transform="translate(4698.91 2520.73)"/><path class="cls-4" d="M-4600.78-2440.21h-1.36v-9.1h1.36v2.38a3.89,3.89,0,0,1,3.71-2.53v1.46h-.11c-2,0-3.6,1.42-3.6,4.17Z" transform="translate(4698.91 2520.73)"/><path class="cls-4" d="M-4595-2451.29v-1.5h1.54v1.5Zm.08,11.08v-9.1h1.36v9.1Z" transform="translate(4698.91 2520.73)"/><path class="cls-4" d="M-4586.23-2440a4.65,4.65,0,0,1-4.71-4.73,4.71,4.71,0,0,1,4.75-4.77,4.68,4.68,0,0,1,4.73,4.73A4.72,4.72,0,0,1-4586.23-2440Zm0-8.3a3.33,3.33,0,0,0-3.32,3.53,3.42,3.42,0,0,0,3.36,3.56,3.35,3.35,0,0,0,3.34-3.52A3.43,3.43,0,0,0-4586.23-2448.3Z" transform="translate(4698.91 2520.73)"/><path class="cls-4" d="M-4576-2440a6.26,6.26,0,0,1-3.77-1.34l.69-1a5.28,5.28,0,0,0,3.15,1.16c1.09,0,1.88-.56,1.88-1.44v0c0-.92-1.07-1.27-2.27-1.61-1.42-.4-3-.89-3-2.56v0c0-1.57,1.3-2.6,3.1-2.6a6.16,6.16,0,0,1,3.27,1l-.61,1a5.14,5.14,0,0,0-2.7-.88c-1.07,0-1.76.56-1.76,1.32v0c0,.87,1.13,1.2,2.34,1.57,1.41.42,2.92,1,2.92,2.6v0C-4572.77-2441-4574.19-2440-4576-2440Z" transform="translate(4698.91 2520.73)"/><path class="cls-4" d="M-4569.77-2440.21h-.63v-1.85h1.61v1.59a2.16,2.16,0,0,1-1.95,2.41l-.21-.62C-4570.07-2439-4569.7-2439.45-4569.77-2440.21Z" transform="translate(4698.91 2520.73)"/><path class="cls-4" d="M-4552.41-2439.91c-.78,1.88-1.66,2.57-3,2.57a4.08,4.08,0,0,1-1.93-.46l.45-1.07a2.85,2.85,0,0,0,1.43.33c.81,0,1.32-.42,1.86-1.7l-4.13-9.07h1.49l3.31,7.59,2.92-7.59h1.44Z" transform="translate(4698.91 2520.73)"/><path class="cls-4" d="M-4530.06-2440.21V-2442a4.09,4.09,0,0,1-3.48,2,4.44,4.44,0,0,1-4.35-4.73,4.47,4.47,0,0,1,4.35-4.75,4.1,4.1,0,0,1,3.48,1.94V-2453h1.36v12.84Zm-3.23-8.07a3.22,3.22,0,0,0-3.21,3.51,3.28,3.28,0,0,0,3.21,3.54,3.4,3.4,0,0,0,3.29-3.54A3.38,3.38,0,0,0-4533.29-2448.28Z" transform="translate(4698.91 2520.73)"/><path class="cls-4" d="M-4521.66-2441.18a3.78,3.78,0,0,0,2.87-1.28l.84.75a4.66,4.66,0,0,1-3.75,1.71,4.53,4.53,0,0,1-4.54-4.75,4.49,4.49,0,0,1,4.37-4.75c2.69,0,4.24,2.15,4.24,4.82a3.17,3.17,0,0,1,0,.42h-7.21A3.19,3.19,0,0,0-4521.66-2441.18Zm2.66-4.08c-.14-1.65-1.1-3.09-2.91-3.09a3.12,3.12,0,0,0-2.95,3.09Z" transform="translate(4698.91 2520.73)"/><path class="cls-4" d="M-4504.81-2440.21h-1.36V-2453h1.36v5.33a3.44,3.44,0,0,1,3.11-1.78,3.33,3.33,0,0,1,3.49,3.64v5.65h-1.36v-5.31c0-1.69-.91-2.75-2.51-2.75a2.68,2.68,0,0,0-2.73,2.85Z" transform="translate(4698.91 2520.73)"/><path class="cls-4" d="M-4491.31-2441.18a3.74,3.74,0,0,0,2.86-1.28l.85.75a4.67,4.67,0,0,1-3.75,1.71,4.53,4.53,0,0,1-4.54-4.75,4.49,4.49,0,0,1,4.37-4.75c2.69,0,4.24,2.15,4.24,4.82a3.17,3.17,0,0,1,0,.42h-7.22A3.2,3.2,0,0,0-4491.31-2441.18Zm2.65-4.08c-.14-1.65-1.09-3.09-2.9-3.09a3.14,3.14,0,0,0-3,3.09Z" transform="translate(4698.91 2520.73)"/><path class="cls-4" d="M-4480.81-2440a4.67,4.67,0,0,1-4.66-4.73,4.7,4.7,0,0,1,4.66-4.77,4.7,4.7,0,0,1,3.65,1.62l-.9,1a3.65,3.65,0,0,0-2.76-1.37,3.36,3.36,0,0,0-3.26,3.53,3.41,3.41,0,0,0,3.34,3.56,3.72,3.72,0,0,0,2.78-1.36l.87.81A4.71,4.71,0,0,1-4480.81-2440Z" transform="translate(4698.91 2520.73)"/><path class="cls-4" d="M-4473.5-2440.21h-1.35V-2453h1.35v5.33a3.44,3.44,0,0,1,3.11-1.78,3.33,3.33,0,0,1,3.49,3.64v5.65h-1.36v-5.31c0-1.69-.91-2.75-2.51-2.75a2.68,2.68,0,0,0-2.73,2.85Z" transform="translate(4698.91 2520.73)"/><path class="cls-4" d="M-4459.86-2440a4.66,4.66,0,0,1-4.72-4.73,4.71,4.71,0,0,1,4.75-4.77,4.68,4.68,0,0,1,4.74,4.73A4.73,4.73,0,0,1-4459.86-2440Zm0-8.3a3.34,3.34,0,0,0-3.33,3.53,3.43,3.43,0,0,0,3.36,3.56,3.35,3.35,0,0,0,3.35-3.52A3.43,3.43,0,0,0-4459.86-2448.3Z" transform="translate(4698.91 2520.73)"/><path class="cls-4" d="M-4443.43-2440.21V-2453h1.35v12.84Z" transform="translate(4698.91 2520.73)"/><path class="cls-4" d="M-4438.4-2447.56l-.4-1.11a7.43,7.43,0,0,1,3.3-.76c2.48,0,3.87,1.27,3.87,3.66v5.56h-1.3v-1.37a4,4,0,0,1-3.29,1.56c-1.69,0-3.39-.95-3.39-2.85s1.58-3,3.88-3a9.58,9.58,0,0,1,2.8.39v-.32c0-1.64-1-2.48-2.71-2.48A6.28,6.28,0,0,0-4438.4-2447.56Zm.16,4.64c0,1.16,1.05,1.83,2.29,1.83,1.67,0,3-1,3-2.46v-.88a9.27,9.27,0,0,0-2.67-.39C-4437.29-2444.82-4438.24-2444.08-4438.24-2442.92Z" transform="translate(4698.91 2520.73)"/><path class="cls-4" d="M-4414.81-2440a4.12,4.12,0,0,1-3.49-1.93v4.56h-1.35v-11.92h1.35v1.83a4.1,4.1,0,0,1,3.49-2,4.44,4.44,0,0,1,4.34,4.73A4.45,4.45,0,0,1-4414.81-2440Zm-.25-8.26a3.38,3.38,0,0,0-3.29,3.51,3.39,3.39,0,0,0,3.29,3.54,3.21,3.21,0,0,0,3.2-3.52A3.27,3.27,0,0,0-4415.06-2448.28Z" transform="translate(4698.91 2520.73)"/><path class="cls-4" d="M-4407.44-2447.56l-.4-1.11a7.48,7.48,0,0,1,3.31-.76c2.48,0,3.87,1.27,3.87,3.66v5.56h-1.3v-1.37a4,4,0,0,1-3.29,1.56c-1.69,0-3.4-.95-3.4-2.85s1.58-3,3.89-3a9.63,9.63,0,0,1,2.8.39v-.32c0-1.64-1-2.48-2.71-2.48A6.32,6.32,0,0,0-4407.44-2447.56Zm.16,4.64c0,1.16,1.06,1.83,2.29,1.83,1.67,0,3-1,3-2.46v-.88a9.16,9.16,0,0,0-2.67-.39C-4406.33-2444.82-4407.28-2444.08-4407.28-2442.92Z" transform="translate(4698.91 2520.73)"/><path class="cls-4" d="M-4397.65-2440.21V-2453h1.36v12.84Z" transform="translate(4698.91 2520.73)"/><path class="cls-4" d="M-4392.62-2447.56l-.4-1.11a7.48,7.48,0,0,1,3.31-.76c2.48,0,3.87,1.27,3.87,3.66v5.56h-1.3v-1.37a4,4,0,0,1-3.29,1.56c-1.69,0-3.4-.95-3.4-2.85s1.58-3,3.89-3a9.63,9.63,0,0,1,2.8.39v-.32c0-1.64-1-2.48-2.71-2.48A6.32,6.32,0,0,0-4392.62-2447.56Zm.16,4.64c0,1.16,1.06,1.83,2.29,1.83,1.67,0,3-1,3-2.46v-.88a9.21,9.21,0,0,0-2.67-.39C-4391.51-2444.82-4392.46-2444.08-4392.46-2442.92Z" transform="translate(4698.91 2520.73)"/><path class="cls-4" d="M-4378.11-2440a4.12,4.12,0,0,1-3.49-1.93v1.74h-1.35V-2453h1.35v5.57a4.09,4.09,0,0,1,3.49-2,4.44,4.44,0,0,1,4.34,4.73A4.46,4.46,0,0,1-4378.11-2440Zm-.25-8.26a3.38,3.38,0,0,0-3.29,3.51,3.39,3.39,0,0,0,3.29,3.54,3.21,3.21,0,0,0,3.2-3.52A3.28,3.28,0,0,0-4378.36-2448.28Z" transform="translate(4698.91 2520.73)"/><path class="cls-4" d="M-4369.91-2440.21h-1.36v-9.1h1.36v2.38a3.9,3.9,0,0,1,3.71-2.53v1.46h-.1c-2,0-3.61,1.42-3.61,4.17Z" transform="translate(4698.91 2520.73)"/><path class="cls-4" d="M-4364-2447.56l-.4-1.11a7.43,7.43,0,0,1,3.3-.76c2.48,0,3.87,1.27,3.87,3.66v5.56h-1.3v-1.37a4,4,0,0,1-3.29,1.56c-1.69,0-3.39-.95-3.39-2.85s1.58-3,3.88-3a9.58,9.58,0,0,1,2.8.39v-.32c0-1.64-1-2.48-2.71-2.48A6.28,6.28,0,0,0-4364-2447.56Zm.16,4.64c0,1.16,1.05,1.83,2.29,1.83,1.67,0,3-1,3-2.46v-.88a9.27,9.27,0,0,0-2.67-.39C-4362.94-2444.82-4363.89-2444.08-4363.89-2442.92Z" transform="translate(4698.91 2520.73)"/><path class="cls-4" d="M-4344.58-2450.47h.65v1.85h-1.62v-1.58a2.15,2.15,0,0,1,1.94-2.41l.21.61C-4344.28-2451.68-4344.63-2451.22-4344.58-2450.47Zm3.52,0h.63v1.85h-1.6v-1.58a2.15,2.15,0,0,1,1.94-2.41l.21.61C-4340.76-2451.68-4341.11-2451.22-4341.06-2450.47Z" transform="translate(4698.91 2520.73)"/><path class="cls-4" d="M-4327-2449.5c2.09,0,3.38,1.41,3.38,3.66v5.63H-4325v-5.31c0-1.76-.88-2.75-2.36-2.75a2.55,2.55,0,0,0-2.51,2.82v5.24h-1.34v-5.35c0-1.7-.9-2.71-2.34-2.71a2.64,2.64,0,0,0-2.53,2.87v5.19h-1.36v-9.1h1.36v1.54a3.3,3.3,0,0,1,2.93-1.73,3.11,3.11,0,0,1,2.93,1.81A3.62,3.62,0,0,1-4327-2449.5Z" transform="translate(4698.91 2520.73)"/><path class="cls-4" d="M-4316.72-2441.18a3.78,3.78,0,0,0,2.87-1.28l.84.75a4.65,4.65,0,0,1-3.74,1.71,4.53,4.53,0,0,1-4.54-4.75,4.49,4.49,0,0,1,4.36-4.75c2.69,0,4.24,2.15,4.24,4.82a3.17,3.17,0,0,1,0,.42h-7.21A3.19,3.19,0,0,0-4316.72-2441.18Zm2.66-4.08c-.14-1.65-1.09-3.09-2.9-3.09a3.13,3.13,0,0,0-3,3.09Z" transform="translate(4698.91 2520.73)"/><path class="cls-4" d="M-4307.3-2440a6.26,6.26,0,0,1-3.77-1.34l.69-1a5.33,5.33,0,0,0,3.15,1.16c1.09,0,1.88-.56,1.88-1.44v0c0-.92-1.07-1.27-2.27-1.61-1.42-.4-3-.89-3-2.56v0c0-1.57,1.31-2.6,3.1-2.6a6.16,6.16,0,0,1,3.27,1l-.61,1a5.14,5.14,0,0,0-2.7-.88c-1.07,0-1.75.56-1.75,1.32v0c0,.87,1.12,1.2,2.34,1.57,1.4.42,2.92,1,2.92,2.6v0C-4304.06-2441-4305.49-2440-4307.3-2440Z" transform="translate(4698.91 2520.73)"/><path class="cls-4" d="M-4301-2450.68h-.64v-1.84h1.62v1.58a2.16,2.16,0,0,1-1.95,2.41l-.21-.62C-4301.28-2449.46-4300.91-2449.92-4301-2450.68Zm3.52,0h-.64v-1.84h1.6v1.58a2.15,2.15,0,0,1-1.93,2.41l-.21-.62C-4297.76-2449.46-4297.39-2449.92-4297.46-2450.68Z" transform="translate(4698.91 2520.73)"/><path class="cls-4" d="M-4668.79-2419.09h-1.36v-12.84h1.36v5.33a3.44,3.44,0,0,1,3.11-1.78,3.33,3.33,0,0,1,3.49,3.64v5.65h-1.36v-5.31c0-1.69-.91-2.75-2.52-2.75a2.68,2.68,0,0,0-2.72,2.85Z" transform="translate(4698.91 2520.73)"/><path class="cls-4" d="M-4658.78-2426.44l-.4-1.11a7.48,7.48,0,0,1,3.31-.76c2.48,0,3.87,1.27,3.87,3.66v5.56h-1.31v-1.37a4,4,0,0,1-3.29,1.56c-1.68,0-3.39-.94-3.39-2.85s1.58-2.95,3.89-2.95a9.51,9.51,0,0,1,2.79.39v-.32c0-1.64-1-2.48-2.71-2.48A6.31,6.31,0,0,0-4658.78-2426.44Zm.16,4.64c0,1.16,1.06,1.83,2.29,1.83,1.67,0,3-1,3-2.46v-.88a9.57,9.57,0,0,0-2.67-.39C-4657.67-2423.7-4658.62-2423-4658.62-2421.8Z" transform="translate(4698.91 2520.73)"/><path class="cls-4" d="M-4645-2418.88a4.68,4.68,0,0,1-4.67-4.73,4.7,4.7,0,0,1,4.67-4.77,4.69,4.69,0,0,1,3.64,1.62l-.9,1a3.65,3.65,0,0,0-2.76-1.37,3.36,3.36,0,0,0-3.26,3.53,3.41,3.41,0,0,0,3.35,3.56,3.76,3.76,0,0,0,2.78-1.36l.86.81A4.7,4.7,0,0,1-4645-2418.88Z" transform="translate(4698.91 2520.73)"/><path class="cls-4" d="M-4635.32-2420.06a3.78,3.78,0,0,0,2.87-1.28l.85.76a4.71,4.71,0,0,1-3.75,1.7,4.52,4.52,0,0,1-4.54-4.75,4.49,4.49,0,0,1,4.36-4.75c2.69,0,4.24,2.15,4.24,4.82a3.32,3.32,0,0,1,0,.43h-7.21A3.18,3.18,0,0,0-4635.32-2420.06Zm2.66-4.08c-.14-1.65-1.09-3.09-2.9-3.09a3.14,3.14,0,0,0-3,3.09Z" transform="translate(4698.91 2520.73)"/><path class="cls-4" d="M-4622.52-2419.09h-1.36v-9.09h1.36v2.37a3.89,3.89,0,0,1,3.71-2.53v1.46h-.11c-2,0-3.6,1.42-3.6,4.17Z" transform="translate(4698.91 2520.73)"/><path class="cls-4" d="M-4613.13-2420.06a3.78,3.78,0,0,0,2.87-1.28l.85.76a4.71,4.71,0,0,1-3.75,1.7,4.52,4.52,0,0,1-4.54-4.75,4.49,4.49,0,0,1,4.36-4.75c2.7,0,4.24,2.15,4.24,4.82,0,.13,0,.27,0,.43h-7.22A3.18,3.18,0,0,0-4613.13-2420.06Zm2.66-4.08c-.14-1.65-1.09-3.09-2.9-3.09a3.14,3.14,0,0,0-3,3.09Z" transform="translate(4698.91 2520.73)"/><path class="cls-4" d="M-4602-2428.15v1.16h-2.87v7.9h-1.36v-7.9h-1.25v-1.18h1.25v-.79c0-2,1-3,2.75-3a4.06,4.06,0,0,1,1.49.23v1.18a4.22,4.22,0,0,0-1.32-.23c-1.05,0-1.58.63-1.58,1.93v.74Z" transform="translate(4698.91 2520.73)"/><path class="cls-4" d="M-4596.42-2420.06a3.78,3.78,0,0,0,2.87-1.28l.84.76a4.7,4.7,0,0,1-3.75,1.7,4.52,4.52,0,0,1-4.54-4.75,4.49,4.49,0,0,1,4.37-4.75c2.69,0,4.24,2.15,4.24,4.82a3.32,3.32,0,0,1,0,.43h-7.21A3.18,3.18,0,0,0-4596.42-2420.06Zm2.65-4.08c-.14-1.65-1.09-3.09-2.9-3.09a3.13,3.13,0,0,0-2.95,3.09Z" transform="translate(4698.91 2520.73)"/><path class="cls-4" d="M-4588.66-2419.09H-4590v-9.09h1.35v2.37a3.9,3.9,0,0,1,3.71-2.53v1.46h-.1c-2,0-3.61,1.42-3.61,4.17Z" transform="translate(4698.91 2520.73)"/><path class="cls-4" d="M-4579.26-2420.06a3.78,3.78,0,0,0,2.87-1.28l.84.76a4.68,4.68,0,0,1-3.75,1.7,4.53,4.53,0,0,1-4.54-4.75,4.49,4.49,0,0,1,4.37-4.75c2.69,0,4.24,2.15,4.24,4.82a3.32,3.32,0,0,1,0,.43h-7.21A3.18,3.18,0,0,0-4579.26-2420.06Zm2.66-4.08c-.15-1.65-1.1-3.09-2.91-3.09a3.13,3.13,0,0,0-2.95,3.09Z" transform="translate(4698.91 2520.73)"/><path class="cls-4" d="M-4571.5-2419.09h-1.35v-9.09h1.35v1.58a3.44,3.44,0,0,1,3.12-1.78,3.33,3.33,0,0,1,3.48,3.64v5.65h-1.36v-5.31c0-1.69-.91-2.75-2.51-2.75a2.68,2.68,0,0,0-2.73,2.85Z" transform="translate(4698.91 2520.73)"/><path class="cls-4" d="M-4557.91-2418.88a4.67,4.67,0,0,1-4.66-4.73,4.69,4.69,0,0,1,4.66-4.77,4.68,4.68,0,0,1,3.64,1.62l-.9,1a3.65,3.65,0,0,0-2.76-1.37,3.35,3.35,0,0,0-3.25,3.53,3.41,3.41,0,0,0,3.34,3.56,3.74,3.74,0,0,0,2.78-1.36l.86.81A4.69,4.69,0,0,1-4557.91-2418.88Z" transform="translate(4698.91 2520.73)"/><path class="cls-4" d="M-4551.93-2430.17v-1.5h1.55v1.5Zm.09,11.08v-9.09h1.36v9.09Z" transform="translate(4698.91 2520.73)"/><path class="cls-4" d="M-4546.8-2426.44l-.41-1.11a7.48,7.48,0,0,1,3.31-.76c2.48,0,3.87,1.27,3.87,3.66v5.56h-1.3v-1.37a4,4,0,0,1-3.29,1.56c-1.69,0-3.4-.94-3.4-2.85s1.58-2.95,3.89-2.95a9.63,9.63,0,0,1,2.8.39v-.32c0-1.64-1-2.48-2.71-2.48A6.25,6.25,0,0,0-4546.8-2426.44Zm.15,4.64c0,1.16,1.06,1.83,2.29,1.83,1.67,0,3-1,3-2.46v-.88a9.51,9.51,0,0,0-2.67-.39C-4545.7-2423.7-4546.65-2423-4546.65-2421.8Z" transform="translate(4698.91 2520.73)"/><path class="cls-4" d="M-4531.58-2426.44l-.41-1.11a7.48,7.48,0,0,1,3.31-.76c2.48,0,3.87,1.27,3.87,3.66v5.56h-1.3v-1.37a4,4,0,0,1-3.29,1.56c-1.69,0-3.4-.94-3.4-2.85s1.59-2.95,3.89-2.95a9.63,9.63,0,0,1,2.8.39v-.32c0-1.64-1-2.48-2.71-2.48A6.28,6.28,0,0,0-4531.58-2426.44Zm.15,4.64c0,1.16,1.06,1.83,2.29,1.83,1.67,0,3.05-1,3.05-2.46v-.88a9.65,9.65,0,0,0-2.68-.39C-4530.48-2423.7-4531.43-2423-4531.43-2421.8Z" transform="translate(4698.91 2520.73)"/><path class="cls-4" d="M-4521.8-2419.09v-12.84h1.36v12.84Z" transform="translate(4698.91 2520.73)"/><path class="cls-4" d="M-4510.43-2421.67a1.34,1.34,0,0,0,1.53,1.51,2.85,2.85,0,0,0,1.32-.32v1.16a3.4,3.4,0,0,1-1.64.39,2.32,2.32,0,0,1-2.57-2.57V-2427H-4513v-1.19h1.26v-2.75h1.36v2.75h2.88v1.19h-2.88Z" transform="translate(4698.91 2520.73)"/><path class="cls-4" d="M-4505.12-2430.17v-1.5h1.55v1.5Zm.09,11.08v-9.09h1.36v9.09Z" transform="translate(4698.91 2520.73)"/><path class="cls-4" d="M-4496.51-2420.06a3.78,3.78,0,0,0,2.87-1.28l.84.76a4.68,4.68,0,0,1-3.75,1.7,4.53,4.53,0,0,1-4.54-4.75,4.49,4.49,0,0,1,4.37-4.75c2.69,0,4.24,2.15,4.24,4.82a3.32,3.32,0,0,1,0,.43h-7.21A3.18,3.18,0,0,0-4496.51-2420.06Zm2.66-4.08c-.15-1.65-1.1-3.09-2.91-3.09a3.13,3.13,0,0,0-2.95,3.09Z" transform="translate(4698.91 2520.73)"/><path class="cls-4" d="M-4479.69-2428.38c2.1,0,3.38,1.41,3.38,3.66v5.63h-1.35v-5.31c0-1.76-.88-2.75-2.36-2.75a2.55,2.55,0,0,0-2.52,2.82v5.24h-1.33v-5.35c0-1.7-.9-2.71-2.35-2.71a2.64,2.64,0,0,0-2.53,2.87v5.19h-1.35v-9.09h1.35v1.53a3.33,3.33,0,0,1,2.94-1.73,3.08,3.08,0,0,1,2.92,1.81A3.63,3.63,0,0,1-4479.69-2428.38Z" transform="translate(4698.91 2520.73)"/><path class="cls-4" d="M-4468.53-2418.9a4.09,4.09,0,0,1-3.48-1.93v4.56h-1.35v-11.91h1.35v1.83a4.07,4.07,0,0,1,3.48-2,4.45,4.45,0,0,1,4.35,4.73A4.46,4.46,0,0,1-4468.53-2418.9Zm-.24-8.26a3.38,3.38,0,0,0-3.29,3.51,3.39,3.39,0,0,0,3.29,3.54,3.21,3.21,0,0,0,3.2-3.52A3.28,3.28,0,0,0-4468.77-2427.16Z" transform="translate(4698.91 2520.73)"/><path class="cls-4" d="M-4457.53-2418.88a4.66,4.66,0,0,1-4.71-4.73,4.71,4.71,0,0,1,4.75-4.77,4.68,4.68,0,0,1,4.73,4.73A4.72,4.72,0,0,1-4457.53-2418.88Zm0-8.3a3.33,3.33,0,0,0-3.32,3.53,3.41,3.41,0,0,0,3.36,3.56,3.35,3.35,0,0,0,3.34-3.52A3.43,3.43,0,0,0-4457.53-2427.18Z" transform="translate(4698.91 2520.73)"/><path class="cls-4" d="M-4438-2416.27v-4.65a4.09,4.09,0,0,1-3.48,2,4.44,4.44,0,0,1-4.35-4.73,4.47,4.47,0,0,1,4.35-4.75,4.1,4.1,0,0,1,3.48,1.94v-1.74h1.36v11.91Zm-3.23-10.89a3.22,3.22,0,0,0-3.21,3.51,3.28,3.28,0,0,0,3.21,3.54,3.39,3.39,0,0,0,3.29-3.54A3.38,3.38,0,0,0-4441.21-2427.16Z" transform="translate(4698.91 2520.73)"/><path class="cls-4" d="M-4427.13-2428.18h1.33v9.09h-1.33v-1.58a3.48,3.48,0,0,1-3.12,1.77,3.32,3.32,0,0,1-3.48-3.64v-5.64h1.35v5.31a2.42,2.42,0,0,0,2.52,2.74,2.69,2.69,0,0,0,2.73-2.85Z" transform="translate(4698.91 2520.73)"/><path class="cls-4" d="M-4418.74-2420.06a3.78,3.78,0,0,0,2.87-1.28l.84.76a4.68,4.68,0,0,1-3.74,1.7,4.52,4.52,0,0,1-4.54-4.75,4.49,4.49,0,0,1,4.36-4.75c2.69,0,4.24,2.15,4.24,4.82a3.32,3.32,0,0,1,0,.43h-7.21A3.18,3.18,0,0,0-4418.74-2420.06Zm2.66-4.08c-.14-1.65-1.09-3.09-2.9-3.09a3.14,3.14,0,0,0-3,3.09Z" transform="translate(4698.91 2520.73)"/><path class="cls-4" d="M-4405.47-2421.67a1.35,1.35,0,0,0,1.53,1.51,2.82,2.82,0,0,0,1.32-.32v1.16a3.34,3.34,0,0,1-1.64.39,2.31,2.31,0,0,1-2.56-2.57V-2427h-1.27v-1.19h1.27v-2.75h1.35v2.75h2.89v1.19h-2.89Z" transform="translate(4698.91 2520.73)"/><path class="cls-4" d="M-4399.66-2426.44l-.41-1.11a7.51,7.51,0,0,1,3.31-.76c2.48,0,3.87,1.27,3.87,3.66v5.56h-1.3v-1.37a4,4,0,0,1-3.29,1.56c-1.69,0-3.39-.94-3.39-2.85s1.58-2.95,3.88-2.95a9.63,9.63,0,0,1,2.8.39v-.32c0-1.64-1-2.48-2.71-2.48A6.28,6.28,0,0,0-4399.66-2426.44Zm.16,4.64c0,1.16,1.05,1.83,2.28,1.83,1.68,0,3.05-1,3.05-2.46v-.88a9.65,9.65,0,0,0-2.68-.39C-4398.55-2423.7-4399.5-2423-4399.5-2421.8Z" transform="translate(4698.91 2520.73)"/><path class="cls-4" d="M-4388.64-2419.09H-4390v-9.09h1.36v2.37a3.89,3.89,0,0,1,3.71-2.53v1.46h-.11c-2,0-3.6,1.42-3.6,4.17Z" transform="translate(4698.91 2520.73)"/><path class="cls-4" d="M-4375.94-2419.09v-1.83a4.09,4.09,0,0,1-3.48,2,4.44,4.44,0,0,1-4.35-4.73,4.47,4.47,0,0,1,4.35-4.75,4.1,4.1,0,0,1,3.48,1.94v-5.49h1.36v12.84Zm-3.24-8.07a3.22,3.22,0,0,0-3.2,3.51,3.28,3.28,0,0,0,3.2,3.54,3.39,3.39,0,0,0,3.29-3.54A3.38,3.38,0,0,0-4379.18-2427.16Z" transform="translate(4698.91 2520.73)"/><path class="cls-4" d="M-4371-2426.44l-.41-1.11a7.48,7.48,0,0,1,3.31-.76c2.48,0,3.87,1.27,3.87,3.66v5.56h-1.3v-1.37a4,4,0,0,1-3.29,1.56c-1.69,0-3.4-.94-3.4-2.85s1.59-2.95,3.89-2.95a9.63,9.63,0,0,1,2.8.39v-.32c0-1.64-1-2.48-2.71-2.48A6.25,6.25,0,0,0-4371-2426.44Zm.15,4.64c0,1.16,1.06,1.83,2.29,1.83,1.67,0,3-1,3-2.46v-.88a9.51,9.51,0,0,0-2.67-.39C-4369.92-2423.7-4370.87-2423-4370.87-2421.8Z" transform="translate(4698.91 2520.73)"/><path class="cls-4" d="M-4356.21-2419.09v-12.84h1.36v12.84Z" transform="translate(4698.91 2520.73)"/><path class="cls-4" d="M-4351.18-2426.44l-.4-1.11a7.48,7.48,0,0,1,3.31-.76c2.48,0,3.87,1.27,3.87,3.66v5.56h-1.3v-1.37a4,4,0,0,1-3.29,1.56c-1.69,0-3.4-.94-3.4-2.85s1.58-2.95,3.89-2.95a9.63,9.63,0,0,1,2.8.39v-.32c0-1.64-1-2.48-2.71-2.48A6.32,6.32,0,0,0-4351.18-2426.44Zm.16,4.64c0,1.16,1.06,1.83,2.29,1.83,1.67,0,3-1,3-2.46v-.88a9.51,9.51,0,0,0-2.67-.39C-4350.07-2423.7-4351-2423-4351-2421.8Z" transform="translate(4698.91 2520.73)"/><path class="cls-4" d="M-4336.25-2431.4h1.39v11h6.93v1.28h-8.32Z" transform="translate(4698.91 2520.73)"/><path class="cls-4" d="M-4319.13-2428.18h1.34v9.09h-1.34v-1.58a3.48,3.48,0,0,1-3.11,1.77,3.32,3.32,0,0,1-3.49-3.64v-5.64h1.36v5.31c0,1.69.91,2.74,2.51,2.74a2.69,2.69,0,0,0,2.73-2.85Z" transform="translate(4698.91 2520.73)"/><path class="cls-4" d="M-4313.39-2419.09h-1.36v-9.09h1.36v1.58a3.44,3.44,0,0,1,3.11-1.78,3.33,3.33,0,0,1,3.49,3.64v5.65h-1.36v-5.31c0-1.69-.91-2.75-2.51-2.75a2.68,2.68,0,0,0-2.73,2.85Z" transform="translate(4698.91 2520.73)"/><path class="cls-4" d="M-4303.38-2426.44l-.4-1.11a7.48,7.48,0,0,1,3.31-.76c2.48,0,3.87,1.27,3.87,3.66v5.56h-1.3v-1.37a4,4,0,0,1-3.29,1.56c-1.69,0-3.4-.94-3.4-2.85s1.58-2.95,3.89-2.95a9.63,9.63,0,0,1,2.8.39v-.32c0-1.64-1-2.48-2.71-2.48A6.32,6.32,0,0,0-4303.38-2426.44Zm.16,4.64c0,1.16,1.06,1.83,2.29,1.83,1.67,0,3-1,3-2.46v-.88a9.51,9.51,0,0,0-2.67-.39C-4302.27-2423.7-4303.22-2423-4303.22-2421.8Z" transform="translate(4698.91 2520.73)"/><path class="cls-4" d="M-4651.94-2398.94a3.78,3.78,0,0,0,2.87-1.28l.85.76a4.71,4.71,0,0,1-3.75,1.7,4.52,4.52,0,0,1-4.54-4.75,4.49,4.49,0,0,1,4.36-4.75c2.69,0,4.24,2.15,4.24,4.82,0,.13,0,.27,0,.43h-7.22A3.18,3.18,0,0,0-4651.94-2398.94Zm2.66-4.08c-.14-1.65-1.09-3.09-2.9-3.09a3.14,3.14,0,0,0-3,3.09Z" transform="translate(4698.91 2520.73)"/><path class="cls-4" d="M-4644.17-2398h-1.36v-9.09h1.36v1.58a3.46,3.46,0,0,1,3.11-1.78,3.33,3.33,0,0,1,3.49,3.65v5.64h-1.36v-5.31a2.42,2.42,0,0,0-2.52-2.74,2.67,2.67,0,0,0-2.72,2.85Z" transform="translate(4698.91 2520.73)"/><path class="cls-4" d="M-4622.1-2398v-1.83a4.11,4.11,0,0,1-3.49,2,4.44,4.44,0,0,1-4.34-4.74,4.47,4.47,0,0,1,4.34-4.75,4.13,4.13,0,0,1,3.49,1.94v-5.49h1.35V-2398Zm-3.24-8.07a3.21,3.21,0,0,0-3.2,3.52,3.27,3.27,0,0,0,3.2,3.53,3.39,3.39,0,0,0,3.29-3.53A3.38,3.38,0,0,0-4625.34-2406Z" transform="translate(4698.91 2520.73)"/><path class="cls-4" d="M-4617.19-2405.32l-.41-1.11a7.51,7.51,0,0,1,3.31-.76c2.48,0,3.87,1.27,3.87,3.66v5.56h-1.3v-1.37a4,4,0,0,1-3.29,1.57c-1.69,0-3.39-.95-3.39-2.85s1.58-3,3.88-3a9.63,9.63,0,0,1,2.8.39v-.32c0-1.64-1-2.48-2.71-2.48A6.28,6.28,0,0,0-4617.19-2405.32Zm.16,4.64c0,1.16,1.05,1.83,2.28,1.83,1.68,0,3.05-1,3.05-2.46v-.88a9.65,9.65,0,0,0-2.68-.39C-4616.08-2402.58-4617-2401.84-4617-2400.68Z" transform="translate(4698.91 2520.73)"/><path class="cls-4" d="M-4606.17-2398h-1.36v-9.09h1.36v2.37a3.9,3.9,0,0,1,3.71-2.53v1.46h-.11c-2,0-3.6,1.42-3.6,4.17Z" transform="translate(4698.91 2520.73)"/><path class="cls-4" d="M-4588.66-2407.06h1.33v9.09h-1.33v-1.58a3.49,3.49,0,0,1-3.12,1.78,3.32,3.32,0,0,1-3.48-3.65v-5.64h1.36v5.31c0,1.69.91,2.74,2.51,2.74a2.69,2.69,0,0,0,2.73-2.85Z" transform="translate(4698.91 2520.73)"/><path class="cls-4" d="M-4582.92-2398h-1.36v-9.09h1.36v1.58a3.46,3.46,0,0,1,3.11-1.78,3.33,3.33,0,0,1,3.49,3.65v5.64h-1.36v-5.31a2.42,2.42,0,0,0-2.52-2.74,2.67,2.67,0,0,0-2.72,2.85Z" transform="translate(4698.91 2520.73)"/><path class="cls-4" d="M-4572.91-2405.32l-.4-1.11a7.48,7.48,0,0,1,3.31-.76c2.48,0,3.87,1.27,3.87,3.66v5.56h-1.31v-1.37a4,4,0,0,1-3.29,1.57c-1.68,0-3.39-.95-3.39-2.85s1.58-3,3.89-3a9.51,9.51,0,0,1,2.79.39v-.32c0-1.64-1-2.48-2.7-2.48A6.32,6.32,0,0,0-4572.91-2405.32Zm.16,4.64c0,1.16,1.06,1.83,2.29,1.83,1.67,0,3-1,3-2.46v-.88a9.57,9.57,0,0,0-2.67-.39C-4571.8-2402.58-4572.75-2401.84-4572.75-2400.68Z" transform="translate(4698.91 2520.73)"/><path class="cls-4" d="M-4551.23-2407.06h1.46l-3.95,9.16h-1.2l-3.94-9.16h1.49l3.07,7.54Z" transform="translate(4698.91 2520.73)"/><path class="cls-4" d="M-4541.18-2407.06h1.34v9.09h-1.34v-1.58a3.46,3.46,0,0,1-3.11,1.78,3.32,3.32,0,0,1-3.48-3.65v-5.64h1.35v5.31a2.42,2.42,0,0,0,2.52,2.74,2.68,2.68,0,0,0,2.72-2.85Z" transform="translate(4698.91 2520.73)"/><path class="cls-4" d="M-4532.78-2398.94a3.78,3.78,0,0,0,2.87-1.28l.84.76a4.68,4.68,0,0,1-3.74,1.7,4.52,4.52,0,0,1-4.54-4.75,4.49,4.49,0,0,1,4.36-4.75c2.69,0,4.24,2.15,4.24,4.82a3.32,3.32,0,0,1,0,.43H-4536A3.18,3.18,0,0,0-4532.78-2398.94Zm2.66-4.08c-.14-1.65-1.09-3.09-2.91-3.09A3.13,3.13,0,0,0-4536-2403Z" transform="translate(4698.91 2520.73)"/><path class="cls-4" d="M-4526.25-2398v-12.84h1.36V-2398Z" transform="translate(4698.91 2520.73)"/><path class="cls-4" d="M-4519.91-2400.55a1.34,1.34,0,0,0,1.53,1.51,2.85,2.85,0,0,0,1.32-.32v1.16a3.4,3.4,0,0,1-1.64.39,2.32,2.32,0,0,1-2.57-2.57v-5.49h-1.26v-1.19h1.26v-2.75h1.36v2.75h2.88v1.19h-2.88Z" transform="translate(4698.91 2520.73)"/><path class="cls-4" d="M-4514.1-2405.32l-.41-1.11a7.48,7.48,0,0,1,3.31-.76c2.48,0,3.87,1.27,3.87,3.66v5.56h-1.3v-1.37a4,4,0,0,1-3.29,1.57c-1.69,0-3.4-.95-3.4-2.85s1.59-3,3.89-3a9.63,9.63,0,0,1,2.8.39v-.32c0-1.64-1-2.48-2.71-2.48A6.28,6.28,0,0,0-4514.1-2405.32Zm.15,4.64c0,1.16,1.06,1.83,2.29,1.83,1.67,0,3.05-1,3.05-2.46v-.88a9.65,9.65,0,0,0-2.68-.39C-4513-2402.58-4513.95-2401.84-4513.95-2400.68Z" transform="translate(4698.91 2520.73)"/><path class="cls-4" d="M-4498.63-2405.32l-.41-1.11a7.51,7.51,0,0,1,3.31-.76c2.48,0,3.87,1.27,3.87,3.66v5.56h-1.3v-1.37a4,4,0,0,1-3.29,1.57c-1.69,0-3.4-.95-3.4-2.85s1.59-3,3.89-3a9.63,9.63,0,0,1,2.8.39v-.32c0-1.64-1-2.48-2.71-2.48A6.28,6.28,0,0,0-4498.63-2405.32Zm.16,4.64c0,1.16,1.05,1.83,2.28,1.83,1.67,0,3-1,3-2.46v-.88a9.65,9.65,0,0,0-2.68-.39C-4497.52-2402.58-4498.47-2401.84-4498.47-2400.68Z" transform="translate(4698.91 2520.73)"/><path class="cls-4" d="M-4488.85-2398v-12.84h1.36V-2398Z" transform="translate(4698.91 2520.73)"/><path class="cls-4" d="M-4483-2398h-1.35v-9.09h1.35v2.37a3.9,3.9,0,0,1,3.72-2.53v1.46h-.11c-2,0-3.61,1.42-3.61,4.17Z" transform="translate(4698.91 2520.73)"/><path class="cls-4" d="M-4473.59-2398.94a3.78,3.78,0,0,0,2.87-1.28l.84.76a4.68,4.68,0,0,1-3.74,1.7,4.52,4.52,0,0,1-4.54-4.75,4.49,4.49,0,0,1,4.36-4.75c2.69,0,4.24,2.15,4.24,4.82a3.32,3.32,0,0,1,0,.43h-7.21A3.18,3.18,0,0,0-4473.59-2398.94Zm2.66-4.08c-.14-1.65-1.09-3.09-2.9-3.09a3.14,3.14,0,0,0-3,3.09Z" transform="translate(4698.91 2520.73)"/><path class="cls-4" d="M-4459.88-2398v-1.83a4.09,4.09,0,0,1-3.48,2,4.45,4.45,0,0,1-4.35-4.74,4.47,4.47,0,0,1,4.35-4.75,4.1,4.1,0,0,1,3.48,1.94v-5.49h1.36V-2398Zm-3.24-8.07a3.22,3.22,0,0,0-3.2,3.52,3.28,3.28,0,0,0,3.2,3.53,3.39,3.39,0,0,0,3.29-3.53A3.38,3.38,0,0,0-4463.12-2406Z" transform="translate(4698.91 2520.73)"/><path class="cls-4" d="M-4451.48-2398.94a3.78,3.78,0,0,0,2.87-1.28l.84.76a4.68,4.68,0,0,1-3.75,1.7,4.52,4.52,0,0,1-4.54-4.75,4.49,4.49,0,0,1,4.37-4.75c2.69,0,4.24,2.15,4.24,4.82a3.32,3.32,0,0,1,0,.43h-7.21A3.18,3.18,0,0,0-4451.48-2398.94Zm2.65-4.08c-.14-1.65-1.09-3.09-2.9-3.09a3.13,3.13,0,0,0-3,3.09Z" transform="translate(4698.91 2520.73)"/><path class="cls-4" d="M-4437.77-2398v-1.83a4.1,4.1,0,0,1-3.49,2,4.44,4.44,0,0,1-4.34-4.74,4.47,4.47,0,0,1,4.34-4.75,4.13,4.13,0,0,1,3.49,1.94v-5.49h1.35V-2398ZM-4441-2406a3.21,3.21,0,0,0-3.2,3.52,3.28,3.28,0,0,0,3.2,3.53,3.39,3.39,0,0,0,3.29-3.53A3.38,3.38,0,0,0-4441-2406Z" transform="translate(4698.91 2520.73)"/><path class="cls-4" d="M-4429.23-2397.76a4.66,4.66,0,0,1-4.72-4.73,4.71,4.71,0,0,1,4.75-4.77,4.68,4.68,0,0,1,4.73,4.74A4.72,4.72,0,0,1-4429.23-2397.76Zm0-8.3a3.34,3.34,0,0,0-3.33,3.54,3.41,3.41,0,0,0,3.36,3.55,3.35,3.35,0,0,0,3.34-3.52A3.43,3.43,0,0,0-4429.23-2406.06Z" transform="translate(4698.91 2520.73)"/><path class="cls-4" d="M-4420.66-2398H-4422v-9.09h1.36v2.37a3.9,3.9,0,0,1,3.71-2.53v1.46h-.11c-2,0-3.6,1.42-3.6,4.17Z" transform="translate(4698.91 2520.73)"/><path class="cls-4" d="M-4402.31-2398v-1.83a4.09,4.09,0,0,1-3.48,2,4.45,4.45,0,0,1-4.35-4.74,4.47,4.47,0,0,1,4.35-4.75,4.1,4.1,0,0,1,3.48,1.94v-5.49h1.36V-2398Zm-3.23-8.07a3.22,3.22,0,0,0-3.21,3.52,3.28,3.28,0,0,0,3.21,3.53,3.39,3.39,0,0,0,3.29-3.53A3.38,3.38,0,0,0-4405.54-2406Z" transform="translate(4698.91 2520.73)"/><path class="cls-4" d="M-4393.91-2398.94a3.78,3.78,0,0,0,2.87-1.28l.84.76a4.68,4.68,0,0,1-3.75,1.7,4.52,4.52,0,0,1-4.53-4.75,4.49,4.49,0,0,1,4.36-4.75c2.69,0,4.24,2.15,4.24,4.82a3.32,3.32,0,0,1,0,.43h-7.21A3.18,3.18,0,0,0-4393.91-2398.94Zm2.66-4.08c-.14-1.65-1.09-3.09-2.91-3.09a3.13,3.13,0,0,0-2.95,3.09Z" transform="translate(4698.91 2520.73)"/><path class="cls-4" d="M-4382.1-2398v-12.84h1.36V-2398Z" transform="translate(4698.91 2520.73)"/><path class="cls-4" d="M-4377.07-2405.32l-.4-1.11a7.48,7.48,0,0,1,3.31-.76c2.48,0,3.87,1.27,3.87,3.66v5.56h-1.3v-1.37a4,4,0,0,1-3.29,1.57c-1.69,0-3.4-.95-3.4-2.85s1.58-3,3.89-3a9.63,9.63,0,0,1,2.8.39v-.32c0-1.64-1-2.48-2.71-2.48A6.32,6.32,0,0,0-4377.07-2405.32Zm.16,4.64c0,1.16,1.06,1.83,2.29,1.83,1.67,0,3-1,3-2.46v-.88a9.51,9.51,0,0,0-2.67-.39C-4376-2402.58-4376.91-2401.84-4376.91-2400.68Z" transform="translate(4698.91 2520.73)"/><path class="cls-4" d="M-4357.23-2398h-1.41v-11h-4.13v-1.28h9.67v1.28h-4.13Z" transform="translate(4698.91 2520.73)"/><path class="cls-4" d="M-4351.24-2409v-1.5h1.54v1.5Zm.08,11.08v-9.09h1.36v9.09Z" transform="translate(4698.91 2520.73)"/><path class="cls-4" d="M-4342.64-2398.94a3.78,3.78,0,0,0,2.87-1.28l.84.76a4.68,4.68,0,0,1-3.75,1.7,4.52,4.52,0,0,1-4.53-4.75,4.49,4.49,0,0,1,4.36-4.75c2.69,0,4.24,2.15,4.24,4.82a3.32,3.32,0,0,1,0,.43h-7.21A3.18,3.18,0,0,0-4342.64-2398.94Zm2.66-4.08c-.14-1.65-1.09-3.09-2.91-3.09a3.13,3.13,0,0,0-2.95,3.09Z" transform="translate(4698.91 2520.73)"/><path class="cls-4" d="M-4334.88-2398h-1.35v-9.09h1.35v2.37a3.9,3.9,0,0,1,3.72-2.53v1.46h-.11c-2,0-3.61,1.42-3.61,4.17Z" transform="translate(4698.91 2520.73)"/><path class="cls-4" d="M-4327.75-2398h-1.35v-9.09h1.35v2.37a3.9,3.9,0,0,1,3.71-2.53v1.46h-.1c-2,0-3.61,1.42-3.61,4.17Z" transform="translate(4698.91 2520.73)"/><path class="cls-4" d="M-4321.89-2405.32l-.4-1.11a7.48,7.48,0,0,1,3.31-.76c2.48,0,3.87,1.27,3.87,3.66v5.56h-1.31v-1.37a4,4,0,0,1-3.29,1.57c-1.68,0-3.39-.95-3.39-2.85s1.58-3,3.89-3a9.51,9.51,0,0,1,2.79.39v-.32c0-1.64-1-2.48-2.7-2.48A6.32,6.32,0,0,0-4321.89-2405.32Zm.16,4.64c0,1.16,1.06,1.83,2.29,1.83,1.67,0,3-1,3-2.46v-.88a9.57,9.57,0,0,0-2.67-.39C-4320.78-2402.58-4321.73-2401.84-4321.73-2400.68Z" transform="translate(4698.91 2520.73)"/><path class="cls-4" d="M-4312.38-2398v-1.84h1.62v1.84Z" transform="translate(4698.91 2520.73)"/><path class="cls-4" d="M-4628.31-2327.06l34.41-42.91h-81.27c-13.09,0-23.74-15.21-23.74-33.91v-80.57c0-18.7,10.65-33.92,23.74-33.92h380.33c13.09,0,23.74,15.22,23.74,33.92v80.57c0,18.7-10.65,33.91-23.74,33.91h-253.25Zm-46.86-190.24c-12.5,0-22.67,14.73-22.67,32.85v80.57c0,18.11,10.17,32.85,22.67,32.85h83.49l-32.53,40.57,75.85-40.57h253.52c12.5,0,22.67-14.74,22.67-32.85v-80.57c0-18.12-10.17-32.85-22.67-32.85Z" transform="translate(4698.91 2520.73)"/></g></g></svg>