<svg xmlns="http://www.w3.org/2000/svg" viewBox="0 0 383.08 325.77"><defs><style>.cls-1,.cls-3,.cls-4{fill:none;stroke:#41f7e6;stroke-miterlimit:10;}.cls-1{stroke-width:14px;}.cls-2{fill:#41f7e6;}.cls-3{stroke-width:4px;}.cls-4{stroke-linecap:round;stroke-width:7px;}</style></defs><title>Asset 109ldpi</title><g id="Layer_2" data-name="Layer 2"><g id="AVISO_MONEDAS_copia_2" data-name="AVISO MONEDAS copia 2"><ellipse class="cls-1" cx="192.23" cy="162.88" rx="176.25" ry="155.88"/><rect class="cls-1" x="58.35" y="94.54" width="271.99" height="172.69" rx="86.35"/><circle class="cls-2" cx="141.32" cy="158.88" r="15.33"/><ellipse class="cls-3" cx="141.32" cy="158.88" rx="34.17" ry="22"/><circle class="cls-2" cx="243.82" cy="158.88" r="15.33"/><ellipse class="cls-3" cx="243.82" cy="158.88" rx="34.17" ry="22"/><path class="cls-2" d="M139,212.91a116,116,0,0,0,24.36,9.21,97.72,97.72,0,0,0,12.53,2.37c1,.17,2.1.26,3.15.33s2.11.21,3.16.27l3.17.11c1,.07,2.11.06,3.17,0A103.33,103.33,0,0,0,213.62,222,127.82,127.82,0,0,0,238,212.91a62.45,62.45,0,0,1-22.63,14.56,72.7,72.7,0,0,1-26.89,4.8c-2.29.08-4.58-.18-6.86-.32-1.15-.11-2.28-.28-3.42-.42s-2.26-.32-3.38-.56a73.41,73.41,0,0,1-13.15-3.73A66,66,0,0,1,139,212.91Z"/><path class="cls-2" d="M140.84,123.9a86.49,86.49,0,0,0-13.78,5,78.3,78.3,0,0,0-12.57,7.63,73.17,73.17,0,0,0-10.71,10.11A62.57,62.57,0,0,0,95.68,159a53,53,0,0,0-4.78,14A53.7,53.7,0,0,0,90,187.88a61.58,61.58,0,0,0,1,7.49,67.82,67.82,0,0,0,8.5,21.26v0a1.91,1.91,0,0,1-3.19,2.08,73.3,73.3,0,0,1-7.94-14.26,71.55,71.55,0,0,1-2.75-7.77,69.79,69.79,0,0,1-1.74-8.12,62.78,62.78,0,0,1,4.07-33,72.49,72.49,0,0,1,8.24-14.77A83.66,83.66,0,0,1,107.7,128.3a89.75,89.75,0,0,1,13.84-9.85,97.24,97.24,0,0,1,15.54-7,6.51,6.51,0,1,1,4.36,12.26l-.42.13Z"/><path class="cls-4" d="M11.3,187.84C-2.09,205.63,2.16,238.17,21,264.71c19.71,27.8,50.36,41.92,71,32.17"/><path class="cls-4" d="M371.78,187.84c13.39,17.79,9.15,50.33-9.67,76.87-19.7,27.8-50.36,41.92-71,32.17"/></g></g></svg>