<svg xmlns="http://www.w3.org/2000/svg" viewBox="0 0 86.68 67.62"><defs><style>.cls-1{fill:#41f7e6;}</style></defs><title>Asset 116ldpi</title><g id="Layer_2" data-name="Layer 2"><g id="Capa_23_copia_2" data-name="Capa 23 copia 2"><path class="cls-1" d="M2.31,14.23l0,44.91L.15,58.56h0a27.79,27.79,0,0,1,3.91-5.22,27.16,27.16,0,0,1,5-4.16,23.77,23.77,0,0,1,12.56-3.83,25.14,25.14,0,0,1,12.84,3.29A26.15,26.15,0,0,1,44,58h0l-4.28,1.13a85.67,85.67,0,0,1-.67-11.3c0-3.76.17-7.53.3-11.29s.33-7.53.57-11.3.54-7.53.92-11.29l.12.51h0a3,3,0,0,0-.68-3.18,22.42,22.42,0,0,0-2-2.48,21.67,21.67,0,0,0-4.9-4,22.49,22.49,0,0,0-11.8-3A21.9,21.9,0,0,0,10.21,5.52a24,24,0,0,0-4.56,4,13.37,13.37,0,0,0-1,1.17,12,12,0,0,0-.9,1.22c-.26.41-.6.87-.8,1.24S2.55,13.87,2.31,14.23ZM0,13.69c.28-.57.58-1.13.88-1.69s.62-.95.93-1.43a14.61,14.61,0,0,1,1-1.35A14.5,14.5,0,0,1,3.91,7.94,25.13,25.13,0,0,1,9,3.65,23.25,23.25,0,0,1,21.62,0a19.69,19.69,0,0,1,6.51,1.1,21.65,21.65,0,0,1,5.74,3.1,31.11,31.11,0,0,1,4.64,4.46c.68.82,1.35,1.65,2,2.52a7.07,7.07,0,0,0,1,1.28,4.26,4.26,0,0,0,1.66,1h0l.08.13,0,.39q.57,5.64.92,11.29c.24,3.77.42,7.53.57,11.3s.28,7.53.3,11.29a85.67,85.67,0,0,1-.67,11.3l-1.16,8.48-3.12-7.35h0a22,22,0,0,0-7.62-8.17,21.52,21.52,0,0,0-10.79-3.28,20.69,20.69,0,0,0-11,2.84A25.23,25.23,0,0,0,2.2,59.71h0L0,63.42V59.14Z"/><path class="cls-1" d="M86.65,13.69l0,45.45v4.28l-2.19-3.71h0a25.35,25.35,0,0,0-8.42-8.06,20.69,20.69,0,0,0-11-2.84,21.52,21.52,0,0,0-10.79,3.28,22,22,0,0,0-7.62,8.17h0L43.5,67.62l-1.16-8.48a85.67,85.67,0,0,1-.67-11.3c0-3.76.18-7.53.3-11.29s.33-7.53.57-11.3.54-7.53.92-11.29l0-.39.08-.13h0a4.26,4.26,0,0,0,1.66-1,7.07,7.07,0,0,0,1-1.28c.61-.87,1.28-1.7,2-2.52A31.11,31.11,0,0,1,52.81,4.2a21.65,21.65,0,0,1,5.74-3.1A19.69,19.69,0,0,1,65.06,0,23.25,23.25,0,0,1,77.69,3.65a25.13,25.13,0,0,1,5.08,4.29,14.62,14.62,0,0,1,1.08,1.28,16.61,16.61,0,0,1,1,1.35c.31.48.62.88.93,1.43S86.36,13.12,86.65,13.69Zm-2.28.54c-.24-.36-.46-.73-.67-1.1s-.53-.83-.8-1.24a12,12,0,0,0-.9-1.22A13.37,13.37,0,0,0,81,9.5a24,24,0,0,0-4.56-4A21.84,21.84,0,0,0,65,1.83a22.49,22.49,0,0,0-11.8,3,21.9,21.9,0,0,0-4.9,4,23.65,23.65,0,0,0-2,2.48,3,3,0,0,0-.68,3.18h0L45.8,14q.57,5.64.92,11.29c.24,3.77.42,7.53.57,11.3s.28,7.53.3,11.29a85.67,85.67,0,0,1-.67,11.3L42.64,58h0a26.18,26.18,0,0,1,9.56-9.37A25.09,25.09,0,0,1,65,45.35a23.76,23.76,0,0,1,12.55,3.83,27.86,27.86,0,0,1,8.94,9.38h0l-2.19.58Z"/></g></g></svg>