<svg xmlns="http://www.w3.org/2000/svg" viewBox="0 0 1312 195.46"><defs><style>.cls-1{font-size:83px;font-family:ErasITC-Bold, Eras Bold ITC;font-weight:700;}.cls-1,.cls-2{fill:#1e4b9f;}</style></defs><title>Asset 107ldpi</title><g id="Layer_2" data-name="Layer 2"><g id="CORRECTO"><text class="cls-1" transform="translate(436.62 141.34) scale(0.92 1)">CORRECTO</text><path class="cls-2" d="M962.61,96.68l52.13,63.24-21.1,5.73h0a310.14,310.14,0,0,1,15-48.43c.81-2,1.57-3.91,2.42-5.83l2.53-5.78c1.79-3.81,3.54-7.62,5.47-11.35s3.91-7.42,5.91-11.1,4.16-7.26,6.42-10.78a264.43,264.43,0,0,1,30.13-39.65A246.35,246.35,0,0,1,1098.34,0a242.46,242.46,0,0,0-32.16,36.53,255.27,255.27,0,0,0-24.24,41.59c-1.73,3.59-3.25,7.29-4.82,10.95s-3,7.39-4.29,11.16-2.59,7.52-3.82,11.28l-1.71,5.71c-.57,1.89-1,3.82-1.58,5.73a289.61,289.61,0,0,0-8.39,46.52h0l-4.4,26-16.71-20.27L944.09,112a12,12,0,0,1,18.52-15.27Z"/></g></g></svg>