<?xml version="1.0" encoding="utf-8"?>
<!-- Generator: Adobe Illustrator 24.0.0, SVG Export Plug-In . SVG Version: 6.00 Build 0)  -->
<svg version="1.1" id="Layer_1" xmlns="http://www.w3.org/2000/svg" xmlns:xlink="http://www.w3.org/1999/xlink" x="0px" y="0px"
	 viewBox="0 0 72.8 67.2" style="enable-background:new 0 0 72.8 67.2;" xml:space="preserve">
<style type="text/css">
	.st0{fill:none;stroke:#000000;stroke-width:5.83;stroke-linecap:round;stroke-miterlimit:10;}
</style>
<title>Asset 113ldpi</title>
<g id="Layer_2_1_">
	<g id="Capa_23_copia_2">
		<path d="M36.9,0L36.9,0c4.1,0,7.3,3.3,7.3,7.3v29.3c0,4-3.3,7.3-7.3,7.3h0c-4,0-7.3-3.3-7.3-7.3V7.3C29.6,3.3,32.9,0,36.9,0z"/>
		<path d="M50.7,33l-27.6,0.1c-3.8,0-6.1,3.1-4.2,5.6l13.9,18.2c1.9,2.5,6.6,2.5,8.4,0L55,38.6C56.8,36.1,54.5,33,50.7,33z"/>
		<polyline class="st0" points="69.9,55 69.9,64.3 35.9,64.3 		"/>
		<polyline class="st0" points="2.9,55 2.9,64.3 36.9,64.3 		"/>
	</g>
</g>
</svg>
