<svg xmlns="http://www.w3.org/2000/svg" viewBox="0 0 1312 185.35"><defs><style>.cls-1{font-size:83px;font-family:ErasITC-Bold, Eras Bold ITC;font-weight:700;}.cls-1,.cls-2{fill:#f6505b;}</style></defs><title>Asset 108ldpi</title><g id="Layer_2" data-name="Layer 2"><g id="INCORRECTO"><text class="cls-1" transform="translate(392.4 136.13) scale(0.92 1)">INCORRECTO</text><path class="cls-2" d="M1105.94,27.07c-11.08,10.89-22,21.67-32.4,33.26a286.42,286.42,0,0,0-28.67,37.16c-2.21,3.29-4.21,6.7-6.28,10.09-1,1.71-1.95,3.45-2.94,5.18s-2,3.47-2.89,5.22c-1.94,3.49-3.7,7.07-5.51,10.65s-3.44,7.24-5.07,10.92c-.85,1.83-1.62,3.69-2.41,5.54l-1.18,2.79-1.12,2.81c-.74,1.88-1.52,3.76-2.22,5.65s-1.46,3.79-2.13,5.71q-4.14,11.46-7.64,23.3a251.47,251.47,0,0,1,6.71-49.15,248.07,248.07,0,0,1,7-24.12,244.63,244.63,0,0,1,9.33-23.49,242,242,0,0,1,11.64-22.65,228.82,228.82,0,0,1,14.05-21.43A174.76,174.76,0,0,1,1071,25.06a142.51,142.51,0,0,1,19.73-16.55A12,12,0,0,1,1106,27Z"/><path class="cls-2" d="M1067.09,167.8c-5.65-13.93-10.24-28.09-14.91-42.3l-3.46-10.68c-1.13-3.57-2.37-7.1-3.56-10.66s-2.48-7.08-3.72-10.63L1037.55,83q-8-21.11-17.38-41.83l-2.33-5.19-2.46-5.14c-1.65-3.42-3.21-6.91-5-10.29l-2.55-5.13c-.84-1.71-1.67-3.45-2.57-5.13-1.79-3.38-3.53-6.8-5.27-10.24,2.59,2.83,5.18,5.69,7.73,8.58s5,5.87,7.43,8.85,4.83,6,7.19,9.09l3.51,4.62,3.39,4.7A439.8,439.8,0,0,1,1054.41,75c1.9,3.39,3.86,6.76,5.68,10.19s3.67,6.87,5.43,10.34,3.49,7,5.17,10.47l2.48,5.29c.83,1.77,1.64,3.53,2.39,5.33a228.76,228.76,0,0,1,14.52,44.3,12,12,0,0,1-23,7Z"/></g></g></svg>