<?xml version="1.0" standalone="no"?>
<!DOCTYPE svg PUBLIC "-//W3C//DTD SVG 20010904//EN"
 "http://www.w3.org/TR/2001/REC-SVG-20010904/DTD/svg10.dtd">
<svg version="1.0" xmlns="http://www.w3.org/2000/svg"
 width="310.000000pt" height="194.000000pt" viewBox="0 0 310.000000 194.000000"
 preserveAspectRatio="xMidYMid meet">

<g transform="translate(0.000000,194.000000) scale(0.100000,-0.100000)"
fill="#000000" stroke="none">
<path d="M2642 1758 c-18 -18 -15 -38 6 -38 21 0 42 18 42 37 0 16 -32 17 -48
1z"/>
<path d="M2430 1699 c0 -14 5 -19 17 -17 26 5 29 38 4 38 -15 0 -21 -6 -21
-21z"/>
<path d="M2407 1599 c-162 -109 -207 -131 -207 -100 0 6 47 42 105 81 95 64
128 100 91 100 -8 0 -87 -49 -177 -110 -89 -60 -173 -110 -185 -110 -54 0
-120 -45 -150 -102 -18 -35 -18 -111 1 -147 34 -67 122 -109 199 -97 55 9 101
40 135 90 21 30 74 71 185 145 145 97 181 131 139 131 -10 0 -62 -30 -115 -66
-90 -61 -128 -74 -128 -44 0 5 106 81 235 167 130 86 234 161 232 167 -2 6
-10 12 -18 14 -8 1 -117 -67 -243 -153 -188 -127 -232 -153 -244 -143 -19 16
2 33 197 163 97 65 150 106 151 118 0 9 -6 17 -12 16 -7 0 -93 -54 -191 -120z
m-422 -172 c-11 -7 -34 -26 -51 -43 -87 -83 -29 -227 99 -250 23 -4 37 -9 30
-11 -21 -8 -92 17 -123 43 -60 51 -76 122 -44 191 16 32 77 84 99 82 5 0 1 -6
-10 -12z m93 -78 c19 -6 35 -22 43 -40 10 -26 9 -34 -8 -57 -27 -37 -77 -41
-109 -11 -38 35 -29 80 21 107 11 6 20 12 21 12 1 0 15 -5 32 -11z m106 -170
c-24 -26 -67 -49 -91 -48 -10 0 -5 5 12 10 17 5 44 20 60 33 37 31 44 33 19 5z"/>
<path d="M2592 1524 c-25 -17 -29 -44 -8 -44 8 0 24 8 36 18 19 15 20 20 8 30
-11 9 -19 8 -36 -4z"/>
</g>
</svg>
