<svg xmlns="http://www.w3.org/2000/svg" viewBox="0 0 106.08 91.51"><title>Asset 120ldpi</title><g id="Layer_2" data-name="Layer 2"><g id="REDES"><path d="M106.23,21V93.64c-.13.46-.25.93-.4,1.39a11.65,11.65,0,0,1-5.2,6.7A10.33,10.33,0,0,1,95.18,103H11.25a10,10,0,0,1-7.33-2.76A11.18,11.18,0,0,1,.17,92q0-34.62,0-69.23A11.43,11.43,0,0,1,11.33,11.53c27.94.12,55.88.07,83.82,0a10.57,10.57,0,0,1,9.59,5.56A16.79,16.79,0,0,1,106.23,21ZM95.46,57.34V28.67c0-1.32,0-2.63,0-3.94s-.09-1.43-1.39-1.44c-1.1,0-2.21,0-3.31,0a4.34,4.34,0,0,0-2.81.79q-5.64,3.84-11.31,7.61c-2.32,1.55-4.73,3-7,4.58-1.55,1.11-3.18,2.06-4.75,3.12l-11,7.37a1.19,1.19,0,0,1-1.43,0c-.91-.56-1.74-1.24-2.63-1.82-2.9-1.86-5.72-3.82-8.59-5.72C36.85,36.29,32.42,33.39,28,30.4c-2.39-1.63-4.85-3.15-7.28-4.72a4.86,4.86,0,0,1-.59-.42c-1.53-1.33-3.18-2.27-5.32-2a15.88,15.88,0,0,1-2.07,0c-1.79,0-1.79,0-1.79,1.77v64.8c0,1.39.08,1.46,1.48,1.46q3.57,0,7.14,0c1.67,0,1.67,0,1.67-1.64V43.41c0-.35,0-.7,0-1s-.1-.68.2-.86.65.12.92.31c.45.31.85.7,1.3,1,3.33,2.27,6.68,4.51,10,6.77,2.45,1.67,4.86,3.37,7.32,5,3.79,2.57,7.61,5.1,11.4,7.67a1.26,1.26,0,0,0,1.59,0c2.77-1.81,5.46-3.73,8.19-5.59,2.9-2,5.82-3.93,8.7-5.93,3.77-2.61,7.6-5.11,11.4-7.66.34-.23.64-.53,1-.77.5-.34,1-1,1.58-.81s.29,1,.29,1.6q0,23.39,0,46.78c0,1.37,0,1.42,1.38,1.42,2.42,0,4.83,0,7.25,0,1.65,0,1.66,0,1.66-1.69Z" transform="translate(-0.15 -11.53)"/></g></g></svg>