<svg xmlns="http://www.w3.org/2000/svg" viewBox="0 0 51.88 84.76"><defs><style>.cls-1{fill:#41f7e6;}</style></defs><title>Asset 114ldpi</title><g id="Layer_2" data-name="Layer 2"><g id="Capa_23_copia_2" data-name="Capa 23 copia 2"><path class="cls-1" d="M.36,25.13A17.73,17.73,0,0,1,0,20.75a18.83,18.83,0,0,1,.83-4.42,18.22,18.22,0,0,1,1.9-4.17A21.71,21.71,0,0,1,5.53,8.44,25.28,25.28,0,0,1,9,5.34a27,27,0,0,1,4.05-2.41A29.13,29.13,0,0,1,22.15.26,29.35,29.35,0,0,1,41,4a23.27,23.27,0,0,1,7.39,7.29,23.52,23.52,0,0,1,3.35,9.89,25.28,25.28,0,0,1-1.05,10.29,22.07,22.07,0,0,1-5.54,9.15A14.61,14.61,0,0,1,43,42.39a13.72,13.72,0,0,1-1.13.8l-1.2.67A16.17,16.17,0,0,1,38.24,45a20.19,20.19,0,0,1-2.46.81,50.24,50.24,0,0,1-9.24,1.42,58.11,58.11,0,0,0-7.83,1A11.34,11.34,0,0,0,13.07,51a10.23,10.23,0,0,0-2.92,5.59A24.32,24.32,0,0,0,10,64.1v.05a2.56,2.56,0,0,1-5,1.1,25.5,25.5,0,0,1-1.39-9.47,16.8,16.8,0,0,1,3.81-9.89c.59-.71,1.29-1.33,1.95-2s1.48-1.1,2.24-1.62,1.59-.87,2.4-1.22,1.63-.66,2.42-.88a54.91,54.91,0,0,1,9.1-1.73,49.43,49.43,0,0,0,7.67-1.41,13.1,13.1,0,0,0,5.47-3c2.85-2.77,4.46-7.57,4.11-12a14.93,14.93,0,0,0-6.24-11.3,21.75,21.75,0,0,0-6.49-3.09,27.83,27.83,0,0,0-7.48-1A25.85,25.85,0,0,0,15,7.76,22.27,22.27,0,0,0,8.1,11.27,18.8,18.8,0,0,0,.36,25.13Z"/><ellipse class="cls-1" cx="8.58" cy="77.76" rx="8.27" ry="7"/></g></g></svg>