<svg xmlns="http://www.w3.org/2000/svg" viewBox="0 0 133.39 71.19"><defs><style>.cls-1,.cls-2{fill:none;stroke:#11efd4;stroke-miterlimit:10;stroke-width:4px;}.cls-2{stroke-dasharray:8.74 8.74;}.cls-3{fill:#3dffff;}</style></defs><title>Asset 108ldpi</title><g id="Layer_2" data-name="Layer 2"><g id="Capa_21_copia" data-name="Capa 21 copia"><path d="M66.83,0H11.58C5.21,0,0,4,0,8.9V19.21c1.51.26,8.83,1.62,13.42,7.08a13.52,13.52,0,0,1,3.29,9.86,13.2,13.2,0,0,1-5.4,11.38A22.35,22.35,0,0,1,0,51.77V62.29c0,6.68,10.4,8.55,11.58,8.9H66.8"/><path d="M66.56,0h55.25c6.37,0,11.58,4,11.58,8.9V19.21c-1.52.26-8.84,1.62-13.42,7.08a13.52,13.52,0,0,0-3.29,9.86,13.17,13.17,0,0,0,5.4,11.38,22.35,22.35,0,0,0,11.31,4.24V62.29c0,6.68-10.4,8.55-11.58,8.9H66.58"/><line class="cls-1" x1="84.89" x2="84.89" y2="5"/><line class="cls-2" x1="84.89" y1="13.74" x2="84.89" y2="61.82"/><line class="cls-1" x1="84.89" y1="66.19" x2="84.89" y2="71.19"/><polygon class="cls-3" points="74.01 30.17 61.68 42.05 64.68 58.89 49.35 50.88 34.09 58.77 36.94 41.94 24.52 29.97 41.6 27.58 49.19 12.3 56.9 27.65 74.01 30.17"/></g></g></svg>